<svg id="Layer_1" data-name="Layer 1" xmlns="http://www.w3.org/2000/svg" width="12in" height="12in" viewBox="0 0 864 864">
  <path d="M801.10583,728.21876a26.00108,26.00108,0,0,1-26.01162-45.02232l-18.667-32.31034a25.98427,25.98427,0,0,1-25.97344-44.95656l-18.7052-32.374a25.99052,25.99052,0,0,1-25.93525-44.89291L667.072,496.2229a26.01012,26.01012,0,0,1-25.8907-44.81018l-11.2821-19.52834-7.53342-13.0387a25.99282,25.99282,0,0,1-25.78675-44.63409l-18.928-32.76434a25.98677,25.98677,0,0,1-25.67431-44.43679l-19.04252-32.96163a26.00652,26.00652,0,0,1-25.55975-44.2395L488.209,186.63343a26.00518,26.00518,0,0,1-25.40488-43.97219L431.79846,88.996l-29.85789,51.74957a26.00994,26.00994,0,0,1-25.861,44.82291l-18.7243,32.4546a25.992,25.992,0,0,1-25.90555,44.9014l-18.69035,32.39307a25.98469,25.98469,0,0,1-25.94162,44.96292l-18.65429,32.33368a25.99571,25.99571,0,0,1-25.97768,45.02232l-8.28655,14.36251-10.33167,17.90964a26.01649,26.01649,0,0,1-25.73371,45.22387c-.09123-.053-.17184-.11456-.26307-.1676l-18.631,32.29125c.17821.09546.36278.16971.53886.26942a26.01828,26.01828,0,1,1-25.65521,45.27266c-.29489-.16547-.5622-.36065-.8486-.53885L134.31,604.61209c.38612.19518.77859.3649,1.15834.58129A26.01828,26.01828,0,1,1,109.81311,650.466c-.49856-.28216-.961-.60038-1.43413-.91012L89.678,681.96809c.59826.28,1.19652.5622,1.77993.89315A26.01828,26.01828,0,1,1,65.80273,728.1339c-.70221-.39884-1.37048-.83162-2.01966-1.2835L36,775.004l56.01166-.01485a26.01694,26.01694,0,0,1,52.03386-.017l37.23644-.01061a26.01591,26.01591,0,0,1,52.03174-.01485l37.24068-.0106a26.01491,26.01491,0,0,1,52.02962-.01485l37.24069-.01273a26.01393,26.01393,0,0,1,52.02749-.01485L432,774.88736l17.09711-.00424a26.01191,26.01191,0,0,1,52.02325-.01485l37.247-.01061a26.011,26.011,0,0,1,52.02113-.017l37.2513-.01061a26.01008,26.01008,0,0,1,52.019-.01485l37.25129-.01061a26.0092,26.0092,0,0,1,52.01689-.01485L828,774.77068ZM432,714.28267l-284.25672.08274L289.79951,468.14918,431.85574,221.93507,574.05623,468.06644,716.25672,714.19781Z"/>
</svg>
