<svg id="Layer_1" data-name="Layer 1" xmlns="http://www.w3.org/2000/svg" width="12in" height="12in" viewBox="0 0 864 864">
  <path d="M750.71262,68.00757V36H718.63407c.02875.46185.07008.9201.07008,1.38913a22.03969,22.03969,0,0,1-44.07937,0c0-.469.04133-.92728.071-1.38913h-31.6805c.02965.46185.071.9201.071,1.38913a22.03969,22.03969,0,0,1-44.07937,0c0-.469.04133-.92728.07008-1.38913h-31.6796c.02875.46185.07008.9201.07008,1.38913a22.03969,22.03969,0,0,1-44.07937,0c0-.469.04133-.92728.07009-1.38913H491.77855c.02876.46185.07009.9201.07009,1.38913a22.03969,22.03969,0,0,1-44.07937,0c0-.469.04133-.92728.07008-1.38913h-31.6787c.02875.46185.07008.9201.07008,1.38913a22.04014,22.04014,0,0,1-44.08027,0c0-.469.04134-.92728.071-1.38913H340.54184c.02876.46185.07009.9201.07009,1.38913a22.03969,22.03969,0,0,1-44.07937,0c0-.469.04133-.92728.07008-1.38913H264.923c.02875.46185.07008.9201.07008,1.38913a22.03969,22.03969,0,0,1-44.07937,0c0-.469.04134-.92728.07009-1.38913h-31.6796c.02875.46185.07008.9201.07008,1.38913a22.03969,22.03969,0,0,1-44.07937,0c0-.469.04133-.92728.071-1.38913H113.28738V68.00757a22.03924,22.03924,0,1,1,0,44.07847v31.54033a22.03924,22.03924,0,1,1,0,44.07848v31.53853a22.04013,22.04013,0,1,1,0,44.08027v31.53853a22.04014,22.04014,0,1,1,0,44.08027V370.481a22.04014,22.04014,0,1,1,0,44.08027v31.53853a22.04014,22.04014,0,1,1,0,44.08027V521.7186a22.03924,22.03924,0,1,1,0,44.07847V597.3374a22.03924,22.03924,0,1,1,0,44.07847V672.9562a22.03924,22.03924,0,1,1,0,44.07848v31.53853a22.04014,22.04014,0,1,1,0,44.08027V828H145.295a22.03969,22.03969,0,0,1,44.07937,0h31.53943a22.03969,22.03969,0,0,1,44.07937,0h31.53944a22.03969,22.03969,0,0,1,44.07937,0h31.53853a22.04014,22.04014,0,0,1,44.08027,0h31.53854a22.03969,22.03969,0,0,1,44.07937,0h31.53943a22.03969,22.03969,0,0,1,44.07937,0h31.53944a22.03969,22.03969,0,0,1,44.07937,0h31.53853a22.03969,22.03969,0,0,1,44.07937,0h32.00847V792.65348a22.04014,22.04014,0,1,1,0-44.08027V717.03468a22.03924,22.03924,0,1,1,0-44.07848V641.41587a22.03924,22.03924,0,1,1,0-44.07847V565.79707a22.03924,22.03924,0,1,1,0-44.07847V490.18006a22.04013,22.04013,0,1,1,0-44.08027V414.56126a22.04013,22.04013,0,1,1,0-44.08027V338.94245a22.04014,22.04014,0,1,1,0-44.08027V263.32365a22.04014,22.04014,0,1,1,0-44.08027V187.70485a22.03924,22.03924,0,1,1,0-44.07848V112.086a22.03924,22.03924,0,1,1,0-44.07847ZM701.0273,776.47448H162.9727V87.52552H701.0273Z"/>
</svg>
