  0
SECTION
  2
HEADER
  9
$ACADVER
  1
AC1024
  9
$ACADMAINTVER
 70
     6
  9
$DWGCODEPAGE
  3
UNDEFINED
  9
$INSBASE
 10
0.0
 20
0.0
 30
0.0
  9
$EXTMIN
 10
1.000000000000000E+20
 20
1.000000000000000E+20
 30
1.000000000000000E+20
  9
$EXTMAX
 10
-1.000000000000000E+20
 20
-1.000000000000000E+20
 30
-1.000000000000000E+20
  9
$LIMMIN
 10
0.0
 20
0.0
  9
$LIMMAX
 10
12.0
 20
9.0
  9
$ORTHOMODE
 70
     0
  9
$REGENMODE
 70
     1
  9
$FILLMODE
 70
     1
  9
$QTEXTMODE
 70
     0
  9
$MIRRTEXT
 70
     1
  9
$LTSCALE
 40
1.0
  9
$ATTMODE
 70
     1
  9
$TEXTSIZE
 40
0.2
  9
$TRACEWID
 40
0.05
  9
$TEXTSTYLE
  7
Standard
  9
$CLAYER
  8
0
  9
$CELTYPE
  6
ByLayer
  9
$CECOLOR
 62
   256
  9
$CELTSCALE
 40
1.0
  9
$DISPSILH
 70
     0
  9
$DIMSCALE
 40
1.0
  9
$DIMASZ
 40
0.18
  9
$DIMEXO
 40
0.0625
  9
$DIMDLI
 40
0.38
  9
$DIMRND
 40
0.0
  9
$DIMDLE
 40
0.0
  9
$DIMEXE
 40
0.18
  9
$DIMTP
 40
0.0
  9
$DIMTM
 40
0.0
  9
$DIMTXT
 40
0.18
  9
$DIMCEN
 40
0.09
  9
$DIMTSZ
 40
0.0
  9
$DIMTOL
 70
     0
  9
$DIMLIM
 70
     0
  9
$DIMTIH
 70
     1
  9
$DIMTOH
 70
     1
  9
$DIMSE1
 70
     0
  9
$DIMSE2
 70
     0
  9
$DIMTAD
 70
     0
  9
$DIMZIN
 70
     0
  9
$DIMBLK
  1

  9
$DIMASO
 70
     1
  9
$DIMSHO
 70
     1
  9
$DIMPOST
  1

  9
$DIMAPOST
  1

  9
$DIMALT
 70
     0
  9
$DIMALTD
 70
     2
  9
$DIMALTF
 40
25.4
  9
$DIMLFAC
 40
1.0
  9
$DIMTOFL
 70
     0
  9
$DIMTVP
 40
0.0
  9
$DIMTIX
 70
     0
  9
$DIMSOXD
 70
     0
  9
$DIMSAH
 70
     0
  9
$DIMBLK1
  1

  9
$DIMBLK2
  1

  9
$DIMSTYLE
  2
Standard
  9
$DIMCLRD
 70
     0
  9
$DIMCLRE
 70
     0
  9
$DIMCLRT
 70
     0
  9
$DIMTFAC
 40
1.0
  9
$DIMGAP
 40
0.09
  9
$DIMJUST
 70
     0
  9
$DIMSD1
 70
     0
  9
$DIMSD2
 70
     0
  9
$DIMTOLJ
 70
     1
  9
$DIMTZIN
 70
     0
  9
$DIMALTZ
 70
     0
  9
$DIMALTTZ
 70
     0
  9
$DIMUPT
 70
     0
  9
$DIMDEC
 70
     4
  9
$DIMTDEC
 70
     4
  9
$DIMALTU
 70
     2
  9
$DIMALTTD
 70
     2
  9
$DIMTXSTY
  7
Standard
  9
$DIMAUNIT
 70
     0
  9
$DIMADEC
 70
     0
  9
$DIMALTRND
 40
0.0
  9
$DIMAZIN
 70
     0
  9
$DIMDSEP
 70
    46
  9
$DIMATFIT
 70
     3
  9
$DIMFRAC
 70
     0
  9
$DIMLDRBLK
  1

  9
$DIMLUNIT
 70
     2
  9
$DIMLWD
 70
    -2
  9
$DIMLWE
 70
    -2
  9
$DIMTMOVE
 70
     0
  9
$DIMFXL
 40
1.0
  9
$DIMFXLON
 70
     0
  9
$DIMJOGANG
 40
0.7853981633974483
  9
$DIMTFILL
 70
     0
  9
$DIMTFILLCLR
 70
     0
  9
$DIMARCSYM
 70
     0
  9
$DIMLTYPE
  6

  9
$DIMLTEX1
  6

  9
$DIMLTEX2
  6

  9
$DIMTXTDIRECTION
 70
     0
  9
$LUNITS
 70
     2
  9
$LUPREC
 70
     4
  9
$SKETCHINC
 40
0.1
  9
$FILLETRAD
 40
0.5
  9
$AUNITS
 70
     0
  9
$AUPREC
 70
     0
  9
$MENU
  1
.
  9
$ELEVATION
 40
0.0
  9
$PELEVATION
 40
0.0
  9
$THICKNESS
 40
0.0
  9
$LIMCHECK
 70
     0
  9
$CHAMFERA
 40
0.5
  9
$CHAMFERB
 40
0.5
  9
$CHAMFERC
 40
1.0
  9
$CHAMFERD
 40
0.0
  9
$SKPOLY
 70
     0
  9
$TDCREATE
 40
2459728.798819445
  9
$TDUCREATE
 40
2459728.423819445
  9
$TDUPDATE
 40
2459728.798819445
  9
$TDUUPDATE
 40
2459728.423819445
  9
$TDINDWG
 40
0.0000000116
  9
$TDUSRTIMER
 40
0.0000000116
  9
$USRTIMER
 70
     1
  9
$ANGBASE
 50
0.0
  9
$ANGDIR
 70
     0
  9
$PDMODE
 70
     0
  9
$PDSIZE
 40
0.0
  9
$PLINEWID
 40
0.0
  9
$SPLFRAME
 70
     0
  9
$SPLINETYPE
 70
     6
  9
$SPLINESEGS
 70
     8
  9
$HANDSEED
  5
45
  9
$SURFTAB1
 70
     6
  9
$SURFTAB2
 70
     6
  9
$SURFTYPE
 70
     6
  9
$SURFU
 70
     6
  9
$SURFV
 70
     6
  9
$UCSBASE
  2

  9
$UCSNAME
  2

  9
$UCSORG
 10
0.0
 20
0.0
 30
0.0
  9
$UCSXDIR
 10
1.0
 20
0.0
 30
0.0
  9
$UCSYDIR
 10
0.0
 20
1.0
 30
0.0
  9
$UCSORTHOREF
  2

  9
$UCSORTHOVIEW
 70
     0
  9
$UCSORGTOP
 10
0.0
 20
0.0
 30
0.0
  9
$UCSORGBOTTOM
 10
0.0
 20
0.0
 30
0.0
  9
$UCSORGLEFT
 10
0.0
 20
0.0
 30
0.0
  9
$UCSORGRIGHT
 10
0.0
 20
0.0
 30
0.0
  9
$UCSORGFRONT
 10
0.0
 20
0.0
 30
0.0
  9
$UCSORGBACK
 10
0.0
 20
0.0
 30
0.0
  9
$PUCSBASE
  2

  9
$PUCSNAME
  2

  9
$PUCSORG
 10
0.0
 20
0.0
 30
0.0
  9
$PUCSXDIR
 10
1.0
 20
0.0
 30
0.0
  9
$PUCSYDIR
 10
0.0
 20
1.0
 30
0.0
  9
$PUCSORTHOREF
  2

  9
$PUCSORTHOVIEW
 70
     0
  9
$PUCSORGTOP
 10
0.0
 20
0.0
 30
0.0
  9
$PUCSORGBOTTOM
 10
0.0
 20
0.0
 30
0.0
  9
$PUCSORGLEFT
 10
0.0
 20
0.0
 30
0.0
  9
$PUCSORGRIGHT
 10
0.0
 20
0.0
 30
0.0
  9
$PUCSORGFRONT
 10
0.0
 20
0.0
 30
0.0
  9
$PUCSORGBACK
 10
0.0
 20
0.0
 30
0.0
  9
$USERI1
 70
     0
  9
$USERI2
 70
     0
  9
$USERI3
 70
     0
  9
$USERI4
 70
     0
  9
$USERI5
 70
     0
  9
$USERR1
 40
0.0
  9
$USERR2
 40
0.0
  9
$USERR3
 40
0.0
  9
$USERR4
 40
0.0
  9
$USERR5
 40
0.0
  9
$WORLDVIEW
 70
     1
  9
$SHADEDGE
 70
     3
  9
$SHADEDIF
 70
    70
  9
$TILEMODE
 70
     1
  9
$MAXACTVP
 70
    64
  9
$PINSBASE
 10
0.0
 20
0.0
 30
0.0
  9
$PLIMCHECK
 70
     0
  9
$PEXTMIN
 10
1.000000000000000E+20
 20
1.000000000000000E+20
 30
1.000000000000000E+20
  9
$PEXTMAX
 10
-1.000000000000000E+20
 20
-1.000000000000000E+20
 30
-1.000000000000000E+20
  9
$PLIMMIN
 10
0.0
 20
0.0
  9
$PLIMMAX
 10
12.0
 20
9.0
  9
$UNITMODE
 70
     0
  9
$VISRETAIN
 70
     1
  9
$PLINEGEN
 70
     0
  9
$PSLTSCALE
 70
     1
  9
$TREEDEPTH
 70
  3020
  9
$CMLSTYLE
  2
Standard
  9
$CMLJUST
 70
     0
  9
$CMLSCALE
 40
1.0
  9
$PROXYGRAPHICS
 70
     1
  9
$MEASUREMENT
 70
     0
  9
$CELWEIGHT
370
    -1
  9
$ENDCAPS
280
     0
  9
$JOINSTYLE
280
     0
  9
$LWDISPLAY
290
     1
  9
$INSUNITS
 70
     0
  9
$HYPERLINKBASE
  1

  9
$STYLESHEET
  1

  9
$XEDIT
290
     1
  9
$CEPSNTYPE
380
     0
  9
$PSTYLEMODE
290
     1
  9
$FINGERPRINTGUID
  2
{AB68DB5B-C200-406C-0832-5F97CA959475}
  9
$VERSIONGUID
  2
{FAEB1C32-E019-11D5-929B-00C0DF256EC4}
  9
$EXTNAMES
290
     1
  9
$PSVPSCALE
 40
0.0
  9
$OLESTARTUP
290
     0
  9
$SORTENTS
280
   127
  9
$INDEXCTL
280
     0
  9
$HIDETEXT
280
     1
  9
$XCLIPFRAME
280
     2
  9
$HALOGAP
280
     0
  9
$OBSCOLOR
 70
   257
  9
$OBSLTYPE
280
     0
  9
$INTERSECTIONDISPLAY
280
     0
  9
$INTERSECTIONCOLOR
 70
   257
  9
$DIMASSOC
280
     2
  9
$PROJECTNAME
  1

  9
$CAMERADISPLAY
290
     0
  9
$LENSLENGTH
 40
50.0
  9
$CAMERAHEIGHT
 40
0.0
  9
$STEPSPERSEC
 40
2.0
  9
$STEPSIZE
 40
6.0
  9
$3DDWFPREC
 40
2.0
  9
$PSOLWIDTH
 40
0.25
  9
$PSOLHEIGHT
 40
4.0
  9
$LOFTANG1
 40
1.570796326794897
  9
$LOFTANG2
 40
1.570796326794897
  9
$LOFTMAG1
 40
0.0
  9
$LOFTMAG2
 40
0.0
  9
$LOFTPARAM
 70
     7
  9
$LOFTNORMALS
280
     1
  9
$LATITUDE
 40
37.795
  9
$LONGITUDE
 40
-122.394
  9
$NORTHDIRECTION
 40
0.0
  9
$TIMEZONE
 70
 -8000
  9
$LIGHTGLYPHDISPLAY
280
     1
  9
$TILEMODELIGHTSYNCH
280
     1
  9
$CMATERIAL
347
3C
  9
$SOLIDHIST
280
     1
  9
$SHOWHIST
280
     1
  9
$DWFFRAME
280
     2
  9
$DGNFRAME
280
     2
  9
$REALWORLDSCALE
290
     1
  9
$INTERFERECOLOR
 62
   256
  9
$CSHADOW
280
     0
  9
$SHADOWPLANELOCATION
 40
0.0
  0
ENDSEC
  0
SECTION
  2
CLASSES
  0
CLASS
  1
ACDBDICTIONARYWDFLT
  2
AcDbDictionaryWithDefault
  3
ObjectDBX Classes
 90
        0
 91
        4
280
     0
281
     0
  0
CLASS
  1
VISUALSTYLE
  2
AcDbVisualStyle
  3
ObjectDBX Classes
 90
     4095
 91
        4
280
     0
281
     0
  0
CLASS
  1
MATERIAL
  2
AcDbMaterial
  3
ObjectDBX Classes
 90
     1153
 91
        4
280
     0
281
     0
  0
CLASS
  1
SUN
  2
AcDbSun
  3
SCENEOE
 90
     1024
 91
        4
280
     0
281
     0
  0
ENDSEC
  0
SECTION
  2
TABLES
  0
TABLE
  2
VPORT
  5
8
330
0
100
AcDbSymbolTable
 70
     1
  0
VPORT
  5
29
330
8
100
AcDbSymbolTableRecord
100
AcDbViewportTableRecord
  2
*Active
 70
     0
 10
0.0
 20
0.0
 11
1.0
 21
1.0
 12
0.0
 22
0.0
 13
0.0
 23
0.0
 14
0.5
 24
0.5
 15
0.5
 25
0.5
 16
0.0
 26
0.0
 36
1.0
 17
432.0
 27
432.0
 37
0.0
 40
864.0
 41
1.0
 42
50.0
 43
0.0
 44
0.0
 50
0.0
 51
0.0
 71
     0
 72
   100
 73
     1
 74
     3
 75
     0
 76
     0
 77
     0
 78
     0
281
     0
 65
     1
110
0.0
120
0.0
130
0.0
111
1.0
121
0.0
131
0.0
112
0.0
122
1.0
132
0.0
 79
     0
146
0.0
 60
     3
 61
     5
292
     1
282
     1
141
0.0
142
0.0
 63
   250
361
3F
  0
ENDTAB
  0
TABLE
  2
LTYPE
  5
5
330
0
100
AcDbSymbolTable
 70
     1
  0
LTYPE
  5
14
330
5
100
AcDbSymbolTableRecord
100
AcDbLinetypeTableRecord
  2
ByBlock
 70
     0
  3

 72
    65
 73
     0
 40
0.0
  0
LTYPE
  5
15
330
5
100
AcDbSymbolTableRecord
100
AcDbLinetypeTableRecord
  2
ByLayer
 70
     0
  3

 72
    65
 73
     0
 40
0.0
  0
LTYPE
  5
16
330
5
100
AcDbSymbolTableRecord
100
AcDbLinetypeTableRecord
  2
Continuous
 70
     0
  3
Solid line
 72
    65
 73
     0
 40
0.0
  0
ENDTAB
  0
TABLE
  2
LAYER
  5
2
330
0
100
AcDbSymbolTable
 70
     2
  0
LAYER
  5
10
330
2
100
AcDbSymbolTableRecord
100
AcDbLayerTableRecord
  2
0
 70
     0
 62
     7
  6
Continuous
370
    -3
390
F
347
3E
  0
LAYER
  5
40
330
2
100
AcDbSymbolTableRecord
100
AcDbLayerTableRecord
  2
Layer 1
 70
     0
 62
     7
  6
Continuous
370
    -3
390
F
347
3E
  0
ENDTAB
  0
TABLE
  2
STYLE
  5
3
330
0
100
AcDbSymbolTable
 70
     1
  0
STYLE
  5
11
330
3
100
AcDbSymbolTableRecord
100
AcDbTextStyleTableRecord
  2
Standard
 70
     0
 40
0.0
 41
1.0
 50
0.0
 71
     0
 42
0.2
  3
txt
  4

  0
ENDTAB
  0
TABLE
  2
VIEW
  5
6
330
0
100
AcDbSymbolTable
 70
     0
  0
ENDTAB
  0
TABLE
  2
UCS
  5
7
330
0
100
AcDbSymbolTable
 70
     0
  0
ENDTAB
  0
TABLE
  2
APPID
  5
9
330
0
100
AcDbSymbolTable
 70
     1
  0
APPID
  5
12
330
9
100
AcDbSymbolTableRecord
100
AcDbRegAppTableRecord
  2
ACAD
 70
     0
  0
ENDTAB
  0
TABLE
  2
DIMSTYLE
  5
A
330
0
100
AcDbSymbolTable
 70
     1
100
AcDbDimStyleTable
  0
DIMSTYLE
105
27
330
A
100
AcDbSymbolTableRecord
100
AcDbDimStyleTableRecord
  2
Standard
 70
     0
178
     0
340
11
  0
ENDTAB
  0
TABLE
  2
BLOCK_RECORD
  5
1
330
0
100
AcDbSymbolTable
 70
     1
  0
BLOCK_RECORD
  5
1F
330
1
100
AcDbSymbolTableRecord
100
AcDbBlockTableRecord
  2
*Model_Space
340
22
 70
     0
280
     1
281
     0
  0
BLOCK_RECORD
  5
1B
330
1
100
AcDbSymbolTableRecord
100
AcDbBlockTableRecord
  2
*Paper_Space
340
1E
 70
     0
280
     1
281
     0
  0
BLOCK_RECORD
  5
23
330
1
100
AcDbSymbolTableRecord
100
AcDbBlockTableRecord
  2
*Paper_Space0
340
26
 70
     0
280
     1
281
     0
  0
ENDTAB
  0
ENDSEC
  0
SECTION
  2
BLOCKS
  0
BLOCK
  5
20
330
1F
100
AcDbEntity
  8
0
100
AcDbBlockBegin
  2
*Model_Space
 70
     0
 10
0.0
 20
0.0
 30
0.0
  3
*Model_Space
  1

  0
ENDBLK
  5
21
330
1F
100
AcDbEntity
  8
0
100
AcDbBlockEnd
  0
BLOCK
  5
1C
330
1B
100
AcDbEntity
 67
     1
  8
0
100
AcDbBlockBegin
  2
*Paper_Space
 70
     0
 10
0.0
 20
0.0
 30
0.0
  3
*Paper_Space
  1

  0
ENDBLK
  5
1D
330
1B
100
AcDbEntity
 67
     1
  8
0
100
AcDbBlockEnd
  0
BLOCK
  5
24
330
23
100
AcDbEntity
  8
0
100
AcDbBlockBegin
  2
*Paper_Space0
 70
     0
 10
0.0
 20
0.0
 30
0.0
  3
*Paper_Space0
  1

  0
ENDBLK
  5
25
330
23
100
AcDbEntity
  8
0
100
AcDbBlockEnd
  0
ENDSEC
  0
SECTION
  2
ENTITIES
  0
SPLINE
  5
41
330
1F
100
AcDbEntity
  8
Layer 1
370
     0
100
AcDbSpline
210
0.0
220
0.0
230
1.0
 70
    11
 71
     3
 72
   380
 73
   376
 74
     0
 42
0.0000000001
 43
0.0000000001
 12
1.0
 22
0.0
 32
0.0
 13
1.0
 23
0.0
 33
0.0
 40
0.0
 40
0.0
 40
0.0
 40
0.0
 40
1.0
 40
1.0
 40
1.0
 40
2.0
 40
2.0
 40
2.0
 40
3.0
 40
3.0
 40
3.0
 40
4.0
 40
4.0
 40
4.0
 40
5.0
 40
5.0
 40
5.0
 40
6.0
 40
6.0
 40
6.0
 40
7.0
 40
7.0
 40
7.0
 40
8.0
 40
8.0
 40
8.0
 40
9.0
 40
9.0
 40
9.0
 40
10.0
 40
10.0
 40
10.0
 40
11.0
 40
11.0
 40
11.0
 40
12.0
 40
12.0
 40
12.0
 40
13.0
 40
13.0
 40
13.0
 40
14.0
 40
14.0
 40
14.0
 40
15.0
 40
15.0
 40
15.0
 40
16.0
 40
16.0
 40
16.0
 40
17.0
 40
17.0
 40
17.0
 40
18.0
 40
18.0
 40
18.0
 40
19.0
 40
19.0
 40
19.0
 40
20.0
 40
20.0
 40
20.0
 40
21.0
 40
21.0
 40
21.0
 40
22.0
 40
22.0
 40
22.0
 40
23.0
 40
23.0
 40
23.0
 40
24.0
 40
24.0
 40
24.0
 40
25.0
 40
25.0
 40
25.0
 40
26.0
 40
26.0
 40
26.0
 40
27.0
 40
27.0
 40
27.0
 40
28.0
 40
28.0
 40
28.0
 40
29.0
 40
29.0
 40
29.0
 40
30.0
 40
30.0
 40
30.0
 40
31.0
 40
31.0
 40
31.0
 40
32.0
 40
32.0
 40
32.0
 40
33.0
 40
33.0
 40
33.0
 40
34.0
 40
34.0
 40
34.0
 40
35.0
 40
35.0
 40
35.0
 40
36.0
 40
36.0
 40
36.0
 40
37.0
 40
37.0
 40
37.0
 40
38.0
 40
38.0
 40
38.0
 40
39.0
 40
39.0
 40
39.0
 40
40.0
 40
40.0
 40
40.0
 40
41.0
 40
41.0
 40
41.0
 40
42.0
 40
42.0
 40
42.0
 40
43.0
 40
43.0
 40
43.0
 40
44.0
 40
44.0
 40
44.0
 40
45.0
 40
45.0
 40
45.0
 40
46.0
 40
46.0
 40
46.0
 40
47.0
 40
47.0
 40
47.0
 40
48.0
 40
48.0
 40
48.0
 40
49.0
 40
49.0
 40
49.0
 40
50.0
 40
50.0
 40
50.0
 40
51.0
 40
51.0
 40
51.0
 40
52.0
 40
52.0
 40
52.0
 40
53.0
 40
53.0
 40
53.0
 40
54.0
 40
54.0
 40
54.0
 40
55.0
 40
55.0
 40
55.0
 40
56.0
 40
56.0
 40
56.0
 40
57.0
 40
57.0
 40
57.0
 40
58.0
 40
58.0
 40
58.0
 40
59.0
 40
59.0
 40
59.0
 40
60.0
 40
60.0
 40
60.0
 40
61.0
 40
61.0
 40
61.0
 40
62.0
 40
62.0
 40
62.0
 40
63.0
 40
63.0
 40
63.0
 40
64.0
 40
64.0
 40
64.0
 40
65.0
 40
65.0
 40
65.0
 40
66.0
 40
66.0
 40
66.0
 40
67.0
 40
67.0
 40
67.0
 40
68.0
 40
68.0
 40
68.0
 40
69.0
 40
69.0
 40
69.0
 40
70.0
 40
70.0
 40
70.0
 40
71.0
 40
71.0
 40
71.0
 40
72.0
 40
72.0
 40
72.0
 40
73.0
 40
73.0
 40
73.0
 40
74.0
 40
74.0
 40
74.0
 40
75.0
 40
75.0
 40
75.0
 40
76.0
 40
76.0
 40
76.0
 40
77.0
 40
77.0
 40
77.0
 40
78.0
 40
78.0
 40
78.0
 40
79.0
 40
79.0
 40
79.0
 40
80.0
 40
80.0
 40
80.0
 40
81.0
 40
81.0
 40
81.0
 40
82.0
 40
82.0
 40
82.0
 40
83.0
 40
83.0
 40
83.0
 40
84.0
 40
84.0
 40
84.0
 40
85.0
 40
85.0
 40
85.0
 40
86.0
 40
86.0
 40
86.0
 40
87.0
 40
87.0
 40
87.0
 40
88.0
 40
88.0
 40
88.0
 40
89.0
 40
89.0
 40
89.0
 40
90.0
 40
90.0
 40
90.0
 40
91.0
 40
91.0
 40
91.0
 40
92.0
 40
92.0
 40
92.0
 40
93.0
 40
93.0
 40
93.0
 40
94.0
 40
94.0
 40
94.0
 40
95.0
 40
95.0
 40
95.0
 40
96.0
 40
96.0
 40
96.0
 40
97.0
 40
97.0
 40
97.0
 40
98.0
 40
98.0
 40
98.0
 40
99.0
 40
99.0
 40
99.0
 40
100.0
 40
100.0
 40
100.0
 40
101.0
 40
101.0
 40
101.0
 40
102.0
 40
102.0
 40
102.0
 40
103.0
 40
103.0
 40
103.0
 40
104.0
 40
104.0
 40
104.0
 40
105.0
 40
105.0
 40
105.0
 40
106.0
 40
106.0
 40
106.0
 40
107.0
 40
107.0
 40
107.0
 40
108.0
 40
108.0
 40
108.0
 40
109.0
 40
109.0
 40
109.0
 40
110.0
 40
110.0
 40
110.0
 40
111.0
 40
111.0
 40
111.0
 40
112.0
 40
112.0
 40
112.0
 40
113.0
 40
113.0
 40
113.0
 40
114.0
 40
114.0
 40
114.0
 40
115.0
 40
115.0
 40
115.0
 40
116.0
 40
116.0
 40
116.0
 40
117.0
 40
117.0
 40
117.0
 40
118.0
 40
118.0
 40
118.0
 40
119.0
 40
119.0
 40
119.0
 40
120.0
 40
120.0
 40
120.0
 40
121.0
 40
121.0
 40
121.0
 40
122.0
 40
122.0
 40
122.0
 40
123.0
 40
123.0
 40
123.0
 40
124.0
 40
124.0
 40
124.0
 40
125.0
 40
125.0
 40
125.0
 40
125.0
 10
828.0
 20
788.2306365966797
 30
0.0
 10
828.0
 20
788.2306365966797
 30
0.0
 10
828.0
 20
828.0
 30
0.0
 10
828.0
 20
828.0
 30
0.0
 10
828.0
 20
828.0
 30
0.0
 10
788.1435546875
 20
828.0
 30
0.0
 10
788.1435546875
 20
828.0
 30
0.0
 10
788.1792602539062
 20
827.4261589050293
 30
0.0
 10
788.2306518554688
 20
826.8567810058594
 30
0.0
 10
788.2306518554688
 20
826.273998260498
 30
0.0
 10
788.2252197265625
 20
811.1500778198242
 30
0.0
 10
775.96044921875
 20
798.8941345214844
 30
0.0
 10
760.8365478515625
 20
798.8995742797852
 30
0.0
 10
745.7202758789062
 20
798.9050064086914
 30
0.0
 10
733.467529296875
 20
811.157772064209
 30
0.0
 10
733.4620971679688
 20
826.273998260498
 30
0.0
 10
733.4620971679688
 20
826.8567771911621
 30
0.0
 10
733.513427734375
 20
827.4261589050293
 30
0.0
 10
733.5491943359375
 20
828.0
 30
0.0
 10
733.5491943359375
 20
828.0
 30
0.0
 10
694.1873168945312
 20
828.0
 30
0.0
 10
694.1873168945312
 20
828.0
 30
0.0
 10
694.2230224609375
 20
827.4261589050293
 30
0.0
 10
694.2744140625
 20
826.8567810058594
 30
0.0
 10
694.2744140625
 20
826.273998260498
 30
0.0
 10
694.2689819335938
 20
811.1500778198242
 30
0.0
 10
682.0042114257812
 20
798.8941345214844
 30
0.0
 10
666.8803100585938
 20
798.8995742797852
 30
0.0
 10
651.7640380859375
 20
798.9050064086914
 30
0.0
 10
639.5112915039062
 20
811.157772064209
 30
0.0
 10
639.505859375
 20
826.273998260498
 30
0.0
 10
639.505859375
 20
826.8567771911621
 30
0.0
 10
639.5571899414062
 20
827.4261589050293
 30
0.0
 10
639.5940551757812
 20
828.0
 30
0.0
 10
639.5940551757812
 20
828.0
 30
0.0
 10
600.2310180664062
 20
828.0
 30
0.0
 10
600.2310180664062
 20
828.0
 30
0.0
 10
600.2678833007812
 20
827.4261589050293
 30
0.0
 10
600.3192138671875
 20
826.8567810058594
 30
0.0
 10
600.3192138671875
 20
826.273998260498
 30
0.0
 10
600.3137817382812
 20
811.1500778198242
 30
0.0
 10
588.0490112304688
 20
798.8941345214844
 30
0.0
 10
572.9251098632812
 20
798.8995742797852
 30
0.0
 10
557.808837890625
 20
798.9050064086914
 30
0.0
 10
545.5560913085938
 20
811.157772064209
 30
0.0
 10
545.5506591796875
 20
826.273998260498
 30
0.0
 10
545.5506591796875
 20
826.8567771911621
 30
0.0
 10
545.6019897460938
 20
827.4261589050293
 30
0.0
 10
545.6377563476562
 20
828.0
 30
0.0
 10
545.6377563476562
 20
828.0
 30
0.0
 10
506.27587890625
 20
828.0
 30
0.0
 10
506.27587890625
 20
828.0
 30
0.0
 10
506.3115844726562
 20
827.4261589050293
 30
0.0
 10
506.3629455566406
 20
826.8567810058594
 30
0.0
 10
506.3629455566406
 20
826.273998260498
 30
0.0
 10
506.3575134277344
 20
811.1500778198242
 30
0.0
 10
494.0927429199219
 20
798.8941345214844
 30
0.0
 10
478.9688110351562
 20
798.8995742797852
 30
0.0
 10
463.8526000976562
 20
798.9050064086914
 30
0.0
 10
451.5998229980469
 20
811.157772064209
 30
0.0
 10
451.5943908691406
 20
826.273998260498
 30
0.0
 10
451.5943908691406
 20
826.8567771911621
 30
0.0
 10
451.645751953125
 20
827.4261589050293
 30
0.0
 10
451.6814575195312
 20
828.0
 30
0.0
 10
451.6814575195312
 20
828.0
 30
0.0
 10
412.3196411132812
 20
828.0
 30
0.0
 10
412.3196411132812
 20
828.0
 30
0.0
 10
412.3553466796875
 20
827.4261589050293
 30
0.0
 10
412.4067077636719
 20
826.8567810058594
 30
0.0
 10
412.4067077636719
 20
826.273998260498
 30
0.0
 10
412.4012756347656
 20
811.1500778198242
 30
0.0
 10
400.1365051269531
 20
798.8941345214844
 30
0.0
 10
385.0125732421875
 20
798.8995742797852
 30
0.0
 10
369.8963623046875
 20
798.9050064086914
 30
0.0
 10
357.6435852050781
 20
811.157772064209
 30
0.0
 10
357.6381530761719
 20
826.273998260498
 30
0.0
 10
357.6381530761719
 20
826.8567771911621
 30
0.0
 10
357.6895141601562
 20
827.4261589050293
 30
0.0
 10
357.7252197265625
 20
828.0
 30
0.0
 10
357.7252197265625
 20
828.0
 30
0.0
 10
318.3633728027344
 20
828.0
 30
0.0
 10
318.3633728027344
 20
828.0
 30
0.0
 10
318.4002380371094
 20
827.4261589050293
 30
0.0
 10
318.4515686035156
 20
826.8567810058594
 30
0.0
 10
318.4515686035156
 20
826.273998260498
 30
0.0
 10
318.4515686035156
 20
811.1497688293457
 30
0.0
 10
306.1909484863281
 20
798.88916015625
 30
0.0
 10
291.0667114257812
 20
798.88916015625
 30
0.0
 10
275.9425048828125
 20
798.88916015625
 30
0.0
 10
263.681884765625
 20
811.1497688293457
 30
0.0
 10
263.681884765625
 20
826.273998260498
 30
0.0
 10
263.681884765625
 20
826.8567771911621
 30
0.0
 10
263.7332458496094
 20
827.4261589050293
 30
0.0
 10
263.7689514160156
 20
828.0
 30
0.0
 10
263.7689514160156
 20
828.0
 30
0.0
 10
224.4082183837891
 20
828.0
 30
0.0
 10
224.4082183837891
 20
828.0
 30
0.0
 10
224.4439392089844
 20
827.4261589050293
 30
0.0
 10
224.4953002929688
 20
826.8567810058594
 30
0.0
 10
224.4953002929688
 20
826.273998260498
 30
0.0
 10
224.4898529052734
 20
811.1500778198242
 30
0.0
 10
212.22509765625
 20
798.8941345214844
 30
0.0
 10
197.1011657714844
 20
798.8995742797852
 30
0.0
 10
181.9849395751953
 20
798.9050064086914
 30
0.0
 10
169.732177734375
 20
811.157772064209
 30
0.0
 10
169.7267456054688
 20
826.273998260498
 30
0.0
 10
169.7267456054688
 20
826.8567771911621
 30
0.0
 10
169.7781066894531
 20
827.4261589050293
 30
0.0
 10
169.8138275146484
 20
828.0
 30
0.0
 10
169.8138275146484
 20
828.0
 30
0.0
 10
130.4519958496094
 20
828.0
 30
0.0
 10
130.4519958496094
 20
828.0
 30
0.0
 10
130.4877166748047
 20
827.4261589050293
 30
0.0
 10
130.5390777587891
 20
826.8567810058594
 30
0.0
 10
130.5390777587891
 20
826.273998260498
 30
0.0
 10
130.5336303710938
 20
811.1500778198242
 30
0.0
 10
118.2688674926758
 20
798.8941345214844
 30
0.0
 10
103.1449508666992
 20
798.8995742797852
 30
0.0
 10
88.02872467041016
 20
798.9050064086914
 30
0.0
 10
75.77596282958984
 20
811.157772064209
 30
0.0
 10
75.77052307128906
 20
826.273998260498
 30
0.0
 10
75.77052307128906
 20
826.8567771911621
 30
0.0
 10
75.8218765258789
 20
827.4261589050293
 30
0.0
 10
75.85760498046875
 20
828.0
 30
0.0
 10
75.85760498046875
 20
828.0
 30
0.0
 10
36.0
 20
828.0
 30
0.0
 10
36.0
 20
828.0
 30
0.0
 10
36.0
 20
828.0
 30
0.0
 10
36.0
 20
788.2306365966797
 30
0.0
 10
36.0
 20
788.2306365966797
 30
0.0
 10
51.12361145019531
 20
788.2331848144531
 30
0.0
 10
63.38578414916992
 20
775.9751358032227
 30
0.0
 10
63.38832855224609
 20
760.8515243530273
 30
0.0
 10
63.39087295532227
 20
745.727912902832
 30
0.0
 10
51.13282775878906
 20
733.4657440185547
 30
0.0
 10
36.00921630859375
 20
733.4631958007812
 30
0.0
 10
36.00614166259766
 20
733.4631958007812
 30
0.0
 10
36.00307083129883
 20
733.4631958007812
 30
0.0
 10
36.0
 20
733.4631958007812
 30
0.0
 10
36.0
 20
733.4631958007812
 30
0.0
 10
36.0
 20
694.2743835449219
 30
0.0
 10
36.0
 20
694.2743835449219
 30
0.0
 10
51.12361526489258
 20
694.2796783447266
 30
0.0
 10
63.38801574707031
 20
682.0238494873047
 30
0.0
 10
63.39330291748047
 20
666.9002227783203
 30
0.0
 10
63.39859008789062
 20
651.776611328125
 30
0.0
 10
51.14276504516602
 20
639.5122222900391
 30
0.0
 10
36.01914978027344
 20
639.5069274902344
 30
0.0
 10
36.01276397705078
 20
639.5069274902344
 30
0.0
 10
36.00638198852539
 20
639.5069274902344
 30
0.0
 10
36.0
 20
639.5069274902344
 30
0.0
 10
36.0
 20
639.5069274902344
 30
0.0
 10
36.0
 20
600.318115234375
 30
0.0
 10
36.0
 20
600.318115234375
 30
0.0
 10
51.12361526489258
 20
600.318115234375
 30
0.0
 10
63.38372802734375
 20
588.0580139160156
 30
0.0
 10
63.38372802734375
 20
572.9343872070312
 30
0.0
 10
63.38372802734375
 20
557.8107604980469
 30
0.0
 10
51.12361526489258
 20
545.5506591796875
 30
0.0
 10
36.0
 20
545.5506591796875
 30
0.0
 10
36.0
 20
545.5506591796875
 30
0.0
 10
36.0
 20
506.3640747070312
 30
0.0
 10
36.0
 20
506.3640747070312
 30
0.0
 10
51.12422180175781
 20
506.3788146972656
 30
0.0
 10
63.39677429199219
 20
494.1301574707031
 30
0.0
 10
63.41151428222656
 20
479.0059204101562
 30
0.0
 10
63.42625045776367
 20
463.8817138671875
 30
0.0
 10
51.17759323120117
 20
451.6091613769531
 30
0.0
 10
36.05337142944336
 20
451.5944213867188
 30
0.0
 10
36.03557968139648
 20
451.5943908691406
 30
0.0
 10
36.01779174804688
 20
451.5943908691406
 30
0.0
 10
36.0
 20
451.5944213867188
 30
0.0
 10
36.0
 20
451.5944213867188
 30
0.0
 10
36.0
 20
412.4078369140625
 30
0.0
 10
36.0
 20
412.4078369140625
 30
0.0
 10
51.12422180175781
 20
412.4225769042969
 30
0.0
 10
63.39677429199219
 20
400.1739196777344
 30
0.0
 10
63.41151428222656
 20
385.0496826171875
 30
0.0
 10
63.42625045776367
 20
369.9254760742188
 30
0.0
 10
51.17759323120117
 20
357.6529235839844
 30
0.0
 10
36.05337142944336
 20
357.63818359375
 30
0.0
 10
36.03557968139648
 20
357.6381530761719
 30
0.0
 10
36.01779174804688
 20
357.6381530761719
 30
0.0
 10
36.0
 20
357.63818359375
 30
0.0
 10
36.0
 20
357.63818359375
 30
0.0
 10
36.0
 20
318.4515991210938
 30
0.0
 10
36.0
 20
318.4515991210938
 30
0.0
 10
51.12422180175781
 20
318.46630859375
 30
0.0
 10
63.39677429199219
 20
306.2176513671875
 30
0.0
 10
63.41151428222656
 20
291.0934448242188
 30
0.0
 10
63.42625045776367
 20
275.96923828125
 30
0.0
 10
51.17759323120117
 20
263.6966552734375
 30
0.0
 10
36.05337142944336
 20
263.6819458007812
 30
0.0
 10
36.03557968139648
 20
263.6819458007812
 30
0.0
 10
36.01779174804688
 20
263.6819458007812
 30
0.0
 10
36.0
 20
263.6819458007812
 30
0.0
 10
36.0
 20
263.6819458007812
 30
0.0
 10
36.0
 20
224.4953002929688
 30
0.0
 10
36.0
 20
224.4953002929688
 30
0.0
 10
51.12422180175781
 20
224.510009765625
 30
0.0
 10
63.39677429199219
 20
212.2613525390625
 30
0.0
 10
63.41151428222656
 20
197.1371459960938
 30
0.0
 10
63.42625045776367
 20
182.012939453125
 30
0.0
 10
51.17759323120117
 20
169.7403564453125
 30
0.0
 10
36.05337142944336
 20
169.7256469726562
 30
0.0
 10
36.03557968139648
 20
169.7256469726562
 30
0.0
 10
36.01779174804688
 20
169.7256469726562
 30
0.0
 10
36.0
 20
169.7256469726562
 30
0.0
 10
36.0
 20
169.7256469726562
 30
0.0
 10
36.0
 20
130.5390014648438
 30
0.0
 10
36.0
 20
130.5390014648438
 30
0.0
 10
51.12361526489258
 20
130.5443115234375
 30
0.0
 10
63.38801574707031
 20
118.2884521484375
 30
0.0
 10
63.39330291748047
 20
103.1648559570312
 30
0.0
 10
63.39859008789062
 20
88.041259765625
 30
0.0
 10
51.14276504516602
 20
75.77685546875
 30
0.0
 10
36.01914978027344
 20
75.77154541015625
 30
0.0
 10
36.01276397705078
 20
75.77154541015625
 30
0.0
 10
36.00638198852539
 20
75.77154541015625
 30
0.0
 10
36.0
 20
75.77154541015625
 30
0.0
 10
36.0
 20
75.77154541015625
 30
0.0
 10
36.0
 20
36.0
 30
0.0
 10
36.0
 20
36.0
 30
0.0
 10
36.0
 20
36.0
 30
0.0
 10
75.85755920410156
 20
36.0
 30
0.0
 10
75.85755920410156
 20
36.0
 30
0.0
 10
76.79193115234375
 20
51.0758056640625
 30
0.0
 10
89.77075958251953
 20
62.53973388671875
 30
0.0
 10
104.8465881347656
 20
61.6053466796875
 30
0.0
 10
118.6190032958984
 20
60.75177001953125
 30
0.0
 10
129.5983734130859
 20
49.77239990234375
 30
0.0
 10
130.4519653320312
 20
36.0
 30
0.0
 10
130.4519653320312
 20
36.0
 30
0.0
 10
169.8138275146484
 20
36.0
 30
0.0
 10
169.8138275146484
 20
36.0
 30
0.0
 10
170.7481994628906
 20
51.0758056640625
 30
0.0
 10
183.7270355224609
 20
62.53973388671875
 30
0.0
 10
198.8028564453125
 20
61.6053466796875
 30
0.0
 10
212.5752716064453
 20
60.75177001953125
 30
0.0
 10
223.5546417236328
 20
49.77239990234375
 30
0.0
 10
224.4082336425781
 20
36.0
 30
0.0
 10
224.4082336425781
 20
36.0
 30
0.0
 10
263.7690124511719
 20
36.0
 30
0.0
 10
263.7690124511719
 20
36.0
 30
0.0
 10
264.7033386230469
 20
51.0758056640625
 30
0.0
 10
277.6821594238281
 20
62.53973388671875
 30
0.0
 10
292.7579650878906
 20
61.60540771484375
 30
0.0
 10
306.5304260253906
 20
60.75189208984375
 30
0.0
 10
317.5098571777344
 20
49.7724609375
 30
0.0
 10
318.3634033203125
 20
36.0
 30
0.0
 10
318.3634033203125
 20
36.0
 30
0.0
 10
357.7252807617188
 20
36.0
 30
0.0
 10
357.7252807617188
 20
36.0
 30
0.0
 10
358.6597290039062
 20
51.0758056640625
 30
0.0
 10
371.6386108398438
 20
62.5396728515625
 30
0.0
 10
386.7144165039062
 20
61.605224609375
 30
0.0
 10
400.4867248535156
 20
60.7515869140625
 30
0.0
 10
411.4660339355469
 20
49.7723388671875
 30
0.0
 10
412.3196716308594
 20
36.0
 30
0.0
 10
412.3196716308594
 20
36.0
 30
0.0
 10
451.6815185546875
 20
36.0
 30
0.0
 10
451.6815185546875
 20
36.0
 30
0.0
 10
452.615966796875
 20
51.0758056640625
 30
0.0
 10
465.5948486328125
 20
62.5396728515625
 30
0.0
 10
480.670654296875
 20
61.605224609375
 30
0.0
 10
494.4429626464844
 20
60.7515869140625
 30
0.0
 10
505.4222717285156
 20
49.7723388671875
 30
0.0
 10
506.2759094238281
 20
36.0
 30
0.0
 10
506.2759094238281
 20
36.0
 30
0.0
 10
545.6377563476562
 20
36.0
 30
0.0
 10
545.6377563476562
 20
36.0
 30
0.0
 10
546.572021484375
 20
51.07550048828125
 30
0.0
 10
559.550537109375
 20
62.53924560546875
 30
0.0
 10
574.6260375976562
 20
61.60498046875
 30
0.0
 10
588.3982543945312
 20
60.75146484375
 30
0.0
 10
599.3775024414062
 20
49.772216796875
 30
0.0
 10
600.2310180664062
 20
36.0
 30
0.0
 10
600.2310180664062
 20
36.0
 30
0.0
 10
639.593994140625
 20
36.0
 30
0.0
 10
639.593994140625
 20
36.0
 30
0.0
 10
640.5282592773438
 20
51.07550048828125
 30
0.0
 10
653.5067749023438
 20
62.53924560546875
 30
0.0
 10
668.582275390625
 20
61.60498046875
 30
0.0
 10
682.3544921875
 20
60.75146484375
 30
0.0
 10
693.333740234375
 20
49.772216796875
 30
0.0
 10
694.187255859375
 20
36.0
 30
0.0
 10
694.187255859375
 20
36.0
 30
0.0
 10
733.5491333007812
 20
36.0
 30
0.0
 10
733.5491333007812
 20
36.0
 30
0.0
 10
734.4834594726562
 20
51.0758056640625
 30
0.0
 10
747.4622192382812
 20
62.539794921875
 30
0.0
 10
762.5380249023438
 20
61.60552978515625
 30
0.0
 10
776.310546875
 20
60.751953125
 30
0.0
 10
787.2900390625
 20
49.77252197265625
 30
0.0
 10
788.1435546875
 20
36.0
 30
0.0
 10
788.1435546875
 20
36.0
 30
0.0
 10
828.0
 20
36.0
 30
0.0
 10
828.0
 20
36.0
 30
0.0
 10
828.0
 20
36.0
 30
0.0
 10
828.0
 20
75.7716064453125
 30
0.0
 10
828.0
 20
75.7716064453125
 30
0.0
 10
812.8764038085938
 20
75.77691650390625
 30
0.0
 10
800.6205444335938
 20
88.04132080078125
 30
0.0
 10
800.6258544921875
 20
103.1649169921875
 30
0.0
 10
800.631103515625
 20
118.2810668945312
 30
0.0
 10
812.8838500976562
 20
130.5337524414062
 30
0.0
 10
828.0
 20
130.5390625
 30
0.0
 10
828.0
 20
130.5390625
 30
0.0
 10
828.0
 20
169.7256469726562
 30
0.0
 10
828.0
 20
169.7256469726562
 30
0.0
 10
812.8757934570312
 20
169.7403564453125
 30
0.0
 10
800.6271362304688
 20
182.012939453125
 30
0.0
 10
800.641845703125
 20
197.1371459960938
 30
0.0
 10
800.6565551757812
 20
212.2405395507812
 30
0.0
 10
812.8966064453125
 20
224.4805908203125
 30
0.0
 10
828.0
 20
224.4953002929688
 30
0.0
 10
828.0
 20
224.4953002929688
 30
0.0
 10
828.0
 20
263.681884765625
 30
0.0
 10
828.0
 20
263.681884765625
 30
0.0
 10
812.8757934570312
 20
263.6965942382812
 30
0.0
 10
800.6271362304688
 20
275.9691772460938
 30
0.0
 10
800.641845703125
 20
291.0933837890625
 30
0.0
 10
800.6565551757812
 20
306.19677734375
 30
0.0
 10
812.8966064453125
 20
318.4368286132812
 30
0.0
 10
828.0
 20
318.4515380859375
 30
0.0
 10
828.0
 20
318.4515380859375
 30
0.0
 10
828.0
 20
357.6381530761719
 30
0.0
 10
828.0
 20
357.6381530761719
 30
0.0
 10
812.8757934570312
 20
357.6381530761719
 30
0.0
 10
800.6151733398438
 20
369.8987731933594
 30
0.0
 10
800.6151733398438
 20
385.0230102539062
 30
0.0
 10
800.6151733398438
 20
400.147216796875
 30
0.0
 10
812.8757934570312
 20
412.4078369140625
 30
0.0
 10
828.0
 20
412.4078369140625
 30
0.0
 10
828.0
 20
412.4078369140625
 30
0.0
 10
828.0
 20
451.5944213867188
 30
0.0
 10
828.0
 20
451.5944213867188
 30
0.0
 10
812.8757934570312
 20
451.6091613769531
 30
0.0
 10
800.6271362304688
 20
463.8817138671875
 30
0.0
 10
800.641845703125
 20
479.0059204101562
 30
0.0
 10
800.6565551757812
 20
494.1093139648438
 30
0.0
 10
812.8966064453125
 20
506.349365234375
 30
0.0
 10
828.0
 20
506.3640747070312
 30
0.0
 10
828.0
 20
506.3640747070312
 30
0.0
 10
828.0
 20
545.5506591796875
 30
0.0
 10
828.0
 20
545.5506591796875
 30
0.0
 10
812.8764038085938
 20
545.5506591796875
 30
0.0
 10
800.6162719726562
 20
557.8107604980469
 30
0.0
 10
800.6162719726562
 20
572.9343872070312
 30
0.0
 10
800.6162719726562
 20
588.0580139160156
 30
0.0
 10
812.8764038085938
 20
600.318115234375
 30
0.0
 10
828.0
 20
600.318115234375
 30
0.0
 10
828.0
 20
600.318115234375
 30
0.0
 10
828.0
 20
600.318115234375
 30
0.0
 10
828.0
 20
600.318115234375
 30
0.0
 10
828.0
 20
600.318115234375
 30
0.0
 10
828.0
 20
639.5069274902344
 30
0.0
 10
828.0
 20
639.5069274902344
 30
0.0
 10
812.8764038085938
 20
639.5069274902344
 30
0.0
 10
800.6162719726562
 20
651.7670440673828
 30
0.0
 10
800.6162719726562
 20
666.8906555175781
 30
0.0
 10
800.6162719726562
 20
682.0142669677734
 30
0.0
 10
812.8764038085938
 20
694.2743835449219
 30
0.0
 10
828.0
 20
694.2743835449219
 30
0.0
 10
828.0
 20
694.2743835449219
 30
0.0
 10
828.0
 20
694.2743835449219
 30
0.0
 10
828.0
 20
694.2743835449219
 30
0.0
 10
828.0
 20
694.2743835449219
 30
0.0
 10
828.0
 20
733.4631958007812
 30
0.0
 10
828.0
 20
733.4631958007812
 30
0.0
 10
812.8764038085938
 20
733.4657440185547
 30
0.0
 10
800.6183471679688
 20
745.727912902832
 30
0.0
 10
800.6209106445312
 20
760.8515243530273
 30
0.0
 10
800.6234130859375
 20
775.9715347290039
 30
0.0
 10
812.8800048828125
 20
788.2280883789062
 30
0.0
 10
828.0
 20
788.2306365966797
 30
0.0
  0
HATCH
  5
42
330
1F
100
AcDbEntity
  8
Layer 1
 62
     7
420
 16777215
100
AcDbHatch
 10
0.0
 20
0.0
 30
0.0
210
0.0
220
0.0
230
1.0
  2
SOLID
 70
     1
 71
     0
 91
        1
 92
        1
 93
        1
 72
     4
 94
        3
 73
     0
 74
     1
 95
      380
 96
      376
 40
0.0
 40
0.0
 40
0.0
 40
0.0
 40
1.0
 40
1.0
 40
1.0
 40
2.0
 40
2.0
 40
2.0
 40
3.0
 40
3.0
 40
3.0
 40
4.0
 40
4.0
 40
4.0
 40
5.0
 40
5.0
 40
5.0
 40
6.0
 40
6.0
 40
6.0
 40
7.0
 40
7.0
 40
7.0
 40
8.0
 40
8.0
 40
8.0
 40
9.0
 40
9.0
 40
9.0
 40
10.0
 40
10.0
 40
10.0
 40
11.0
 40
11.0
 40
11.0
 40
12.0
 40
12.0
 40
12.0
 40
13.0
 40
13.0
 40
13.0
 40
14.0
 40
14.0
 40
14.0
 40
15.0
 40
15.0
 40
15.0
 40
16.0
 40
16.0
 40
16.0
 40
17.0
 40
17.0
 40
17.0
 40
18.0
 40
18.0
 40
18.0
 40
19.0
 40
19.0
 40
19.0
 40
20.0
 40
20.0
 40
20.0
 40
21.0
 40
21.0
 40
21.0
 40
22.0
 40
22.0
 40
22.0
 40
23.0
 40
23.0
 40
23.0
 40
24.0
 40
24.0
 40
24.0
 40
25.0
 40
25.0
 40
25.0
 40
26.0
 40
26.0
 40
26.0
 40
27.0
 40
27.0
 40
27.0
 40
28.0
 40
28.0
 40
28.0
 40
29.0
 40
29.0
 40
29.0
 40
30.0
 40
30.0
 40
30.0
 40
31.0
 40
31.0
 40
31.0
 40
32.0
 40
32.0
 40
32.0
 40
33.0
 40
33.0
 40
33.0
 40
34.0
 40
34.0
 40
34.0
 40
35.0
 40
35.0
 40
35.0
 40
36.0
 40
36.0
 40
36.0
 40
37.0
 40
37.0
 40
37.0
 40
38.0
 40
38.0
 40
38.0
 40
39.0
 40
39.0
 40
39.0
 40
40.0
 40
40.0
 40
40.0
 40
41.0
 40
41.0
 40
41.0
 40
42.0
 40
42.0
 40
42.0
 40
43.0
 40
43.0
 40
43.0
 40
44.0
 40
44.0
 40
44.0
 40
45.0
 40
45.0
 40
45.0
 40
46.0
 40
46.0
 40
46.0
 40
47.0
 40
47.0
 40
47.0
 40
48.0
 40
48.0
 40
48.0
 40
49.0
 40
49.0
 40
49.0
 40
50.0
 40
50.0
 40
50.0
 40
51.0
 40
51.0
 40
51.0
 40
52.0
 40
52.0
 40
52.0
 40
53.0
 40
53.0
 40
53.0
 40
54.0
 40
54.0
 40
54.0
 40
55.0
 40
55.0
 40
55.0
 40
56.0
 40
56.0
 40
56.0
 40
57.0
 40
57.0
 40
57.0
 40
58.0
 40
58.0
 40
58.0
 40
59.0
 40
59.0
 40
59.0
 40
60.0
 40
60.0
 40
60.0
 40
61.0
 40
61.0
 40
61.0
 40
62.0
 40
62.0
 40
62.0
 40
63.0
 40
63.0
 40
63.0
 40
64.0
 40
64.0
 40
64.0
 40
65.0
 40
65.0
 40
65.0
 40
66.0
 40
66.0
 40
66.0
 40
67.0
 40
67.0
 40
67.0
 40
68.0
 40
68.0
 40
68.0
 40
69.0
 40
69.0
 40
69.0
 40
70.0
 40
70.0
 40
70.0
 40
71.0
 40
71.0
 40
71.0
 40
72.0
 40
72.0
 40
72.0
 40
73.0
 40
73.0
 40
73.0
 40
74.0
 40
74.0
 40
74.0
 40
75.0
 40
75.0
 40
75.0
 40
76.0
 40
76.0
 40
76.0
 40
77.0
 40
77.0
 40
77.0
 40
78.0
 40
78.0
 40
78.0
 40
79.0
 40
79.0
 40
79.0
 40
80.0
 40
80.0
 40
80.0
 40
81.0
 40
81.0
 40
81.0
 40
82.0
 40
82.0
 40
82.0
 40
83.0
 40
83.0
 40
83.0
 40
84.0
 40
84.0
 40
84.0
 40
85.0
 40
85.0
 40
85.0
 40
86.0
 40
86.0
 40
86.0
 40
87.0
 40
87.0
 40
87.0
 40
88.0
 40
88.0
 40
88.0
 40
89.0
 40
89.0
 40
89.0
 40
90.0
 40
90.0
 40
90.0
 40
91.0
 40
91.0
 40
91.0
 40
92.0
 40
92.0
 40
92.0
 40
93.0
 40
93.0
 40
93.0
 40
94.0
 40
94.0
 40
94.0
 40
95.0
 40
95.0
 40
95.0
 40
96.0
 40
96.0
 40
96.0
 40
97.0
 40
97.0
 40
97.0
 40
98.0
 40
98.0
 40
98.0
 40
99.0
 40
99.0
 40
99.0
 40
100.0
 40
100.0
 40
100.0
 40
101.0
 40
101.0
 40
101.0
 40
102.0
 40
102.0
 40
102.0
 40
103.0
 40
103.0
 40
103.0
 40
104.0
 40
104.0
 40
104.0
 40
105.0
 40
105.0
 40
105.0
 40
106.0
 40
106.0
 40
106.0
 40
107.0
 40
107.0
 40
107.0
 40
108.0
 40
108.0
 40
108.0
 40
109.0
 40
109.0
 40
109.0
 40
110.0
 40
110.0
 40
110.0
 40
111.0
 40
111.0
 40
111.0
 40
112.0
 40
112.0
 40
112.0
 40
113.0
 40
113.0
 40
113.0
 40
114.0
 40
114.0
 40
114.0
 40
115.0
 40
115.0
 40
115.0
 40
116.0
 40
116.0
 40
116.0
 40
117.0
 40
117.0
 40
117.0
 40
118.0
 40
118.0
 40
118.0
 40
119.0
 40
119.0
 40
119.0
 40
120.0
 40
120.0
 40
120.0
 40
121.0
 40
121.0
 40
121.0
 40
122.0
 40
122.0
 40
122.0
 40
123.0
 40
123.0
 40
123.0
 40
124.0
 40
124.0
 40
124.0
 40
125.0
 40
125.0
 40
125.0
 40
125.0
 10
828.0
 20
788.2306365966797
 10
828.0
 20
788.2306365966797
 10
828.0
 20
828.0
 10
828.0
 20
828.0
 10
828.0
 20
828.0
 10
788.1435546875
 20
828.0
 10
788.1435546875
 20
828.0
 10
788.1792602539062
 20
827.4261589050293
 10
788.2306518554688
 20
826.8567810058594
 10
788.2306518554688
 20
826.273998260498
 10
788.2252197265625
 20
811.1500778198242
 10
775.96044921875
 20
798.8941345214844
 10
760.8365478515625
 20
798.8995742797852
 10
745.7202758789062
 20
798.9050064086914
 10
733.467529296875
 20
811.157772064209
 10
733.4620971679688
 20
826.273998260498
 10
733.4620971679688
 20
826.8567771911621
 10
733.513427734375
 20
827.4261589050293
 10
733.5491943359375
 20
828.0
 10
733.5491943359375
 20
828.0
 10
694.1873168945312
 20
828.0
 10
694.1873168945312
 20
828.0
 10
694.2230224609375
 20
827.4261589050293
 10
694.2744140625
 20
826.8567810058594
 10
694.2744140625
 20
826.273998260498
 10
694.2689819335938
 20
811.1500778198242
 10
682.0042114257812
 20
798.8941345214844
 10
666.8803100585938
 20
798.8995742797852
 10
651.7640380859375
 20
798.9050064086914
 10
639.5112915039062
 20
811.157772064209
 10
639.505859375
 20
826.273998260498
 10
639.505859375
 20
826.8567771911621
 10
639.5571899414062
 20
827.4261589050293
 10
639.5940551757812
 20
828.0
 10
639.5940551757812
 20
828.0
 10
600.2310180664062
 20
828.0
 10
600.2310180664062
 20
828.0
 10
600.2678833007812
 20
827.4261589050293
 10
600.3192138671875
 20
826.8567810058594
 10
600.3192138671875
 20
826.273998260498
 10
600.3137817382812
 20
811.1500778198242
 10
588.0490112304688
 20
798.8941345214844
 10
572.9251098632812
 20
798.8995742797852
 10
557.808837890625
 20
798.9050064086914
 10
545.5560913085938
 20
811.157772064209
 10
545.5506591796875
 20
826.273998260498
 10
545.5506591796875
 20
826.8567771911621
 10
545.6019897460938
 20
827.4261589050293
 10
545.6377563476562
 20
828.0
 10
545.6377563476562
 20
828.0
 10
506.27587890625
 20
828.0
 10
506.27587890625
 20
828.0
 10
506.3115844726562
 20
827.4261589050293
 10
506.3629455566406
 20
826.8567810058594
 10
506.3629455566406
 20
826.273998260498
 10
506.3575134277344
 20
811.1500778198242
 10
494.0927429199219
 20
798.8941345214844
 10
478.9688110351562
 20
798.8995742797852
 10
463.8526000976562
 20
798.9050064086914
 10
451.5998229980469
 20
811.157772064209
 10
451.5943908691406
 20
826.273998260498
 10
451.5943908691406
 20
826.8567771911621
 10
451.645751953125
 20
827.4261589050293
 10
451.6814575195312
 20
828.0
 10
451.6814575195312
 20
828.0
 10
412.3196411132812
 20
828.0
 10
412.3196411132812
 20
828.0
 10
412.3553466796875
 20
827.4261589050293
 10
412.4067077636719
 20
826.8567810058594
 10
412.4067077636719
 20
826.273998260498
 10
412.4012756347656
 20
811.1500778198242
 10
400.1365051269531
 20
798.8941345214844
 10
385.0125732421875
 20
798.8995742797852
 10
369.8963623046875
 20
798.9050064086914
 10
357.6435852050781
 20
811.157772064209
 10
357.6381530761719
 20
826.273998260498
 10
357.6381530761719
 20
826.8567771911621
 10
357.6895141601562
 20
827.4261589050293
 10
357.7252197265625
 20
828.0
 10
357.7252197265625
 20
828.0
 10
318.3633728027344
 20
828.0
 10
318.3633728027344
 20
828.0
 10
318.4002380371094
 20
827.4261589050293
 10
318.4515686035156
 20
826.8567810058594
 10
318.4515686035156
 20
826.273998260498
 10
318.4515686035156
 20
811.1497688293457
 10
306.1909484863281
 20
798.88916015625
 10
291.0667114257812
 20
798.88916015625
 10
275.9425048828125
 20
798.88916015625
 10
263.681884765625
 20
811.1497688293457
 10
263.681884765625
 20
826.273998260498
 10
263.681884765625
 20
826.8567771911621
 10
263.7332458496094
 20
827.4261589050293
 10
263.7689514160156
 20
828.0
 10
263.7689514160156
 20
828.0
 10
224.4082183837891
 20
828.0
 10
224.4082183837891
 20
828.0
 10
224.4439392089844
 20
827.4261589050293
 10
224.4953002929688
 20
826.8567810058594
 10
224.4953002929688
 20
826.273998260498
 10
224.4898529052734
 20
811.1500778198242
 10
212.22509765625
 20
798.8941345214844
 10
197.1011657714844
 20
798.8995742797852
 10
181.9849395751953
 20
798.9050064086914
 10
169.732177734375
 20
811.157772064209
 10
169.7267456054688
 20
826.273998260498
 10
169.7267456054688
 20
826.8567771911621
 10
169.7781066894531
 20
827.4261589050293
 10
169.8138275146484
 20
828.0
 10
169.8138275146484
 20
828.0
 10
130.4519958496094
 20
828.0
 10
130.4519958496094
 20
828.0
 10
130.4877166748047
 20
827.4261589050293
 10
130.5390777587891
 20
826.8567810058594
 10
130.5390777587891
 20
826.273998260498
 10
130.5336303710938
 20
811.1500778198242
 10
118.2688674926758
 20
798.8941345214844
 10
103.1449508666992
 20
798.8995742797852
 10
88.02872467041016
 20
798.9050064086914
 10
75.77596282958984
 20
811.157772064209
 10
75.77052307128906
 20
826.273998260498
 10
75.77052307128906
 20
826.8567771911621
 10
75.8218765258789
 20
827.4261589050293
 10
75.85760498046875
 20
828.0
 10
75.85760498046875
 20
828.0
 10
36.0
 20
828.0
 10
36.0
 20
828.0
 10
36.0
 20
828.0
 10
36.0
 20
788.2306365966797
 10
36.0
 20
788.2306365966797
 10
51.12361145019531
 20
788.2331848144531
 10
63.38578414916992
 20
775.9751358032227
 10
63.38832855224609
 20
760.8515243530273
 10
63.39087295532227
 20
745.727912902832
 10
51.13282775878906
 20
733.4657440185547
 10
36.00921630859375
 20
733.4631958007812
 10
36.00614166259766
 20
733.4631958007812
 10
36.00307083129883
 20
733.4631958007812
 10
36.0
 20
733.4631958007812
 10
36.0
 20
733.4631958007812
 10
36.0
 20
694.2743835449219
 10
36.0
 20
694.2743835449219
 10
51.12361526489258
 20
694.2796783447266
 10
63.38801574707031
 20
682.0238494873047
 10
63.39330291748047
 20
666.9002227783203
 10
63.39859008789062
 20
651.776611328125
 10
51.14276504516602
 20
639.5122222900391
 10
36.01914978027344
 20
639.5069274902344
 10
36.01276397705078
 20
639.5069274902344
 10
36.00638198852539
 20
639.5069274902344
 10
36.0
 20
639.5069274902344
 10
36.0
 20
639.5069274902344
 10
36.0
 20
600.318115234375
 10
36.0
 20
600.318115234375
 10
51.12361526489258
 20
600.318115234375
 10
63.38372802734375
 20
588.0580139160156
 10
63.38372802734375
 20
572.9343872070312
 10
63.38372802734375
 20
557.8107604980469
 10
51.12361526489258
 20
545.5506591796875
 10
36.0
 20
545.5506591796875
 10
36.0
 20
545.5506591796875
 10
36.0
 20
506.3640747070312
 10
36.0
 20
506.3640747070312
 10
51.12422180175781
 20
506.3788146972656
 10
63.39677429199219
 20
494.1301574707031
 10
63.41151428222656
 20
479.0059204101562
 10
63.42625045776367
 20
463.8817138671875
 10
51.17759323120117
 20
451.6091613769531
 10
36.05337142944336
 20
451.5944213867188
 10
36.03557968139648
 20
451.5943908691406
 10
36.01779174804688
 20
451.5943908691406
 10
36.0
 20
451.5944213867188
 10
36.0
 20
451.5944213867188
 10
36.0
 20
412.4078369140625
 10
36.0
 20
412.4078369140625
 10
51.12422180175781
 20
412.4225769042969
 10
63.39677429199219
 20
400.1739196777344
 10
63.41151428222656
 20
385.0496826171875
 10
63.42625045776367
 20
369.9254760742188
 10
51.17759323120117
 20
357.6529235839844
 10
36.05337142944336
 20
357.63818359375
 10
36.03557968139648
 20
357.6381530761719
 10
36.01779174804688
 20
357.6381530761719
 10
36.0
 20
357.63818359375
 10
36.0
 20
357.63818359375
 10
36.0
 20
318.4515991210938
 10
36.0
 20
318.4515991210938
 10
51.12422180175781
 20
318.46630859375
 10
63.39677429199219
 20
306.2176513671875
 10
63.41151428222656
 20
291.0934448242188
 10
63.42625045776367
 20
275.96923828125
 10
51.17759323120117
 20
263.6966552734375
 10
36.05337142944336
 20
263.6819458007812
 10
36.03557968139648
 20
263.6819458007812
 10
36.01779174804688
 20
263.6819458007812
 10
36.0
 20
263.6819458007812
 10
36.0
 20
263.6819458007812
 10
36.0
 20
224.4953002929688
 10
36.0
 20
224.4953002929688
 10
51.12422180175781
 20
224.510009765625
 10
63.39677429199219
 20
212.2613525390625
 10
63.41151428222656
 20
197.1371459960938
 10
63.42625045776367
 20
182.012939453125
 10
51.17759323120117
 20
169.7403564453125
 10
36.05337142944336
 20
169.7256469726562
 10
36.03557968139648
 20
169.7256469726562
 10
36.01779174804688
 20
169.7256469726562
 10
36.0
 20
169.7256469726562
 10
36.0
 20
169.7256469726562
 10
36.0
 20
130.5390014648438
 10
36.0
 20
130.5390014648438
 10
51.12361526489258
 20
130.5443115234375
 10
63.38801574707031
 20
118.2884521484375
 10
63.39330291748047
 20
103.1648559570312
 10
63.39859008789062
 20
88.041259765625
 10
51.14276504516602
 20
75.77685546875
 10
36.01914978027344
 20
75.77154541015625
 10
36.01276397705078
 20
75.77154541015625
 10
36.00638198852539
 20
75.77154541015625
 10
36.0
 20
75.77154541015625
 10
36.0
 20
75.77154541015625
 10
36.0
 20
36.0
 10
36.0
 20
36.0
 10
36.0
 20
36.0
 10
75.85755920410156
 20
36.0
 10
75.85755920410156
 20
36.0
 10
76.79193115234375
 20
51.0758056640625
 10
89.77075958251953
 20
62.53973388671875
 10
104.8465881347656
 20
61.6053466796875
 10
118.6190032958984
 20
60.75177001953125
 10
129.5983734130859
 20
49.77239990234375
 10
130.4519653320312
 20
36.0
 10
130.4519653320312
 20
36.0
 10
169.8138275146484
 20
36.0
 10
169.8138275146484
 20
36.0
 10
170.7481994628906
 20
51.0758056640625
 10
183.7270355224609
 20
62.53973388671875
 10
198.8028564453125
 20
61.6053466796875
 10
212.5752716064453
 20
60.75177001953125
 10
223.5546417236328
 20
49.77239990234375
 10
224.4082336425781
 20
36.0
 10
224.4082336425781
 20
36.0
 10
263.7690124511719
 20
36.0
 10
263.7690124511719
 20
36.0
 10
264.7033386230469
 20
51.0758056640625
 10
277.6821594238281
 20
62.53973388671875
 10
292.7579650878906
 20
61.60540771484375
 10
306.5304260253906
 20
60.75189208984375
 10
317.5098571777344
 20
49.7724609375
 10
318.3634033203125
 20
36.0
 10
318.3634033203125
 20
36.0
 10
357.7252807617188
 20
36.0
 10
357.7252807617188
 20
36.0
 10
358.6597290039062
 20
51.0758056640625
 10
371.6386108398438
 20
62.5396728515625
 10
386.7144165039062
 20
61.605224609375
 10
400.4867248535156
 20
60.7515869140625
 10
411.4660339355469
 20
49.7723388671875
 10
412.3196716308594
 20
36.0
 10
412.3196716308594
 20
36.0
 10
451.6815185546875
 20
36.0
 10
451.6815185546875
 20
36.0
 10
452.615966796875
 20
51.0758056640625
 10
465.5948486328125
 20
62.5396728515625
 10
480.670654296875
 20
61.605224609375
 10
494.4429626464844
 20
60.7515869140625
 10
505.4222717285156
 20
49.7723388671875
 10
506.2759094238281
 20
36.0
 10
506.2759094238281
 20
36.0
 10
545.6377563476562
 20
36.0
 10
545.6377563476562
 20
36.0
 10
546.572021484375
 20
51.07550048828125
 10
559.550537109375
 20
62.53924560546875
 10
574.6260375976562
 20
61.60498046875
 10
588.3982543945312
 20
60.75146484375
 10
599.3775024414062
 20
49.772216796875
 10
600.2310180664062
 20
36.0
 10
600.2310180664062
 20
36.0
 10
639.593994140625
 20
36.0
 10
639.593994140625
 20
36.0
 10
640.5282592773438
 20
51.07550048828125
 10
653.5067749023438
 20
62.53924560546875
 10
668.582275390625
 20
61.60498046875
 10
682.3544921875
 20
60.75146484375
 10
693.333740234375
 20
49.772216796875
 10
694.187255859375
 20
36.0
 10
694.187255859375
 20
36.0
 10
733.5491333007812
 20
36.0
 10
733.5491333007812
 20
36.0
 10
734.4834594726562
 20
51.0758056640625
 10
747.4622192382812
 20
62.539794921875
 10
762.5380249023438
 20
61.60552978515625
 10
776.310546875
 20
60.751953125
 10
787.2900390625
 20
49.77252197265625
 10
788.1435546875
 20
36.0
 10
788.1435546875
 20
36.0
 10
828.0
 20
36.0
 10
828.0
 20
36.0
 10
828.0
 20
36.0
 10
828.0
 20
75.7716064453125
 10
828.0
 20
75.7716064453125
 10
812.8764038085938
 20
75.77691650390625
 10
800.6205444335938
 20
88.04132080078125
 10
800.6258544921875
 20
103.1649169921875
 10
800.631103515625
 20
118.2810668945312
 10
812.8838500976562
 20
130.5337524414062
 10
828.0
 20
130.5390625
 10
828.0
 20
130.5390625
 10
828.0
 20
169.7256469726562
 10
828.0
 20
169.7256469726562
 10
812.8757934570312
 20
169.7403564453125
 10
800.6271362304688
 20
182.012939453125
 10
800.641845703125
 20
197.1371459960938
 10
800.6565551757812
 20
212.2405395507812
 10
812.8966064453125
 20
224.4805908203125
 10
828.0
 20
224.4953002929688
 10
828.0
 20
224.4953002929688
 10
828.0
 20
263.681884765625
 10
828.0
 20
263.681884765625
 10
812.8757934570312
 20
263.6965942382812
 10
800.6271362304688
 20
275.9691772460938
 10
800.641845703125
 20
291.0933837890625
 10
800.6565551757812
 20
306.19677734375
 10
812.8966064453125
 20
318.4368286132812
 10
828.0
 20
318.4515380859375
 10
828.0
 20
318.4515380859375
 10
828.0
 20
357.6381530761719
 10
828.0
 20
357.6381530761719
 10
812.8757934570312
 20
357.6381530761719
 10
800.6151733398438
 20
369.8987731933594
 10
800.6151733398438
 20
385.0230102539062
 10
800.6151733398438
 20
400.147216796875
 10
812.8757934570312
 20
412.4078369140625
 10
828.0
 20
412.4078369140625
 10
828.0
 20
412.4078369140625
 10
828.0
 20
451.5944213867188
 10
828.0
 20
451.5944213867188
 10
812.8757934570312
 20
451.6091613769531
 10
800.6271362304688
 20
463.8817138671875
 10
800.641845703125
 20
479.0059204101562
 10
800.6565551757812
 20
494.1093139648438
 10
812.8966064453125
 20
506.349365234375
 10
828.0
 20
506.3640747070312
 10
828.0
 20
506.3640747070312
 10
828.0
 20
545.5506591796875
 10
828.0
 20
545.5506591796875
 10
812.8764038085938
 20
545.5506591796875
 10
800.6162719726562
 20
557.8107604980469
 10
800.6162719726562
 20
572.9343872070312
 10
800.6162719726562
 20
588.0580139160156
 10
812.8764038085938
 20
600.318115234375
 10
828.0
 20
600.318115234375
 10
828.0
 20
600.318115234375
 10
828.0
 20
600.318115234375
 10
828.0
 20
600.318115234375
 10
828.0
 20
600.318115234375
 10
828.0
 20
639.5069274902344
 10
828.0
 20
639.5069274902344
 10
812.8764038085938
 20
639.5069274902344
 10
800.6162719726562
 20
651.7670440673828
 10
800.6162719726562
 20
666.8906555175781
 10
800.6162719726562
 20
682.0142669677734
 10
812.8764038085938
 20
694.2743835449219
 10
828.0
 20
694.2743835449219
 10
828.0
 20
694.2743835449219
 10
828.0
 20
694.2743835449219
 10
828.0
 20
694.2743835449219
 10
828.0
 20
694.2743835449219
 10
828.0
 20
733.4631958007812
 10
828.0
 20
733.4631958007812
 10
812.8764038085938
 20
733.4657440185547
 10
800.6183471679688
 20
745.727912902832
 10
800.6209106445312
 20
760.8515243530273
 10
800.6234130859375
 20
775.9715347290039
 10
812.8800048828125
 20
788.2280883789062
 10
828.0
 20
788.2306365966797
 97
        0
 97
        0
 75
     2
 76
     1
 98
        0
  0
ENDSEC
  0
SECTION
  2
OBJECTS
  0
DICTIONARY
  5
C
330
0
100
AcDbDictionary
281
     1
  3
ACAD_GROUP
350
D
  3
ACAD_LAYOUT
350
1A
  3
ACAD_MATERIAL
350
3B
  3
ACAD_MLEADERSTYLE
350
44
  3
ACAD_MLINESTYLE
350
17
  3
ACAD_PLOTSETTINGS
350
19
  3
ACAD_PLOTSTYLENAME
350
E
  3
ACAD_TABLESTYLE
350
43
  3
ACAD_VISUALSTYLE
350
2A
  0
SUN
  5
3F
330
29
100
AcDbSun
 90
        1
290
     0
 63
     7
421
 16777215
 40
1.0
291
     1
 91
  2455826
 92
 54000000
292
     0
 70
     2
 71
   256
280
     1
  0
DICTIONARY
  5
D
102
{ACAD_REACTORS
330
C
102
}
330
C
100
AcDbDictionary
281
     1
  0
DICTIONARY
  5
1A
102
{ACAD_REACTORS
330
C
102
}
330
C
100
AcDbDictionary
281
     1
  3
Layout1
350
1E
  3
Layout2
350
26
  3
Model
350
22
  0
DICTIONARY
  5
3B
102
{ACAD_REACTORS
330
C
102
}
330
C
100
AcDbDictionary
281
     1
  3
ByBlock
350
3D
  3
ByLayer
350
3C
  3
Global
350
3E
  0
DICTIONARY
  5
44
102
{ACAD_REACTORS
330
C
102
}
330
C
100
AcDbDictionary
281
     1
  0
DICTIONARY
  5
17
102
{ACAD_REACTORS
330
C
102
}
330
C
100
AcDbDictionary
281
     1
  3
Standard
350
18
  0
DICTIONARY
  5
19
102
{ACAD_REACTORS
330
C
102
}
330
C
100
AcDbDictionary
281
     1
  0
ACDBDICTIONARYWDFLT
  5
E
102
{ACAD_REACTORS
330
C
102
}
330
C
100
AcDbDictionary
281
     1
  3
Normal
350
F
100
AcDbDictionaryWithDefault
340
F
  0
DICTIONARY
  5
43
102
{ACAD_REACTORS
330
C
102
}
330
C
100
AcDbDictionary
281
     1
  0
DICTIONARY
  5
2A
102
{ACAD_REACTORS
330
C
102
}
330
C
100
AcDbDictionary
281
     1
  3
2dWireframe
350
2F
  3
3D Hidden
350
31
  3
3dWireframe
350
30
  3
Basic
350
32
  3
Brighten
350
36
  3
ColorChange
350
3A
  3
Conceptual
350
34
  3
Dim
350
35
  3
Facepattern
350
39
  3
Flat
350
2B
  3
FlatWithEdges
350
2C
  3
Gouraud
350
2D
  3
GouraudWithEdges
350
2E
  3
Linepattern
350
38
  3
Realistic
350
33
  3
Thicken
350
37
  0
LAYOUT
  5
1E
102
{ACAD_REACTORS
330
1A
102
}
330
1A
100
AcDbPlotSettings
  1

  2
none_device
  4

  6

 40
0.0
 41
0.0
 42
0.0
 43
0.0
 44
0.0
 45
0.0
 46
0.0
 47
0.0
 48
0.0
 49
0.0
140
0.0
141
0.0
142
1.0
143
1.0
 70
   688
 72
     0
 73
     0
 74
     5
  7

 75
    16
 76
     0
 77
     2
 78
   300
147
1.0
148
0.0
149
0.0
100
AcDbLayout
  1
Layout1
 70
     1
 71
     1
 10
0.0
 20
0.0
 11
12.0
 21
9.0
 12
0.0
 22
0.0
 32
0.0
 14
1.000000000000000E+20
 24
1.000000000000000E+20
 34
1.000000000000000E+20
 15
-1.000000000000000E+20
 25
-1.000000000000000E+20
 35
-1.000000000000000E+20
146
0.0
 13
0.0
 23
0.0
 33
0.0
 16
1.0
 26
0.0
 36
0.0
 17
0.0
 27
1.0
 37
0.0
 76
     0
330
1B
  0
LAYOUT
  5
26
102
{ACAD_REACTORS
330
1A
102
}
330
1A
100
AcDbPlotSettings
  1

  2
none_device
  4

  6

 40
0.0
 41
0.0
 42
0.0
 43
0.0
 44
0.0
 45
0.0
 46
0.0
 47
0.0
 48
0.0
 49
0.0
140
0.0
141
0.0
142
1.0
143
1.0
 70
   688
 72
     0
 73
     0
 74
     5
  7

 75
    16
 76
     0
 77
     2
 78
   300
147
1.0
148
0.0
149
0.0
100
AcDbLayout
  1
Layout2
 70
     1
 71
     2
 10
0.0
 20
0.0
 11
0.0
 21
0.0
 12
0.0
 22
0.0
 32
0.0
 14
0.0
 24
0.0
 34
0.0
 15
0.0
 25
0.0
 35
0.0
146
0.0
 13
0.0
 23
0.0
 33
0.0
 16
1.0
 26
0.0
 36
0.0
 17
0.0
 27
1.0
 37
0.0
 76
     0
330
23
  0
LAYOUT
  5
22
102
{ACAD_REACTORS
330
1A
102
}
330
1A
100
AcDbPlotSettings
  1

  2
none_device
  4

  6

 40
0.0
 41
0.0
 42
0.0
 43
0.0
 44
0.0
 45
0.0
 46
0.0
 47
0.0
 48
0.0
 49
0.0
140
0.0
141
0.0
142
1.0
143
1.0
 70
  1712
 72
     0
 73
     0
 74
     0
  7

 75
     0
 76
     0
 77
     2
 78
   300
147
1.0
148
0.0
149
0.0
100
AcDbLayout
  1
Model
 70
     1
 71
     0
 10
0.0
 20
0.0
 11
12.0
 21
9.0
 12
0.0
 22
0.0
 32
0.0
 14
1.000000000000000E+20
 24
1.000000000000000E+20
 34
1.000000000000000E+20
 15
-1.000000000000000E+20
 25
-1.000000000000000E+20
 35
-1.000000000000000E+20
146
0.0
 13
0.0
 23
0.0
 33
0.0
 16
1.0
 26
0.0
 36
0.0
 17
0.0
 27
1.0
 37
0.0
 76
     0
330
1F
331
29
  0
MATERIAL
  5
3D
102
{ACAD_REACTORS
330
3B
102
}
330
3B
100
AcDbMaterial
  1
ByBlock
 72
     1
 94
      127
  0
MATERIAL
  5
3C
102
{ACAD_REACTORS
330
3B
102
}
330
3B
100
AcDbMaterial
  1
ByLayer
 72
     1
 94
      127
  0
MATERIAL
  5
3E
102
{ACAD_REACTORS
330
3B
102
}
330
3B
100
AcDbMaterial
  1
Global
 72
     1
 94
      127
  0
MLINESTYLE
  5
18
102
{ACAD_REACTORS
330
17
102
}
330
17
100
AcDbMlineStyle
  2
Standard
 70
     0
  3

 62
   256
 51
90.0
 52
90.0
 71
     2
 49
0.5
 62
   256
  6
BYLAYER
 49
-0.5
 62
   256
  6
BYLAYER
  0
ACDBPLACEHOLDER
  5
F
102
{ACAD_REACTORS
330
E
102
}
330
E
  0
VISUALSTYLE
  5
2F
102
{ACAD_REACTORS
330
2A
102
}
330
2A
100
AcDbVisualStyle
  2
2dWireframe
 70
     4
177
     2
291
     0
 71
     0
176
     1
 72
     2
176
     1
 73
     0
176
     1
 90
        0
176
     1
 40
-0.6
176
     1
 41
-30.0
176
     1
 62
     5
 63
     7
421
 16777215
176
     1
 74
     1
176
     1
 91
        4
176
     1
 64
     7
176
     1
 65
   257
176
     1
 75
     1
176
     1
175
     1
176
     1
 42
1.0
176
     1
 92
        0
176
     1
 66
   257
176
     1
 43
1.0
176
     1
 76
     1
176
     1
 77
     6
176
     1
 78
     2
176
     1
 67
     7
176
     1
 79
     5
176
     1
170
     0
176
     1
171
     0
176
     1
290
     0
176
     1
 93
        1
176
     1
 44
0.0
176
     1
173
     0
176
     1
  0
VISUALSTYLE
  5
31
102
{ACAD_REACTORS
330
2A
102
}
330
2A
100
AcDbVisualStyle
  2
3D Hidden
 70
     6
177
     2
291
     0
 71
     1
176
     1
 72
     2
176
     1
 73
     2
176
     1
 90
        0
176
     1
 40
-0.6
176
     1
 41
-30.0
176
     1
 62
     5
 63
     7
421
 16777215
176
     1
 74
     2
176
     1
 91
        2
176
     1
 64
     7
176
     1
 65
   257
176
     1
 75
     2
176
     1
175
     1
176
     1
 42
40.0
176
     1
 92
        0
176
     1
 66
   257
176
     1
 43
1.0
176
     1
 76
     1
176
     1
 77
     6
176
     1
 78
     2
176
     1
 67
     7
176
     1
 79
     3
176
     1
170
     0
176
     1
171
     0
176
     1
290
     0
176
     1
 93
        1
176
     1
 44
0.0
176
     1
173
     0
176
     1
  0
VISUALSTYLE
  5
30
102
{ACAD_REACTORS
330
2A
102
}
330
2A
100
AcDbVisualStyle
  2
3dWireframe
 70
     5
177
     2
291
     0
 71
     0
176
     1
 72
     2
176
     1
 73
     0
176
     1
 90
        0
176
     1
 40
-0.6
176
     1
 41
-30.0
176
     1
 62
     5
 63
     7
421
 16777215
176
     1
 74
     1
176
     1
 91
        4
176
     1
 64
     7
176
     1
 65
   257
176
     1
 75
     1
176
     1
175
     1
176
     1
 42
1.0
176
     1
 92
        0
176
     1
 66
   257
176
     1
 43
1.0
176
     1
 76
     1
176
     1
 77
     6
176
     1
 78
     2
176
     1
 67
     7
176
     1
 79
     5
176
     1
170
     0
176
     1
171
     0
176
     1
290
     0
176
     1
 93
        1
176
     1
 44
0.0
176
     1
173
     0
176
     1
  0
VISUALSTYLE
  5
32
102
{ACAD_REACTORS
330
2A
102
}
330
2A
100
AcDbVisualStyle
  2
Basic
 70
     7
177
     2
291
     1
 71
     1
176
     1
 72
     0
176
     1
 73
     1
176
     1
 90
        0
176
     1
 40
-0.6
176
     1
 41
-30.0
176
     1
 62
     5
 63
     7
421
 16777215
176
     1
 74
     0
176
     1
 91
        4
176
     1
 64
     7
176
     1
 65
   257
176
     1
 75
     1
176
     1
175
     1
176
     1
 42
1.0
176
     1
 92
        8
176
     1
 66
     7
176
     1
 43
1.0
176
     1
 76
     1
176
     1
 77
     6
176
     1
 78
     2
176
     1
 67
     7
176
     1
 79
     5
176
     1
170
     0
176
     1
171
     0
176
     1
290
     0
176
     1
 93
        1
176
     1
 44
0.0
176
     1
173
     0
176
     1
  0
VISUALSTYLE
  5
36
102
{ACAD_REACTORS
330
2A
102
}
330
2A
100
AcDbVisualStyle
  2
Brighten
 70
    12
177
     2
291
     1
 71
     2
176
     1
 72
     2
176
     1
 73
     0
176
     1
 90
        0
176
     1
 40
-0.6
176
     1
 41
-30.0
176
     1
 62
     5
 63
     7
421
 16777215
176
     1
 74
     1
176
     1
 91
        4
176
     1
 64
     7
176
     1
 65
   257
176
     1
 75
     1
176
     1
175
     1
176
     1
 42
1.0
176
     1
 92
        8
176
     1
 66
     7
176
     1
 43
1.0
176
     1
 76
     1
176
     1
 77
     6
176
     1
 78
     2
176
     1
 67
     7
176
     1
 79
     5
176
     1
170
     0
176
     1
171
     0
176
     1
290
     0
176
     1
 93
        1
176
     1
 44
50.0
176
     1
173
     0
176
     1
  0
VISUALSTYLE
  5
3A
102
{ACAD_REACTORS
330
2A
102
}
330
2A
100
AcDbVisualStyle
  2
ColorChange
 70
    16
177
     2
291
     1
 71
     2
176
     1
 72
     2
176
     1
 73
     3
176
     1
 90
        0
176
     1
 40
-0.6
176
     1
 41
-30.0
176
     1
 62
     5
 63
     8
421
  8421504
176
     1
 74
     1
176
     1
 91
        4
176
     1
 64
     7
176
     1
 65
   257
176
     1
 75
     1
176
     1
175
     1
176
     1
 42
1.0
176
     1
 92
        8
176
     1
 66
     8
424
  8421504
176
     1
 43
1.0
176
     1
 76
     1
176
     1
 77
     6
176
     1
 78
     2
176
     1
 67
     7
176
     1
 79
     5
176
     1
170
     0
176
     1
171
     0
176
     1
290
     0
176
     1
 93
        1
176
     1
 44
0.0
176
     1
173
     0
176
     1
  0
VISUALSTYLE
  5
34
102
{ACAD_REACTORS
330
2A
102
}
330
2A
100
AcDbVisualStyle
  2
Conceptual
 70
     9
177
     2
291
     0
 71
     3
176
     1
 72
     2
176
     1
 73
     0
176
     1
 90
        0
176
     1
 40
-0.6
176
     1
 41
-30.0
176
     1
 62
     5
 63
     7
421
 16777215
176
     1
 74
     2
176
     1
 91
        2
176
     1
 64
     7
176
     1
 65
   257
176
     1
 75
     1
176
     1
175
     1
176
     1
 42
40.0
176
     1
 92
        8
176
     1
 66
     7
176
     1
 43
1.0
176
     1
 76
     1
176
     1
 77
     6
176
     1
 78
     2
176
     1
 67
     7
176
     1
 79
     3
176
     1
170
     0
176
     1
171
     0
176
     1
290
     0
176
     1
 93
        1
176
     1
 44
0.0
176
     1
173
     0
176
     1
  0
VISUALSTYLE
  5
35
102
{ACAD_REACTORS
330
2A
102
}
330
2A
100
AcDbVisualStyle
  2
Dim
 70
    11
177
     2
291
     1
 71
     2
176
     1
 72
     2
176
     1
 73
     0
176
     1
 90
        0
176
     1
 40
-0.6
176
     1
 41
-30.0
176
     1
 62
     5
 63
     7
421
 16777215
176
     1
 74
     1
176
     1
 91
        4
176
     1
 64
     7
176
     1
 65
   257
176
     1
 75
     1
176
     1
175
     1
176
     1
 42
1.0
176
     1
 92
        8
176
     1
 66
     7
176
     1
 43
1.0
176
     1
 76
     1
176
     1
 77
     6
176
     1
 78
     2
176
     1
 67
     7
176
     1
 79
     5
176
     1
170
     0
176
     1
171
     0
176
     1
290
     0
176
     1
 93
        1
176
     1
 44
-50.0
176
     1
173
     0
176
     1
  0
VISUALSTYLE
  5
39
102
{ACAD_REACTORS
330
2A
102
}
330
2A
100
AcDbVisualStyle
  2
Facepattern
 70
    15
177
     2
291
     1
 71
     2
176
     1
 72
     2
176
     1
 73
     0
176
     1
 90
        0
176
     1
 40
-0.6
176
     1
 41
-30.0
176
     1
 62
     5
 63
     7
421
 16777215
176
     1
 74
     1
176
     1
 91
        4
176
     1
 64
     7
176
     1
 65
   257
176
     1
 75
     1
176
     1
175
     1
176
     1
 42
1.0
176
     1
 92
        8
176
     1
 66
     7
176
     1
 43
1.0
176
     1
 76
     1
176
     1
 77
     6
176
     1
 78
     2
176
     1
 67
     7
176
     1
 79
     5
176
     1
170
     0
176
     1
171
     0
176
     1
290
     0
176
     1
 93
        1
176
     1
 44
0.0
176
     1
173
     0
176
     1
  0
VISUALSTYLE
  5
2B
102
{ACAD_REACTORS
330
2A
102
}
330
2A
100
AcDbVisualStyle
  2
Flat
 70
     0
177
     2
291
     1
 71
     2
176
     1
 72
     1
176
     1
 73
     1
176
     1
 90
        2
176
     1
 40
-0.6
176
     1
 41
30.0
176
     1
 62
     5
 63
     7
421
 16777215
176
     1
 74
     0
176
     1
 91
        4
176
     1
 64
     7
176
     1
 65
   257
176
     1
 75
     1
176
     1
175
     1
176
     1
 42
1.0
176
     1
 92
        8
176
     1
 66
     7
176
     1
 43
1.0
176
     1
 76
     1
176
     1
 77
     6
176
     1
 78
     2
176
     1
 67
     7
176
     1
 79
     5
176
     1
170
     0
176
     1
171
     0
176
     1
290
     0
176
     1
 93
       13
176
     1
 44
0.0
176
     1
173
     0
176
     1
  0
VISUALSTYLE
  5
2C
102
{ACAD_REACTORS
330
2A
102
}
330
2A
100
AcDbVisualStyle
  2
FlatWithEdges
 70
     1
177
     2
291
     1
 71
     2
176
     1
 72
     1
176
     1
 73
     1
176
     1
 90
        2
176
     1
 40
-0.6
176
     1
 41
30.0
176
     1
 62
     5
 63
     7
421
 16777215
176
     1
 74
     1
176
     1
 91
        4
176
     1
 64
     7
176
     1
 65
   257
176
     1
 75
     1
176
     1
175
     1
176
     1
 42
1.0
176
     1
 92
        0
176
     1
 66
   257
176
     1
 43
1.0
176
     1
 76
     1
176
     1
 77
     6
176
     1
 78
     2
176
     1
 67
     7
176
     1
 79
     5
176
     1
170
     0
176
     1
171
     0
176
     1
290
     0
176
     1
 93
       13
176
     1
 44
0.0
176
     1
173
     0
176
     1
  0
VISUALSTYLE
  5
2D
102
{ACAD_REACTORS
330
2A
102
}
330
2A
100
AcDbVisualStyle
  2
Gouraud
 70
     2
177
     2
291
     1
 71
     2
176
     1
 72
     2
176
     1
 73
     1
176
     1
 90
        2
176
     1
 40
-0.6
176
     1
 41
30.0
176
     1
 62
     5
 63
     7
421
 16777215
176
     1
 74
     0
176
     1
 91
        4
176
     1
 64
     7
176
     1
 65
   257
176
     1
 75
     1
176
     1
175
     1
176
     1
 42
1.0
176
     1
 92
        0
176
     1
 66
     7
176
     1
 43
1.0
176
     1
 76
     1
176
     1
 77
     6
176
     1
 78
     2
176
     1
 67
     7
176
     1
 79
     5
176
     1
170
     0
176
     1
171
     0
176
     1
290
     0
176
     1
 93
       13
176
     1
 44
0.0
176
     1
173
     0
176
     1
  0
VISUALSTYLE
  5
2E
102
{ACAD_REACTORS
330
2A
102
}
330
2A
100
AcDbVisualStyle
  2
GouraudWithEdges
 70
     3
177
     2
291
     1
 71
     2
176
     1
 72
     2
176
     1
 73
     1
176
     1
 90
        2
176
     1
 40
-0.6
176
     1
 41
30.0
176
     1
 62
     5
 63
     7
421
 16777215
176
     1
 74
     1
176
     1
 91
        4
176
     1
 64
     7
176
     1
 65
   257
176
     1
 75
     1
176
     1
175
     1
176
     1
 42
1.0
176
     1
 92
        0
176
     1
 66
   257
176
     1
 43
1.0
176
     1
 76
     1
176
     1
 77
     6
176
     1
 78
     2
176
     1
 67
     7
176
     1
 79
     5
176
     1
170
     0
176
     1
171
     0
176
     1
290
     0
176
     1
 93
       13
176
     1
 44
0.0
176
     1
173
     0
176
     1
  0
VISUALSTYLE
  5
38
102
{ACAD_REACTORS
330
2A
102
}
330
2A
100
AcDbVisualStyle
  2
Linepattern
 70
    14
177
     2
291
     1
 71
     2
176
     1
 72
     2
176
     1
 73
     0
176
     1
 90
        0
176
     1
 40
-0.6
176
     1
 41
-30.0
176
     1
 62
     5
 63
     7
421
 16777215
176
     1
 74
     1
176
     1
 91
        4
176
     1
 64
     7
176
     1
 65
   257
176
     1
 75
     7
176
     1
175
     7
176
     1
 42
1.0
176
     1
 92
        8
176
     1
 66
     7
176
     1
 43
1.0
176
     1
 76
     1
176
     1
 77
     6
176
     1
 78
     2
176
     1
 67
     7
176
     1
 79
     5
176
     1
170
     0
176
     1
171
     0
176
     1
290
     0
176
     1
 93
        1
176
     1
 44
0.0
176
     1
173
     0
176
     1
  0
VISUALSTYLE
  5
33
102
{ACAD_REACTORS
330
2A
102
}
330
2A
100
AcDbVisualStyle
  2
Realistic
 70
     8
177
     2
291
     0
 71
     2
176
     1
 72
     2
176
     1
 73
     0
176
     1
 90
        0
176
     1
 40
-0.6
176
     1
 41
-30.0
176
     1
 62
     5
 63
     7
421
 16777215
176
     1
 74
     1
176
     1
 91
        0
176
     1
 64
     7
176
     1
 65
   257
176
     1
 75
     1
176
     1
175
     1
176
     1
 42
1.0
176
     1
 92
        8
176
     1
 66
     8
424
  7895160
176
     1
 43
1.0
176
     1
 76
     1
176
     1
 77
     6
176
     1
 78
     2
176
     1
 67
     7
176
     1
 79
     5
176
     1
170
     0
176
     1
171
     0
176
     1
290
     0
176
     1
 93
       13
176
     1
 44
0.0
176
     1
173
     0
176
     1
  0
VISUALSTYLE
  5
37
102
{ACAD_REACTORS
330
2A
102
}
330
2A
100
AcDbVisualStyle
  2
Thicken
 70
    13
177
     2
291
     1
 71
     2
176
     1
 72
     2
176
     1
 73
     0
176
     1
 90
        0
176
     1
 40
-0.6
176
     1
 41
-30.0
176
     1
 62
     5
 63
     7
421
 16777215
176
     1
 74
     1
176
     1
 91
        4
176
     1
 64
     7
176
     1
 65
   257
176
     1
 75
     1
176
     1
175
     1
176
     1
 42
1.0
176
     1
 92
       12
176
     1
 66
     7
176
     1
 43
1.0
176
     1
 76
     1
176
     1
 77
     6
176
     1
 78
     2
176
     1
 67
     7
176
     1
 79
     5
176
     1
170
     0
176
     1
171
     0
176
     1
290
     0
176
     1
 93
        1
176
     1
 44
0.0
176
     1
173
     0
176
     1
  0
ENDSEC
  0
EOF
