  0
SECTION
  2
HEADER
  9
$ACADVER
  1
AC1024
  9
$ACADMAINTVER
 70
     6
  9
$DWGCODEPAGE
  3
UNDEFINED
  9
$INSBASE
 10
0.0
 20
0.0
 30
0.0
  9
$EXTMIN
 10
1.000000000000000E+20
 20
1.000000000000000E+20
 30
1.000000000000000E+20
  9
$EXTMAX
 10
-1.000000000000000E+20
 20
-1.000000000000000E+20
 30
-1.000000000000000E+20
  9
$LIMMIN
 10
0.0
 20
0.0
  9
$LIMMAX
 10
12.0
 20
9.0
  9
$ORTHOMODE
 70
     0
  9
$REGENMODE
 70
     1
  9
$FILLMODE
 70
     1
  9
$QTEXTMODE
 70
     0
  9
$MIRRTEXT
 70
     1
  9
$LTSCALE
 40
1.0
  9
$ATTMODE
 70
     1
  9
$TEXTSIZE
 40
0.2
  9
$TRACEWID
 40
0.05
  9
$TEXTSTYLE
  7
Standard
  9
$CLAYER
  8
0
  9
$CELTYPE
  6
ByLayer
  9
$CECOLOR
 62
   256
  9
$CELTSCALE
 40
1.0
  9
$DISPSILH
 70
     0
  9
$DIMSCALE
 40
1.0
  9
$DIMASZ
 40
0.18
  9
$DIMEXO
 40
0.0625
  9
$DIMDLI
 40
0.38
  9
$DIMRND
 40
0.0
  9
$DIMDLE
 40
0.0
  9
$DIMEXE
 40
0.18
  9
$DIMTP
 40
0.0
  9
$DIMTM
 40
0.0
  9
$DIMTXT
 40
0.18
  9
$DIMCEN
 40
0.09
  9
$DIMTSZ
 40
0.0
  9
$DIMTOL
 70
     0
  9
$DIMLIM
 70
     0
  9
$DIMTIH
 70
     1
  9
$DIMTOH
 70
     1
  9
$DIMSE1
 70
     0
  9
$DIMSE2
 70
     0
  9
$DIMTAD
 70
     0
  9
$DIMZIN
 70
     0
  9
$DIMBLK
  1

  9
$DIMASO
 70
     1
  9
$DIMSHO
 70
     1
  9
$DIMPOST
  1

  9
$DIMAPOST
  1

  9
$DIMALT
 70
     0
  9
$DIMALTD
 70
     2
  9
$DIMALTF
 40
25.4
  9
$DIMLFAC
 40
1.0
  9
$DIMTOFL
 70
     0
  9
$DIMTVP
 40
0.0
  9
$DIMTIX
 70
     0
  9
$DIMSOXD
 70
     0
  9
$DIMSAH
 70
     0
  9
$DIMBLK1
  1

  9
$DIMBLK2
  1

  9
$DIMSTYLE
  2
Standard
  9
$DIMCLRD
 70
     0
  9
$DIMCLRE
 70
     0
  9
$DIMCLRT
 70
     0
  9
$DIMTFAC
 40
1.0
  9
$DIMGAP
 40
0.09
  9
$DIMJUST
 70
     0
  9
$DIMSD1
 70
     0
  9
$DIMSD2
 70
     0
  9
$DIMTOLJ
 70
     1
  9
$DIMTZIN
 70
     0
  9
$DIMALTZ
 70
     0
  9
$DIMALTTZ
 70
     0
  9
$DIMUPT
 70
     0
  9
$DIMDEC
 70
     4
  9
$DIMTDEC
 70
     4
  9
$DIMALTU
 70
     2
  9
$DIMALTTD
 70
     2
  9
$DIMTXSTY
  7
Standard
  9
$DIMAUNIT
 70
     0
  9
$DIMADEC
 70
     0
  9
$DIMALTRND
 40
0.0
  9
$DIMAZIN
 70
     0
  9
$DIMDSEP
 70
    46
  9
$DIMATFIT
 70
     3
  9
$DIMFRAC
 70
     0
  9
$DIMLDRBLK
  1

  9
$DIMLUNIT
 70
     2
  9
$DIMLWD
 70
    -2
  9
$DIMLWE
 70
    -2
  9
$DIMTMOVE
 70
     0
  9
$DIMFXL
 40
1.0
  9
$DIMFXLON
 70
     0
  9
$DIMJOGANG
 40
0.7853981633974483
  9
$DIMTFILL
 70
     0
  9
$DIMTFILLCLR
 70
     0
  9
$DIMARCSYM
 70
     0
  9
$DIMLTYPE
  6

  9
$DIMLTEX1
  6

  9
$DIMLTEX2
  6

  9
$DIMTXTDIRECTION
 70
     0
  9
$LUNITS
 70
     2
  9
$LUPREC
 70
     4
  9
$SKETCHINC
 40
0.1
  9
$FILLETRAD
 40
0.5
  9
$AUNITS
 70
     0
  9
$AUPREC
 70
     0
  9
$MENU
  1
.
  9
$ELEVATION
 40
0.0
  9
$PELEVATION
 40
0.0
  9
$THICKNESS
 40
0.0
  9
$LIMCHECK
 70
     0
  9
$CHAMFERA
 40
0.5
  9
$CHAMFERB
 40
0.5
  9
$CHAMFERC
 40
1.0
  9
$CHAMFERD
 40
0.0
  9
$SKPOLY
 70
     0
  9
$TDCREATE
 40
2459728.798807871
  9
$TDUCREATE
 40
2459728.423807871
  9
$TDUPDATE
 40
2459728.798807871
  9
$TDUUPDATE
 40
2459728.423807871
  9
$TDINDWG
 40
0.0000000116
  9
$TDUSRTIMER
 40
0.0000000116
  9
$USRTIMER
 70
     1
  9
$ANGBASE
 50
0.0
  9
$ANGDIR
 70
     0
  9
$PDMODE
 70
     0
  9
$PDSIZE
 40
0.0
  9
$PLINEWID
 40
0.0
  9
$SPLFRAME
 70
     0
  9
$SPLINETYPE
 70
     6
  9
$SPLINESEGS
 70
     8
  9
$HANDSEED
  5
4C
  9
$SURFTAB1
 70
     6
  9
$SURFTAB2
 70
     6
  9
$SURFTYPE
 70
     6
  9
$SURFU
 70
     6
  9
$SURFV
 70
     6
  9
$UCSBASE
  2

  9
$UCSNAME
  2

  9
$UCSORG
 10
0.0
 20
0.0
 30
0.0
  9
$UCSXDIR
 10
1.0
 20
0.0
 30
0.0
  9
$UCSYDIR
 10
0.0
 20
1.0
 30
0.0
  9
$UCSORTHOREF
  2

  9
$UCSORTHOVIEW
 70
     0
  9
$UCSORGTOP
 10
0.0
 20
0.0
 30
0.0
  9
$UCSORGBOTTOM
 10
0.0
 20
0.0
 30
0.0
  9
$UCSORGLEFT
 10
0.0
 20
0.0
 30
0.0
  9
$UCSORGRIGHT
 10
0.0
 20
0.0
 30
0.0
  9
$UCSORGFRONT
 10
0.0
 20
0.0
 30
0.0
  9
$UCSORGBACK
 10
0.0
 20
0.0
 30
0.0
  9
$PUCSBASE
  2

  9
$PUCSNAME
  2

  9
$PUCSORG
 10
0.0
 20
0.0
 30
0.0
  9
$PUCSXDIR
 10
1.0
 20
0.0
 30
0.0
  9
$PUCSYDIR
 10
0.0
 20
1.0
 30
0.0
  9
$PUCSORTHOREF
  2

  9
$PUCSORTHOVIEW
 70
     0
  9
$PUCSORGTOP
 10
0.0
 20
0.0
 30
0.0
  9
$PUCSORGBOTTOM
 10
0.0
 20
0.0
 30
0.0
  9
$PUCSORGLEFT
 10
0.0
 20
0.0
 30
0.0
  9
$PUCSORGRIGHT
 10
0.0
 20
0.0
 30
0.0
  9
$PUCSORGFRONT
 10
0.0
 20
0.0
 30
0.0
  9
$PUCSORGBACK
 10
0.0
 20
0.0
 30
0.0
  9
$USERI1
 70
     0
  9
$USERI2
 70
     0
  9
$USERI3
 70
     0
  9
$USERI4
 70
     0
  9
$USERI5
 70
     0
  9
$USERR1
 40
0.0
  9
$USERR2
 40
0.0
  9
$USERR3
 40
0.0
  9
$USERR4
 40
0.0
  9
$USERR5
 40
0.0
  9
$WORLDVIEW
 70
     1
  9
$SHADEDGE
 70
     3
  9
$SHADEDIF
 70
    70
  9
$TILEMODE
 70
     1
  9
$MAXACTVP
 70
    64
  9
$PINSBASE
 10
0.0
 20
0.0
 30
0.0
  9
$PLIMCHECK
 70
     0
  9
$PEXTMIN
 10
1.000000000000000E+20
 20
1.000000000000000E+20
 30
1.000000000000000E+20
  9
$PEXTMAX
 10
-1.000000000000000E+20
 20
-1.000000000000000E+20
 30
-1.000000000000000E+20
  9
$PLIMMIN
 10
0.0
 20
0.0
  9
$PLIMMAX
 10
12.0
 20
9.0
  9
$UNITMODE
 70
     0
  9
$VISRETAIN
 70
     1
  9
$PLINEGEN
 70
     0
  9
$PSLTSCALE
 70
     1
  9
$TREEDEPTH
 70
  3020
  9
$CMLSTYLE
  2
Standard
  9
$CMLJUST
 70
     0
  9
$CMLSCALE
 40
1.0
  9
$PROXYGRAPHICS
 70
     1
  9
$MEASUREMENT
 70
     0
  9
$CELWEIGHT
370
    -1
  9
$ENDCAPS
280
     0
  9
$JOINSTYLE
280
     0
  9
$LWDISPLAY
290
     1
  9
$INSUNITS
 70
     0
  9
$HYPERLINKBASE
  1

  9
$STYLESHEET
  1

  9
$XEDIT
290
     1
  9
$CEPSNTYPE
380
     0
  9
$PSTYLEMODE
290
     1
  9
$FINGERPRINTGUID
  2
{934ADEAD-BC59-ED80-31F1-F51B6C28F8AD}
  9
$VERSIONGUID
  2
{FAEB1C32-E019-11D5-929B-00C0DF256EC4}
  9
$EXTNAMES
290
     1
  9
$PSVPSCALE
 40
0.0
  9
$OLESTARTUP
290
     0
  9
$SORTENTS
280
   127
  9
$INDEXCTL
280
     0
  9
$HIDETEXT
280
     1
  9
$XCLIPFRAME
280
     2
  9
$HALOGAP
280
     0
  9
$OBSCOLOR
 70
   257
  9
$OBSLTYPE
280
     0
  9
$INTERSECTIONDISPLAY
280
     0
  9
$INTERSECTIONCOLOR
 70
   257
  9
$DIMASSOC
280
     2
  9
$PROJECTNAME
  1

  9
$CAMERADISPLAY
290
     0
  9
$LENSLENGTH
 40
50.0
  9
$CAMERAHEIGHT
 40
0.0
  9
$STEPSPERSEC
 40
2.0
  9
$STEPSIZE
 40
6.0
  9
$3DDWFPREC
 40
2.0
  9
$PSOLWIDTH
 40
0.25
  9
$PSOLHEIGHT
 40
4.0
  9
$LOFTANG1
 40
1.570796326794897
  9
$LOFTANG2
 40
1.570796326794897
  9
$LOFTMAG1
 40
0.0
  9
$LOFTMAG2
 40
0.0
  9
$LOFTPARAM
 70
     7
  9
$LOFTNORMALS
280
     1
  9
$LATITUDE
 40
37.795
  9
$LONGITUDE
 40
-122.394
  9
$NORTHDIRECTION
 40
0.0
  9
$TIMEZONE
 70
 -8000
  9
$LIGHTGLYPHDISPLAY
280
     1
  9
$TILEMODELIGHTSYNCH
280
     1
  9
$CMATERIAL
347
3C
  9
$SOLIDHIST
280
     1
  9
$SHOWHIST
280
     1
  9
$DWFFRAME
280
     2
  9
$DGNFRAME
280
     2
  9
$REALWORLDSCALE
290
     1
  9
$INTERFERECOLOR
 62
   256
  9
$CSHADOW
280
     0
  9
$SHADOWPLANELOCATION
 40
0.0
  0
ENDSEC
  0
SECTION
  2
CLASSES
  0
CLASS
  1
ACDBDICTIONARYWDFLT
  2
AcDbDictionaryWithDefault
  3
ObjectDBX Classes
 90
        0
 91
        4
280
     0
281
     0
  0
CLASS
  1
VISUALSTYLE
  2
AcDbVisualStyle
  3
ObjectDBX Classes
 90
     4095
 91
        4
280
     0
281
     0
  0
CLASS
  1
MATERIAL
  2
AcDbMaterial
  3
ObjectDBX Classes
 90
     1153
 91
        4
280
     0
281
     0
  0
CLASS
  1
SUN
  2
AcDbSun
  3
SCENEOE
 90
     1024
 91
        4
280
     0
281
     0
  0
ENDSEC
  0
SECTION
  2
TABLES
  0
TABLE
  2
VPORT
  5
8
330
0
100
AcDbSymbolTable
 70
     1
  0
VPORT
  5
29
330
8
100
AcDbSymbolTableRecord
100
AcDbViewportTableRecord
  2
*Active
 70
     0
 10
0.0
 20
0.0
 11
1.0
 21
1.0
 12
0.0
 22
0.0
 13
0.0
 23
0.0
 14
0.5
 24
0.5
 15
0.5
 25
0.5
 16
0.0
 26
0.0
 36
1.0
 17
432.0
 27
432.0
 37
0.0
 40
864.0
 41
1.0
 42
50.0
 43
0.0
 44
0.0
 50
0.0
 51
0.0
 71
     0
 72
   100
 73
     1
 74
     3
 75
     0
 76
     0
 77
     0
 78
     0
281
     0
 65
     1
110
0.0
120
0.0
130
0.0
111
1.0
121
0.0
131
0.0
112
0.0
122
1.0
132
0.0
 79
     0
146
0.0
 60
     3
 61
     5
292
     1
282
     1
141
0.0
142
0.0
 63
   250
361
3F
  0
ENDTAB
  0
TABLE
  2
LTYPE
  5
5
330
0
100
AcDbSymbolTable
 70
     1
  0
LTYPE
  5
14
330
5
100
AcDbSymbolTableRecord
100
AcDbLinetypeTableRecord
  2
ByBlock
 70
     0
  3

 72
    65
 73
     0
 40
0.0
  0
LTYPE
  5
15
330
5
100
AcDbSymbolTableRecord
100
AcDbLinetypeTableRecord
  2
ByLayer
 70
     0
  3

 72
    65
 73
     0
 40
0.0
  0
LTYPE
  5
16
330
5
100
AcDbSymbolTableRecord
100
AcDbLinetypeTableRecord
  2
Continuous
 70
     0
  3
Solid line
 72
    65
 73
     0
 40
0.0
  0
ENDTAB
  0
TABLE
  2
LAYER
  5
2
330
0
100
AcDbSymbolTable
 70
     2
  0
LAYER
  5
10
330
2
100
AcDbSymbolTableRecord
100
AcDbLayerTableRecord
  2
0
 70
     0
 62
     7
  6
Continuous
370
    -3
390
F
347
3E
  0
LAYER
  5
40
330
2
100
AcDbSymbolTableRecord
100
AcDbLayerTableRecord
  2
Layer 1
 70
     0
 62
     7
  6
Continuous
370
    -3
390
F
347
3E
  0
ENDTAB
  0
TABLE
  2
STYLE
  5
3
330
0
100
AcDbSymbolTable
 70
     1
  0
STYLE
  5
11
330
3
100
AcDbSymbolTableRecord
100
AcDbTextStyleTableRecord
  2
Standard
 70
     0
 40
0.0
 41
1.0
 50
0.0
 71
     0
 42
0.2
  3
txt
  4

  0
ENDTAB
  0
TABLE
  2
VIEW
  5
6
330
0
100
AcDbSymbolTable
 70
     0
  0
ENDTAB
  0
TABLE
  2
UCS
  5
7
330
0
100
AcDbSymbolTable
 70
     0
  0
ENDTAB
  0
TABLE
  2
APPID
  5
9
330
0
100
AcDbSymbolTable
 70
     1
  0
APPID
  5
12
330
9
100
AcDbSymbolTableRecord
100
AcDbRegAppTableRecord
  2
ACAD
 70
     0
  0
ENDTAB
  0
TABLE
  2
DIMSTYLE
  5
A
330
0
100
AcDbSymbolTable
 70
     1
100
AcDbDimStyleTable
  0
DIMSTYLE
105
27
330
A
100
AcDbSymbolTableRecord
100
AcDbDimStyleTableRecord
  2
Standard
 70
     0
178
     0
340
11
  0
ENDTAB
  0
TABLE
  2
BLOCK_RECORD
  5
1
330
0
100
AcDbSymbolTable
 70
     1
  0
BLOCK_RECORD
  5
1F
330
1
100
AcDbSymbolTableRecord
100
AcDbBlockTableRecord
  2
*Model_Space
340
22
 70
     0
280
     1
281
     0
  0
BLOCK_RECORD
  5
1B
330
1
100
AcDbSymbolTableRecord
100
AcDbBlockTableRecord
  2
*Paper_Space
340
1E
 70
     0
280
     1
281
     0
  0
BLOCK_RECORD
  5
23
330
1
100
AcDbSymbolTableRecord
100
AcDbBlockTableRecord
  2
*Paper_Space0
340
26
 70
     0
280
     1
281
     0
  0
ENDTAB
  0
ENDSEC
  0
SECTION
  2
BLOCKS
  0
BLOCK
  5
20
330
1F
100
AcDbEntity
  8
0
100
AcDbBlockBegin
  2
*Model_Space
 70
     0
 10
0.0
 20
0.0
 30
0.0
  3
*Model_Space
  1

  0
ENDBLK
  5
21
330
1F
100
AcDbEntity
  8
0
100
AcDbBlockEnd
  0
BLOCK
  5
1C
330
1B
100
AcDbEntity
 67
     1
  8
0
100
AcDbBlockBegin
  2
*Paper_Space
 70
     0
 10
0.0
 20
0.0
 30
0.0
  3
*Paper_Space
  1

  0
ENDBLK
  5
1D
330
1B
100
AcDbEntity
 67
     1
  8
0
100
AcDbBlockEnd
  0
BLOCK
  5
24
330
23
100
AcDbEntity
  8
0
100
AcDbBlockBegin
  2
*Paper_Space0
 70
     0
 10
0.0
 20
0.0
 30
0.0
  3
*Paper_Space0
  1

  0
ENDBLK
  5
25
330
23
100
AcDbEntity
  8
0
100
AcDbBlockEnd
  0
ENDSEC
  0
SECTION
  2
ENTITIES
  0
SPLINE
  5
41
330
1F
100
AcDbEntity
  8
Layer 1
370
     0
100
AcDbSpline
210
0.0
220
0.0
230
1.0
 70
    11
 71
     3
 72
   443
 73
   439
 74
     0
 42
0.0000000001
 43
0.0000000001
 12
1.0
 22
0.0
 32
0.0
 13
1.0
 23
0.0
 33
0.0
 40
0.0
 40
0.0
 40
0.0
 40
0.0
 40
1.0
 40
1.0
 40
1.0
 40
2.0
 40
2.0
 40
2.0
 40
3.0
 40
3.0
 40
3.0
 40
4.0
 40
4.0
 40
4.0
 40
5.0
 40
5.0
 40
5.0
 40
6.0
 40
6.0
 40
6.0
 40
7.0
 40
7.0
 40
7.0
 40
8.0
 40
8.0
 40
8.0
 40
9.0
 40
9.0
 40
9.0
 40
10.0
 40
10.0
 40
10.0
 40
11.0
 40
11.0
 40
11.0
 40
12.0
 40
12.0
 40
12.0
 40
13.0
 40
13.0
 40
13.0
 40
14.0
 40
14.0
 40
14.0
 40
15.0
 40
15.0
 40
15.0
 40
16.0
 40
16.0
 40
16.0
 40
17.0
 40
17.0
 40
17.0
 40
18.0
 40
18.0
 40
18.0
 40
19.0
 40
19.0
 40
19.0
 40
20.0
 40
20.0
 40
20.0
 40
21.0
 40
21.0
 40
21.0
 40
22.0
 40
22.0
 40
22.0
 40
23.0
 40
23.0
 40
23.0
 40
24.0
 40
24.0
 40
24.0
 40
25.0
 40
25.0
 40
25.0
 40
26.0
 40
26.0
 40
26.0
 40
27.0
 40
27.0
 40
27.0
 40
28.0
 40
28.0
 40
28.0
 40
29.0
 40
29.0
 40
29.0
 40
30.0
 40
30.0
 40
30.0
 40
31.0
 40
31.0
 40
31.0
 40
32.0
 40
32.0
 40
32.0
 40
33.0
 40
33.0
 40
33.0
 40
34.0
 40
34.0
 40
34.0
 40
35.0
 40
35.0
 40
35.0
 40
36.0
 40
36.0
 40
36.0
 40
37.0
 40
37.0
 40
37.0
 40
38.0
 40
38.0
 40
38.0
 40
39.0
 40
39.0
 40
39.0
 40
40.0
 40
40.0
 40
40.0
 40
41.0
 40
41.0
 40
41.0
 40
42.0
 40
42.0
 40
42.0
 40
43.0
 40
43.0
 40
43.0
 40
44.0
 40
44.0
 40
44.0
 40
45.0
 40
45.0
 40
45.0
 40
46.0
 40
46.0
 40
46.0
 40
47.0
 40
47.0
 40
47.0
 40
48.0
 40
48.0
 40
48.0
 40
49.0
 40
49.0
 40
49.0
 40
50.0
 40
50.0
 40
50.0
 40
51.0
 40
51.0
 40
51.0
 40
52.0
 40
52.0
 40
52.0
 40
53.0
 40
53.0
 40
53.0
 40
54.0
 40
54.0
 40
54.0
 40
55.0
 40
55.0
 40
55.0
 40
56.0
 40
56.0
 40
56.0
 40
57.0
 40
57.0
 40
57.0
 40
58.0
 40
58.0
 40
58.0
 40
59.0
 40
59.0
 40
59.0
 40
60.0
 40
60.0
 40
60.0
 40
61.0
 40
61.0
 40
61.0
 40
62.0
 40
62.0
 40
62.0
 40
63.0
 40
63.0
 40
63.0
 40
64.0
 40
64.0
 40
64.0
 40
65.0
 40
65.0
 40
65.0
 40
66.0
 40
66.0
 40
66.0
 40
67.0
 40
67.0
 40
67.0
 40
68.0
 40
68.0
 40
68.0
 40
69.0
 40
69.0
 40
69.0
 40
70.0
 40
70.0
 40
70.0
 40
71.0
 40
71.0
 40
71.0
 40
72.0
 40
72.0
 40
72.0
 40
73.0
 40
73.0
 40
73.0
 40
74.0
 40
74.0
 40
74.0
 40
75.0
 40
75.0
 40
75.0
 40
76.0
 40
76.0
 40
76.0
 40
77.0
 40
77.0
 40
77.0
 40
78.0
 40
78.0
 40
78.0
 40
79.0
 40
79.0
 40
79.0
 40
80.0
 40
80.0
 40
80.0
 40
81.0
 40
81.0
 40
81.0
 40
82.0
 40
82.0
 40
82.0
 40
83.0
 40
83.0
 40
83.0
 40
84.0
 40
84.0
 40
84.0
 40
85.0
 40
85.0
 40
85.0
 40
86.0
 40
86.0
 40
86.0
 40
87.0
 40
87.0
 40
87.0
 40
88.0
 40
88.0
 40
88.0
 40
89.0
 40
89.0
 40
89.0
 40
90.0
 40
90.0
 40
90.0
 40
91.0
 40
91.0
 40
91.0
 40
92.0
 40
92.0
 40
92.0
 40
93.0
 40
93.0
 40
93.0
 40
94.0
 40
94.0
 40
94.0
 40
95.0
 40
95.0
 40
95.0
 40
96.0
 40
96.0
 40
96.0
 40
97.0
 40
97.0
 40
97.0
 40
98.0
 40
98.0
 40
98.0
 40
99.0
 40
99.0
 40
99.0
 40
100.0
 40
100.0
 40
100.0
 40
101.0
 40
101.0
 40
101.0
 40
102.0
 40
102.0
 40
102.0
 40
103.0
 40
103.0
 40
103.0
 40
104.0
 40
104.0
 40
104.0
 40
105.0
 40
105.0
 40
105.0
 40
106.0
 40
106.0
 40
106.0
 40
107.0
 40
107.0
 40
107.0
 40
108.0
 40
108.0
 40
108.0
 40
109.0
 40
109.0
 40
109.0
 40
110.0
 40
110.0
 40
110.0
 40
111.0
 40
111.0
 40
111.0
 40
112.0
 40
112.0
 40
112.0
 40
113.0
 40
113.0
 40
113.0
 40
114.0
 40
114.0
 40
114.0
 40
115.0
 40
115.0
 40
115.0
 40
116.0
 40
116.0
 40
116.0
 40
117.0
 40
117.0
 40
117.0
 40
118.0
 40
118.0
 40
118.0
 40
119.0
 40
119.0
 40
119.0
 40
120.0
 40
120.0
 40
120.0
 40
121.0
 40
121.0
 40
121.0
 40
122.0
 40
122.0
 40
122.0
 40
123.0
 40
123.0
 40
123.0
 40
124.0
 40
124.0
 40
124.0
 40
125.0
 40
125.0
 40
125.0
 40
126.0
 40
126.0
 40
126.0
 40
127.0
 40
127.0
 40
127.0
 40
128.0
 40
128.0
 40
128.0
 40
129.0
 40
129.0
 40
129.0
 40
130.0
 40
130.0
 40
130.0
 40
131.0
 40
131.0
 40
131.0
 40
132.0
 40
132.0
 40
132.0
 40
133.0
 40
133.0
 40
133.0
 40
134.0
 40
134.0
 40
134.0
 40
135.0
 40
135.0
 40
135.0
 40
136.0
 40
136.0
 40
136.0
 40
137.0
 40
137.0
 40
137.0
 40
138.0
 40
138.0
 40
138.0
 40
139.0
 40
139.0
 40
139.0
 40
140.0
 40
140.0
 40
140.0
 40
141.0
 40
141.0
 40
141.0
 40
142.0
 40
142.0
 40
142.0
 40
143.0
 40
143.0
 40
143.0
 40
144.0
 40
144.0
 40
144.0
 40
145.0
 40
145.0
 40
145.0
 40
146.0
 40
146.0
 40
146.0
 40
146.0
 10
750.712646484375
 20
795.992431640625
 30
0.0
 10
750.712646484375
 20
795.992431640625
 30
0.0
 10
750.712646484375
 20
828.0
 30
0.0
 10
750.712646484375
 20
828.0
 30
0.0
 10
750.712646484375
 20
828.0
 30
0.0
 10
718.6340942382812
 20
828.0
 30
0.0
 10
718.6340942382812
 20
828.0
 30
0.0
 10
718.662841796875
 20
827.5381507873535
 30
0.0
 10
718.7041625976562
 20
827.0798988342285
 30
0.0
 10
718.7041625976562
 20
826.6108703613281
 30
0.0
 10
718.6890869140625
 20
814.4386940002441
 30
0.0
 10
708.8093872070312
 20
804.5834197998047
 30
0.0
 10
696.63720703125
 20
804.5984992980957
 30
0.0
 10
684.486328125
 20
804.6135520935059
 30
0.0
 10
674.639892578125
 20
814.4600143432617
 30
0.0
 10
674.6248168945312
 20
826.6108703613281
 30
0.0
 10
674.6248168945312
 20
827.0798721313477
 30
0.0
 10
674.6661376953125
 20
827.5381507873535
 30
0.0
 10
674.69580078125
 20
828.0
 30
0.0
 10
674.69580078125
 20
828.0
 30
0.0
 10
643.0153198242188
 20
828.0
 30
0.0
 10
643.0153198242188
 20
828.0
 30
0.0
 10
643.0449829101562
 20
827.5381507873535
 30
0.0
 10
643.0863037109375
 20
827.0798988342285
 30
0.0
 10
643.0863037109375
 20
826.6108703613281
 30
0.0
 10
643.0712280273438
 20
814.4386940002441
 30
0.0
 10
633.1915283203125
 20
804.5834197998047
 30
0.0
 10
621.0193481445312
 20
804.5984992980957
 30
0.0
 10
608.8684692382812
 20
804.6135520935059
 30
0.0
 10
599.0220336914062
 20
814.4600143432617
 30
0.0
 10
599.0069580078125
 20
826.6108703613281
 30
0.0
 10
599.0069580078125
 20
827.0798721313477
 30
0.0
 10
599.0482788085938
 20
827.5381507873535
 30
0.0
 10
599.0770263671875
 20
828.0
 30
0.0
 10
599.0770263671875
 20
828.0
 30
0.0
 10
567.3973999023438
 20
828.0
 30
0.0
 10
567.3973999023438
 20
828.0
 30
0.0
 10
567.4261474609375
 20
827.5381507873535
 30
0.0
 10
567.4674682617188
 20
827.0798988342285
 30
0.0
 10
567.4674682617188
 20
826.6108703613281
 30
0.0
 10
567.452392578125
 20
814.4386940002441
 30
0.0
 10
557.5726928710938
 20
804.5834197998047
 30
0.0
 10
545.4005126953125
 20
804.5984992980957
 30
0.0
 10
533.2496337890625
 20
804.6135520935059
 30
0.0
 10
523.4031982421875
 20
814.4600143432617
 30
0.0
 10
523.3881225585938
 20
826.6108703613281
 30
0.0
 10
523.3881225585938
 20
827.0798721313477
 30
0.0
 10
523.429443359375
 20
827.5381507873535
 30
0.0
 10
523.4581909179688
 20
828.0
 30
0.0
 10
523.4581909179688
 20
828.0
 30
0.0
 10
491.778564453125
 20
828.0
 30
0.0
 10
491.778564453125
 20
828.0
 30
0.0
 10
491.8073120117188
 20
827.5381507873535
 30
0.0
 10
491.8486633300781
 20
827.0798988342285
 30
0.0
 10
491.8486633300781
 20
826.6108703613281
 30
0.0
 10
491.8439636230469
 20
814.4386863708496
 30
0.0
 10
481.9726257324219
 20
804.5750007629395
 30
0.0
 10
469.8004455566406
 20
804.5797157287598
 30
0.0
 10
457.6349182128906
 20
804.5844230651855
 30
0.0
 10
447.7739868164062
 20
814.4453506469727
 30
0.0
 10
447.769287109375
 20
826.6108703613281
 30
0.0
 10
447.769287109375
 20
827.0798721313477
 30
0.0
 10
447.8106079101562
 20
827.5381507873535
 30
0.0
 10
447.83935546875
 20
828.0
 30
0.0
 10
447.83935546875
 20
828.0
 30
0.0
 10
416.16064453125
 20
828.0
 30
0.0
 10
416.16064453125
 20
828.0
 30
0.0
 10
416.1893920898438
 20
827.5381507873535
 30
0.0
 10
416.230712890625
 20
827.0798988342285
 30
0.0
 10
416.230712890625
 20
826.6108703613281
 30
0.0
 10
416.2192077636719
 20
814.4384422302246
 30
0.0
 10
406.3421630859375
 20
804.5800704956055
 30
0.0
 10
394.1697387695312
 20
804.5915794372559
 30
0.0
 10
382.0135803222656
 20
804.6030693054199
 30
0.0
 10
372.1619567871094
 20
814.4547157287598
 30
0.0
 10
372.1504516601562
 20
826.6108703613281
 30
0.0
 10
372.1504516601562
 20
827.0798721313477
 30
0.0
 10
372.1918029785156
 20
827.5381507873535
 30
0.0
 10
372.2214660644531
 20
828.0
 30
0.0
 10
372.2214660644531
 20
828.0
 30
0.0
 10
340.5418395996094
 20
828.0
 30
0.0
 10
340.5418395996094
 20
828.0
 30
0.0
 10
340.5705871582031
 20
827.5381507873535
 30
0.0
 10
340.6119384765625
 20
827.0798988342285
 30
0.0
 10
340.6119384765625
 20
826.6108703613281
 30
0.0
 10
340.6072387695312
 20
814.4386863708496
 30
0.0
 10
330.7359008789062
 20
804.5750007629395
 30
0.0
 10
318.563720703125
 20
804.5797157287598
 30
0.0
 10
306.398193359375
 20
804.5844230651855
 30
0.0
 10
296.5372619628906
 20
814.4453506469727
 30
0.0
 10
296.5325622558594
 20
826.6108703613281
 30
0.0
 10
296.5325622558594
 20
827.0798721313477
 30
0.0
 10
296.5738830566406
 20
827.5381507873535
 30
0.0
 10
296.6026306152344
 20
828.0
 30
0.0
 10
296.6026306152344
 20
828.0
 30
0.0
 10
264.9230041503906
 20
828.0
 30
0.0
 10
264.9230041503906
 20
828.0
 30
0.0
 10
264.9517517089844
 20
827.5381507873535
 30
0.0
 10
264.9930725097656
 20
827.0798988342285
 30
0.0
 10
264.9930725097656
 20
826.6108703613281
 30
0.0
 10
264.9883728027344
 20
814.4386863708496
 30
0.0
 10
255.1170349121094
 20
804.5750007629395
 30
0.0
 10
242.9448547363281
 20
804.5797157287598
 30
0.0
 10
230.7793273925781
 20
804.5844230651855
 30
0.0
 10
220.9184112548828
 20
814.4453506469727
 30
0.0
 10
220.9136962890625
 20
826.6108703613281
 30
0.0
 10
220.9136962890625
 20
827.0798721313477
 30
0.0
 10
220.9550323486328
 20
827.5381507873535
 30
0.0
 10
220.9837799072266
 20
828.0
 30
0.0
 10
220.9837799072266
 20
828.0
 30
0.0
 10
189.3041839599609
 20
828.0
 30
0.0
 10
189.3041839599609
 20
828.0
 30
0.0
 10
189.3329315185547
 20
827.5381507873535
 30
0.0
 10
189.374267578125
 20
827.0798988342285
 30
0.0
 10
189.374267578125
 20
826.6108703613281
 30
0.0
 10
189.3695526123047
 20
814.4386863708496
 30
0.0
 10
179.4982299804688
 20
804.5750007629395
 30
0.0
 10
167.3260498046875
 20
804.5797157287598
 30
0.0
 10
155.1605224609375
 20
804.5844230651855
 30
0.0
 10
145.2996063232422
 20
814.4453506469727
 30
0.0
 10
145.2948913574219
 20
826.6108703613281
 30
0.0
 10
145.2948913574219
 20
827.0798721313477
 30
0.0
 10
145.3362274169922
 20
827.5381507873535
 30
0.0
 10
145.3658905029297
 20
828.0
 30
0.0
 10
145.3658905029297
 20
828.0
 30
0.0
 10
113.2873764038086
 20
828.0
 30
0.0
 10
113.2873764038086
 20
828.0
 30
0.0
 10
113.2873764038086
 20
828.0
 30
0.0
 10
113.2873764038086
 20
795.992431640625
 30
0.0
 10
113.2873764038086
 20
795.992431640625
 30
0.0
 10
125.4593124389648
 20
796.001091003418
 30
0.0
 10
135.3336334228516
 20
786.1408157348633
 30
0.0
 10
135.3423004150391
 20
773.968879699707
 30
0.0
 10
135.3509521484375
 20
761.7969512939453
 30
0.0
 10
125.4906768798828
 20
751.9226226806641
 30
0.0
 10
113.3187408447266
 20
751.9139633178711
 30
0.0
 10
113.3082885742188
 20
751.9139556884766
 30
0.0
 10
113.2978286743164
 20
751.9139556884766
 30
0.0
 10
113.2873764038086
 20
751.9139633178711
 30
0.0
 10
113.2873764038086
 20
751.9139633178711
 30
0.0
 10
113.2873764038086
 20
720.3736267089844
 30
0.0
 10
113.2873764038086
 20
720.3736267089844
 30
0.0
 10
125.4593124389648
 20
720.3784942626953
 30
0.0
 10
135.33056640625
 20
710.5151519775391
 30
0.0
 10
135.3354339599609
 20
698.3432159423828
 30
0.0
 10
135.3403015136719
 20
686.1712799072266
 30
0.0
 10
125.4769515991211
 20
676.3000183105469
 30
0.0
 10
113.3050155639648
 20
676.2951507568359
 30
0.0
 10
113.2991409301758
 20
676.2951507568359
 30
0.0
 10
113.2932586669922
 20
676.2951507568359
 30
0.0
 10
113.2873764038086
 20
676.2951507568359
 30
0.0
 10
113.2873764038086
 20
676.2951507568359
 30
0.0
 10
113.2873764038086
 20
644.7566223144531
 30
0.0
 10
113.2873764038086
 20
644.7566223144531
 30
0.0
 10
125.4598007202148
 20
644.7580871582031
 30
0.0
 10
135.3286895751953
 20
634.8915557861328
 30
0.0
 10
135.3301391601562
 20
622.7191314697266
 30
0.0
 10
135.3316040039062
 20
610.5467071533203
 30
0.0
 10
125.4650802612305
 20
600.6778259277344
 30
0.0
 10
113.2926559448242
 20
600.6763610839844
 30
0.0
 10
113.2908935546875
 20
600.6763610839844
 30
0.0
 10
113.2891387939453
 20
600.6763610839844
 30
0.0
 10
113.2873764038086
 20
600.6763610839844
 30
0.0
 10
113.2873764038086
 20
600.6763610839844
 30
0.0
 10
113.2873764038086
 20
569.1378173828125
 30
0.0
 10
113.2873764038086
 20
569.1378173828125
 30
0.0
 10
125.4598007202148
 20
569.1493225097656
 30
0.0
 10
135.3368377685547
 20
559.2909545898438
 30
0.0
 10
135.3483428955078
 20
547.1185302734375
 30
0.0
 10
135.3598480224609
 20
534.9461059570312
 30
0.0
 10
125.5014801025391
 20
525.0690612792969
 30
0.0
 10
113.3290481567383
 20
525.0575561523438
 30
0.0
 10
113.3151626586914
 20
525.0575561523438
 30
0.0
 10
113.30126953125
 20
525.0575561523438
 30
0.0
 10
113.2873764038086
 20
525.0575561523438
 30
0.0
 10
113.2873764038086
 20
525.0575561523438
 30
0.0
 10
113.2873764038086
 20
493.5190124511719
 30
0.0
 10
113.2873764038086
 20
493.5190124511719
 30
0.0
 10
125.4598007202148
 20
493.530517578125
 30
0.0
 10
135.3368377685547
 20
483.6721496582031
 30
0.0
 10
135.3483428955078
 20
471.4997253417969
 30
0.0
 10
135.3598480224609
 20
459.3273010253906
 30
0.0
 10
125.5014801025391
 20
449.4502563476562
 30
0.0
 10
113.3290481567383
 20
449.4387512207031
 30
0.0
 10
113.3151626586914
 20
449.4387512207031
 30
0.0
 10
113.30126953125
 20
449.4387512207031
 30
0.0
 10
113.2873764038086
 20
449.4387512207031
 30
0.0
 10
113.2873764038086
 20
449.4387512207031
 30
0.0
 10
113.2873764038086
 20
417.9002075195312
 30
0.0
 10
113.2873764038086
 20
417.9002075195312
 30
0.0
 10
125.4598007202148
 20
417.9117126464844
 30
0.0
 10
135.3368377685547
 20
408.0533447265625
 30
0.0
 10
135.3483428955078
 20
395.8809204101562
 30
0.0
 10
135.3598480224609
 20
383.70849609375
 30
0.0
 10
125.5014801025391
 20
373.8314514160156
 30
0.0
 10
113.3290481567383
 20
373.8199462890625
 30
0.0
 10
113.3151626586914
 20
373.8199462890625
 30
0.0
 10
113.30126953125
 20
373.8199462890625
 30
0.0
 10
113.2873764038086
 20
373.8199462890625
 30
0.0
 10
113.2873764038086
 20
373.8199462890625
 30
0.0
 10
113.2873764038086
 20
342.2813720703125
 30
0.0
 10
113.2873764038086
 20
342.2813720703125
 30
0.0
 10
125.4593124389648
 20
342.2813720703125
 30
0.0
 10
135.3266296386719
 20
332.4140625
 30
0.0
 10
135.3266296386719
 20
320.2421264648438
 30
0.0
 10
135.3266296386719
 20
308.0701904296875
 30
0.0
 10
125.4593124389648
 20
298.202880859375
 30
0.0
 10
113.2873764038086
 20
298.202880859375
 30
0.0
 10
113.2873764038086
 20
298.202880859375
 30
0.0
 10
113.2873764038086
 20
266.66259765625
 30
0.0
 10
113.2873764038086
 20
266.66259765625
 30
0.0
 10
125.4593124389648
 20
266.66259765625
 30
0.0
 10
135.3266296386719
 20
256.7952880859375
 30
0.0
 10
135.3266296386719
 20
244.6233520507812
 30
0.0
 10
135.3266296386719
 20
232.451416015625
 30
0.0
 10
125.4593124389648
 20
222.5841064453125
 30
0.0
 10
113.2873764038086
 20
222.5841064453125
 30
0.0
 10
113.2873764038086
 20
222.5841064453125
 30
0.0
 10
113.2873764038086
 20
191.0438232421875
 30
0.0
 10
113.2873764038086
 20
191.0438232421875
 30
0.0
 10
125.4593124389648
 20
191.0438232421875
 30
0.0
 10
135.3266296386719
 20
181.176513671875
 30
0.0
 10
135.3266296386719
 20
169.0045776367188
 30
0.0
 10
135.3266296386719
 20
156.8326416015625
 30
0.0
 10
125.4593124389648
 20
146.96533203125
 30
0.0
 10
113.2873764038086
 20
146.96533203125
 30
0.0
 10
113.2873764038086
 20
146.96533203125
 30
0.0
 10
113.2873764038086
 20
115.4268188476562
 30
0.0
 10
113.2873764038086
 20
115.4268188476562
 30
0.0
 10
125.4598007202148
 20
115.4383544921875
 30
0.0
 10
135.3368377685547
 20
105.5799560546875
 30
0.0
 10
135.3483428955078
 20
93.40753173828125
 30
0.0
 10
135.3598480224609
 20
81.235107421875
 30
0.0
 10
125.5014801025391
 20
71.35809326171875
 30
0.0
 10
113.3290481567383
 20
71.3465576171875
 30
0.0
 10
113.3151626586914
 20
71.3465576171875
 30
0.0
 10
113.30126953125
 20
71.3465576171875
 30
0.0
 10
113.2873764038086
 20
71.3465576171875
 30
0.0
 10
113.2873764038086
 20
71.3465576171875
 30
0.0
 10
113.2873764038086
 20
36.0
 30
0.0
 10
113.2873764038086
 20
36.0
 30
0.0
 10
113.2873764038086
 20
36.0
 30
0.0
 10
145.2949981689453
 20
36.0
 30
0.0
 10
145.2949981689453
 20
36.0
 30
0.0
 10
145.3061676025391
 20
48.17218017578125
 30
0.0
 10
155.1827239990234
 20
58.0306396484375
 30
0.0
 10
167.3549041748047
 20
58.01947021484375
 30
0.0
 10
179.5112915039062
 20
58.00830078125
 30
0.0
 10
189.3632049560547
 20
48.1563720703125
 30
0.0
 10
189.3743591308594
 20
36.0
 30
0.0
 10
189.3743591308594
 20
36.0
 30
0.0
 10
220.9137878417969
 20
36.0
 30
0.0
 10
220.9137878417969
 20
36.0
 30
0.0
 10
220.9185028076172
 20
48.17218017578125
 30
0.0
 10
230.7898254394531
 20
58.035888671875
 30
0.0
 10
242.9620056152344
 20
58.0311279296875
 30
0.0
 10
255.1275329589844
 20
58.02642822265625
 30
0.0
 10
264.9884643554688
 20
48.16552734375
 30
0.0
 10
264.9931640625
 20
36.0
 30
0.0
 10
264.9931640625
 20
36.0
 30
0.0
 10
296.5325927734375
 20
36.0
 30
0.0
 10
296.5325927734375
 20
36.0
 30
0.0
 10
296.5372924804688
 20
48.17218017578125
 30
0.0
 10
306.4086303710938
 20
58.035888671875
 30
0.0
 10
318.580810546875
 20
58.0311279296875
 30
0.0
 10
330.746337890625
 20
58.02642822265625
 30
0.0
 10
340.6072692871094
 20
48.16552734375
 30
0.0
 10
340.6119689941406
 20
36.0
 30
0.0
 10
340.6119689941406
 20
36.0
 30
0.0
 10
372.1505126953125
 20
36.0
 30
0.0
 10
372.1505126953125
 20
36.0
 30
0.0
 10
372.1620178222656
 20
48.17242431640625
 30
0.0
 10
382.0390625
 20
58.03082275390625
 30
0.0
 10
394.2114868164062
 20
58.019287109375
 30
0.0
 10
406.3676452636719
 20
58.0078125
 30
0.0
 10
416.2192687988281
 20
48.1561279296875
 30
0.0
 10
416.2307739257812
 20
36.0
 30
0.0
 10
416.2307739257812
 20
36.0
 30
0.0
 10
447.7693176269531
 20
36.0
 30
0.0
 10
447.7693176269531
 20
36.0
 30
0.0
 10
447.7740173339844
 20
48.17218017578125
 30
0.0
 10
457.6453552246094
 20
58.035888671875
 30
0.0
 10
469.8175354003906
 20
58.0311279296875
 30
0.0
 10
481.9830627441406
 20
58.02642822265625
 30
0.0
 10
491.843994140625
 20
48.16552734375
 30
0.0
 10
491.8486938476562
 20
36.0
 30
0.0
 10
491.8486938476562
 20
36.0
 30
0.0
 10
523.3881225585938
 20
36.0
 30
0.0
 10
523.3881225585938
 20
36.0
 30
0.0
 10
523.4031982421875
 20
48.17218017578125
 30
0.0
 10
533.2828979492188
 20
58.0274658203125
 30
0.0
 10
545.455078125
 20
58.01239013671875
 30
0.0
 10
557.60595703125
 20
57.997314453125
 30
0.0
 10
567.452392578125
 20
48.15087890625
 30
0.0
 10
567.4674682617188
 20
36.0
 30
0.0
 10
567.4674682617188
 20
36.0
 30
0.0
 10
599.0068969726562
 20
36.0
 30
0.0
 10
599.0068969726562
 20
36.0
 30
0.0
 10
599.02197265625
 20
48.17218017578125
 30
0.0
 10
608.9016723632812
 20
58.0274658203125
 30
0.0
 10
621.0738525390625
 20
58.01239013671875
 30
0.0
 10
633.2247314453125
 20
57.997314453125
 30
0.0
 10
643.0711669921875
 20
48.15087890625
 30
0.0
 10
643.0862426757812
 20
36.0
 30
0.0
 10
643.0862426757812
 20
36.0
 30
0.0
 10
674.624755859375
 20
36.0
 30
0.0
 10
674.624755859375
 20
36.0
 30
0.0
 10
674.6398315429688
 20
48.17218017578125
 30
0.0
 10
684.51953125
 20
58.0274658203125
 30
0.0
 10
696.6917114257812
 20
58.01239013671875
 30
0.0
 10
708.8425903320312
 20
57.997314453125
 30
0.0
 10
718.6890258789062
 20
48.15087890625
 30
0.0
 10
718.7041015625
 20
36.0
 30
0.0
 10
718.7041015625
 20
36.0
 30
0.0
 10
750.7125854492188
 20
36.0
 30
0.0
 10
750.7125854492188
 20
36.0
 30
0.0
 10
750.7125854492188
 20
36.0
 30
0.0
 10
750.7125854492188
 20
71.34649658203125
 30
0.0
 10
750.7125854492188
 20
71.34649658203125
 30
0.0
 10
738.5401611328125
 20
71.3349609375
 30
0.0
 10
728.6631469726562
 20
81.193359375
 30
0.0
 10
728.651611328125
 20
93.36578369140625
 30
0.0
 10
728.64013671875
 20
105.5382080078125
 30
0.0
 10
738.4984741210938
 20
115.4152221679688
 30
0.0
 10
750.6708984375
 20
115.4267578125
 30
0.0
 10
750.684814453125
 20
115.4267578125
 30
0.0
 10
750.6986694335938
 20
115.4267578125
 30
0.0
 10
750.7125854492188
 20
115.4267578125
 30
0.0
 10
750.7125854492188
 20
115.4267578125
 30
0.0
 10
750.7125854492188
 20
146.96533203125
 30
0.0
 10
750.7125854492188
 20
146.96533203125
 30
0.0
 10
738.5406494140625
 20
146.96533203125
 30
0.0
 10
728.67333984375
 20
156.8326416015625
 30
0.0
 10
728.67333984375
 20
169.0045776367188
 30
0.0
 10
728.67333984375
 20
181.176513671875
 30
0.0
 10
738.5406494140625
 20
191.0438232421875
 30
0.0
 10
750.7125854492188
 20
191.0438232421875
 30
0.0
 10
750.7125854492188
 20
191.0438232421875
 30
0.0
 10
750.7125854492188
 20
191.0438232421875
 30
0.0
 10
750.7125854492188
 20
191.0438232421875
 30
0.0
 10
750.7125854492188
 20
191.0438232421875
 30
0.0
 10
750.7125854492188
 20
222.5841064453125
 30
0.0
 10
750.7125854492188
 20
222.5841064453125
 30
0.0
 10
738.5406494140625
 20
222.5841064453125
 30
0.0
 10
728.67333984375
 20
232.451416015625
 30
0.0
 10
728.67333984375
 20
244.6233520507812
 30
0.0
 10
728.67333984375
 20
256.7952880859375
 30
0.0
 10
738.5406494140625
 20
266.66259765625
 30
0.0
 10
750.7125854492188
 20
266.66259765625
 30
0.0
 10
750.7125854492188
 20
266.66259765625
 30
0.0
 10
750.7125854492188
 20
266.66259765625
 30
0.0
 10
750.7125854492188
 20
266.66259765625
 30
0.0
 10
750.7125854492188
 20
266.66259765625
 30
0.0
 10
750.7125854492188
 20
298.2029418945312
 30
0.0
 10
750.7125854492188
 20
298.2029418945312
 30
0.0
 10
738.5406494140625
 20
298.2029418945312
 30
0.0
 10
728.67333984375
 20
308.0702514648438
 30
0.0
 10
728.67333984375
 20
320.2421875
 30
0.0
 10
728.67333984375
 20
332.4141235351562
 30
0.0
 10
738.5406494140625
 20
342.2814331054688
 30
0.0
 10
750.7125854492188
 20
342.2814331054688
 30
0.0
 10
750.7125854492188
 20
342.2814331054688
 30
0.0
 10
750.7125854492188
 20
342.2814331054688
 30
0.0
 10
750.7125854492188
 20
342.2814331054688
 30
0.0
 10
750.7125854492188
 20
342.2814331054688
 30
0.0
 10
750.7125854492188
 20
373.8199462890625
 30
0.0
 10
750.7125854492188
 20
373.8199462890625
 30
0.0
 10
738.5401611328125
 20
373.8184814453125
 30
0.0
 10
728.6712646484375
 20
383.6849975585938
 30
0.0
 10
728.6697998046875
 20
395.8574523925781
 30
0.0
 10
728.6683349609375
 20
408.0298767089844
 30
0.0
 10
738.5348510742188
 20
417.8987426757812
 30
0.0
 10
750.7073364257812
 20
417.9002075195312
 30
0.0
 10
750.7090454101562
 20
417.9002075195312
 30
0.0
 10
750.7108154296875
 20
417.9002075195312
 30
0.0
 10
750.7125854492188
 20
417.9002075195312
 30
0.0
 10
750.7125854492188
 20
417.9002075195312
 30
0.0
 10
750.7125854492188
 20
449.4387512207031
 30
0.0
 10
750.7125854492188
 20
449.4387512207031
 30
0.0
 10
738.5401611328125
 20
449.4372863769531
 30
0.0
 10
728.6712646484375
 20
459.3038024902344
 30
0.0
 10
728.6697998046875
 20
471.4762573242188
 30
0.0
 10
728.6683349609375
 20
483.648681640625
 30
0.0
 10
738.5348510742188
 20
493.5175476074219
 30
0.0
 10
750.7073364257812
 20
493.5190124511719
 30
0.0
 10
750.7090454101562
 20
493.5190124511719
 30
0.0
 10
750.7108154296875
 20
493.5190124511719
 30
0.0
 10
750.7125854492188
 20
493.5190124511719
 30
0.0
 10
750.7125854492188
 20
493.5190124511719
 30
0.0
 10
750.7125854492188
 20
525.0575561523438
 30
0.0
 10
750.7125854492188
 20
525.0575561523438
 30
0.0
 10
738.5401611328125
 20
525.0460510253906
 30
0.0
 10
728.6631469726562
 20
534.9044189453125
 30
0.0
 10
728.651611328125
 20
547.0768432617188
 30
0.0
 10
728.64013671875
 20
559.249267578125
 30
0.0
 10
738.4984741210938
 20
569.1263122558594
 30
0.0
 10
750.6708984375
 20
569.1378173828125
 30
0.0
 10
750.684814453125
 20
569.1378173828125
 30
0.0
 10
750.6986694335938
 20
569.1378173828125
 30
0.0
 10
750.7125854492188
 20
569.1378173828125
 30
0.0
 10
750.7125854492188
 20
569.1378173828125
 30
0.0
 10
750.7125854492188
 20
600.6763610839844
 30
0.0
 10
750.7125854492188
 20
600.6763610839844
 30
0.0
 10
738.5401611328125
 20
600.6648559570312
 30
0.0
 10
728.6631469726562
 20
610.5232238769531
 30
0.0
 10
728.651611328125
 20
622.6956481933594
 30
0.0
 10
728.64013671875
 20
634.8680877685547
 30
0.0
 10
738.4984741210938
 20
644.7451171875
 30
0.0
 10
750.6708984375
 20
644.7566223144531
 30
0.0
 10
750.684814453125
 20
644.7566375732422
 30
0.0
 10
750.6986694335938
 20
644.7566375732422
 30
0.0
 10
750.7125854492188
 20
644.7566223144531
 30
0.0
 10
750.7125854492188
 20
644.7566223144531
 30
0.0
 10
750.7125854492188
 20
676.2951507568359
 30
0.0
 10
750.7125854492188
 20
676.2951507568359
 30
0.0
 10
738.5406494140625
 20
676.290283203125
 30
0.0
 10
728.6693725585938
 20
686.1536254882812
 30
0.0
 10
728.66455078125
 20
698.3255615234375
 30
0.0
 10
728.65966796875
 20
710.4974975585938
 30
0.0
 10
738.5230102539062
 20
720.3687591552734
 30
0.0
 10
750.6949462890625
 20
720.3736267089844
 30
0.0
 10
750.7008056640625
 20
720.3736267089844
 30
0.0
 10
750.7067260742188
 20
720.3736267089844
 30
0.0
 10
750.7125854492188
 20
720.3736267089844
 30
0.0
 10
750.7125854492188
 20
720.3736267089844
 30
0.0
 10
750.7125854492188
 20
751.9140014648438
 30
0.0
 10
750.7125854492188
 20
751.9140014648438
 30
0.0
 10
738.5406494140625
 20
751.9053421020508
 30
0.0
 10
728.6663208007812
 20
761.7656173706055
 30
0.0
 10
728.6576538085938
 20
773.9375534057617
 30
0.0
 10
728.6489868164062
 20
786.1094818115234
 30
0.0
 10
738.50927734375
 20
795.9838104248047
 30
0.0
 10
750.6812133789062
 20
795.9924697875977
 30
0.0
 10
750.691650390625
 20
795.9924774169922
 30
0.0
 10
750.7021484375
 20
795.9924774169922
 30
0.0
 10
750.7125854492188
 20
795.9924697875977
 30
0.0
 10
750.7125854492188
 20
795.9924697875977
 30
0.0
 10
750.712646484375
 20
795.992431640625
 30
0.0
 10
750.712646484375
 20
795.992431640625
 30
0.0
  0
POLYLINE
  5
42
330
1F
100
AcDbEntity
  8
Layer 1
370
     0
100
AcDb2dPolyline
 66
     1
 10
0.0
 20
0.0
 30
0.0
  0
VERTEX
  5
43
330
42
100
AcDbEntity
  8
Layer 1
370
     0
100
AcDbVertex
100
AcDb2dVertex
 10
701.0272827148438
 20
87.5255126953125
 30
0.0
  0
VERTEX
  5
44
330
42
100
AcDbEntity
  8
Layer 1
370
     0
100
AcDbVertex
100
AcDb2dVertex
 10
162.9727020263672
 20
87.5255126953125
 30
0.0
  0
VERTEX
  5
45
330
42
100
AcDbEntity
  8
Layer 1
370
     0
100
AcDbVertex
100
AcDb2dVertex
 10
162.9727020263672
 20
776.474479675293
 30
0.0
  0
VERTEX
  5
46
330
42
100
AcDbEntity
  8
Layer 1
370
     0
100
AcDbVertex
100
AcDb2dVertex
 10
701.0272827148438
 20
776.474479675293
 30
0.0
  0
VERTEX
  5
47
330
42
100
AcDbEntity
  8
Layer 1
370
     0
100
AcDbVertex
100
AcDb2dVertex
 10
701.0272827148438
 20
87.5255126953125
 30
0.0
  0
SEQEND
  5
48
330
42
100
AcDbEntity
  8
Layer 1
370
     0
  0
HATCH
  5
49
330
1F
100
AcDbEntity
  8
Layer 1
 62
     7
420
 16777215
100
AcDbHatch
 10
0.0
 20
0.0
 30
0.0
210
0.0
220
0.0
230
1.0
  2
SOLID
 70
     1
 71
     0
 91
        2
 92
        1
 93
        1
 72
     4
 94
        3
 73
     0
 74
     1
 95
      443
 96
      439
 40
0.0
 40
0.0
 40
0.0
 40
0.0
 40
1.0
 40
1.0
 40
1.0
 40
2.0
 40
2.0
 40
2.0
 40
3.0
 40
3.0
 40
3.0
 40
4.0
 40
4.0
 40
4.0
 40
5.0
 40
5.0
 40
5.0
 40
6.0
 40
6.0
 40
6.0
 40
7.0
 40
7.0
 40
7.0
 40
8.0
 40
8.0
 40
8.0
 40
9.0
 40
9.0
 40
9.0
 40
10.0
 40
10.0
 40
10.0
 40
11.0
 40
11.0
 40
11.0
 40
12.0
 40
12.0
 40
12.0
 40
13.0
 40
13.0
 40
13.0
 40
14.0
 40
14.0
 40
14.0
 40
15.0
 40
15.0
 40
15.0
 40
16.0
 40
16.0
 40
16.0
 40
17.0
 40
17.0
 40
17.0
 40
18.0
 40
18.0
 40
18.0
 40
19.0
 40
19.0
 40
19.0
 40
20.0
 40
20.0
 40
20.0
 40
21.0
 40
21.0
 40
21.0
 40
22.0
 40
22.0
 40
22.0
 40
23.0
 40
23.0
 40
23.0
 40
24.0
 40
24.0
 40
24.0
 40
25.0
 40
25.0
 40
25.0
 40
26.0
 40
26.0
 40
26.0
 40
27.0
 40
27.0
 40
27.0
 40
28.0
 40
28.0
 40
28.0
 40
29.0
 40
29.0
 40
29.0
 40
30.0
 40
30.0
 40
30.0
 40
31.0
 40
31.0
 40
31.0
 40
32.0
 40
32.0
 40
32.0
 40
33.0
 40
33.0
 40
33.0
 40
34.0
 40
34.0
 40
34.0
 40
35.0
 40
35.0
 40
35.0
 40
36.0
 40
36.0
 40
36.0
 40
37.0
 40
37.0
 40
37.0
 40
38.0
 40
38.0
 40
38.0
 40
39.0
 40
39.0
 40
39.0
 40
40.0
 40
40.0
 40
40.0
 40
41.0
 40
41.0
 40
41.0
 40
42.0
 40
42.0
 40
42.0
 40
43.0
 40
43.0
 40
43.0
 40
44.0
 40
44.0
 40
44.0
 40
45.0
 40
45.0
 40
45.0
 40
46.0
 40
46.0
 40
46.0
 40
47.0
 40
47.0
 40
47.0
 40
48.0
 40
48.0
 40
48.0
 40
49.0
 40
49.0
 40
49.0
 40
50.0
 40
50.0
 40
50.0
 40
51.0
 40
51.0
 40
51.0
 40
52.0
 40
52.0
 40
52.0
 40
53.0
 40
53.0
 40
53.0
 40
54.0
 40
54.0
 40
54.0
 40
55.0
 40
55.0
 40
55.0
 40
56.0
 40
56.0
 40
56.0
 40
57.0
 40
57.0
 40
57.0
 40
58.0
 40
58.0
 40
58.0
 40
59.0
 40
59.0
 40
59.0
 40
60.0
 40
60.0
 40
60.0
 40
61.0
 40
61.0
 40
61.0
 40
62.0
 40
62.0
 40
62.0
 40
63.0
 40
63.0
 40
63.0
 40
64.0
 40
64.0
 40
64.0
 40
65.0
 40
65.0
 40
65.0
 40
66.0
 40
66.0
 40
66.0
 40
67.0
 40
67.0
 40
67.0
 40
68.0
 40
68.0
 40
68.0
 40
69.0
 40
69.0
 40
69.0
 40
70.0
 40
70.0
 40
70.0
 40
71.0
 40
71.0
 40
71.0
 40
72.0
 40
72.0
 40
72.0
 40
73.0
 40
73.0
 40
73.0
 40
74.0
 40
74.0
 40
74.0
 40
75.0
 40
75.0
 40
75.0
 40
76.0
 40
76.0
 40
76.0
 40
77.0
 40
77.0
 40
77.0
 40
78.0
 40
78.0
 40
78.0
 40
79.0
 40
79.0
 40
79.0
 40
80.0
 40
80.0
 40
80.0
 40
81.0
 40
81.0
 40
81.0
 40
82.0
 40
82.0
 40
82.0
 40
83.0
 40
83.0
 40
83.0
 40
84.0
 40
84.0
 40
84.0
 40
85.0
 40
85.0
 40
85.0
 40
86.0
 40
86.0
 40
86.0
 40
87.0
 40
87.0
 40
87.0
 40
88.0
 40
88.0
 40
88.0
 40
89.0
 40
89.0
 40
89.0
 40
90.0
 40
90.0
 40
90.0
 40
91.0
 40
91.0
 40
91.0
 40
92.0
 40
92.0
 40
92.0
 40
93.0
 40
93.0
 40
93.0
 40
94.0
 40
94.0
 40
94.0
 40
95.0
 40
95.0
 40
95.0
 40
96.0
 40
96.0
 40
96.0
 40
97.0
 40
97.0
 40
97.0
 40
98.0
 40
98.0
 40
98.0
 40
99.0
 40
99.0
 40
99.0
 40
100.0
 40
100.0
 40
100.0
 40
101.0
 40
101.0
 40
101.0
 40
102.0
 40
102.0
 40
102.0
 40
103.0
 40
103.0
 40
103.0
 40
104.0
 40
104.0
 40
104.0
 40
105.0
 40
105.0
 40
105.0
 40
106.0
 40
106.0
 40
106.0
 40
107.0
 40
107.0
 40
107.0
 40
108.0
 40
108.0
 40
108.0
 40
109.0
 40
109.0
 40
109.0
 40
110.0
 40
110.0
 40
110.0
 40
111.0
 40
111.0
 40
111.0
 40
112.0
 40
112.0
 40
112.0
 40
113.0
 40
113.0
 40
113.0
 40
114.0
 40
114.0
 40
114.0
 40
115.0
 40
115.0
 40
115.0
 40
116.0
 40
116.0
 40
116.0
 40
117.0
 40
117.0
 40
117.0
 40
118.0
 40
118.0
 40
118.0
 40
119.0
 40
119.0
 40
119.0
 40
120.0
 40
120.0
 40
120.0
 40
121.0
 40
121.0
 40
121.0
 40
122.0
 40
122.0
 40
122.0
 40
123.0
 40
123.0
 40
123.0
 40
124.0
 40
124.0
 40
124.0
 40
125.0
 40
125.0
 40
125.0
 40
126.0
 40
126.0
 40
126.0
 40
127.0
 40
127.0
 40
127.0
 40
128.0
 40
128.0
 40
128.0
 40
129.0
 40
129.0
 40
129.0
 40
130.0
 40
130.0
 40
130.0
 40
131.0
 40
131.0
 40
131.0
 40
132.0
 40
132.0
 40
132.0
 40
133.0
 40
133.0
 40
133.0
 40
134.0
 40
134.0
 40
134.0
 40
135.0
 40
135.0
 40
135.0
 40
136.0
 40
136.0
 40
136.0
 40
137.0
 40
137.0
 40
137.0
 40
138.0
 40
138.0
 40
138.0
 40
139.0
 40
139.0
 40
139.0
 40
140.0
 40
140.0
 40
140.0
 40
141.0
 40
141.0
 40
141.0
 40
142.0
 40
142.0
 40
142.0
 40
143.0
 40
143.0
 40
143.0
 40
144.0
 40
144.0
 40
144.0
 40
145.0
 40
145.0
 40
145.0
 40
146.0
 40
146.0
 40
146.0
 40
146.0
 10
750.712646484375
 20
795.992431640625
 10
750.712646484375
 20
795.992431640625
 10
750.712646484375
 20
828.0
 10
750.712646484375
 20
828.0
 10
750.712646484375
 20
828.0
 10
718.6340942382812
 20
828.0
 10
718.6340942382812
 20
828.0
 10
718.662841796875
 20
827.5381507873535
 10
718.7041625976562
 20
827.0798988342285
 10
718.7041625976562
 20
826.6108703613281
 10
718.6890869140625
 20
814.4386940002441
 10
708.8093872070312
 20
804.5834197998047
 10
696.63720703125
 20
804.5984992980957
 10
684.486328125
 20
804.6135520935059
 10
674.639892578125
 20
814.4600143432617
 10
674.6248168945312
 20
826.6108703613281
 10
674.6248168945312
 20
827.0798721313477
 10
674.6661376953125
 20
827.5381507873535
 10
674.69580078125
 20
828.0
 10
674.69580078125
 20
828.0
 10
643.0153198242188
 20
828.0
 10
643.0153198242188
 20
828.0
 10
643.0449829101562
 20
827.5381507873535
 10
643.0863037109375
 20
827.0798988342285
 10
643.0863037109375
 20
826.6108703613281
 10
643.0712280273438
 20
814.4386940002441
 10
633.1915283203125
 20
804.5834197998047
 10
621.0193481445312
 20
804.5984992980957
 10
608.8684692382812
 20
804.6135520935059
 10
599.0220336914062
 20
814.4600143432617
 10
599.0069580078125
 20
826.6108703613281
 10
599.0069580078125
 20
827.0798721313477
 10
599.0482788085938
 20
827.5381507873535
 10
599.0770263671875
 20
828.0
 10
599.0770263671875
 20
828.0
 10
567.3973999023438
 20
828.0
 10
567.3973999023438
 20
828.0
 10
567.4261474609375
 20
827.5381507873535
 10
567.4674682617188
 20
827.0798988342285
 10
567.4674682617188
 20
826.6108703613281
 10
567.452392578125
 20
814.4386940002441
 10
557.5726928710938
 20
804.5834197998047
 10
545.4005126953125
 20
804.5984992980957
 10
533.2496337890625
 20
804.6135520935059
 10
523.4031982421875
 20
814.4600143432617
 10
523.3881225585938
 20
826.6108703613281
 10
523.3881225585938
 20
827.0798721313477
 10
523.429443359375
 20
827.5381507873535
 10
523.4581909179688
 20
828.0
 10
523.4581909179688
 20
828.0
 10
491.778564453125
 20
828.0
 10
491.778564453125
 20
828.0
 10
491.8073120117188
 20
827.5381507873535
 10
491.8486633300781
 20
827.0798988342285
 10
491.8486633300781
 20
826.6108703613281
 10
491.8439636230469
 20
814.4386863708496
 10
481.9726257324219
 20
804.5750007629395
 10
469.8004455566406
 20
804.5797157287598
 10
457.6349182128906
 20
804.5844230651855
 10
447.7739868164062
 20
814.4453506469727
 10
447.769287109375
 20
826.6108703613281
 10
447.769287109375
 20
827.0798721313477
 10
447.8106079101562
 20
827.5381507873535
 10
447.83935546875
 20
828.0
 10
447.83935546875
 20
828.0
 10
416.16064453125
 20
828.0
 10
416.16064453125
 20
828.0
 10
416.1893920898438
 20
827.5381507873535
 10
416.230712890625
 20
827.0798988342285
 10
416.230712890625
 20
826.6108703613281
 10
416.2192077636719
 20
814.4384422302246
 10
406.3421630859375
 20
804.5800704956055
 10
394.1697387695312
 20
804.5915794372559
 10
382.0135803222656
 20
804.6030693054199
 10
372.1619567871094
 20
814.4547157287598
 10
372.1504516601562
 20
826.6108703613281
 10
372.1504516601562
 20
827.0798721313477
 10
372.1918029785156
 20
827.5381507873535
 10
372.2214660644531
 20
828.0
 10
372.2214660644531
 20
828.0
 10
340.5418395996094
 20
828.0
 10
340.5418395996094
 20
828.0
 10
340.5705871582031
 20
827.5381507873535
 10
340.6119384765625
 20
827.0798988342285
 10
340.6119384765625
 20
826.6108703613281
 10
340.6072387695312
 20
814.4386863708496
 10
330.7359008789062
 20
804.5750007629395
 10
318.563720703125
 20
804.5797157287598
 10
306.398193359375
 20
804.5844230651855
 10
296.5372619628906
 20
814.4453506469727
 10
296.5325622558594
 20
826.6108703613281
 10
296.5325622558594
 20
827.0798721313477
 10
296.5738830566406
 20
827.5381507873535
 10
296.6026306152344
 20
828.0
 10
296.6026306152344
 20
828.0
 10
264.9230041503906
 20
828.0
 10
264.9230041503906
 20
828.0
 10
264.9517517089844
 20
827.5381507873535
 10
264.9930725097656
 20
827.0798988342285
 10
264.9930725097656
 20
826.6108703613281
 10
264.9883728027344
 20
814.4386863708496
 10
255.1170349121094
 20
804.5750007629395
 10
242.9448547363281
 20
804.5797157287598
 10
230.7793273925781
 20
804.5844230651855
 10
220.9184112548828
 20
814.4453506469727
 10
220.9136962890625
 20
826.6108703613281
 10
220.9136962890625
 20
827.0798721313477
 10
220.9550323486328
 20
827.5381507873535
 10
220.9837799072266
 20
828.0
 10
220.9837799072266
 20
828.0
 10
189.3041839599609
 20
828.0
 10
189.3041839599609
 20
828.0
 10
189.3329315185547
 20
827.5381507873535
 10
189.374267578125
 20
827.0798988342285
 10
189.374267578125
 20
826.6108703613281
 10
189.3695526123047
 20
814.4386863708496
 10
179.4982299804688
 20
804.5750007629395
 10
167.3260498046875
 20
804.5797157287598
 10
155.1605224609375
 20
804.5844230651855
 10
145.2996063232422
 20
814.4453506469727
 10
145.2948913574219
 20
826.6108703613281
 10
145.2948913574219
 20
827.0798721313477
 10
145.3362274169922
 20
827.5381507873535
 10
145.3658905029297
 20
828.0
 10
145.3658905029297
 20
828.0
 10
113.2873764038086
 20
828.0
 10
113.2873764038086
 20
828.0
 10
113.2873764038086
 20
828.0
 10
113.2873764038086
 20
795.992431640625
 10
113.2873764038086
 20
795.992431640625
 10
125.4593124389648
 20
796.001091003418
 10
135.3336334228516
 20
786.1408157348633
 10
135.3423004150391
 20
773.968879699707
 10
135.3509521484375
 20
761.7969512939453
 10
125.4906768798828
 20
751.9226226806641
 10
113.3187408447266
 20
751.9139633178711
 10
113.3082885742188
 20
751.9139556884766
 10
113.2978286743164
 20
751.9139556884766
 10
113.2873764038086
 20
751.9139633178711
 10
113.2873764038086
 20
751.9139633178711
 10
113.2873764038086
 20
720.3736267089844
 10
113.2873764038086
 20
720.3736267089844
 10
125.4593124389648
 20
720.3784942626953
 10
135.33056640625
 20
710.5151519775391
 10
135.3354339599609
 20
698.3432159423828
 10
135.3403015136719
 20
686.1712799072266
 10
125.4769515991211
 20
676.3000183105469
 10
113.3050155639648
 20
676.2951507568359
 10
113.2991409301758
 20
676.2951507568359
 10
113.2932586669922
 20
676.2951507568359
 10
113.2873764038086
 20
676.2951507568359
 10
113.2873764038086
 20
676.2951507568359
 10
113.2873764038086
 20
644.7566223144531
 10
113.2873764038086
 20
644.7566223144531
 10
125.4598007202148
 20
644.7580871582031
 10
135.3286895751953
 20
634.8915557861328
 10
135.3301391601562
 20
622.7191314697266
 10
135.3316040039062
 20
610.5467071533203
 10
125.4650802612305
 20
600.6778259277344
 10
113.2926559448242
 20
600.6763610839844
 10
113.2908935546875
 20
600.6763610839844
 10
113.2891387939453
 20
600.6763610839844
 10
113.2873764038086
 20
600.6763610839844
 10
113.2873764038086
 20
600.6763610839844
 10
113.2873764038086
 20
569.1378173828125
 10
113.2873764038086
 20
569.1378173828125
 10
125.4598007202148
 20
569.1493225097656
 10
135.3368377685547
 20
559.2909545898438
 10
135.3483428955078
 20
547.1185302734375
 10
135.3598480224609
 20
534.9461059570312
 10
125.5014801025391
 20
525.0690612792969
 10
113.3290481567383
 20
525.0575561523438
 10
113.3151626586914
 20
525.0575561523438
 10
113.30126953125
 20
525.0575561523438
 10
113.2873764038086
 20
525.0575561523438
 10
113.2873764038086
 20
525.0575561523438
 10
113.2873764038086
 20
493.5190124511719
 10
113.2873764038086
 20
493.5190124511719
 10
125.4598007202148
 20
493.530517578125
 10
135.3368377685547
 20
483.6721496582031
 10
135.3483428955078
 20
471.4997253417969
 10
135.3598480224609
 20
459.3273010253906
 10
125.5014801025391
 20
449.4502563476562
 10
113.3290481567383
 20
449.4387512207031
 10
113.3151626586914
 20
449.4387512207031
 10
113.30126953125
 20
449.4387512207031
 10
113.2873764038086
 20
449.4387512207031
 10
113.2873764038086
 20
449.4387512207031
 10
113.2873764038086
 20
417.9002075195312
 10
113.2873764038086
 20
417.9002075195312
 10
125.4598007202148
 20
417.9117126464844
 10
135.3368377685547
 20
408.0533447265625
 10
135.3483428955078
 20
395.8809204101562
 10
135.3598480224609
 20
383.70849609375
 10
125.5014801025391
 20
373.8314514160156
 10
113.3290481567383
 20
373.8199462890625
 10
113.3151626586914
 20
373.8199462890625
 10
113.30126953125
 20
373.8199462890625
 10
113.2873764038086
 20
373.8199462890625
 10
113.2873764038086
 20
373.8199462890625
 10
113.2873764038086
 20
342.2813720703125
 10
113.2873764038086
 20
342.2813720703125
 10
125.4593124389648
 20
342.2813720703125
 10
135.3266296386719
 20
332.4140625
 10
135.3266296386719
 20
320.2421264648438
 10
135.3266296386719
 20
308.0701904296875
 10
125.4593124389648
 20
298.202880859375
 10
113.2873764038086
 20
298.202880859375
 10
113.2873764038086
 20
298.202880859375
 10
113.2873764038086
 20
266.66259765625
 10
113.2873764038086
 20
266.66259765625
 10
125.4593124389648
 20
266.66259765625
 10
135.3266296386719
 20
256.7952880859375
 10
135.3266296386719
 20
244.6233520507812
 10
135.3266296386719
 20
232.451416015625
 10
125.4593124389648
 20
222.5841064453125
 10
113.2873764038086
 20
222.5841064453125
 10
113.2873764038086
 20
222.5841064453125
 10
113.2873764038086
 20
191.0438232421875
 10
113.2873764038086
 20
191.0438232421875
 10
125.4593124389648
 20
191.0438232421875
 10
135.3266296386719
 20
181.176513671875
 10
135.3266296386719
 20
169.0045776367188
 10
135.3266296386719
 20
156.8326416015625
 10
125.4593124389648
 20
146.96533203125
 10
113.2873764038086
 20
146.96533203125
 10
113.2873764038086
 20
146.96533203125
 10
113.2873764038086
 20
115.4268188476562
 10
113.2873764038086
 20
115.4268188476562
 10
125.4598007202148
 20
115.4383544921875
 10
135.3368377685547
 20
105.5799560546875
 10
135.3483428955078
 20
93.40753173828125
 10
135.3598480224609
 20
81.235107421875
 10
125.5014801025391
 20
71.35809326171875
 10
113.3290481567383
 20
71.3465576171875
 10
113.3151626586914
 20
71.3465576171875
 10
113.30126953125
 20
71.3465576171875
 10
113.2873764038086
 20
71.3465576171875
 10
113.2873764038086
 20
71.3465576171875
 10
113.2873764038086
 20
36.0
 10
113.2873764038086
 20
36.0
 10
113.2873764038086
 20
36.0
 10
145.2949981689453
 20
36.0
 10
145.2949981689453
 20
36.0
 10
145.3061676025391
 20
48.17218017578125
 10
155.1827239990234
 20
58.0306396484375
 10
167.3549041748047
 20
58.01947021484375
 10
179.5112915039062
 20
58.00830078125
 10
189.3632049560547
 20
48.1563720703125
 10
189.3743591308594
 20
36.0
 10
189.3743591308594
 20
36.0
 10
220.9137878417969
 20
36.0
 10
220.9137878417969
 20
36.0
 10
220.9185028076172
 20
48.17218017578125
 10
230.7898254394531
 20
58.035888671875
 10
242.9620056152344
 20
58.0311279296875
 10
255.1275329589844
 20
58.02642822265625
 10
264.9884643554688
 20
48.16552734375
 10
264.9931640625
 20
36.0
 10
264.9931640625
 20
36.0
 10
296.5325927734375
 20
36.0
 10
296.5325927734375
 20
36.0
 10
296.5372924804688
 20
48.17218017578125
 10
306.4086303710938
 20
58.035888671875
 10
318.580810546875
 20
58.0311279296875
 10
330.746337890625
 20
58.02642822265625
 10
340.6072692871094
 20
48.16552734375
 10
340.6119689941406
 20
36.0
 10
340.6119689941406
 20
36.0
 10
372.1505126953125
 20
36.0
 10
372.1505126953125
 20
36.0
 10
372.1620178222656
 20
48.17242431640625
 10
382.0390625
 20
58.03082275390625
 10
394.2114868164062
 20
58.019287109375
 10
406.3676452636719
 20
58.0078125
 10
416.2192687988281
 20
48.1561279296875
 10
416.2307739257812
 20
36.0
 10
416.2307739257812
 20
36.0
 10
447.7693176269531
 20
36.0
 10
447.7693176269531
 20
36.0
 10
447.7740173339844
 20
48.17218017578125
 10
457.6453552246094
 20
58.035888671875
 10
469.8175354003906
 20
58.0311279296875
 10
481.9830627441406
 20
58.02642822265625
 10
491.843994140625
 20
48.16552734375
 10
491.8486938476562
 20
36.0
 10
491.8486938476562
 20
36.0
 10
523.3881225585938
 20
36.0
 10
523.3881225585938
 20
36.0
 10
523.4031982421875
 20
48.17218017578125
 10
533.2828979492188
 20
58.0274658203125
 10
545.455078125
 20
58.01239013671875
 10
557.60595703125
 20
57.997314453125
 10
567.452392578125
 20
48.15087890625
 10
567.4674682617188
 20
36.0
 10
567.4674682617188
 20
36.0
 10
599.0068969726562
 20
36.0
 10
599.0068969726562
 20
36.0
 10
599.02197265625
 20
48.17218017578125
 10
608.9016723632812
 20
58.0274658203125
 10
621.0738525390625
 20
58.01239013671875
 10
633.2247314453125
 20
57.997314453125
 10
643.0711669921875
 20
48.15087890625
 10
643.0862426757812
 20
36.0
 10
643.0862426757812
 20
36.0
 10
674.624755859375
 20
36.0
 10
674.624755859375
 20
36.0
 10
674.6398315429688
 20
48.17218017578125
 10
684.51953125
 20
58.0274658203125
 10
696.6917114257812
 20
58.01239013671875
 10
708.8425903320312
 20
57.997314453125
 10
718.6890258789062
 20
48.15087890625
 10
718.7041015625
 20
36.0
 10
718.7041015625
 20
36.0
 10
750.7125854492188
 20
36.0
 10
750.7125854492188
 20
36.0
 10
750.7125854492188
 20
36.0
 10
750.7125854492188
 20
71.34649658203125
 10
750.7125854492188
 20
71.34649658203125
 10
738.5401611328125
 20
71.3349609375
 10
728.6631469726562
 20
81.193359375
 10
728.651611328125
 20
93.36578369140625
 10
728.64013671875
 20
105.5382080078125
 10
738.4984741210938
 20
115.4152221679688
 10
750.6708984375
 20
115.4267578125
 10
750.684814453125
 20
115.4267578125
 10
750.6986694335938
 20
115.4267578125
 10
750.7125854492188
 20
115.4267578125
 10
750.7125854492188
 20
115.4267578125
 10
750.7125854492188
 20
146.96533203125
 10
750.7125854492188
 20
146.96533203125
 10
738.5406494140625
 20
146.96533203125
 10
728.67333984375
 20
156.8326416015625
 10
728.67333984375
 20
169.0045776367188
 10
728.67333984375
 20
181.176513671875
 10
738.5406494140625
 20
191.0438232421875
 10
750.7125854492188
 20
191.0438232421875
 10
750.7125854492188
 20
191.0438232421875
 10
750.7125854492188
 20
191.0438232421875
 10
750.7125854492188
 20
191.0438232421875
 10
750.7125854492188
 20
191.0438232421875
 10
750.7125854492188
 20
222.5841064453125
 10
750.7125854492188
 20
222.5841064453125
 10
738.5406494140625
 20
222.5841064453125
 10
728.67333984375
 20
232.451416015625
 10
728.67333984375
 20
244.6233520507812
 10
728.67333984375
 20
256.7952880859375
 10
738.5406494140625
 20
266.66259765625
 10
750.7125854492188
 20
266.66259765625
 10
750.7125854492188
 20
266.66259765625
 10
750.7125854492188
 20
266.66259765625
 10
750.7125854492188
 20
266.66259765625
 10
750.7125854492188
 20
266.66259765625
 10
750.7125854492188
 20
298.2029418945312
 10
750.7125854492188
 20
298.2029418945312
 10
738.5406494140625
 20
298.2029418945312
 10
728.67333984375
 20
308.0702514648438
 10
728.67333984375
 20
320.2421875
 10
728.67333984375
 20
332.4141235351562
 10
738.5406494140625
 20
342.2814331054688
 10
750.7125854492188
 20
342.2814331054688
 10
750.7125854492188
 20
342.2814331054688
 10
750.7125854492188
 20
342.2814331054688
 10
750.7125854492188
 20
342.2814331054688
 10
750.7125854492188
 20
342.2814331054688
 10
750.7125854492188
 20
373.8199462890625
 10
750.7125854492188
 20
373.8199462890625
 10
738.5401611328125
 20
373.8184814453125
 10
728.6712646484375
 20
383.6849975585938
 10
728.6697998046875
 20
395.8574523925781
 10
728.6683349609375
 20
408.0298767089844
 10
738.5348510742188
 20
417.8987426757812
 10
750.7073364257812
 20
417.9002075195312
 10
750.7090454101562
 20
417.9002075195312
 10
750.7108154296875
 20
417.9002075195312
 10
750.7125854492188
 20
417.9002075195312
 10
750.7125854492188
 20
417.9002075195312
 10
750.7125854492188
 20
449.4387512207031
 10
750.7125854492188
 20
449.4387512207031
 10
738.5401611328125
 20
449.4372863769531
 10
728.6712646484375
 20
459.3038024902344
 10
728.6697998046875
 20
471.4762573242188
 10
728.6683349609375
 20
483.648681640625
 10
738.5348510742188
 20
493.5175476074219
 10
750.7073364257812
 20
493.5190124511719
 10
750.7090454101562
 20
493.5190124511719
 10
750.7108154296875
 20
493.5190124511719
 10
750.7125854492188
 20
493.5190124511719
 10
750.7125854492188
 20
493.5190124511719
 10
750.7125854492188
 20
525.0575561523438
 10
750.7125854492188
 20
525.0575561523438
 10
738.5401611328125
 20
525.0460510253906
 10
728.6631469726562
 20
534.9044189453125
 10
728.651611328125
 20
547.0768432617188
 10
728.64013671875
 20
559.249267578125
 10
738.4984741210938
 20
569.1263122558594
 10
750.6708984375
 20
569.1378173828125
 10
750.684814453125
 20
569.1378173828125
 10
750.6986694335938
 20
569.1378173828125
 10
750.7125854492188
 20
569.1378173828125
 10
750.7125854492188
 20
569.1378173828125
 10
750.7125854492188
 20
600.6763610839844
 10
750.7125854492188
 20
600.6763610839844
 10
738.5401611328125
 20
600.6648559570312
 10
728.6631469726562
 20
610.5232238769531
 10
728.651611328125
 20
622.6956481933594
 10
728.64013671875
 20
634.8680877685547
 10
738.4984741210938
 20
644.7451171875
 10
750.6708984375
 20
644.7566223144531
 10
750.684814453125
 20
644.7566375732422
 10
750.6986694335938
 20
644.7566375732422
 10
750.7125854492188
 20
644.7566223144531
 10
750.7125854492188
 20
644.7566223144531
 10
750.7125854492188
 20
676.2951507568359
 10
750.7125854492188
 20
676.2951507568359
 10
738.5406494140625
 20
676.290283203125
 10
728.6693725585938
 20
686.1536254882812
 10
728.66455078125
 20
698.3255615234375
 10
728.65966796875
 20
710.4974975585938
 10
738.5230102539062
 20
720.3687591552734
 10
750.6949462890625
 20
720.3736267089844
 10
750.7008056640625
 20
720.3736267089844
 10
750.7067260742188
 20
720.3736267089844
 10
750.7125854492188
 20
720.3736267089844
 10
750.7125854492188
 20
720.3736267089844
 10
750.7125854492188
 20
751.9140014648438
 10
750.7125854492188
 20
751.9140014648438
 10
738.5406494140625
 20
751.9053421020508
 10
728.6663208007812
 20
761.7656173706055
 10
728.6576538085938
 20
773.9375534057617
 10
728.6489868164062
 20
786.1094818115234
 10
738.50927734375
 20
795.9838104248047
 10
750.6812133789062
 20
795.9924697875977
 10
750.691650390625
 20
795.9924774169922
 10
750.7021484375
 20
795.9924774169922
 10
750.7125854492188
 20
795.9924697875977
 10
750.7125854492188
 20
795.9924697875977
 10
750.712646484375
 20
795.992431640625
 10
750.712646484375
 20
795.992431640625
 97
        0
 97
        0
 92
        1
 93
        4
 72
     1
 10
701.0272827148438
 20
87.5255126953125
 11
162.9727020263672
 21
87.5255126953125
 72
     1
 10
162.9727020263672
 20
87.5255126953125
 11
162.9727020263672
 21
776.474479675293
 72
     1
 10
162.9727020263672
 20
776.474479675293
 11
701.0272827148438
 21
776.474479675293
 72
     1
 10
701.0272827148438
 20
776.474479675293
 11
701.0272827148438
 21
87.5255126953125
 97
        0
 75
     2
 76
     1
 98
        0
  0
ENDSEC
  0
SECTION
  2
OBJECTS
  0
DICTIONARY
  5
C
330
0
100
AcDbDictionary
281
     1
  3
ACAD_GROUP
350
D
  3
ACAD_LAYOUT
350
1A
  3
ACAD_MATERIAL
350
3B
  3
ACAD_MLEADERSTYLE
350
4B
  3
ACAD_MLINESTYLE
350
17
  3
ACAD_PLOTSETTINGS
350
19
  3
ACAD_PLOTSTYLENAME
350
E
  3
ACAD_TABLESTYLE
350
4A
  3
ACAD_VISUALSTYLE
350
2A
  0
SUN
  5
3F
330
29
100
AcDbSun
 90
        1
290
     0
 63
     7
421
 16777215
 40
1.0
291
     1
 91
  2455826
 92
 54000000
292
     0
 70
     2
 71
   256
280
     1
  0
DICTIONARY
  5
D
102
{ACAD_REACTORS
330
C
102
}
330
C
100
AcDbDictionary
281
     1
  0
DICTIONARY
  5
1A
102
{ACAD_REACTORS
330
C
102
}
330
C
100
AcDbDictionary
281
     1
  3
Layout1
350
1E
  3
Layout2
350
26
  3
Model
350
22
  0
DICTIONARY
  5
3B
102
{ACAD_REACTORS
330
C
102
}
330
C
100
AcDbDictionary
281
     1
  3
ByBlock
350
3D
  3
ByLayer
350
3C
  3
Global
350
3E
  0
DICTIONARY
  5
4B
102
{ACAD_REACTORS
330
C
102
}
330
C
100
AcDbDictionary
281
     1
  0
DICTIONARY
  5
17
102
{ACAD_REACTORS
330
C
102
}
330
C
100
AcDbDictionary
281
     1
  3
Standard
350
18
  0
DICTIONARY
  5
19
102
{ACAD_REACTORS
330
C
102
}
330
C
100
AcDbDictionary
281
     1
  0
ACDBDICTIONARYWDFLT
  5
E
102
{ACAD_REACTORS
330
C
102
}
330
C
100
AcDbDictionary
281
     1
  3
Normal
350
F
100
AcDbDictionaryWithDefault
340
F
  0
DICTIONARY
  5
4A
102
{ACAD_REACTORS
330
C
102
}
330
C
100
AcDbDictionary
281
     1
  0
DICTIONARY
  5
2A
102
{ACAD_REACTORS
330
C
102
}
330
C
100
AcDbDictionary
281
     1
  3
2dWireframe
350
2F
  3
3D Hidden
350
31
  3
3dWireframe
350
30
  3
Basic
350
32
  3
Brighten
350
36
  3
ColorChange
350
3A
  3
Conceptual
350
34
  3
Dim
350
35
  3
Facepattern
350
39
  3
Flat
350
2B
  3
FlatWithEdges
350
2C
  3
Gouraud
350
2D
  3
GouraudWithEdges
350
2E
  3
Linepattern
350
38
  3
Realistic
350
33
  3
Thicken
350
37
  0
LAYOUT
  5
1E
102
{ACAD_REACTORS
330
1A
102
}
330
1A
100
AcDbPlotSettings
  1

  2
none_device
  4

  6

 40
0.0
 41
0.0
 42
0.0
 43
0.0
 44
0.0
 45
0.0
 46
0.0
 47
0.0
 48
0.0
 49
0.0
140
0.0
141
0.0
142
1.0
143
1.0
 70
   688
 72
     0
 73
     0
 74
     5
  7

 75
    16
 76
     0
 77
     2
 78
   300
147
1.0
148
0.0
149
0.0
100
AcDbLayout
  1
Layout1
 70
     1
 71
     1
 10
0.0
 20
0.0
 11
12.0
 21
9.0
 12
0.0
 22
0.0
 32
0.0
 14
1.000000000000000E+20
 24
1.000000000000000E+20
 34
1.000000000000000E+20
 15
-1.000000000000000E+20
 25
-1.000000000000000E+20
 35
-1.000000000000000E+20
146
0.0
 13
0.0
 23
0.0
 33
0.0
 16
1.0
 26
0.0
 36
0.0
 17
0.0
 27
1.0
 37
0.0
 76
     0
330
1B
  0
LAYOUT
  5
26
102
{ACAD_REACTORS
330
1A
102
}
330
1A
100
AcDbPlotSettings
  1

  2
none_device
  4

  6

 40
0.0
 41
0.0
 42
0.0
 43
0.0
 44
0.0
 45
0.0
 46
0.0
 47
0.0
 48
0.0
 49
0.0
140
0.0
141
0.0
142
1.0
143
1.0
 70
   688
 72
     0
 73
     0
 74
     5
  7

 75
    16
 76
     0
 77
     2
 78
   300
147
1.0
148
0.0
149
0.0
100
AcDbLayout
  1
Layout2
 70
     1
 71
     2
 10
0.0
 20
0.0
 11
0.0
 21
0.0
 12
0.0
 22
0.0
 32
0.0
 14
0.0
 24
0.0
 34
0.0
 15
0.0
 25
0.0
 35
0.0
146
0.0
 13
0.0
 23
0.0
 33
0.0
 16
1.0
 26
0.0
 36
0.0
 17
0.0
 27
1.0
 37
0.0
 76
     0
330
23
  0
LAYOUT
  5
22
102
{ACAD_REACTORS
330
1A
102
}
330
1A
100
AcDbPlotSettings
  1

  2
none_device
  4

  6

 40
0.0
 41
0.0
 42
0.0
 43
0.0
 44
0.0
 45
0.0
 46
0.0
 47
0.0
 48
0.0
 49
0.0
140
0.0
141
0.0
142
1.0
143
1.0
 70
  1712
 72
     0
 73
     0
 74
     0
  7

 75
     0
 76
     0
 77
     2
 78
   300
147
1.0
148
0.0
149
0.0
100
AcDbLayout
  1
Model
 70
     1
 71
     0
 10
0.0
 20
0.0
 11
12.0
 21
9.0
 12
0.0
 22
0.0
 32
0.0
 14
1.000000000000000E+20
 24
1.000000000000000E+20
 34
1.000000000000000E+20
 15
-1.000000000000000E+20
 25
-1.000000000000000E+20
 35
-1.000000000000000E+20
146
0.0
 13
0.0
 23
0.0
 33
0.0
 16
1.0
 26
0.0
 36
0.0
 17
0.0
 27
1.0
 37
0.0
 76
     0
330
1F
331
29
  0
MATERIAL
  5
3D
102
{ACAD_REACTORS
330
3B
102
}
330
3B
100
AcDbMaterial
  1
ByBlock
 72
     1
 94
      127
  0
MATERIAL
  5
3C
102
{ACAD_REACTORS
330
3B
102
}
330
3B
100
AcDbMaterial
  1
ByLayer
 72
     1
 94
      127
  0
MATERIAL
  5
3E
102
{ACAD_REACTORS
330
3B
102
}
330
3B
100
AcDbMaterial
  1
Global
 72
     1
 94
      127
  0
MLINESTYLE
  5
18
102
{ACAD_REACTORS
330
17
102
}
330
17
100
AcDbMlineStyle
  2
Standard
 70
     0
  3

 62
   256
 51
90.0
 52
90.0
 71
     2
 49
0.5
 62
   256
  6
BYLAYER
 49
-0.5
 62
   256
  6
BYLAYER
  0
ACDBPLACEHOLDER
  5
F
102
{ACAD_REACTORS
330
E
102
}
330
E
  0
VISUALSTYLE
  5
2F
102
{ACAD_REACTORS
330
2A
102
}
330
2A
100
AcDbVisualStyle
  2
2dWireframe
 70
     4
177
     2
291
     0
 71
     0
176
     1
 72
     2
176
     1
 73
     0
176
     1
 90
        0
176
     1
 40
-0.6
176
     1
 41
-30.0
176
     1
 62
     5
 63
     7
421
 16777215
176
     1
 74
     1
176
     1
 91
        4
176
     1
 64
     7
176
     1
 65
   257
176
     1
 75
     1
176
     1
175
     1
176
     1
 42
1.0
176
     1
 92
        0
176
     1
 66
   257
176
     1
 43
1.0
176
     1
 76
     1
176
     1
 77
     6
176
     1
 78
     2
176
     1
 67
     7
176
     1
 79
     5
176
     1
170
     0
176
     1
171
     0
176
     1
290
     0
176
     1
 93
        1
176
     1
 44
0.0
176
     1
173
     0
176
     1
  0
VISUALSTYLE
  5
31
102
{ACAD_REACTORS
330
2A
102
}
330
2A
100
AcDbVisualStyle
  2
3D Hidden
 70
     6
177
     2
291
     0
 71
     1
176
     1
 72
     2
176
     1
 73
     2
176
     1
 90
        0
176
     1
 40
-0.6
176
     1
 41
-30.0
176
     1
 62
     5
 63
     7
421
 16777215
176
     1
 74
     2
176
     1
 91
        2
176
     1
 64
     7
176
     1
 65
   257
176
     1
 75
     2
176
     1
175
     1
176
     1
 42
40.0
176
     1
 92
        0
176
     1
 66
   257
176
     1
 43
1.0
176
     1
 76
     1
176
     1
 77
     6
176
     1
 78
     2
176
     1
 67
     7
176
     1
 79
     3
176
     1
170
     0
176
     1
171
     0
176
     1
290
     0
176
     1
 93
        1
176
     1
 44
0.0
176
     1
173
     0
176
     1
  0
VISUALSTYLE
  5
30
102
{ACAD_REACTORS
330
2A
102
}
330
2A
100
AcDbVisualStyle
  2
3dWireframe
 70
     5
177
     2
291
     0
 71
     0
176
     1
 72
     2
176
     1
 73
     0
176
     1
 90
        0
176
     1
 40
-0.6
176
     1
 41
-30.0
176
     1
 62
     5
 63
     7
421
 16777215
176
     1
 74
     1
176
     1
 91
        4
176
     1
 64
     7
176
     1
 65
   257
176
     1
 75
     1
176
     1
175
     1
176
     1
 42
1.0
176
     1
 92
        0
176
     1
 66
   257
176
     1
 43
1.0
176
     1
 76
     1
176
     1
 77
     6
176
     1
 78
     2
176
     1
 67
     7
176
     1
 79
     5
176
     1
170
     0
176
     1
171
     0
176
     1
290
     0
176
     1
 93
        1
176
     1
 44
0.0
176
     1
173
     0
176
     1
  0
VISUALSTYLE
  5
32
102
{ACAD_REACTORS
330
2A
102
}
330
2A
100
AcDbVisualStyle
  2
Basic
 70
     7
177
     2
291
     1
 71
     1
176
     1
 72
     0
176
     1
 73
     1
176
     1
 90
        0
176
     1
 40
-0.6
176
     1
 41
-30.0
176
     1
 62
     5
 63
     7
421
 16777215
176
     1
 74
     0
176
     1
 91
        4
176
     1
 64
     7
176
     1
 65
   257
176
     1
 75
     1
176
     1
175
     1
176
     1
 42
1.0
176
     1
 92
        8
176
     1
 66
     7
176
     1
 43
1.0
176
     1
 76
     1
176
     1
 77
     6
176
     1
 78
     2
176
     1
 67
     7
176
     1
 79
     5
176
     1
170
     0
176
     1
171
     0
176
     1
290
     0
176
     1
 93
        1
176
     1
 44
0.0
176
     1
173
     0
176
     1
  0
VISUALSTYLE
  5
36
102
{ACAD_REACTORS
330
2A
102
}
330
2A
100
AcDbVisualStyle
  2
Brighten
 70
    12
177
     2
291
     1
 71
     2
176
     1
 72
     2
176
     1
 73
     0
176
     1
 90
        0
176
     1
 40
-0.6
176
     1
 41
-30.0
176
     1
 62
     5
 63
     7
421
 16777215
176
     1
 74
     1
176
     1
 91
        4
176
     1
 64
     7
176
     1
 65
   257
176
     1
 75
     1
176
     1
175
     1
176
     1
 42
1.0
176
     1
 92
        8
176
     1
 66
     7
176
     1
 43
1.0
176
     1
 76
     1
176
     1
 77
     6
176
     1
 78
     2
176
     1
 67
     7
176
     1
 79
     5
176
     1
170
     0
176
     1
171
     0
176
     1
290
     0
176
     1
 93
        1
176
     1
 44
50.0
176
     1
173
     0
176
     1
  0
VISUALSTYLE
  5
3A
102
{ACAD_REACTORS
330
2A
102
}
330
2A
100
AcDbVisualStyle
  2
ColorChange
 70
    16
177
     2
291
     1
 71
     2
176
     1
 72
     2
176
     1
 73
     3
176
     1
 90
        0
176
     1
 40
-0.6
176
     1
 41
-30.0
176
     1
 62
     5
 63
     8
421
  8421504
176
     1
 74
     1
176
     1
 91
        4
176
     1
 64
     7
176
     1
 65
   257
176
     1
 75
     1
176
     1
175
     1
176
     1
 42
1.0
176
     1
 92
        8
176
     1
 66
     8
424
  8421504
176
     1
 43
1.0
176
     1
 76
     1
176
     1
 77
     6
176
     1
 78
     2
176
     1
 67
     7
176
     1
 79
     5
176
     1
170
     0
176
     1
171
     0
176
     1
290
     0
176
     1
 93
        1
176
     1
 44
0.0
176
     1
173
     0
176
     1
  0
VISUALSTYLE
  5
34
102
{ACAD_REACTORS
330
2A
102
}
330
2A
100
AcDbVisualStyle
  2
Conceptual
 70
     9
177
     2
291
     0
 71
     3
176
     1
 72
     2
176
     1
 73
     0
176
     1
 90
        0
176
     1
 40
-0.6
176
     1
 41
-30.0
176
     1
 62
     5
 63
     7
421
 16777215
176
     1
 74
     2
176
     1
 91
        2
176
     1
 64
     7
176
     1
 65
   257
176
     1
 75
     1
176
     1
175
     1
176
     1
 42
40.0
176
     1
 92
        8
176
     1
 66
     7
176
     1
 43
1.0
176
     1
 76
     1
176
     1
 77
     6
176
     1
 78
     2
176
     1
 67
     7
176
     1
 79
     3
176
     1
170
     0
176
     1
171
     0
176
     1
290
     0
176
     1
 93
        1
176
     1
 44
0.0
176
     1
173
     0
176
     1
  0
VISUALSTYLE
  5
35
102
{ACAD_REACTORS
330
2A
102
}
330
2A
100
AcDbVisualStyle
  2
Dim
 70
    11
177
     2
291
     1
 71
     2
176
     1
 72
     2
176
     1
 73
     0
176
     1
 90
        0
176
     1
 40
-0.6
176
     1
 41
-30.0
176
     1
 62
     5
 63
     7
421
 16777215
176
     1
 74
     1
176
     1
 91
        4
176
     1
 64
     7
176
     1
 65
   257
176
     1
 75
     1
176
     1
175
     1
176
     1
 42
1.0
176
     1
 92
        8
176
     1
 66
     7
176
     1
 43
1.0
176
     1
 76
     1
176
     1
 77
     6
176
     1
 78
     2
176
     1
 67
     7
176
     1
 79
     5
176
     1
170
     0
176
     1
171
     0
176
     1
290
     0
176
     1
 93
        1
176
     1
 44
-50.0
176
     1
173
     0
176
     1
  0
VISUALSTYLE
  5
39
102
{ACAD_REACTORS
330
2A
102
}
330
2A
100
AcDbVisualStyle
  2
Facepattern
 70
    15
177
     2
291
     1
 71
     2
176
     1
 72
     2
176
     1
 73
     0
176
     1
 90
        0
176
     1
 40
-0.6
176
     1
 41
-30.0
176
     1
 62
     5
 63
     7
421
 16777215
176
     1
 74
     1
176
     1
 91
        4
176
     1
 64
     7
176
     1
 65
   257
176
     1
 75
     1
176
     1
175
     1
176
     1
 42
1.0
176
     1
 92
        8
176
     1
 66
     7
176
     1
 43
1.0
176
     1
 76
     1
176
     1
 77
     6
176
     1
 78
     2
176
     1
 67
     7
176
     1
 79
     5
176
     1
170
     0
176
     1
171
     0
176
     1
290
     0
176
     1
 93
        1
176
     1
 44
0.0
176
     1
173
     0
176
     1
  0
VISUALSTYLE
  5
2B
102
{ACAD_REACTORS
330
2A
102
}
330
2A
100
AcDbVisualStyle
  2
Flat
 70
     0
177
     2
291
     1
 71
     2
176
     1
 72
     1
176
     1
 73
     1
176
     1
 90
        2
176
     1
 40
-0.6
176
     1
 41
30.0
176
     1
 62
     5
 63
     7
421
 16777215
176
     1
 74
     0
176
     1
 91
        4
176
     1
 64
     7
176
     1
 65
   257
176
     1
 75
     1
176
     1
175
     1
176
     1
 42
1.0
176
     1
 92
        8
176
     1
 66
     7
176
     1
 43
1.0
176
     1
 76
     1
176
     1
 77
     6
176
     1
 78
     2
176
     1
 67
     7
176
     1
 79
     5
176
     1
170
     0
176
     1
171
     0
176
     1
290
     0
176
     1
 93
       13
176
     1
 44
0.0
176
     1
173
     0
176
     1
  0
VISUALSTYLE
  5
2C
102
{ACAD_REACTORS
330
2A
102
}
330
2A
100
AcDbVisualStyle
  2
FlatWithEdges
 70
     1
177
     2
291
     1
 71
     2
176
     1
 72
     1
176
     1
 73
     1
176
     1
 90
        2
176
     1
 40
-0.6
176
     1
 41
30.0
176
     1
 62
     5
 63
     7
421
 16777215
176
     1
 74
     1
176
     1
 91
        4
176
     1
 64
     7
176
     1
 65
   257
176
     1
 75
     1
176
     1
175
     1
176
     1
 42
1.0
176
     1
 92
        0
176
     1
 66
   257
176
     1
 43
1.0
176
     1
 76
     1
176
     1
 77
     6
176
     1
 78
     2
176
     1
 67
     7
176
     1
 79
     5
176
     1
170
     0
176
     1
171
     0
176
     1
290
     0
176
     1
 93
       13
176
     1
 44
0.0
176
     1
173
     0
176
     1
  0
VISUALSTYLE
  5
2D
102
{ACAD_REACTORS
330
2A
102
}
330
2A
100
AcDbVisualStyle
  2
Gouraud
 70
     2
177
     2
291
     1
 71
     2
176
     1
 72
     2
176
     1
 73
     1
176
     1
 90
        2
176
     1
 40
-0.6
176
     1
 41
30.0
176
     1
 62
     5
 63
     7
421
 16777215
176
     1
 74
     0
176
     1
 91
        4
176
     1
 64
     7
176
     1
 65
   257
176
     1
 75
     1
176
     1
175
     1
176
     1
 42
1.0
176
     1
 92
        0
176
     1
 66
     7
176
     1
 43
1.0
176
     1
 76
     1
176
     1
 77
     6
176
     1
 78
     2
176
     1
 67
     7
176
     1
 79
     5
176
     1
170
     0
176
     1
171
     0
176
     1
290
     0
176
     1
 93
       13
176
     1
 44
0.0
176
     1
173
     0
176
     1
  0
VISUALSTYLE
  5
2E
102
{ACAD_REACTORS
330
2A
102
}
330
2A
100
AcDbVisualStyle
  2
GouraudWithEdges
 70
     3
177
     2
291
     1
 71
     2
176
     1
 72
     2
176
     1
 73
     1
176
     1
 90
        2
176
     1
 40
-0.6
176
     1
 41
30.0
176
     1
 62
     5
 63
     7
421
 16777215
176
     1
 74
     1
176
     1
 91
        4
176
     1
 64
     7
176
     1
 65
   257
176
     1
 75
     1
176
     1
175
     1
176
     1
 42
1.0
176
     1
 92
        0
176
     1
 66
   257
176
     1
 43
1.0
176
     1
 76
     1
176
     1
 77
     6
176
     1
 78
     2
176
     1
 67
     7
176
     1
 79
     5
176
     1
170
     0
176
     1
171
     0
176
     1
290
     0
176
     1
 93
       13
176
     1
 44
0.0
176
     1
173
     0
176
     1
  0
VISUALSTYLE
  5
38
102
{ACAD_REACTORS
330
2A
102
}
330
2A
100
AcDbVisualStyle
  2
Linepattern
 70
    14
177
     2
291
     1
 71
     2
176
     1
 72
     2
176
     1
 73
     0
176
     1
 90
        0
176
     1
 40
-0.6
176
     1
 41
-30.0
176
     1
 62
     5
 63
     7
421
 16777215
176
     1
 74
     1
176
     1
 91
        4
176
     1
 64
     7
176
     1
 65
   257
176
     1
 75
     7
176
     1
175
     7
176
     1
 42
1.0
176
     1
 92
        8
176
     1
 66
     7
176
     1
 43
1.0
176
     1
 76
     1
176
     1
 77
     6
176
     1
 78
     2
176
     1
 67
     7
176
     1
 79
     5
176
     1
170
     0
176
     1
171
     0
176
     1
290
     0
176
     1
 93
        1
176
     1
 44
0.0
176
     1
173
     0
176
     1
  0
VISUALSTYLE
  5
33
102
{ACAD_REACTORS
330
2A
102
}
330
2A
100
AcDbVisualStyle
  2
Realistic
 70
     8
177
     2
291
     0
 71
     2
176
     1
 72
     2
176
     1
 73
     0
176
     1
 90
        0
176
     1
 40
-0.6
176
     1
 41
-30.0
176
     1
 62
     5
 63
     7
421
 16777215
176
     1
 74
     1
176
     1
 91
        0
176
     1
 64
     7
176
     1
 65
   257
176
     1
 75
     1
176
     1
175
     1
176
     1
 42
1.0
176
     1
 92
        8
176
     1
 66
     8
424
  7895160
176
     1
 43
1.0
176
     1
 76
     1
176
     1
 77
     6
176
     1
 78
     2
176
     1
 67
     7
176
     1
 79
     5
176
     1
170
     0
176
     1
171
     0
176
     1
290
     0
176
     1
 93
       13
176
     1
 44
0.0
176
     1
173
     0
176
     1
  0
VISUALSTYLE
  5
37
102
{ACAD_REACTORS
330
2A
102
}
330
2A
100
AcDbVisualStyle
  2
Thicken
 70
    13
177
     2
291
     1
 71
     2
176
     1
 72
     2
176
     1
 73
     0
176
     1
 90
        0
176
     1
 40
-0.6
176
     1
 41
-30.0
176
     1
 62
     5
 63
     7
421
 16777215
176
     1
 74
     1
176
     1
 91
        4
176
     1
 64
     7
176
     1
 65
   257
176
     1
 75
     1
176
     1
175
     1
176
     1
 42
1.0
176
     1
 92
       12
176
     1
 66
     7
176
     1
 43
1.0
176
     1
 76
     1
176
     1
 77
     6
176
     1
 78
     2
176
     1
 67
     7
176
     1
 79
     5
176
     1
170
     0
176
     1
171
     0
176
     1
290
     0
176
     1
 93
        1
176
     1
 44
0.0
176
     1
173
     0
176
     1
  0
ENDSEC
  0
EOF
