  0
SECTION
  2
HEADER
  9
$ACADVER
  1
AC1024
  9
$ACADMAINTVER
 70
     6
  9
$DWGCODEPAGE
  3
UNDEFINED
  9
$INSBASE
 10
0.0
 20
0.0
 30
0.0
  9
$EXTMIN
 10
1.000000000000000E+20
 20
1.000000000000000E+20
 30
1.000000000000000E+20
  9
$EXTMAX
 10
-1.000000000000000E+20
 20
-1.000000000000000E+20
 30
-1.000000000000000E+20
  9
$LIMMIN
 10
0.0
 20
0.0
  9
$LIMMAX
 10
12.0
 20
9.0
  9
$ORTHOMODE
 70
     0
  9
$REGENMODE
 70
     1
  9
$FILLMODE
 70
     1
  9
$QTEXTMODE
 70
     0
  9
$MIRRTEXT
 70
     1
  9
$LTSCALE
 40
1.0
  9
$ATTMODE
 70
     1
  9
$TEXTSIZE
 40
0.2
  9
$TRACEWID
 40
0.05
  9
$TEXTSTYLE
  7
Standard
  9
$CLAYER
  8
0
  9
$CELTYPE
  6
ByLayer
  9
$CECOLOR
 62
   256
  9
$CELTSCALE
 40
1.0
  9
$DISPSILH
 70
     0
  9
$DIMSCALE
 40
1.0
  9
$DIMASZ
 40
0.18
  9
$DIMEXO
 40
0.0625
  9
$DIMDLI
 40
0.38
  9
$DIMRND
 40
0.0
  9
$DIMDLE
 40
0.0
  9
$DIMEXE
 40
0.18
  9
$DIMTP
 40
0.0
  9
$DIMTM
 40
0.0
  9
$DIMTXT
 40
0.18
  9
$DIMCEN
 40
0.09
  9
$DIMTSZ
 40
0.0
  9
$DIMTOL
 70
     0
  9
$DIMLIM
 70
     0
  9
$DIMTIH
 70
     1
  9
$DIMTOH
 70
     1
  9
$DIMSE1
 70
     0
  9
$DIMSE2
 70
     0
  9
$DIMTAD
 70
     0
  9
$DIMZIN
 70
     0
  9
$DIMBLK
  1

  9
$DIMASO
 70
     1
  9
$DIMSHO
 70
     1
  9
$DIMPOST
  1

  9
$DIMAPOST
  1

  9
$DIMALT
 70
     0
  9
$DIMALTD
 70
     2
  9
$DIMALTF
 40
25.4
  9
$DIMLFAC
 40
1.0
  9
$DIMTOFL
 70
     0
  9
$DIMTVP
 40
0.0
  9
$DIMTIX
 70
     0
  9
$DIMSOXD
 70
     0
  9
$DIMSAH
 70
     0
  9
$DIMBLK1
  1

  9
$DIMBLK2
  1

  9
$DIMSTYLE
  2
Standard
  9
$DIMCLRD
 70
     0
  9
$DIMCLRE
 70
     0
  9
$DIMCLRT
 70
     0
  9
$DIMTFAC
 40
1.0
  9
$DIMGAP
 40
0.09
  9
$DIMJUST
 70
     0
  9
$DIMSD1
 70
     0
  9
$DIMSD2
 70
     0
  9
$DIMTOLJ
 70
     1
  9
$DIMTZIN
 70
     0
  9
$DIMALTZ
 70
     0
  9
$DIMALTTZ
 70
     0
  9
$DIMUPT
 70
     0
  9
$DIMDEC
 70
     4
  9
$DIMTDEC
 70
     4
  9
$DIMALTU
 70
     2
  9
$DIMALTTD
 70
     2
  9
$DIMTXSTY
  7
Standard
  9
$DIMAUNIT
 70
     0
  9
$DIMADEC
 70
     0
  9
$DIMALTRND
 40
0.0
  9
$DIMAZIN
 70
     0
  9
$DIMDSEP
 70
    46
  9
$DIMATFIT
 70
     3
  9
$DIMFRAC
 70
     0
  9
$DIMLDRBLK
  1

  9
$DIMLUNIT
 70
     2
  9
$DIMLWD
 70
    -2
  9
$DIMLWE
 70
    -2
  9
$DIMTMOVE
 70
     0
  9
$DIMFXL
 40
1.0
  9
$DIMFXLON
 70
     0
  9
$DIMJOGANG
 40
0.7853981633974483
  9
$DIMTFILL
 70
     0
  9
$DIMTFILLCLR
 70
     0
  9
$DIMARCSYM
 70
     0
  9
$DIMLTYPE
  6

  9
$DIMLTEX1
  6

  9
$DIMLTEX2
  6

  9
$DIMTXTDIRECTION
 70
     0
  9
$LUNITS
 70
     2
  9
$LUPREC
 70
     4
  9
$SKETCHINC
 40
0.1
  9
$FILLETRAD
 40
0.5
  9
$AUNITS
 70
     0
  9
$AUPREC
 70
     0
  9
$MENU
  1
.
  9
$ELEVATION
 40
0.0
  9
$PELEVATION
 40
0.0
  9
$THICKNESS
 40
0.0
  9
$LIMCHECK
 70
     0
  9
$CHAMFERA
 40
0.5
  9
$CHAMFERB
 40
0.5
  9
$CHAMFERC
 40
1.0
  9
$CHAMFERD
 40
0.0
  9
$SKPOLY
 70
     0
  9
$TDCREATE
 40
2459728.79878471
  9
$TDUCREATE
 40
2459728.423784722
  9
$TDUPDATE
 40
2459728.79878471
  9
$TDUUPDATE
 40
2459728.423784722
  9
$TDINDWG
 40
0.0000000116
  9
$TDUSRTIMER
 40
0.0000000116
  9
$USRTIMER
 70
     1
  9
$ANGBASE
 50
0.0
  9
$ANGDIR
 70
     0
  9
$PDMODE
 70
     0
  9
$PDSIZE
 40
0.0
  9
$PLINEWID
 40
0.0
  9
$SPLFRAME
 70
     0
  9
$SPLINETYPE
 70
     6
  9
$SPLINESEGS
 70
     8
  9
$HANDSEED
  5
4E
  9
$SURFTAB1
 70
     6
  9
$SURFTAB2
 70
     6
  9
$SURFTYPE
 70
     6
  9
$SURFU
 70
     6
  9
$SURFV
 70
     6
  9
$UCSBASE
  2

  9
$UCSNAME
  2

  9
$UCSORG
 10
0.0
 20
0.0
 30
0.0
  9
$UCSXDIR
 10
1.0
 20
0.0
 30
0.0
  9
$UCSYDIR
 10
0.0
 20
1.0
 30
0.0
  9
$UCSORTHOREF
  2

  9
$UCSORTHOVIEW
 70
     0
  9
$UCSORGTOP
 10
0.0
 20
0.0
 30
0.0
  9
$UCSORGBOTTOM
 10
0.0
 20
0.0
 30
0.0
  9
$UCSORGLEFT
 10
0.0
 20
0.0
 30
0.0
  9
$UCSORGRIGHT
 10
0.0
 20
0.0
 30
0.0
  9
$UCSORGFRONT
 10
0.0
 20
0.0
 30
0.0
  9
$UCSORGBACK
 10
0.0
 20
0.0
 30
0.0
  9
$PUCSBASE
  2

  9
$PUCSNAME
  2

  9
$PUCSORG
 10
0.0
 20
0.0
 30
0.0
  9
$PUCSXDIR
 10
1.0
 20
0.0
 30
0.0
  9
$PUCSYDIR
 10
0.0
 20
1.0
 30
0.0
  9
$PUCSORTHOREF
  2

  9
$PUCSORTHOVIEW
 70
     0
  9
$PUCSORGTOP
 10
0.0
 20
0.0
 30
0.0
  9
$PUCSORGBOTTOM
 10
0.0
 20
0.0
 30
0.0
  9
$PUCSORGLEFT
 10
0.0
 20
0.0
 30
0.0
  9
$PUCSORGRIGHT
 10
0.0
 20
0.0
 30
0.0
  9
$PUCSORGFRONT
 10
0.0
 20
0.0
 30
0.0
  9
$PUCSORGBACK
 10
0.0
 20
0.0
 30
0.0
  9
$USERI1
 70
     0
  9
$USERI2
 70
     0
  9
$USERI3
 70
     0
  9
$USERI4
 70
     0
  9
$USERI5
 70
     0
  9
$USERR1
 40
0.0
  9
$USERR2
 40
0.0
  9
$USERR3
 40
0.0
  9
$USERR4
 40
0.0
  9
$USERR5
 40
0.0
  9
$WORLDVIEW
 70
     1
  9
$SHADEDGE
 70
     3
  9
$SHADEDIF
 70
    70
  9
$TILEMODE
 70
     1
  9
$MAXACTVP
 70
    64
  9
$PINSBASE
 10
0.0
 20
0.0
 30
0.0
  9
$PLIMCHECK
 70
     0
  9
$PEXTMIN
 10
1.000000000000000E+20
 20
1.000000000000000E+20
 30
1.000000000000000E+20
  9
$PEXTMAX
 10
-1.000000000000000E+20
 20
-1.000000000000000E+20
 30
-1.000000000000000E+20
  9
$PLIMMIN
 10
0.0
 20
0.0
  9
$PLIMMAX
 10
12.0
 20
9.0
  9
$UNITMODE
 70
     0
  9
$VISRETAIN
 70
     1
  9
$PLINEGEN
 70
     0
  9
$PSLTSCALE
 70
     1
  9
$TREEDEPTH
 70
  3020
  9
$CMLSTYLE
  2
Standard
  9
$CMLJUST
 70
     0
  9
$CMLSCALE
 40
1.0
  9
$PROXYGRAPHICS
 70
     1
  9
$MEASUREMENT
 70
     0
  9
$CELWEIGHT
370
    -1
  9
$ENDCAPS
280
     0
  9
$JOINSTYLE
280
     0
  9
$LWDISPLAY
290
     1
  9
$INSUNITS
 70
     0
  9
$HYPERLINKBASE
  1

  9
$STYLESHEET
  1

  9
$XEDIT
290
     1
  9
$CEPSNTYPE
380
     0
  9
$PSTYLEMODE
290
     1
  9
$FINGERPRINTGUID
  2
{8366E53A-6503-86AA-723A-01F8689C1718}
  9
$VERSIONGUID
  2
{FAEB1C32-E019-11D5-929B-00C0DF256EC4}
  9
$EXTNAMES
290
     1
  9
$PSVPSCALE
 40
0.0
  9
$OLESTARTUP
290
     0
  9
$SORTENTS
280
   127
  9
$INDEXCTL
280
     0
  9
$HIDETEXT
280
     1
  9
$XCLIPFRAME
280
     2
  9
$HALOGAP
280
     0
  9
$OBSCOLOR
 70
   257
  9
$OBSLTYPE
280
     0
  9
$INTERSECTIONDISPLAY
280
     0
  9
$INTERSECTIONCOLOR
 70
   257
  9
$DIMASSOC
280
     2
  9
$PROJECTNAME
  1

  9
$CAMERADISPLAY
290
     0
  9
$LENSLENGTH
 40
50.0
  9
$CAMERAHEIGHT
 40
0.0
  9
$STEPSPERSEC
 40
2.0
  9
$STEPSIZE
 40
6.0
  9
$3DDWFPREC
 40
2.0
  9
$PSOLWIDTH
 40
0.25
  9
$PSOLHEIGHT
 40
4.0
  9
$LOFTANG1
 40
1.570796326794897
  9
$LOFTANG2
 40
1.570796326794897
  9
$LOFTMAG1
 40
0.0
  9
$LOFTMAG2
 40
0.0
  9
$LOFTPARAM
 70
     7
  9
$LOFTNORMALS
280
     1
  9
$LATITUDE
 40
37.795
  9
$LONGITUDE
 40
-122.394
  9
$NORTHDIRECTION
 40
0.0
  9
$TIMEZONE
 70
 -8000
  9
$LIGHTGLYPHDISPLAY
280
     1
  9
$TILEMODELIGHTSYNCH
280
     1
  9
$CMATERIAL
347
3C
  9
$SOLIDHIST
280
     1
  9
$SHOWHIST
280
     1
  9
$DWFFRAME
280
     2
  9
$DGNFRAME
280
     2
  9
$REALWORLDSCALE
290
     1
  9
$INTERFERECOLOR
 62
   256
  9
$CSHADOW
280
     0
  9
$SHADOWPLANELOCATION
 40
0.0
  0
ENDSEC
  0
SECTION
  2
CLASSES
  0
CLASS
  1
ACDBDICTIONARYWDFLT
  2
AcDbDictionaryWithDefault
  3
ObjectDBX Classes
 90
        0
 91
        4
280
     0
281
     0
  0
CLASS
  1
VISUALSTYLE
  2
AcDbVisualStyle
  3
ObjectDBX Classes
 90
     4095
 91
        4
280
     0
281
     0
  0
CLASS
  1
MATERIAL
  2
AcDbMaterial
  3
ObjectDBX Classes
 90
     1153
 91
        4
280
     0
281
     0
  0
CLASS
  1
SUN
  2
AcDbSun
  3
SCENEOE
 90
     1024
 91
        4
280
     0
281
     0
  0
ENDSEC
  0
SECTION
  2
TABLES
  0
TABLE
  2
VPORT
  5
8
330
0
100
AcDbSymbolTable
 70
     1
  0
VPORT
  5
29
330
8
100
AcDbSymbolTableRecord
100
AcDbViewportTableRecord
  2
*Active
 70
     0
 10
0.0
 20
0.0
 11
1.0
 21
1.0
 12
0.0
 22
0.0
 13
0.0
 23
0.0
 14
0.5
 24
0.5
 15
0.5
 25
0.5
 16
0.0
 26
0.0
 36
1.0
 17
432.0
 27
432.0
 37
0.0
 40
864.0
 41
1.0
 42
50.0
 43
0.0
 44
0.0
 50
0.0
 51
0.0
 71
     0
 72
   100
 73
     1
 74
     3
 75
     0
 76
     0
 77
     0
 78
     0
281
     0
 65
     1
110
0.0
120
0.0
130
0.0
111
1.0
121
0.0
131
0.0
112
0.0
122
1.0
132
0.0
 79
     0
146
0.0
 60
     3
 61
     5
292
     1
282
     1
141
0.0
142
0.0
 63
   250
361
3F
  0
ENDTAB
  0
TABLE
  2
LTYPE
  5
5
330
0
100
AcDbSymbolTable
 70
     1
  0
LTYPE
  5
14
330
5
100
AcDbSymbolTableRecord
100
AcDbLinetypeTableRecord
  2
ByBlock
 70
     0
  3

 72
    65
 73
     0
 40
0.0
  0
LTYPE
  5
15
330
5
100
AcDbSymbolTableRecord
100
AcDbLinetypeTableRecord
  2
ByLayer
 70
     0
  3

 72
    65
 73
     0
 40
0.0
  0
LTYPE
  5
16
330
5
100
AcDbSymbolTableRecord
100
AcDbLinetypeTableRecord
  2
Continuous
 70
     0
  3
Solid line
 72
    65
 73
     0
 40
0.0
  0
ENDTAB
  0
TABLE
  2
LAYER
  5
2
330
0
100
AcDbSymbolTable
 70
     2
  0
LAYER
  5
10
330
2
100
AcDbSymbolTableRecord
100
AcDbLayerTableRecord
  2
0
 70
     0
 62
     7
  6
Continuous
370
    -3
390
F
347
3E
  0
LAYER
  5
40
330
2
100
AcDbSymbolTableRecord
100
AcDbLayerTableRecord
  2
Layer 1
 70
     0
 62
     7
  6
Continuous
370
    -3
390
F
347
3E
  0
ENDTAB
  0
TABLE
  2
STYLE
  5
3
330
0
100
AcDbSymbolTable
 70
     1
  0
STYLE
  5
11
330
3
100
AcDbSymbolTableRecord
100
AcDbTextStyleTableRecord
  2
Standard
 70
     0
 40
0.0
 41
1.0
 50
0.0
 71
     0
 42
0.2
  3
txt
  4

  0
ENDTAB
  0
TABLE
  2
VIEW
  5
6
330
0
100
AcDbSymbolTable
 70
     0
  0
ENDTAB
  0
TABLE
  2
UCS
  5
7
330
0
100
AcDbSymbolTable
 70
     0
  0
ENDTAB
  0
TABLE
  2
APPID
  5
9
330
0
100
AcDbSymbolTable
 70
     1
  0
APPID
  5
12
330
9
100
AcDbSymbolTableRecord
100
AcDbRegAppTableRecord
  2
ACAD
 70
     0
  0
ENDTAB
  0
TABLE
  2
DIMSTYLE
  5
A
330
0
100
AcDbSymbolTable
 70
     1
100
AcDbDimStyleTable
  0
DIMSTYLE
105
27
330
A
100
AcDbSymbolTableRecord
100
AcDbDimStyleTableRecord
  2
Standard
 70
     0
178
     0
340
11
  0
ENDTAB
  0
TABLE
  2
BLOCK_RECORD
  5
1
330
0
100
AcDbSymbolTable
 70
     1
  0
BLOCK_RECORD
  5
1F
330
1
100
AcDbSymbolTableRecord
100
AcDbBlockTableRecord
  2
*Model_Space
340
22
 70
     0
280
     1
281
     0
  0
BLOCK_RECORD
  5
1B
330
1
100
AcDbSymbolTableRecord
100
AcDbBlockTableRecord
  2
*Paper_Space
340
1E
 70
     0
280
     1
281
     0
  0
BLOCK_RECORD
  5
23
330
1
100
AcDbSymbolTableRecord
100
AcDbBlockTableRecord
  2
*Paper_Space0
340
26
 70
     0
280
     1
281
     0
  0
ENDTAB
  0
ENDSEC
  0
SECTION
  2
BLOCKS
  0
BLOCK
  5
20
330
1F
100
AcDbEntity
  8
0
100
AcDbBlockBegin
  2
*Model_Space
 70
     0
 10
0.0
 20
0.0
 30
0.0
  3
*Model_Space
  1

  0
ENDBLK
  5
21
330
1F
100
AcDbEntity
  8
0
100
AcDbBlockEnd
  0
BLOCK
  5
1C
330
1B
100
AcDbEntity
 67
     1
  8
0
100
AcDbBlockBegin
  2
*Paper_Space
 70
     0
 10
0.0
 20
0.0
 30
0.0
  3
*Paper_Space
  1

  0
ENDBLK
  5
1D
330
1B
100
AcDbEntity
 67
     1
  8
0
100
AcDbBlockEnd
  0
BLOCK
  5
24
330
23
100
AcDbEntity
  8
0
100
AcDbBlockBegin
  2
*Paper_Space0
 70
     0
 10
0.0
 20
0.0
 30
0.0
  3
*Paper_Space0
  1

  0
ENDBLK
  5
25
330
23
100
AcDbEntity
  8
0
100
AcDbBlockEnd
  0
ENDSEC
  0
SECTION
  2
ENTITIES
  0
SPLINE
  5
41
330
1F
100
AcDbEntity
  8
Layer 1
370
     0
100
AcDbSpline
210
0.0
220
0.0
230
1.0
 70
    11
 71
     3
 72
   266
 73
   262
 74
     0
 42
0.0000000001
 43
0.0000000001
 12
1.0
 22
0.0
 32
0.0
 13
1.0
 23
0.0
 33
0.0
 40
0.0
 40
0.0
 40
0.0
 40
0.0
 40
1.0
 40
1.0
 40
1.0
 40
2.0
 40
2.0
 40
2.0
 40
3.0
 40
3.0
 40
3.0
 40
4.0
 40
4.0
 40
4.0
 40
5.0
 40
5.0
 40
5.0
 40
6.0
 40
6.0
 40
6.0
 40
7.0
 40
7.0
 40
7.0
 40
8.0
 40
8.0
 40
8.0
 40
9.0
 40
9.0
 40
9.0
 40
10.0
 40
10.0
 40
10.0
 40
11.0
 40
11.0
 40
11.0
 40
12.0
 40
12.0
 40
12.0
 40
13.0
 40
13.0
 40
13.0
 40
14.0
 40
14.0
 40
14.0
 40
15.0
 40
15.0
 40
15.0
 40
16.0
 40
16.0
 40
16.0
 40
17.0
 40
17.0
 40
17.0
 40
18.0
 40
18.0
 40
18.0
 40
19.0
 40
19.0
 40
19.0
 40
20.0
 40
20.0
 40
20.0
 40
21.0
 40
21.0
 40
21.0
 40
22.0
 40
22.0
 40
22.0
 40
23.0
 40
23.0
 40
23.0
 40
24.0
 40
24.0
 40
24.0
 40
25.0
 40
25.0
 40
25.0
 40
26.0
 40
26.0
 40
26.0
 40
27.0
 40
27.0
 40
27.0
 40
28.0
 40
28.0
 40
28.0
 40
29.0
 40
29.0
 40
29.0
 40
30.0
 40
30.0
 40
30.0
 40
31.0
 40
31.0
 40
31.0
 40
32.0
 40
32.0
 40
32.0
 40
33.0
 40
33.0
 40
33.0
 40
34.0
 40
34.0
 40
34.0
 40
35.0
 40
35.0
 40
35.0
 40
36.0
 40
36.0
 40
36.0
 40
37.0
 40
37.0
 40
37.0
 40
38.0
 40
38.0
 40
38.0
 40
39.0
 40
39.0
 40
39.0
 40
40.0
 40
40.0
 40
40.0
 40
41.0
 40
41.0
 40
41.0
 40
42.0
 40
42.0
 40
42.0
 40
43.0
 40
43.0
 40
43.0
 40
44.0
 40
44.0
 40
44.0
 40
45.0
 40
45.0
 40
45.0
 40
46.0
 40
46.0
 40
46.0
 40
47.0
 40
47.0
 40
47.0
 40
48.0
 40
48.0
 40
48.0
 40
49.0
 40
49.0
 40
49.0
 40
50.0
 40
50.0
 40
50.0
 40
51.0
 40
51.0
 40
51.0
 40
52.0
 40
52.0
 40
52.0
 40
53.0
 40
53.0
 40
53.0
 40
54.0
 40
54.0
 40
54.0
 40
55.0
 40
55.0
 40
55.0
 40
56.0
 40
56.0
 40
56.0
 40
57.0
 40
57.0
 40
57.0
 40
58.0
 40
58.0
 40
58.0
 40
59.0
 40
59.0
 40
59.0
 40
60.0
 40
60.0
 40
60.0
 40
61.0
 40
61.0
 40
61.0
 40
62.0
 40
62.0
 40
62.0
 40
63.0
 40
63.0
 40
63.0
 40
64.0
 40
64.0
 40
64.0
 40
65.0
 40
65.0
 40
65.0
 40
66.0
 40
66.0
 40
66.0
 40
67.0
 40
67.0
 40
67.0
 40
68.0
 40
68.0
 40
68.0
 40
69.0
 40
69.0
 40
69.0
 40
70.0
 40
70.0
 40
70.0
 40
71.0
 40
71.0
 40
71.0
 40
72.0
 40
72.0
 40
72.0
 40
73.0
 40
73.0
 40
73.0
 40
74.0
 40
74.0
 40
74.0
 40
75.0
 40
75.0
 40
75.0
 40
76.0
 40
76.0
 40
76.0
 40
77.0
 40
77.0
 40
77.0
 40
78.0
 40
78.0
 40
78.0
 40
79.0
 40
79.0
 40
79.0
 40
80.0
 40
80.0
 40
80.0
 40
81.0
 40
81.0
 40
81.0
 40
82.0
 40
82.0
 40
82.0
 40
83.0
 40
83.0
 40
83.0
 40
84.0
 40
84.0
 40
84.0
 40
85.0
 40
85.0
 40
85.0
 40
86.0
 40
86.0
 40
86.0
 40
87.0
 40
87.0
 40
87.0
 40
87.0
 10
801.1058349609375
 20
135.78125
 30
0.0
 10
788.5653076171875
 20
128.78515625
 30
0.0
 10
772.727783203125
 20
133.27978515625
 30
0.0
 10
765.731689453125
 20
145.8203125
 30
0.0
 10
758.8837890625
 20
158.0951538085938
 30
0.0
 10
763.0307006835938
 20
173.5899658203125
 30
0.0
 10
775.09423828125
 20
180.8035888671875
 30
0.0
 10
775.09423828125
 20
180.8035888671875
 30
0.0
 10
756.42724609375
 20
213.1139526367188
 30
0.0
 10
756.42724609375
 20
213.1139526367188
 30
0.0
 10
743.703369140625
 20
206.4772338867188
 30
0.0
 10
728.0084838867188
 20
211.4118041992188
 30
0.0
 10
721.3717651367188
 20
224.1356811523438
 30
0.0
 10
715.13623046875
 20
236.0903930664062
 30
0.0
 10
719.0806274414062
 20
250.8284301757812
 30
0.0
 10
730.4537963867188
 20
258.0704956054688
 30
0.0
 10
730.4537963867188
 20
258.0704956054688
 30
0.0
 10
711.7485961914062
 20
290.4445190429688
 30
0.0
 10
711.7485961914062
 20
290.4445190429688
 30
0.0
 10
698.8345336914062
 20
284.1780395507812
 30
0.0
 10
683.2855834960938
 20
289.5669555664062
 30
0.0
 10
677.0191040039062
 20
302.4810180664062
 30
0.0
 10
671.3824462890625
 20
314.09716796875
 30
0.0
 10
675.127685546875
 20
328.0900268554688
 30
0.0
 10
685.8133544921875
 20
335.33740234375
 30
0.0
 10
685.8133544921875
 20
335.33740234375
 30
0.0
 10
667.072021484375
 20
367.777099609375
 30
0.0
 10
667.072021484375
 20
367.777099609375
 30
0.0
 10
653.9692993164062
 20
361.8888549804688
 30
0.0
 10
638.5740356445312
 20
367.7373352050781
 30
0.0
 10
632.685791015625
 20
380.8400573730469
 30
0.0
 10
627.6266479492188
 20
392.0977783203125
 30
0.0
 10
631.1758422851562
 20
405.36083984375
 30
0.0
 10
641.1813354492188
 20
412.5872802734375
 30
0.0
 10
641.1813354492188
 20
412.5872802734375
 30
0.0
 10
629.8992309570312
 20
432.1156311035156
 30
0.0
 10
629.8992309570312
 20
432.1156311035156
 30
0.0
 10
629.8992309570312
 20
432.1156311035156
 30
0.0
 10
622.3657836914062
 20
445.1543273925781
 30
0.0
 10
622.3657836914062
 20
445.1543273925781
 30
0.0
 10
609.1101684570312
 20
439.6436767578125
 30
0.0
 10
593.8970947265625
 20
445.9222412109375
 30
0.0
 10
588.386474609375
 20
459.1778564453125
 30
0.0
 10
583.863037109375
 20
470.0588073730469
 30
0.0
 10
587.2252807617188
 20
482.6215209960938
 30
0.0
 10
596.5790405273438
 20
489.7884216308594
 30
0.0
 10
596.5790405273438
 20
489.7884216308594
 30
0.0
 10
577.6510620117188
 20
522.5527648925781
 30
0.0
 10
577.6510620117188
 20
522.5527648925781
 30
0.0
 10
564.24560546875
 20
517.4266967773438
 30
0.0
 10
549.2228393554688
 20
524.1384582519531
 30
0.0
 10
544.0968017578125
 20
537.5439147949219
 30
0.0
 10
540.0867309570312
 20
548.0307922363281
 30
0.0
 10
543.2649536132812
 20
559.9071655273438
 30
0.0
 10
551.9767456054688
 20
566.9895629882812
 30
0.0
 10
551.9767456054688
 20
566.9895629882812
 30
0.0
 10
532.9342041015625
 20
599.9512023925781
 30
0.0
 10
532.9342041015625
 20
599.9512023925781
 30
0.0
 10
519.3718872070312
 20
595.2225952148438
 30
0.0
 10
504.544189453125
 20
602.3837585449219
 30
0.0
 10
499.8155822753906
 20
615.9460601806641
 30
0.0
 10
496.3031921386719
 20
626.0201416015625
 30
0.0
 10
499.2998657226562
 20
637.2175445556641
 30
0.0
 10
507.3744506835938
 20
644.1907043457031
 30
0.0
 10
507.3744506835938
 20
644.1907043457031
 30
0.0
 10
488.2090148925781
 20
677.3665771484375
 30
0.0
 10
488.2090148925781
 20
677.3665771484375
 30
0.0
 10
474.5150756835938
 20
673.0363922119141
 30
0.0
 10
459.9036254882812
 20
680.6272277832031
 30
0.0
 10
455.5734558105469
 20
694.3211669921875
 30
0.0
 10
452.5233764648438
 20
703.9668426513672
 30
0.0
 10
455.3439331054688
 20
714.5059509277344
 30
0.0
 10
462.8041381835938
 20
721.3387756347656
 30
0.0
 10
462.8041381835938
 20
721.3387756347656
 30
0.0
 10
431.7984619140625
 20
775.0039978027344
 30
0.0
 10
431.7984619140625
 20
775.0039978027344
 30
0.0
 10
431.7984619140625
 20
775.0039978027344
 30
0.0
 10
401.9405822753906
 20
723.2544250488281
 30
0.0
 10
401.9405822753906
 20
723.2544250488281
 30
0.0
 10
413.58544921875
 20
714.8433074951172
 30
0.0
 10
416.2069396972656
 20
698.5847015380859
 30
0.0
 10
407.7958068847656
 20
686.9398345947266
 30
0.0
 10
400.5765686035156
 20
676.9450378417969
 30
0.0
 10
387.3320007324219
 20
673.3919982910156
 30
0.0
 10
376.07958984375
 20
678.4315185546875
 30
0.0
 10
376.07958984375
 20
678.4315185546875
 30
0.0
 10
357.3552856445312
 20
645.9769134521484
 30
0.0
 10
357.3552856445312
 20
645.9769134521484
 30
0.0
 10
369.2182006835938
 20
637.8937683105469
 30
0.0
 10
372.2822875976562
 20
621.7243041992188
 30
0.0
 10
364.1991577148438
 20
609.8614044189453
 30
0.0
 10
356.9587097167969
 20
599.2352600097656
 30
0.0
 10
343.03662109375
 20
595.5002746582031
 30
0.0
 10
331.4497375488281
 20
601.0755004882812
 30
0.0
 10
331.4497375488281
 20
601.0755004882812
 30
0.0
 10
312.7593994140625
 20
568.6824340820312
 30
0.0
 10
312.7593994140625
 20
568.6824340820312
 30
0.0
 10
324.8323669433594
 20
560.9240417480469
 30
0.0
 10
328.3300170898438
 20
544.8475036621094
 30
0.0
 10
320.5716247558594
 20
532.7745361328125
 30
0.0
 10
313.3334045410156
 20
521.5110168457031
 30
0.0
 10
298.7216491699219
 20
517.5911865234375
 30
0.0
 10
286.8177795410156
 20
523.7195129394531
 30
0.0
 10
286.8177795410156
 20
523.7195129394531
 30
0.0
 10
268.1634826660156
 20
491.3858337402344
 30
0.0
 10
268.1634826660156
 20
491.3858337402344
 30
0.0
 10
280.4411315917969
 20
483.9438171386719
 30
0.0
 10
284.3612060546875
 20
467.9578552246094
 30
0.0
 10
276.919189453125
 20
455.6802062988281
 30
0.0
 10
269.7033996582031
 20
443.7757873535156
 30
0.0
 10
254.390625
 20
439.6683959960938
 30
0.0
 10
242.1858062744141
 20
446.363525390625
 30
0.0
 10
242.1858062744141
 20
446.363525390625
 30
0.0
 10
233.8992614746094
 20
432.0010070800781
 30
0.0
 10
233.8992614746094
 20
432.0010070800781
 30
0.0
 10
233.8992614746094
 20
432.0010070800781
 30
0.0
 10
223.5675964355469
 20
414.0913696289062
 30
0.0
 10
223.5675964355469
 20
414.0913696289062
 30
0.0
 10
236.0431518554688
 20
406.9629516601562
 30
0.0
 10
240.3778686523438
 20
391.0707702636719
 30
0.0
 10
233.2494354248047
 20
378.59521484375
 30
0.0
 10
226.1389770507812
 20
366.1510925292969
 30
0.0
 10
210.3032836914062
 20
361.8014526367188
 30
0.0
 10
197.8338928222656
 20
368.8674926757812
 30
0.0
 10
197.7426605224609
 20
368.9205017089844
 30
0.0
 10
197.6620483398438
 20
368.9820556640625
 30
0.0
 10
197.5708160400391
 20
369.0350952148438
 30
0.0
 10
197.5708160400391
 20
369.0350952148438
 30
0.0
 10
178.9398193359375
 20
336.7438354492188
 30
0.0
 10
178.9398193359375
 20
336.7438354492188
 30
0.0
 10
179.1180267333984
 20
336.6483764648438
 30
0.0
 10
179.3025970458984
 20
336.5740966796875
 30
0.0
 10
179.4786834716797
 20
336.4744262695312
 30
0.0
 10
191.9851837158203
 20
329.3984375
 30
0.0
 10
196.3874664306641
 20
313.5236206054688
 30
0.0
 10
189.3114471435547
 20
301.0171508789062
 30
0.0
 10
182.2354278564453
 20
288.5106201171875
 30
0.0
 10
166.3606719970703
 20
284.1083984375
 30
0.0
 10
153.8541717529297
 20
291.1843872070312
 30
0.0
 10
153.8439331054688
 20
291.190185546875
 30
0.0
 10
153.8336944580078
 20
291.1959838867188
 30
0.0
 10
153.8234710693359
 20
291.2017822265625
 30
0.0
 10
153.5285797119141
 20
291.3672485351562
 30
0.0
 10
153.2612762451172
 20
291.5624389648438
 30
0.0
 10
152.9748687744141
 20
291.7406616210938
 30
0.0
 10
152.9748687744141
 20
291.7406616210938
 30
0.0
 10
134.3099975585938
 20
259.387939453125
 30
0.0
 10
134.3099975585938
 20
259.387939453125
 30
0.0
 10
134.6961212158203
 20
259.1927490234375
 30
0.0
 10
135.0885925292969
 20
259.0230102539062
 30
0.0
 10
135.4683380126953
 20
258.806640625
 30
0.0
 10
147.9729614257812
 20
251.727294921875
 30
0.0
 10
152.3710327148438
 20
235.8513793945312
 30
0.0
 10
145.2916870117188
 20
223.3467407226562
 30
0.0
 10
138.2123565673828
 20
210.8421630859375
 30
0.0
 10
122.33642578125
 20
206.444091796875
 30
0.0
 10
109.8318099975586
 20
213.5233764648438
 30
0.0
 10
109.825569152832
 20
213.5269165039062
 30
0.0
 10
109.8193435668945
 20
213.5304565429688
 30
0.0
 10
109.8131103515625
 20
213.5339965820312
 30
0.0
 10
109.3145523071289
 20
213.816162109375
 30
0.0
 10
108.8521118164062
 20
214.1343994140625
 30
0.0
 10
108.3789825439453
 20
214.444091796875
 30
0.0
 10
108.3789825439453
 20
214.444091796875
 30
0.0
 10
89.6780014038086
 20
182.0319213867188
 30
0.0
 10
89.6780014038086
 20
182.0319213867188
 30
0.0
 10
90.27626037597656
 20
181.7518920898438
 30
0.0
 10
90.87451934814453
 20
181.4697265625
 30
0.0
 10
91.45793151855469
 20
181.1387939453125
 30
0.0
 10
103.9596405029297
 20
174.0543212890625
 30
0.0
 10
108.3511734008789
 20
158.1765747070312
 30
0.0
 10
101.2666854858398
 20
145.6748657226562
 30
0.0
 10
94.18218994140625
 20
133.173095703125
 30
0.0
 10
78.30443572998047
 20
128.7816162109375
 30
0.0
 10
65.80272674560547
 20
135.8660888671875
 30
0.0
 10
65.10051727294922
 20
136.2649536132812
 30
0.0
 10
64.43224334716797
 20
136.6976928710938
 30
0.0
 10
63.78306579589844
 20
137.1495971679688
 30
0.0
 10
63.78306579589844
 20
137.1495971679688
 30
0.0
 10
36.0
 20
88.9959716796875
 30
0.0
 10
36.0
 20
88.9959716796875
 30
0.0
 10
36.0
 20
88.9959716796875
 30
0.0
 10
92.01165771484375
 20
89.01080322265625
 30
0.0
 10
92.01165771484375
 20
89.01080322265625
 30
0.0
 10
92.01805114746094
 20
103.3795776367188
 30
0.0
 10
103.6714172363281
 20
115.0225830078125
 30
0.0
 10
118.0401763916016
 20
115.0161743164062
 30
0.0
 10
132.3932342529297
 20
115.009765625
 30
0.0
 10
144.0297393798828
 20
103.380859375
 30
0.0
 10
144.0455169677734
 20
89.02783203125
 30
0.0
 10
144.0455169677734
 20
89.02783203125
 30
0.0
 10
181.2819519042969
 20
89.0384521484375
 30
0.0
 10
181.2819519042969
 20
89.0384521484375
 30
0.0
 10
181.3026275634766
 20
103.4066162109375
 30
0.0
 10
192.9671020507812
 20
115.03759765625
 30
0.0
 10
207.3352813720703
 20
115.0169067382812
 30
0.0
 10
221.6684265136719
 20
114.9962768554688
 30
0.0
 10
233.2848815917969
 20
103.3864135742188
 30
0.0
 10
233.3136901855469
 20
89.05328369140625
 30
0.0
 10
233.3136901855469
 20
89.05328369140625
 30
0.0
 10
270.5543823242188
 20
89.06390380859375
 30
0.0
 10
270.5543823242188
 20
89.06390380859375
 30
0.0
 10
270.5885009765625
 20
103.4315185546875
 30
0.0
 10
282.263427734375
 20
115.0510864257812
 30
0.0
 10
296.6310119628906
 20
115.0169067382812
 30
0.0
 10
310.944580078125
 20
114.98291015625
 30
0.0
 10
322.5418395996094
 20
103.3922729492188
 30
0.0
 10
322.5840148925781
 20
89.0787353515625
 30
0.0
 10
322.5840148925781
 20
89.0787353515625
 30
0.0
 10
359.82470703125
 20
89.09149169921875
 30
0.0
 10
359.82470703125
 20
89.09149169921875
 30
0.0
 10
359.8741455078125
 20
103.45849609375
 30
0.0
 10
371.5610046386719
 20
115.065185546875
 30
0.0
 10
385.9280090332031
 20
115.0157470703125
 30
0.0
 10
400.2193603515625
 20
114.966552734375
 30
0.0
 10
411.7948608398438
 20
103.3976440429688
 30
0.0
 10
411.8522033691406
 20
89.1063232421875
 30
0.0
 10
411.8522033691406
 20
89.1063232421875
 30
0.0
 10
432.0
 20
89.11260986328125
 30
0.0
 10
432.0
 20
89.11260986328125
 30
0.0
 10
432.0
 20
89.11260986328125
 30
0.0
 10
449.0971069335938
 20
89.1168212890625
 30
0.0
 10
449.0971069335938
 20
89.1168212890625
 30
0.0
 10
449.1598510742188
 20
103.482666015625
 30
0.0
 10
460.8565063476562
 20
115.07763671875
 30
0.0
 10
475.2223510742188
 20
115.014892578125
 30
0.0
 10
489.4937744140625
 20
114.9525756835938
 30
0.0
 10
501.0498962402344
 20
103.4030151367188
 30
0.0
 10
501.120361328125
 20
89.13165283203125
 30
0.0
 10
501.120361328125
 20
89.13165283203125
 30
0.0
 10
538.3673706054688
 20
89.14227294921875
 30
0.0
 10
538.3673706054688
 20
89.14227294921875
 30
0.0
 10
538.4461059570312
 20
103.5075073242188
 30
0.0
 10
550.1552734375
 20
115.0890502929688
 30
0.0
 10
564.5205688476562
 20
115.0103149414062
 30
0.0
 10
578.7679443359375
 20
114.9321899414062
 30
0.0
 10
590.3010864257812
 20
103.4066772460938
 30
0.0
 10
590.3884887695312
 20
89.1593017578125
 30
0.0
 10
590.3884887695312
 20
89.1593017578125
 30
0.0
 10
627.6397705078125
 20
89.169921875
 30
0.0
 10
627.6397705078125
 20
89.169921875
 30
0.0
 10
627.7322998046875
 20
103.5346069335938
 30
0.0
 10
639.4522094726562
 20
115.1044311523438
 30
0.0
 10
653.81689453125
 20
115.0119018554688
 30
0.0
 10
668.0450439453125
 20
114.9202270507812
 30
0.0
 10
679.5589599609375
 20
103.4129028320312
 30
0.0
 10
679.6587524414062
 20
89.18475341796875
 30
0.0
 10
679.6587524414062
 20
89.18475341796875
 30
0.0
 10
716.9100341796875
 20
89.19537353515625
 30
0.0
 10
716.9100341796875
 20
89.19537353515625
 30
0.0
 10
717.0146484375
 20
103.5594482421875
 30
0.0
 10
728.743896484375
 20
115.1190795898438
 30
0.0
 10
743.1079711914062
 20
115.0144653320312
 30
0.0
 10
757.318603515625
 20
114.9109497070312
 30
0.0
 10
768.8153076171875
 20
103.4207153320312
 30
0.0
 10
768.9269409179688
 20
89.210205078125
 30
0.0
 10
768.9269409179688
 20
89.210205078125
 30
0.0
 10
828.0
 20
89.22930908203125
 30
0.0
 10
828.0
 20
89.22930908203125
 30
0.0
 10
828.0
 20
89.22930908203125
 30
0.0
 10
801.1058349609375
 20
135.78125
 30
0.0
 10
801.1058349609375
 20
135.78125
 30
0.0
  0
POLYLINE
  5
42
330
1F
100
AcDbEntity
  8
Layer 1
370
     0
100
AcDb2dPolyline
 66
     1
 10
0.0
 20
0.0
 30
0.0
  0
VERTEX
  5
43
330
42
100
AcDbEntity
  8
Layer 1
370
     0
100
AcDbVertex
100
AcDb2dVertex
 10
432.0
 20
149.7173461914062
 30
0.0
  0
VERTEX
  5
44
330
42
100
AcDbEntity
  8
Layer 1
370
     0
100
AcDbVertex
100
AcDb2dVertex
 10
147.7432861328125
 20
149.6345825195312
 30
0.0
  0
VERTEX
  5
45
330
42
100
AcDbEntity
  8
Layer 1
370
     0
100
AcDbVertex
100
AcDb2dVertex
 10
289.7994995117188
 20
395.850830078125
 30
0.0
  0
VERTEX
  5
46
330
42
100
AcDbEntity
  8
Layer 1
370
     0
100
AcDbVertex
100
AcDb2dVertex
 10
431.8557434082031
 20
642.0649261474609
 30
0.0
  0
VERTEX
  5
47
330
42
100
AcDbEntity
  8
Layer 1
370
     0
100
AcDbVertex
100
AcDb2dVertex
 10
574.0562133789062
 20
395.9335632324219
 30
0.0
  0
VERTEX
  5
48
330
42
100
AcDbEntity
  8
Layer 1
370
     0
100
AcDbVertex
100
AcDb2dVertex
 10
716.2567138671875
 20
149.8021850585938
 30
0.0
  0
VERTEX
  5
49
330
42
100
AcDbEntity
  8
Layer 1
370
     0
100
AcDbVertex
100
AcDb2dVertex
 10
432.0
 20
149.7173461914062
 30
0.0
  0
SEQEND
  5
4A
330
42
100
AcDbEntity
  8
Layer 1
370
     0
  0
HATCH
  5
4B
330
1F
100
AcDbEntity
  8
Layer 1
 62
     7
420
 16777215
100
AcDbHatch
 10
0.0
 20
0.0
 30
0.0
210
0.0
220
0.0
230
1.0
  2
SOLID
 70
     1
 71
     0
 91
        2
 92
        1
 93
        1
 72
     4
 94
        3
 73
     0
 74
     1
 95
      266
 96
      262
 40
0.0
 40
0.0
 40
0.0
 40
0.0
 40
1.0
 40
1.0
 40
1.0
 40
2.0
 40
2.0
 40
2.0
 40
3.0
 40
3.0
 40
3.0
 40
4.0
 40
4.0
 40
4.0
 40
5.0
 40
5.0
 40
5.0
 40
6.0
 40
6.0
 40
6.0
 40
7.0
 40
7.0
 40
7.0
 40
8.0
 40
8.0
 40
8.0
 40
9.0
 40
9.0
 40
9.0
 40
10.0
 40
10.0
 40
10.0
 40
11.0
 40
11.0
 40
11.0
 40
12.0
 40
12.0
 40
12.0
 40
13.0
 40
13.0
 40
13.0
 40
14.0
 40
14.0
 40
14.0
 40
15.0
 40
15.0
 40
15.0
 40
16.0
 40
16.0
 40
16.0
 40
17.0
 40
17.0
 40
17.0
 40
18.0
 40
18.0
 40
18.0
 40
19.0
 40
19.0
 40
19.0
 40
20.0
 40
20.0
 40
20.0
 40
21.0
 40
21.0
 40
21.0
 40
22.0
 40
22.0
 40
22.0
 40
23.0
 40
23.0
 40
23.0
 40
24.0
 40
24.0
 40
24.0
 40
25.0
 40
25.0
 40
25.0
 40
26.0
 40
26.0
 40
26.0
 40
27.0
 40
27.0
 40
27.0
 40
28.0
 40
28.0
 40
28.0
 40
29.0
 40
29.0
 40
29.0
 40
30.0
 40
30.0
 40
30.0
 40
31.0
 40
31.0
 40
31.0
 40
32.0
 40
32.0
 40
32.0
 40
33.0
 40
33.0
 40
33.0
 40
34.0
 40
34.0
 40
34.0
 40
35.0
 40
35.0
 40
35.0
 40
36.0
 40
36.0
 40
36.0
 40
37.0
 40
37.0
 40
37.0
 40
38.0
 40
38.0
 40
38.0
 40
39.0
 40
39.0
 40
39.0
 40
40.0
 40
40.0
 40
40.0
 40
41.0
 40
41.0
 40
41.0
 40
42.0
 40
42.0
 40
42.0
 40
43.0
 40
43.0
 40
43.0
 40
44.0
 40
44.0
 40
44.0
 40
45.0
 40
45.0
 40
45.0
 40
46.0
 40
46.0
 40
46.0
 40
47.0
 40
47.0
 40
47.0
 40
48.0
 40
48.0
 40
48.0
 40
49.0
 40
49.0
 40
49.0
 40
50.0
 40
50.0
 40
50.0
 40
51.0
 40
51.0
 40
51.0
 40
52.0
 40
52.0
 40
52.0
 40
53.0
 40
53.0
 40
53.0
 40
54.0
 40
54.0
 40
54.0
 40
55.0
 40
55.0
 40
55.0
 40
56.0
 40
56.0
 40
56.0
 40
57.0
 40
57.0
 40
57.0
 40
58.0
 40
58.0
 40
58.0
 40
59.0
 40
59.0
 40
59.0
 40
60.0
 40
60.0
 40
60.0
 40
61.0
 40
61.0
 40
61.0
 40
62.0
 40
62.0
 40
62.0
 40
63.0
 40
63.0
 40
63.0
 40
64.0
 40
64.0
 40
64.0
 40
65.0
 40
65.0
 40
65.0
 40
66.0
 40
66.0
 40
66.0
 40
67.0
 40
67.0
 40
67.0
 40
68.0
 40
68.0
 40
68.0
 40
69.0
 40
69.0
 40
69.0
 40
70.0
 40
70.0
 40
70.0
 40
71.0
 40
71.0
 40
71.0
 40
72.0
 40
72.0
 40
72.0
 40
73.0
 40
73.0
 40
73.0
 40
74.0
 40
74.0
 40
74.0
 40
75.0
 40
75.0
 40
75.0
 40
76.0
 40
76.0
 40
76.0
 40
77.0
 40
77.0
 40
77.0
 40
78.0
 40
78.0
 40
78.0
 40
79.0
 40
79.0
 40
79.0
 40
80.0
 40
80.0
 40
80.0
 40
81.0
 40
81.0
 40
81.0
 40
82.0
 40
82.0
 40
82.0
 40
83.0
 40
83.0
 40
83.0
 40
84.0
 40
84.0
 40
84.0
 40
85.0
 40
85.0
 40
85.0
 40
86.0
 40
86.0
 40
86.0
 40
87.0
 40
87.0
 40
87.0
 40
87.0
 10
801.1058349609375
 20
135.78125
 10
788.5653076171875
 20
128.78515625
 10
772.727783203125
 20
133.27978515625
 10
765.731689453125
 20
145.8203125
 10
758.8837890625
 20
158.0951538085938
 10
763.0307006835938
 20
173.5899658203125
 10
775.09423828125
 20
180.8035888671875
 10
775.09423828125
 20
180.8035888671875
 10
756.42724609375
 20
213.1139526367188
 10
756.42724609375
 20
213.1139526367188
 10
743.703369140625
 20
206.4772338867188
 10
728.0084838867188
 20
211.4118041992188
 10
721.3717651367188
 20
224.1356811523438
 10
715.13623046875
 20
236.0903930664062
 10
719.0806274414062
 20
250.8284301757812
 10
730.4537963867188
 20
258.0704956054688
 10
730.4537963867188
 20
258.0704956054688
 10
711.7485961914062
 20
290.4445190429688
 10
711.7485961914062
 20
290.4445190429688
 10
698.8345336914062
 20
284.1780395507812
 10
683.2855834960938
 20
289.5669555664062
 10
677.0191040039062
 20
302.4810180664062
 10
671.3824462890625
 20
314.09716796875
 10
675.127685546875
 20
328.0900268554688
 10
685.8133544921875
 20
335.33740234375
 10
685.8133544921875
 20
335.33740234375
 10
667.072021484375
 20
367.777099609375
 10
667.072021484375
 20
367.777099609375
 10
653.9692993164062
 20
361.8888549804688
 10
638.5740356445312
 20
367.7373352050781
 10
632.685791015625
 20
380.8400573730469
 10
627.6266479492188
 20
392.0977783203125
 10
631.1758422851562
 20
405.36083984375
 10
641.1813354492188
 20
412.5872802734375
 10
641.1813354492188
 20
412.5872802734375
 10
629.8992309570312
 20
432.1156311035156
 10
629.8992309570312
 20
432.1156311035156
 10
629.8992309570312
 20
432.1156311035156
 10
622.3657836914062
 20
445.1543273925781
 10
622.3657836914062
 20
445.1543273925781
 10
609.1101684570312
 20
439.6436767578125
 10
593.8970947265625
 20
445.9222412109375
 10
588.386474609375
 20
459.1778564453125
 10
583.863037109375
 20
470.0588073730469
 10
587.2252807617188
 20
482.6215209960938
 10
596.5790405273438
 20
489.7884216308594
 10
596.5790405273438
 20
489.7884216308594
 10
577.6510620117188
 20
522.5527648925781
 10
577.6510620117188
 20
522.5527648925781
 10
564.24560546875
 20
517.4266967773438
 10
549.2228393554688
 20
524.1384582519531
 10
544.0968017578125
 20
537.5439147949219
 10
540.0867309570312
 20
548.0307922363281
 10
543.2649536132812
 20
559.9071655273438
 10
551.9767456054688
 20
566.9895629882812
 10
551.9767456054688
 20
566.9895629882812
 10
532.9342041015625
 20
599.9512023925781
 10
532.9342041015625
 20
599.9512023925781
 10
519.3718872070312
 20
595.2225952148438
 10
504.544189453125
 20
602.3837585449219
 10
499.8155822753906
 20
615.9460601806641
 10
496.3031921386719
 20
626.0201416015625
 10
499.2998657226562
 20
637.2175445556641
 10
507.3744506835938
 20
644.1907043457031
 10
507.3744506835938
 20
644.1907043457031
 10
488.2090148925781
 20
677.3665771484375
 10
488.2090148925781
 20
677.3665771484375
 10
474.5150756835938
 20
673.0363922119141
 10
459.9036254882812
 20
680.6272277832031
 10
455.5734558105469
 20
694.3211669921875
 10
452.5233764648438
 20
703.9668426513672
 10
455.3439331054688
 20
714.5059509277344
 10
462.8041381835938
 20
721.3387756347656
 10
462.8041381835938
 20
721.3387756347656
 10
431.7984619140625
 20
775.0039978027344
 10
431.7984619140625
 20
775.0039978027344
 10
431.7984619140625
 20
775.0039978027344
 10
401.9405822753906
 20
723.2544250488281
 10
401.9405822753906
 20
723.2544250488281
 10
413.58544921875
 20
714.8433074951172
 10
416.2069396972656
 20
698.5847015380859
 10
407.7958068847656
 20
686.9398345947266
 10
400.5765686035156
 20
676.9450378417969
 10
387.3320007324219
 20
673.3919982910156
 10
376.07958984375
 20
678.4315185546875
 10
376.07958984375
 20
678.4315185546875
 10
357.3552856445312
 20
645.9769134521484
 10
357.3552856445312
 20
645.9769134521484
 10
369.2182006835938
 20
637.8937683105469
 10
372.2822875976562
 20
621.7243041992188
 10
364.1991577148438
 20
609.8614044189453
 10
356.9587097167969
 20
599.2352600097656
 10
343.03662109375
 20
595.5002746582031
 10
331.4497375488281
 20
601.0755004882812
 10
331.4497375488281
 20
601.0755004882812
 10
312.7593994140625
 20
568.6824340820312
 10
312.7593994140625
 20
568.6824340820312
 10
324.8323669433594
 20
560.9240417480469
 10
328.3300170898438
 20
544.8475036621094
 10
320.5716247558594
 20
532.7745361328125
 10
313.3334045410156
 20
521.5110168457031
 10
298.7216491699219
 20
517.5911865234375
 10
286.8177795410156
 20
523.7195129394531
 10
286.8177795410156
 20
523.7195129394531
 10
268.1634826660156
 20
491.3858337402344
 10
268.1634826660156
 20
491.3858337402344
 10
280.4411315917969
 20
483.9438171386719
 10
284.3612060546875
 20
467.9578552246094
 10
276.919189453125
 20
455.6802062988281
 10
269.7033996582031
 20
443.7757873535156
 10
254.390625
 20
439.6683959960938
 10
242.1858062744141
 20
446.363525390625
 10
242.1858062744141
 20
446.363525390625
 10
233.8992614746094
 20
432.0010070800781
 10
233.8992614746094
 20
432.0010070800781
 10
233.8992614746094
 20
432.0010070800781
 10
223.5675964355469
 20
414.0913696289062
 10
223.5675964355469
 20
414.0913696289062
 10
236.0431518554688
 20
406.9629516601562
 10
240.3778686523438
 20
391.0707702636719
 10
233.2494354248047
 20
378.59521484375
 10
226.1389770507812
 20
366.1510925292969
 10
210.3032836914062
 20
361.8014526367188
 10
197.8338928222656
 20
368.8674926757812
 10
197.7426605224609
 20
368.9205017089844
 10
197.6620483398438
 20
368.9820556640625
 10
197.5708160400391
 20
369.0350952148438
 10
197.5708160400391
 20
369.0350952148438
 10
178.9398193359375
 20
336.7438354492188
 10
178.9398193359375
 20
336.7438354492188
 10
179.1180267333984
 20
336.6483764648438
 10
179.3025970458984
 20
336.5740966796875
 10
179.4786834716797
 20
336.4744262695312
 10
191.9851837158203
 20
329.3984375
 10
196.3874664306641
 20
313.5236206054688
 10
189.3114471435547
 20
301.0171508789062
 10
182.2354278564453
 20
288.5106201171875
 10
166.3606719970703
 20
284.1083984375
 10
153.8541717529297
 20
291.1843872070312
 10
153.8439331054688
 20
291.190185546875
 10
153.8336944580078
 20
291.1959838867188
 10
153.8234710693359
 20
291.2017822265625
 10
153.5285797119141
 20
291.3672485351562
 10
153.2612762451172
 20
291.5624389648438
 10
152.9748687744141
 20
291.7406616210938
 10
152.9748687744141
 20
291.7406616210938
 10
134.3099975585938
 20
259.387939453125
 10
134.3099975585938
 20
259.387939453125
 10
134.6961212158203
 20
259.1927490234375
 10
135.0885925292969
 20
259.0230102539062
 10
135.4683380126953
 20
258.806640625
 10
147.9729614257812
 20
251.727294921875
 10
152.3710327148438
 20
235.8513793945312
 10
145.2916870117188
 20
223.3467407226562
 10
138.2123565673828
 20
210.8421630859375
 10
122.33642578125
 20
206.444091796875
 10
109.8318099975586
 20
213.5233764648438
 10
109.825569152832
 20
213.5269165039062
 10
109.8193435668945
 20
213.5304565429688
 10
109.8131103515625
 20
213.5339965820312
 10
109.3145523071289
 20
213.816162109375
 10
108.8521118164062
 20
214.1343994140625
 10
108.3789825439453
 20
214.444091796875
 10
108.3789825439453
 20
214.444091796875
 10
89.6780014038086
 20
182.0319213867188
 10
89.6780014038086
 20
182.0319213867188
 10
90.27626037597656
 20
181.7518920898438
 10
90.87451934814453
 20
181.4697265625
 10
91.45793151855469
 20
181.1387939453125
 10
103.9596405029297
 20
174.0543212890625
 10
108.3511734008789
 20
158.1765747070312
 10
101.2666854858398
 20
145.6748657226562
 10
94.18218994140625
 20
133.173095703125
 10
78.30443572998047
 20
128.7816162109375
 10
65.80272674560547
 20
135.8660888671875
 10
65.10051727294922
 20
136.2649536132812
 10
64.43224334716797
 20
136.6976928710938
 10
63.78306579589844
 20
137.1495971679688
 10
63.78306579589844
 20
137.1495971679688
 10
36.0
 20
88.9959716796875
 10
36.0
 20
88.9959716796875
 10
36.0
 20
88.9959716796875
 10
92.01165771484375
 20
89.01080322265625
 10
92.01165771484375
 20
89.01080322265625
 10
92.01805114746094
 20
103.3795776367188
 10
103.6714172363281
 20
115.0225830078125
 10
118.0401763916016
 20
115.0161743164062
 10
132.3932342529297
 20
115.009765625
 10
144.0297393798828
 20
103.380859375
 10
144.0455169677734
 20
89.02783203125
 10
144.0455169677734
 20
89.02783203125
 10
181.2819519042969
 20
89.0384521484375
 10
181.2819519042969
 20
89.0384521484375
 10
181.3026275634766
 20
103.4066162109375
 10
192.9671020507812
 20
115.03759765625
 10
207.3352813720703
 20
115.0169067382812
 10
221.6684265136719
 20
114.9962768554688
 10
233.2848815917969
 20
103.3864135742188
 10
233.3136901855469
 20
89.05328369140625
 10
233.3136901855469
 20
89.05328369140625
 10
270.5543823242188
 20
89.06390380859375
 10
270.5543823242188
 20
89.06390380859375
 10
270.5885009765625
 20
103.4315185546875
 10
282.263427734375
 20
115.0510864257812
 10
296.6310119628906
 20
115.0169067382812
 10
310.944580078125
 20
114.98291015625
 10
322.5418395996094
 20
103.3922729492188
 10
322.5840148925781
 20
89.0787353515625
 10
322.5840148925781
 20
89.0787353515625
 10
359.82470703125
 20
89.09149169921875
 10
359.82470703125
 20
89.09149169921875
 10
359.8741455078125
 20
103.45849609375
 10
371.5610046386719
 20
115.065185546875
 10
385.9280090332031
 20
115.0157470703125
 10
400.2193603515625
 20
114.966552734375
 10
411.7948608398438
 20
103.3976440429688
 10
411.8522033691406
 20
89.1063232421875
 10
411.8522033691406
 20
89.1063232421875
 10
432.0
 20
89.11260986328125
 10
432.0
 20
89.11260986328125
 10
432.0
 20
89.11260986328125
 10
449.0971069335938
 20
89.1168212890625
 10
449.0971069335938
 20
89.1168212890625
 10
449.1598510742188
 20
103.482666015625
 10
460.8565063476562
 20
115.07763671875
 10
475.2223510742188
 20
115.014892578125
 10
489.4937744140625
 20
114.9525756835938
 10
501.0498962402344
 20
103.4030151367188
 10
501.120361328125
 20
89.13165283203125
 10
501.120361328125
 20
89.13165283203125
 10
538.3673706054688
 20
89.14227294921875
 10
538.3673706054688
 20
89.14227294921875
 10
538.4461059570312
 20
103.5075073242188
 10
550.1552734375
 20
115.0890502929688
 10
564.5205688476562
 20
115.0103149414062
 10
578.7679443359375
 20
114.9321899414062
 10
590.3010864257812
 20
103.4066772460938
 10
590.3884887695312
 20
89.1593017578125
 10
590.3884887695312
 20
89.1593017578125
 10
627.6397705078125
 20
89.169921875
 10
627.6397705078125
 20
89.169921875
 10
627.7322998046875
 20
103.5346069335938
 10
639.4522094726562
 20
115.1044311523438
 10
653.81689453125
 20
115.0119018554688
 10
668.0450439453125
 20
114.9202270507812
 10
679.5589599609375
 20
103.4129028320312
 10
679.6587524414062
 20
89.18475341796875
 10
679.6587524414062
 20
89.18475341796875
 10
716.9100341796875
 20
89.19537353515625
 10
716.9100341796875
 20
89.19537353515625
 10
717.0146484375
 20
103.5594482421875
 10
728.743896484375
 20
115.1190795898438
 10
743.1079711914062
 20
115.0144653320312
 10
757.318603515625
 20
114.9109497070312
 10
768.8153076171875
 20
103.4207153320312
 10
768.9269409179688
 20
89.210205078125
 10
768.9269409179688
 20
89.210205078125
 10
828.0
 20
89.22930908203125
 10
828.0
 20
89.22930908203125
 10
828.0
 20
89.22930908203125
 10
801.1058349609375
 20
135.78125
 10
801.1058349609375
 20
135.78125
 97
        0
 97
        0
 92
        1
 93
        6
 72
     1
 10
432.0
 20
149.7173461914062
 11
147.7432861328125
 21
149.6345825195312
 72
     1
 10
147.7432861328125
 20
149.6345825195312
 11
289.7994995117188
 21
395.850830078125
 72
     1
 10
289.7994995117188
 20
395.850830078125
 11
431.8557434082031
 21
642.0649261474609
 72
     1
 10
431.8557434082031
 20
642.0649261474609
 11
574.0562133789062
 21
395.9335632324219
 72
     1
 10
574.0562133789062
 20
395.9335632324219
 11
716.2567138671875
 21
149.8021850585938
 72
     1
 10
716.2567138671875
 20
149.8021850585938
 11
432.0
 21
149.7173461914062
 97
        0
 75
     2
 76
     1
 98
        0
  0
ENDSEC
  0
SECTION
  2
OBJECTS
  0
DICTIONARY
  5
C
330
0
100
AcDbDictionary
281
     1
  3
ACAD_GROUP
350
D
  3
ACAD_LAYOUT
350
1A
  3
ACAD_MATERIAL
350
3B
  3
ACAD_MLEADERSTYLE
350
4D
  3
ACAD_MLINESTYLE
350
17
  3
ACAD_PLOTSETTINGS
350
19
  3
ACAD_PLOTSTYLENAME
350
E
  3
ACAD_TABLESTYLE
350
4C
  3
ACAD_VISUALSTYLE
350
2A
  0
SUN
  5
3F
330
29
100
AcDbSun
 90
        1
290
     0
 63
     7
421
 16777215
 40
1.0
291
     1
 91
  2455826
 92
 54000000
292
     0
 70
     2
 71
   256
280
     1
  0
DICTIONARY
  5
D
102
{ACAD_REACTORS
330
C
102
}
330
C
100
AcDbDictionary
281
     1
  0
DICTIONARY
  5
1A
102
{ACAD_REACTORS
330
C
102
}
330
C
100
AcDbDictionary
281
     1
  3
Layout1
350
1E
  3
Layout2
350
26
  3
Model
350
22
  0
DICTIONARY
  5
3B
102
{ACAD_REACTORS
330
C
102
}
330
C
100
AcDbDictionary
281
     1
  3
ByBlock
350
3D
  3
ByLayer
350
3C
  3
Global
350
3E
  0
DICTIONARY
  5
4D
102
{ACAD_REACTORS
330
C
102
}
330
C
100
AcDbDictionary
281
     1
  0
DICTIONARY
  5
17
102
{ACAD_REACTORS
330
C
102
}
330
C
100
AcDbDictionary
281
     1
  3
Standard
350
18
  0
DICTIONARY
  5
19
102
{ACAD_REACTORS
330
C
102
}
330
C
100
AcDbDictionary
281
     1
  0
ACDBDICTIONARYWDFLT
  5
E
102
{ACAD_REACTORS
330
C
102
}
330
C
100
AcDbDictionary
281
     1
  3
Normal
350
F
100
AcDbDictionaryWithDefault
340
F
  0
DICTIONARY
  5
4C
102
{ACAD_REACTORS
330
C
102
}
330
C
100
AcDbDictionary
281
     1
  0
DICTIONARY
  5
2A
102
{ACAD_REACTORS
330
C
102
}
330
C
100
AcDbDictionary
281
     1
  3
2dWireframe
350
2F
  3
3D Hidden
350
31
  3
3dWireframe
350
30
  3
Basic
350
32
  3
Brighten
350
36
  3
ColorChange
350
3A
  3
Conceptual
350
34
  3
Dim
350
35
  3
Facepattern
350
39
  3
Flat
350
2B
  3
FlatWithEdges
350
2C
  3
Gouraud
350
2D
  3
GouraudWithEdges
350
2E
  3
Linepattern
350
38
  3
Realistic
350
33
  3
Thicken
350
37
  0
LAYOUT
  5
1E
102
{ACAD_REACTORS
330
1A
102
}
330
1A
100
AcDbPlotSettings
  1

  2
none_device
  4

  6

 40
0.0
 41
0.0
 42
0.0
 43
0.0
 44
0.0
 45
0.0
 46
0.0
 47
0.0
 48
0.0
 49
0.0
140
0.0
141
0.0
142
1.0
143
1.0
 70
   688
 72
     0
 73
     0
 74
     5
  7

 75
    16
 76
     0
 77
     2
 78
   300
147
1.0
148
0.0
149
0.0
100
AcDbLayout
  1
Layout1
 70
     1
 71
     1
 10
0.0
 20
0.0
 11
12.0
 21
9.0
 12
0.0
 22
0.0
 32
0.0
 14
1.000000000000000E+20
 24
1.000000000000000E+20
 34
1.000000000000000E+20
 15
-1.000000000000000E+20
 25
-1.000000000000000E+20
 35
-1.000000000000000E+20
146
0.0
 13
0.0
 23
0.0
 33
0.0
 16
1.0
 26
0.0
 36
0.0
 17
0.0
 27
1.0
 37
0.0
 76
     0
330
1B
  0
LAYOUT
  5
26
102
{ACAD_REACTORS
330
1A
102
}
330
1A
100
AcDbPlotSettings
  1

  2
none_device
  4

  6

 40
0.0
 41
0.0
 42
0.0
 43
0.0
 44
0.0
 45
0.0
 46
0.0
 47
0.0
 48
0.0
 49
0.0
140
0.0
141
0.0
142
1.0
143
1.0
 70
   688
 72
     0
 73
     0
 74
     5
  7

 75
    16
 76
     0
 77
     2
 78
   300
147
1.0
148
0.0
149
0.0
100
AcDbLayout
  1
Layout2
 70
     1
 71
     2
 10
0.0
 20
0.0
 11
0.0
 21
0.0
 12
0.0
 22
0.0
 32
0.0
 14
0.0
 24
0.0
 34
0.0
 15
0.0
 25
0.0
 35
0.0
146
0.0
 13
0.0
 23
0.0
 33
0.0
 16
1.0
 26
0.0
 36
0.0
 17
0.0
 27
1.0
 37
0.0
 76
     0
330
23
  0
LAYOUT
  5
22
102
{ACAD_REACTORS
330
1A
102
}
330
1A
100
AcDbPlotSettings
  1

  2
none_device
  4

  6

 40
0.0
 41
0.0
 42
0.0
 43
0.0
 44
0.0
 45
0.0
 46
0.0
 47
0.0
 48
0.0
 49
0.0
140
0.0
141
0.0
142
1.0
143
1.0
 70
  1712
 72
     0
 73
     0
 74
     0
  7

 75
     0
 76
     0
 77
     2
 78
   300
147
1.0
148
0.0
149
0.0
100
AcDbLayout
  1
Model
 70
     1
 71
     0
 10
0.0
 20
0.0
 11
12.0
 21
9.0
 12
0.0
 22
0.0
 32
0.0
 14
1.000000000000000E+20
 24
1.000000000000000E+20
 34
1.000000000000000E+20
 15
-1.000000000000000E+20
 25
-1.000000000000000E+20
 35
-1.000000000000000E+20
146
0.0
 13
0.0
 23
0.0
 33
0.0
 16
1.0
 26
0.0
 36
0.0
 17
0.0
 27
1.0
 37
0.0
 76
     0
330
1F
331
29
  0
MATERIAL
  5
3D
102
{ACAD_REACTORS
330
3B
102
}
330
3B
100
AcDbMaterial
  1
ByBlock
 72
     1
 94
      127
  0
MATERIAL
  5
3C
102
{ACAD_REACTORS
330
3B
102
}
330
3B
100
AcDbMaterial
  1
ByLayer
 72
     1
 94
      127
  0
MATERIAL
  5
3E
102
{ACAD_REACTORS
330
3B
102
}
330
3B
100
AcDbMaterial
  1
Global
 72
     1
 94
      127
  0
MLINESTYLE
  5
18
102
{ACAD_REACTORS
330
17
102
}
330
17
100
AcDbMlineStyle
  2
Standard
 70
     0
  3

 62
   256
 51
90.0
 52
90.0
 71
     2
 49
0.5
 62
   256
  6
BYLAYER
 49
-0.5
 62
   256
  6
BYLAYER
  0
ACDBPLACEHOLDER
  5
F
102
{ACAD_REACTORS
330
E
102
}
330
E
  0
VISUALSTYLE
  5
2F
102
{ACAD_REACTORS
330
2A
102
}
330
2A
100
AcDbVisualStyle
  2
2dWireframe
 70
     4
177
     2
291
     0
 71
     0
176
     1
 72
     2
176
     1
 73
     0
176
     1
 90
        0
176
     1
 40
-0.6
176
     1
 41
-30.0
176
     1
 62
     5
 63
     7
421
 16777215
176
     1
 74
     1
176
     1
 91
        4
176
     1
 64
     7
176
     1
 65
   257
176
     1
 75
     1
176
     1
175
     1
176
     1
 42
1.0
176
     1
 92
        0
176
     1
 66
   257
176
     1
 43
1.0
176
     1
 76
     1
176
     1
 77
     6
176
     1
 78
     2
176
     1
 67
     7
176
     1
 79
     5
176
     1
170
     0
176
     1
171
     0
176
     1
290
     0
176
     1
 93
        1
176
     1
 44
0.0
176
     1
173
     0
176
     1
  0
VISUALSTYLE
  5
31
102
{ACAD_REACTORS
330
2A
102
}
330
2A
100
AcDbVisualStyle
  2
3D Hidden
 70
     6
177
     2
291
     0
 71
     1
176
     1
 72
     2
176
     1
 73
     2
176
     1
 90
        0
176
     1
 40
-0.6
176
     1
 41
-30.0
176
     1
 62
     5
 63
     7
421
 16777215
176
     1
 74
     2
176
     1
 91
        2
176
     1
 64
     7
176
     1
 65
   257
176
     1
 75
     2
176
     1
175
     1
176
     1
 42
40.0
176
     1
 92
        0
176
     1
 66
   257
176
     1
 43
1.0
176
     1
 76
     1
176
     1
 77
     6
176
     1
 78
     2
176
     1
 67
     7
176
     1
 79
     3
176
     1
170
     0
176
     1
171
     0
176
     1
290
     0
176
     1
 93
        1
176
     1
 44
0.0
176
     1
173
     0
176
     1
  0
VISUALSTYLE
  5
30
102
{ACAD_REACTORS
330
2A
102
}
330
2A
100
AcDbVisualStyle
  2
3dWireframe
 70
     5
177
     2
291
     0
 71
     0
176
     1
 72
     2
176
     1
 73
     0
176
     1
 90
        0
176
     1
 40
-0.6
176
     1
 41
-30.0
176
     1
 62
     5
 63
     7
421
 16777215
176
     1
 74
     1
176
     1
 91
        4
176
     1
 64
     7
176
     1
 65
   257
176
     1
 75
     1
176
     1
175
     1
176
     1
 42
1.0
176
     1
 92
        0
176
     1
 66
   257
176
     1
 43
1.0
176
     1
 76
     1
176
     1
 77
     6
176
     1
 78
     2
176
     1
 67
     7
176
     1
 79
     5
176
     1
170
     0
176
     1
171
     0
176
     1
290
     0
176
     1
 93
        1
176
     1
 44
0.0
176
     1
173
     0
176
     1
  0
VISUALSTYLE
  5
32
102
{ACAD_REACTORS
330
2A
102
}
330
2A
100
AcDbVisualStyle
  2
Basic
 70
     7
177
     2
291
     1
 71
     1
176
     1
 72
     0
176
     1
 73
     1
176
     1
 90
        0
176
     1
 40
-0.6
176
     1
 41
-30.0
176
     1
 62
     5
 63
     7
421
 16777215
176
     1
 74
     0
176
     1
 91
        4
176
     1
 64
     7
176
     1
 65
   257
176
     1
 75
     1
176
     1
175
     1
176
     1
 42
1.0
176
     1
 92
        8
176
     1
 66
     7
176
     1
 43
1.0
176
     1
 76
     1
176
     1
 77
     6
176
     1
 78
     2
176
     1
 67
     7
176
     1
 79
     5
176
     1
170
     0
176
     1
171
     0
176
     1
290
     0
176
     1
 93
        1
176
     1
 44
0.0
176
     1
173
     0
176
     1
  0
VISUALSTYLE
  5
36
102
{ACAD_REACTORS
330
2A
102
}
330
2A
100
AcDbVisualStyle
  2
Brighten
 70
    12
177
     2
291
     1
 71
     2
176
     1
 72
     2
176
     1
 73
     0
176
     1
 90
        0
176
     1
 40
-0.6
176
     1
 41
-30.0
176
     1
 62
     5
 63
     7
421
 16777215
176
     1
 74
     1
176
     1
 91
        4
176
     1
 64
     7
176
     1
 65
   257
176
     1
 75
     1
176
     1
175
     1
176
     1
 42
1.0
176
     1
 92
        8
176
     1
 66
     7
176
     1
 43
1.0
176
     1
 76
     1
176
     1
 77
     6
176
     1
 78
     2
176
     1
 67
     7
176
     1
 79
     5
176
     1
170
     0
176
     1
171
     0
176
     1
290
     0
176
     1
 93
        1
176
     1
 44
50.0
176
     1
173
     0
176
     1
  0
VISUALSTYLE
  5
3A
102
{ACAD_REACTORS
330
2A
102
}
330
2A
100
AcDbVisualStyle
  2
ColorChange
 70
    16
177
     2
291
     1
 71
     2
176
     1
 72
     2
176
     1
 73
     3
176
     1
 90
        0
176
     1
 40
-0.6
176
     1
 41
-30.0
176
     1
 62
     5
 63
     8
421
  8421504
176
     1
 74
     1
176
     1
 91
        4
176
     1
 64
     7
176
     1
 65
   257
176
     1
 75
     1
176
     1
175
     1
176
     1
 42
1.0
176
     1
 92
        8
176
     1
 66
     8
424
  8421504
176
     1
 43
1.0
176
     1
 76
     1
176
     1
 77
     6
176
     1
 78
     2
176
     1
 67
     7
176
     1
 79
     5
176
     1
170
     0
176
     1
171
     0
176
     1
290
     0
176
     1
 93
        1
176
     1
 44
0.0
176
     1
173
     0
176
     1
  0
VISUALSTYLE
  5
34
102
{ACAD_REACTORS
330
2A
102
}
330
2A
100
AcDbVisualStyle
  2
Conceptual
 70
     9
177
     2
291
     0
 71
     3
176
     1
 72
     2
176
     1
 73
     0
176
     1
 90
        0
176
     1
 40
-0.6
176
     1
 41
-30.0
176
     1
 62
     5
 63
     7
421
 16777215
176
     1
 74
     2
176
     1
 91
        2
176
     1
 64
     7
176
     1
 65
   257
176
     1
 75
     1
176
     1
175
     1
176
     1
 42
40.0
176
     1
 92
        8
176
     1
 66
     7
176
     1
 43
1.0
176
     1
 76
     1
176
     1
 77
     6
176
     1
 78
     2
176
     1
 67
     7
176
     1
 79
     3
176
     1
170
     0
176
     1
171
     0
176
     1
290
     0
176
     1
 93
        1
176
     1
 44
0.0
176
     1
173
     0
176
     1
  0
VISUALSTYLE
  5
35
102
{ACAD_REACTORS
330
2A
102
}
330
2A
100
AcDbVisualStyle
  2
Dim
 70
    11
177
     2
291
     1
 71
     2
176
     1
 72
     2
176
     1
 73
     0
176
     1
 90
        0
176
     1
 40
-0.6
176
     1
 41
-30.0
176
     1
 62
     5
 63
     7
421
 16777215
176
     1
 74
     1
176
     1
 91
        4
176
     1
 64
     7
176
     1
 65
   257
176
     1
 75
     1
176
     1
175
     1
176
     1
 42
1.0
176
     1
 92
        8
176
     1
 66
     7
176
     1
 43
1.0
176
     1
 76
     1
176
     1
 77
     6
176
     1
 78
     2
176
     1
 67
     7
176
     1
 79
     5
176
     1
170
     0
176
     1
171
     0
176
     1
290
     0
176
     1
 93
        1
176
     1
 44
-50.0
176
     1
173
     0
176
     1
  0
VISUALSTYLE
  5
39
102
{ACAD_REACTORS
330
2A
102
}
330
2A
100
AcDbVisualStyle
  2
Facepattern
 70
    15
177
     2
291
     1
 71
     2
176
     1
 72
     2
176
     1
 73
     0
176
     1
 90
        0
176
     1
 40
-0.6
176
     1
 41
-30.0
176
     1
 62
     5
 63
     7
421
 16777215
176
     1
 74
     1
176
     1
 91
        4
176
     1
 64
     7
176
     1
 65
   257
176
     1
 75
     1
176
     1
175
     1
176
     1
 42
1.0
176
     1
 92
        8
176
     1
 66
     7
176
     1
 43
1.0
176
     1
 76
     1
176
     1
 77
     6
176
     1
 78
     2
176
     1
 67
     7
176
     1
 79
     5
176
     1
170
     0
176
     1
171
     0
176
     1
290
     0
176
     1
 93
        1
176
     1
 44
0.0
176
     1
173
     0
176
     1
  0
VISUALSTYLE
  5
2B
102
{ACAD_REACTORS
330
2A
102
}
330
2A
100
AcDbVisualStyle
  2
Flat
 70
     0
177
     2
291
     1
 71
     2
176
     1
 72
     1
176
     1
 73
     1
176
     1
 90
        2
176
     1
 40
-0.6
176
     1
 41
30.0
176
     1
 62
     5
 63
     7
421
 16777215
176
     1
 74
     0
176
     1
 91
        4
176
     1
 64
     7
176
     1
 65
   257
176
     1
 75
     1
176
     1
175
     1
176
     1
 42
1.0
176
     1
 92
        8
176
     1
 66
     7
176
     1
 43
1.0
176
     1
 76
     1
176
     1
 77
     6
176
     1
 78
     2
176
     1
 67
     7
176
     1
 79
     5
176
     1
170
     0
176
     1
171
     0
176
     1
290
     0
176
     1
 93
       13
176
     1
 44
0.0
176
     1
173
     0
176
     1
  0
VISUALSTYLE
  5
2C
102
{ACAD_REACTORS
330
2A
102
}
330
2A
100
AcDbVisualStyle
  2
FlatWithEdges
 70
     1
177
     2
291
     1
 71
     2
176
     1
 72
     1
176
     1
 73
     1
176
     1
 90
        2
176
     1
 40
-0.6
176
     1
 41
30.0
176
     1
 62
     5
 63
     7
421
 16777215
176
     1
 74
     1
176
     1
 91
        4
176
     1
 64
     7
176
     1
 65
   257
176
     1
 75
     1
176
     1
175
     1
176
     1
 42
1.0
176
     1
 92
        0
176
     1
 66
   257
176
     1
 43
1.0
176
     1
 76
     1
176
     1
 77
     6
176
     1
 78
     2
176
     1
 67
     7
176
     1
 79
     5
176
     1
170
     0
176
     1
171
     0
176
     1
290
     0
176
     1
 93
       13
176
     1
 44
0.0
176
     1
173
     0
176
     1
  0
VISUALSTYLE
  5
2D
102
{ACAD_REACTORS
330
2A
102
}
330
2A
100
AcDbVisualStyle
  2
Gouraud
 70
     2
177
     2
291
     1
 71
     2
176
     1
 72
     2
176
     1
 73
     1
176
     1
 90
        2
176
     1
 40
-0.6
176
     1
 41
30.0
176
     1
 62
     5
 63
     7
421
 16777215
176
     1
 74
     0
176
     1
 91
        4
176
     1
 64
     7
176
     1
 65
   257
176
     1
 75
     1
176
     1
175
     1
176
     1
 42
1.0
176
     1
 92
        0
176
     1
 66
     7
176
     1
 43
1.0
176
     1
 76
     1
176
     1
 77
     6
176
     1
 78
     2
176
     1
 67
     7
176
     1
 79
     5
176
     1
170
     0
176
     1
171
     0
176
     1
290
     0
176
     1
 93
       13
176
     1
 44
0.0
176
     1
173
     0
176
     1
  0
VISUALSTYLE
  5
2E
102
{ACAD_REACTORS
330
2A
102
}
330
2A
100
AcDbVisualStyle
  2
GouraudWithEdges
 70
     3
177
     2
291
     1
 71
     2
176
     1
 72
     2
176
     1
 73
     1
176
     1
 90
        2
176
     1
 40
-0.6
176
     1
 41
30.0
176
     1
 62
     5
 63
     7
421
 16777215
176
     1
 74
     1
176
     1
 91
        4
176
     1
 64
     7
176
     1
 65
   257
176
     1
 75
     1
176
     1
175
     1
176
     1
 42
1.0
176
     1
 92
        0
176
     1
 66
   257
176
     1
 43
1.0
176
     1
 76
     1
176
     1
 77
     6
176
     1
 78
     2
176
     1
 67
     7
176
     1
 79
     5
176
     1
170
     0
176
     1
171
     0
176
     1
290
     0
176
     1
 93
       13
176
     1
 44
0.0
176
     1
173
     0
176
     1
  0
VISUALSTYLE
  5
38
102
{ACAD_REACTORS
330
2A
102
}
330
2A
100
AcDbVisualStyle
  2
Linepattern
 70
    14
177
     2
291
     1
 71
     2
176
     1
 72
     2
176
     1
 73
     0
176
     1
 90
        0
176
     1
 40
-0.6
176
     1
 41
-30.0
176
     1
 62
     5
 63
     7
421
 16777215
176
     1
 74
     1
176
     1
 91
        4
176
     1
 64
     7
176
     1
 65
   257
176
     1
 75
     7
176
     1
175
     7
176
     1
 42
1.0
176
     1
 92
        8
176
     1
 66
     7
176
     1
 43
1.0
176
     1
 76
     1
176
     1
 77
     6
176
     1
 78
     2
176
     1
 67
     7
176
     1
 79
     5
176
     1
170
     0
176
     1
171
     0
176
     1
290
     0
176
     1
 93
        1
176
     1
 44
0.0
176
     1
173
     0
176
     1
  0
VISUALSTYLE
  5
33
102
{ACAD_REACTORS
330
2A
102
}
330
2A
100
AcDbVisualStyle
  2
Realistic
 70
     8
177
     2
291
     0
 71
     2
176
     1
 72
     2
176
     1
 73
     0
176
     1
 90
        0
176
     1
 40
-0.6
176
     1
 41
-30.0
176
     1
 62
     5
 63
     7
421
 16777215
176
     1
 74
     1
176
     1
 91
        0
176
     1
 64
     7
176
     1
 65
   257
176
     1
 75
     1
176
     1
175
     1
176
     1
 42
1.0
176
     1
 92
        8
176
     1
 66
     8
424
  7895160
176
     1
 43
1.0
176
     1
 76
     1
176
     1
 77
     6
176
     1
 78
     2
176
     1
 67
     7
176
     1
 79
     5
176
     1
170
     0
176
     1
171
     0
176
     1
290
     0
176
     1
 93
       13
176
     1
 44
0.0
176
     1
173
     0
176
     1
  0
VISUALSTYLE
  5
37
102
{ACAD_REACTORS
330
2A
102
}
330
2A
100
AcDbVisualStyle
  2
Thicken
 70
    13
177
     2
291
     1
 71
     2
176
     1
 72
     2
176
     1
 73
     0
176
     1
 90
        0
176
     1
 40
-0.6
176
     1
 41
-30.0
176
     1
 62
     5
 63
     7
421
 16777215
176
     1
 74
     1
176
     1
 91
        4
176
     1
 64
     7
176
     1
 65
   257
176
     1
 75
     1
176
     1
175
     1
176
     1
 42
1.0
176
     1
 92
       12
176
     1
 66
     7
176
     1
 43
1.0
176
     1
 76
     1
176
     1
 77
     6
176
     1
 78
     2
176
     1
 67
     7
176
     1
 79
     5
176
     1
170
     0
176
     1
171
     0
176
     1
290
     0
176
     1
 93
        1
176
     1
 44
0.0
176
     1
173
     0
176
     1
  0
ENDSEC
  0
EOF
