<svg id="Layer_1" data-name="Layer 1" xmlns="http://www.w3.org/2000/svg" width="12in" height="12in" viewBox="0 0 864 864" fill="#f2ca00
">
  <path d="M828,75.76936V36H788.14356c.03572.57384.08708,1.14322.08708,1.726a27.38428,27.38428,0,0,1-54.76856,0c0-.58278.05136-1.15216.08708-1.726H694.18729c.03573.57384.08709,1.14322.08709,1.726a27.38428,27.38428,0,0,1-54.76856,0c0-.58278.05135-1.15216.0882-1.726H600.231c.03684.57384.0882,1.14322.0882,1.726a27.38428,27.38428,0,0,1-54.76856,0c0-.58278.05136-1.15216.08708-1.726H506.27589c.03572.57384.08708,1.14322.08708,1.726a27.38428,27.38428,0,0,1-54.76856,0c0-.58278.05136-1.15216.08708-1.726H412.31963c.03572.57384.08708,1.14322.08708,1.726a27.38428,27.38428,0,0,1-54.76856,0c0-.58278.05135-1.15216.08708-1.726H318.36336c.03685.57384.0882,1.14322.0882,1.726a27.38484,27.38484,0,0,1-54.76967,0c0-.58278.05135-1.15216.08708-1.726H224.40822c.03572.57384.08708,1.14322.08708,1.726a27.38428,27.38428,0,0,1-54.76856,0c0-.58278.05136-1.15216.08708-1.726H130.452c.03572.57384.08708,1.14322.08708,1.726a27.38428,27.38428,0,0,1-54.76856,0c0-.58278.05135-1.15216.08708-1.726H36V75.76936a27.38372,27.38372,0,1,1,0,54.76744v39.18882a27.38373,27.38373,0,1,1,0,54.76745v39.18882a27.38372,27.38372,0,1,1,0,54.76744v39.18659a27.38484,27.38484,0,1,1,0,54.76967v39.18659a27.38484,27.38484,0,1,1,0,54.76967v39.18659a27.38484,27.38484,0,1,1,0,54.76967V639.5047a27.38484,27.38484,0,1,1,0,54.76968V733.461a27.38373,27.38373,0,1,1,0,54.76745V828H75.85756a27.34958,27.34958,0,0,1,54.5944,0h39.36186a27.34958,27.34958,0,0,1,54.5944,0H263.769a27.34957,27.34957,0,0,1,54.59439,0h39.36187a27.34958,27.34958,0,0,1,54.5944,0h39.36186a27.34958,27.34958,0,0,1,54.5944,0h39.36186a27.349,27.349,0,0,1,54.59328,0h39.363a27.349,27.349,0,0,1,54.59327,0h39.36187a27.34958,27.34958,0,0,1,54.5944,0H828V788.22841a27.38373,27.38373,0,0,1,0-54.76745V694.27438a27.38484,27.38484,0,0,1,0-54.76968V600.31811a27.38484,27.38484,0,0,1,0-54.76967V506.36185a27.38484,27.38484,0,0,1,0-54.76967V412.40559a27.38484,27.38484,0,0,1,0-54.76967V318.44933a27.38372,27.38372,0,0,1,0-54.76744V224.49307a27.38372,27.38372,0,0,1,0-54.76745V130.5368a27.38372,27.38372,0,0,1,0-54.76744ZM760.84692,760.84468H103.15532V103.15308h657.6916Z"/>
</svg>
