<svg width="564" height="102" viewBox="0 0 564 102" fill="none" xmlns="http://www.w3.org/2000/svg">
<path d="M47.4876 20.4818C45.9153 10.7987 42.2069 4 37.8913 4C33.5757 4 29.8673 10.7987 28.295 20.4818H47.4876ZM27.4818 30.8913C27.4818 33.2985 27.6119 35.6081 27.8396 37.831H47.9322C48.1599 35.6081 48.29 33.2985 48.29 30.8913C48.29 28.4841 48.1599 26.1745 47.9322 23.9516H27.8396C27.6119 26.1745 27.4818 28.4841 27.4818 30.8913ZM62.6898 20.4818C59.5887 13.1192 53.3104 7.42647 45.5575 5.1277C48.2032 8.79272 50.0249 14.3119 50.9791 20.4818H62.6898ZM30.2143 5.1277C22.4722 7.42647 16.1831 13.1192 13.0927 20.4818H24.8035C25.7468 14.3119 27.5685 8.79272 30.2143 5.1277ZM63.8501 23.9516H51.4128C51.6406 26.2287 51.7707 28.56 51.7707 30.8913C51.7707 33.2226 51.6406 35.5539 51.4128 37.831H63.8392C64.4356 35.6081 64.7717 33.2985 64.7717 30.8913C64.7717 28.4841 64.4356 26.1745 63.8501 23.9516ZM24.0119 30.8913C24.0119 28.56 24.142 26.2287 24.3697 23.9516H11.9325C11.347 26.1745 11 28.4841 11 30.8913C11 33.2985 11.347 35.6081 11.9325 37.831H24.3589C24.142 35.5539 24.0119 33.2226 24.0119 30.8913ZM28.295 41.3008C29.8673 50.9839 33.5757 57.7826 37.8913 57.7826C42.2069 57.7826 45.9153 50.9839 47.4876 41.3008H28.295ZM45.5683 56.6549C53.3104 54.3561 59.5995 48.6634 62.7007 41.3008H50.99C50.0357 47.4706 48.2141 52.9899 45.5683 56.6549ZM13.0927 41.3008C16.1939 48.6634 22.4722 54.3561 30.2251 56.6549C27.5793 52.9899 25.7577 47.4706 24.8035 41.3008H13.0927Z" fill="#0A6DC9"/>
<path d="M5.27344 94.5214C3.98438 94.5214 2.94922 94.0526 2.16797 93.1151C1.39323 92.1711 1.00586 90.7812 1.00586 88.9452C1.00586 87.0897 1.39974 85.6867 2.1875 84.7362C2.98177 83.7857 4.02669 83.3104 5.32227 83.3104C5.86914 83.3104 6.34766 83.3853 6.75781 83.5351C7.16797 83.6783 7.51953 83.8736 7.8125 84.121C8.11198 84.3684 8.36589 84.6451 8.57422 84.9511H8.68164C8.64909 84.7492 8.61003 84.4595 8.56445 84.0819C8.52539 83.6978 8.50586 83.343 8.50586 83.0175V79.1308H10.8105V94.3261H9.01367L8.60352 92.8515H8.50586C8.31055 93.164 8.06315 93.4472 7.76367 93.7011C7.4707 93.9485 7.11914 94.147 6.70898 94.2968C6.30534 94.4465 5.82682 94.5214 5.27344 94.5214ZM5.91797 92.6562C6.90104 92.6562 7.5944 92.3729 7.99805 91.8065C8.40169 91.2401 8.61003 90.3905 8.62305 89.2577V88.955C8.62305 87.744 8.42773 86.8163 8.03711 86.1718C7.64648 85.5207 6.93359 85.1952 5.89844 85.1952C5.07161 85.1952 4.4401 85.5305 4.00391 86.2011C3.57422 86.8651 3.35938 87.7929 3.35938 88.9843C3.35938 90.1757 3.57422 91.0871 4.00391 91.7187C4.4401 92.3437 5.07812 92.6562 5.91797 92.6562ZM17.4082 83.3104C18.3717 83.3104 19.1986 83.509 19.8887 83.9062C20.5788 84.3033 21.1094 84.8664 21.4805 85.5956C21.8516 86.3248 22.0371 87.1972 22.0371 88.2128V89.4433H14.8203C14.8464 90.4914 15.1263 91.2987 15.6602 91.8651C16.2005 92.4315 16.9557 92.7147 17.9258 92.7147C18.6159 92.7147 19.2344 92.6496 19.7812 92.5194C20.3346 92.3827 20.9043 92.1841 21.4902 91.9237V93.789C20.9499 94.0429 20.3997 94.2284 19.8398 94.3456C19.2799 94.4628 18.6094 94.5214 17.8281 94.5214C16.7669 94.5214 15.8327 94.3163 15.0254 93.9062C14.2246 93.4895 13.5964 92.871 13.1406 92.0507C12.6914 91.2304 12.4668 90.2115 12.4668 88.994C12.4668 87.7831 12.6719 86.7545 13.082 85.9081C13.4922 85.0617 14.0684 84.4172 14.8105 83.9745C15.5527 83.5318 16.4186 83.3104 17.4082 83.3104ZM17.4082 85.039C16.6855 85.039 16.0996 85.2733 15.6504 85.7421C15.2077 86.2108 14.9473 86.8977 14.8691 87.8026H19.791C19.7845 87.2623 19.6934 86.7838 19.5176 86.3671C19.3483 85.9504 19.0879 85.6249 18.7363 85.3905C18.3913 85.1562 17.9486 85.039 17.4082 85.039ZM20.6016 79.0038V79.1991C20.4453 79.3879 20.2337 79.6158 19.9668 79.8827C19.6999 80.1431 19.4102 80.4198 19.0977 80.7128C18.7852 80.9992 18.4759 81.2759 18.1699 81.5429C17.8639 81.8033 17.5872 82.0246 17.3398 82.2069H15.8066V81.953C16.0215 81.7056 16.2591 81.4094 16.5195 81.0644C16.7865 80.7193 17.0469 80.3645 17.3008 79.9999C17.5612 79.6353 17.7793 79.3033 17.9551 79.0038H20.6016ZM27.9805 94.5214C26.9583 94.5214 26.0729 94.3228 25.3242 93.9257C24.5755 93.5285 23.9993 92.9198 23.5957 92.0995C23.1921 91.2792 22.9902 90.2375 22.9902 88.9745C22.9902 87.6594 23.2116 86.5852 23.6543 85.7519C24.097 84.9185 24.709 84.3033 25.4902 83.9062C26.278 83.509 27.1797 83.3104 28.1953 83.3104C28.8398 83.3104 29.4225 83.3756 29.9434 83.5058C30.4707 83.6295 30.9167 83.7825 31.2812 83.9647L30.5977 85.8007C30.2005 85.6379 29.7936 85.5012 29.377 85.3905C28.9603 85.2798 28.5599 85.2245 28.1758 85.2245C27.5443 85.2245 27.0169 85.3645 26.5938 85.6444C26.1771 85.9244 25.8646 86.341 25.6562 86.8944C25.4544 87.4478 25.3535 88.1347 25.3535 88.955C25.3535 89.7492 25.4577 90.4198 25.666 90.9667C25.8743 91.5071 26.1836 91.9172 26.5938 92.1972C27.0039 92.4706 27.5085 92.6073 28.1074 92.6073C28.6999 92.6073 29.2305 92.5357 29.6992 92.3925C30.168 92.2492 30.6107 92.0637 31.0273 91.8358V93.828C30.6172 94.0624 30.1777 94.2349 29.709 94.3456C29.2402 94.4628 28.6641 94.5214 27.9805 94.5214ZM42.1367 88.8964C42.1367 89.7948 42.0195 90.5923 41.7852 91.289C41.5508 91.9856 41.209 92.5748 40.7598 93.0565C40.3105 93.5318 39.7702 93.8964 39.1387 94.1503C38.5072 94.3977 37.7943 94.5214 37 94.5214C36.2578 94.5214 35.5775 94.3977 34.959 94.1503C34.3405 93.8964 33.8034 93.5318 33.3477 93.0565C32.8984 92.5748 32.5501 91.9856 32.3027 91.289C32.0553 90.5923 31.9316 89.7948 31.9316 88.8964C31.9316 87.705 32.1367 86.6959 32.5469 85.869C32.9635 85.0357 33.556 84.4009 34.3242 83.9647C35.0924 83.5285 36.0072 83.3104 37.0684 83.3104C38.0645 83.3104 38.9434 83.5285 39.7051 83.9647C40.4668 84.4009 41.0625 85.0357 41.4922 85.869C41.9219 86.7024 42.1367 87.7115 42.1367 88.8964ZM34.2949 88.8964C34.2949 89.6841 34.3893 90.358 34.5781 90.9179C34.7734 91.4778 35.0729 91.9075 35.4766 92.2069C35.8802 92.4999 36.401 92.6464 37.0391 92.6464C37.6771 92.6464 38.1979 92.4999 38.6016 92.2069C39.0052 91.9075 39.3014 91.4778 39.4902 90.9179C39.679 90.358 39.7734 89.6841 39.7734 88.8964C39.7734 88.1086 39.679 87.4413 39.4902 86.8944C39.3014 86.341 39.0052 85.9211 38.6016 85.6347C38.1979 85.3417 37.6738 85.1952 37.0293 85.1952C36.0788 85.1952 35.3854 85.5142 34.9492 86.1522C34.513 86.7903 34.2949 87.705 34.2949 88.8964ZM53.1973 83.5155V94.3261H51.3906L51.0781 92.871H50.9512C50.7233 93.2421 50.4336 93.5513 50.082 93.7987C49.7305 94.0396 49.3398 94.2187 48.9102 94.3358C48.4805 94.4595 48.028 94.5214 47.5527 94.5214C46.7389 94.5214 46.0423 94.3847 45.4629 94.1112C44.89 93.8313 44.4505 93.4016 44.1445 92.8222C43.8385 92.2427 43.6855 91.494 43.6855 90.5761V83.5155H45.9902V90.1464C45.9902 90.9862 46.1595 91.6145 46.498 92.0312C46.8431 92.4478 47.377 92.6562 48.0996 92.6562C48.7962 92.6562 49.3496 92.5129 49.7598 92.2265C50.1699 91.94 50.4596 91.5168 50.6289 90.9569C50.8047 90.397 50.8926 89.7102 50.8926 88.8964V83.5155H53.1973ZM57.959 94.3261L53.8477 83.5155H56.2793L58.5059 89.8632C58.6491 90.2668 58.7793 90.703 58.8965 91.1718C59.0137 91.6405 59.0951 92.0344 59.1406 92.3534H59.2188C59.2643 92.0214 59.3522 91.6242 59.4824 91.162C59.6126 90.6933 59.7461 90.2603 59.8828 89.8632L62.1094 83.5155H64.5312L60.4199 94.3261H57.959ZM70.6504 83.3104C70.8327 83.3104 71.0312 83.3202 71.2461 83.3397C71.4609 83.3593 71.6465 83.3853 71.8027 83.4179L71.5879 85.5663C71.4512 85.5272 71.2819 85.4979 71.0801 85.4784C70.8848 85.4589 70.709 85.4491 70.5527 85.4491C70.1426 85.4491 69.752 85.5175 69.3809 85.6542C69.0098 85.7844 68.681 85.9862 68.3945 86.2597C68.1081 86.5266 67.8835 86.8619 67.7207 87.2655C67.5579 87.6692 67.4766 88.1379 67.4766 88.6718V94.3261H65.1719V83.5155H66.9688L67.2812 85.4198H67.3887C67.6035 85.0357 67.8704 84.6841 68.1895 84.3651C68.5085 84.0461 68.873 83.7922 69.2832 83.6034C69.6999 83.4081 70.1556 83.3104 70.6504 83.3104ZM77.1113 83.3104C78.0749 83.3104 78.9017 83.509 79.5918 83.9062C80.2819 84.3033 80.8125 84.8664 81.1836 85.5956C81.5547 86.3248 81.7402 87.1972 81.7402 88.2128V89.4433H74.5234C74.5495 90.4914 74.8294 91.2987 75.3633 91.8651C75.9036 92.4315 76.6589 92.7147 77.6289 92.7147C78.319 92.7147 78.9375 92.6496 79.4844 92.5194C80.0378 92.3827 80.6074 92.1841 81.1934 91.9237V93.789C80.653 94.0429 80.1029 94.2284 79.543 94.3456C78.9831 94.4628 78.3125 94.5214 77.5312 94.5214C76.4701 94.5214 75.5358 94.3163 74.7285 93.9062C73.9277 93.4895 73.2995 92.871 72.8438 92.0507C72.3945 91.2304 72.1699 90.2115 72.1699 88.994C72.1699 87.7831 72.375 86.7545 72.7852 85.9081C73.1953 85.0617 73.7715 84.4172 74.5137 83.9745C75.2559 83.5318 76.1217 83.3104 77.1113 83.3104ZM77.1113 85.039C76.3887 85.039 75.8027 85.2733 75.3535 85.7421C74.9108 86.2108 74.6504 86.8977 74.5723 87.8026H79.4941C79.4876 87.2623 79.3965 86.7838 79.2207 86.3671C79.0514 85.9504 78.791 85.6249 78.4395 85.3905C78.0944 85.1562 77.6517 85.039 77.1113 85.039ZM90.5645 94.3261H82.3516V92.9101L87.8105 85.2831H82.6836V83.5155H90.4082V85.078L85.0566 92.5585H90.5645V94.3261Z" fill="#0A6DC9"/>
<path d="M516.857 86.9844C518.068 86.9844 518.98 87.2969 519.592 87.9219C520.21 88.5469 520.52 89.5495 520.52 90.9297V98H518.225V91.3398C518.225 90.5195 518.065 89.901 517.746 89.4844C517.427 89.0677 516.942 88.8594 516.291 88.8594C515.38 88.8594 514.722 89.1523 514.318 89.7383C513.921 90.3177 513.723 91.1608 513.723 92.2676V98H511.428V91.3398C511.428 90.793 511.356 90.3372 511.213 89.9727C511.076 89.6016 510.865 89.3249 510.578 89.1426C510.292 88.9538 509.93 88.8594 509.494 88.8594C508.863 88.8594 508.358 89.0026 507.98 89.2891C507.609 89.5755 507.342 89.9987 507.18 90.5586C507.017 91.112 506.936 91.7923 506.936 92.5996V98H504.641V87.1895H506.428L506.75 88.6445H506.877C507.098 88.2669 507.372 87.9577 507.697 87.7168C508.029 87.4694 508.397 87.2871 508.801 87.1699C509.204 87.0462 509.624 86.9844 510.061 86.9844C510.868 86.9844 511.548 87.1276 512.102 87.4141C512.655 87.694 513.068 88.1237 513.342 88.7031H513.518C513.856 88.1172 514.328 87.6842 514.934 87.4043C515.539 87.1243 516.18 86.9844 516.857 86.9844ZM525.018 87.1895V98H522.723V87.1895H525.018ZM523.885 83.0488C524.236 83.0488 524.539 83.1432 524.793 83.332C525.053 83.5208 525.184 83.8464 525.184 84.3086C525.184 84.7643 525.053 85.0898 524.793 85.2852C524.539 85.474 524.236 85.5684 523.885 85.5684C523.52 85.5684 523.211 85.474 522.957 85.2852C522.71 85.0898 522.586 84.7643 522.586 84.3086C522.586 83.8464 522.71 83.5208 522.957 83.332C523.211 83.1432 523.52 83.0488 523.885 83.0488ZM534.574 94.9141C534.574 95.6237 534.402 96.2227 534.057 96.7109C533.712 97.1992 533.207 97.5703 532.543 97.8242C531.885 98.0716 531.078 98.1953 530.121 98.1953C529.366 98.1953 528.715 98.14 528.168 98.0293C527.628 97.9251 527.117 97.7624 526.635 97.541V95.5586C527.149 95.7995 527.725 96.0078 528.363 96.1836C529.008 96.3594 529.617 96.4473 530.189 96.4473C530.945 96.4473 531.488 96.3301 531.82 96.0957C532.152 95.8548 532.318 95.5358 532.318 95.1387C532.318 94.9043 532.25 94.696 532.113 94.5137C531.983 94.3249 531.736 94.1328 531.371 93.9375C531.013 93.7357 530.486 93.4948 529.789 93.2148C529.105 92.9414 528.529 92.668 528.061 92.3945C527.592 92.1211 527.237 91.7923 526.996 91.4082C526.755 91.0176 526.635 90.5195 526.635 89.9141C526.635 88.957 527.012 88.2311 527.768 87.7363C528.529 87.235 529.535 86.9844 530.785 86.9844C531.449 86.9844 532.074 87.0527 532.66 87.1895C533.253 87.3197 533.832 87.5117 534.398 87.7656L533.676 89.4941C533.188 89.2793 532.696 89.1035 532.201 88.9668C531.713 88.8236 531.215 88.752 530.707 88.752C530.115 88.752 529.662 88.8431 529.35 89.0254C529.044 89.2077 528.891 89.4681 528.891 89.8066C528.891 90.0605 528.965 90.2754 529.115 90.4512C529.265 90.627 529.522 90.8027 529.887 90.9785C530.258 91.1543 530.772 91.3724 531.43 91.6328C532.074 91.8802 532.631 92.1406 533.1 92.4141C533.575 92.681 533.939 93.0098 534.193 93.4004C534.447 93.791 534.574 94.2956 534.574 94.9141ZM540.361 86.9844C541.325 86.9844 542.152 87.1829 542.842 87.5801C543.532 87.9772 544.062 88.5404 544.434 89.2695C544.805 89.9987 544.99 90.8711 544.99 91.8867V93.1172H537.773C537.799 94.1654 538.079 94.9727 538.613 95.5391C539.154 96.1055 539.909 96.3887 540.879 96.3887C541.569 96.3887 542.188 96.3236 542.734 96.1934C543.288 96.0566 543.857 95.8581 544.443 95.5977V97.4629C543.903 97.7168 543.353 97.9023 542.793 98.0195C542.233 98.1367 541.562 98.1953 540.781 98.1953C539.72 98.1953 538.786 97.9902 537.979 97.5801C537.178 97.1634 536.549 96.5449 536.094 95.7246C535.645 94.9043 535.42 93.8854 535.42 92.668C535.42 91.457 535.625 90.4284 536.035 89.582C536.445 88.7357 537.021 88.0911 537.764 87.6484C538.506 87.2057 539.372 86.9844 540.361 86.9844ZM540.361 88.7129C539.639 88.7129 539.053 88.9473 538.604 89.416C538.161 89.8848 537.9 90.5716 537.822 91.4766H542.744C542.738 90.9362 542.646 90.4577 542.471 90.041C542.301 89.6243 542.041 89.2988 541.689 89.0645C541.344 88.8301 540.902 88.7129 540.361 88.7129ZM553.814 98H545.602V96.584L551.061 88.957H545.934V87.1895H553.658V88.752L548.307 96.2324H553.814V98ZM561.326 93.6445H559.598L559.129 83.7227H561.795L561.326 93.6445ZM559.012 96.7891C559.012 96.2552 559.148 95.8809 559.422 95.666C559.702 95.4447 560.044 95.334 560.447 95.334C560.844 95.334 561.183 95.4447 561.463 95.666C561.743 95.8809 561.883 96.2552 561.883 96.7891C561.883 97.3099 561.743 97.6875 561.463 97.9219C561.183 98.1497 560.844 98.2637 560.447 98.2637C560.044 98.2637 559.702 98.1497 559.422 97.9219C559.148 97.6875 559.012 97.3099 559.012 96.7891Z" fill="#0A6DC9"/>
<path d="M531.5 3C515.768 3 503 15.768 503 31.5C503 47.232 515.768 60 531.5 60C547.232 60 560 47.232 560 31.5C560 15.768 547.232 3 531.5 3ZM535.518 48.8565V54.3H527.909V48.7995C523.035 47.7735 518.903 44.6385 518.589 39.1095H524.176C524.461 42.102 526.512 44.439 531.728 44.439C537.314 44.439 538.568 41.646 538.568 39.9075C538.568 37.542 537.314 35.319 530.959 33.8085C523.891 32.0985 519.045 29.1915 519.045 23.349C519.045 18.447 523.007 15.255 527.909 14.2005V8.7H535.518V14.2575C540.819 15.54 543.47 19.5585 543.641 23.919H538.055C537.912 20.7555 536.231 18.5895 531.728 18.5895C527.453 18.5895 524.888 20.5275 524.888 23.2635C524.888 25.6575 526.741 27.225 532.498 28.707C538.254 30.189 544.411 32.6685 544.411 39.8505C544.382 45.066 540.477 47.916 535.518 48.8565Z" fill="#0A6DC9"/>
<path d="M250.947 85.9844C251.911 85.9844 252.738 86.1829 253.428 86.5801C254.118 86.9772 254.648 87.5404 255.02 88.2695C255.391 88.9987 255.576 89.8711 255.576 90.8867V92.1172H248.359C248.385 93.1654 248.665 93.9727 249.199 94.5391C249.74 95.1055 250.495 95.3887 251.465 95.3887C252.155 95.3887 252.773 95.3236 253.32 95.1934C253.874 95.0566 254.443 94.8581 255.029 94.5977V96.4629C254.489 96.7168 253.939 96.9023 253.379 97.0195C252.819 97.1367 252.148 97.1953 251.367 97.1953C250.306 97.1953 249.372 96.9902 248.564 96.5801C247.764 96.1634 247.135 95.5449 246.68 94.7246C246.23 93.9043 246.006 92.8854 246.006 91.668C246.006 90.457 246.211 89.4284 246.621 88.582C247.031 87.7357 247.607 87.0911 248.35 86.6484C249.092 86.2057 249.958 85.9844 250.947 85.9844ZM250.947 87.7129C250.225 87.7129 249.639 87.9473 249.189 88.416C248.747 88.8848 248.486 89.5716 248.408 90.4766H253.33C253.324 89.9362 253.232 89.4577 253.057 89.041C252.887 88.6243 252.627 88.2988 252.275 88.0645C251.93 87.8301 251.488 87.7129 250.947 87.7129ZM254.141 81.6777V81.873C253.984 82.0618 253.773 82.2897 253.506 82.5566C253.239 82.8171 252.949 83.0938 252.637 83.3867C252.324 83.6732 252.015 83.9499 251.709 84.2168C251.403 84.4772 251.126 84.6986 250.879 84.8809H249.346V84.627C249.561 84.3796 249.798 84.0833 250.059 83.7383C250.326 83.3932 250.586 83.0384 250.84 82.6738C251.1 82.3092 251.318 81.9772 251.494 81.6777H254.141ZM261.52 97.1953C260.497 97.1953 259.612 96.9967 258.863 96.5996C258.115 96.2025 257.538 95.5938 257.135 94.7734C256.731 93.9531 256.529 92.9115 256.529 91.6484C256.529 90.3333 256.751 89.2591 257.193 88.4258C257.636 87.5924 258.248 86.9772 259.029 86.5801C259.817 86.1829 260.719 85.9844 261.734 85.9844C262.379 85.9844 262.962 86.0495 263.482 86.1797C264.01 86.3034 264.456 86.4564 264.82 86.6387L264.137 88.4746C263.74 88.3118 263.333 88.1751 262.916 88.0645C262.499 87.9538 262.099 87.8984 261.715 87.8984C261.083 87.8984 260.556 88.0384 260.133 88.3184C259.716 88.5983 259.404 89.015 259.195 89.5684C258.993 90.1217 258.893 90.8086 258.893 91.6289C258.893 92.4232 258.997 93.0938 259.205 93.6406C259.413 94.181 259.723 94.5911 260.133 94.8711C260.543 95.1445 261.048 95.2812 261.646 95.2812C262.239 95.2812 262.77 95.2096 263.238 95.0664C263.707 94.9232 264.15 94.7376 264.566 94.5098V96.502C264.156 96.7363 263.717 96.9089 263.248 97.0195C262.779 97.1367 262.203 97.1953 261.52 97.1953ZM268.4 81.8047V85.623C268.4 86.0202 268.387 86.4076 268.361 86.7852C268.342 87.1628 268.319 87.4557 268.293 87.6641H268.42C268.648 87.2865 268.928 86.9772 269.26 86.7363C269.592 86.4889 269.963 86.3034 270.373 86.1797C270.79 86.056 271.232 85.9941 271.701 85.9941C272.528 85.9941 273.231 86.1341 273.811 86.4141C274.39 86.6875 274.833 87.1139 275.139 87.6934C275.451 88.2728 275.607 89.0247 275.607 89.9492V97H273.312V90.3789C273.312 89.5391 273.14 88.9108 272.795 88.4941C272.45 88.071 271.916 87.8594 271.193 87.8594C270.497 87.8594 269.943 88.0059 269.533 88.2988C269.13 88.5853 268.84 89.0117 268.664 89.5781C268.488 90.138 268.4 90.8216 268.4 91.6289V97H266.105V81.8047H268.4ZM282.059 85.9844C283.426 85.9844 284.458 86.2871 285.154 86.8926C285.857 87.498 286.209 88.4421 286.209 89.7246V97H284.578L284.139 95.4668H284.061C283.755 95.8574 283.439 96.1797 283.113 96.4336C282.788 96.6875 282.41 96.8763 281.98 97C281.557 97.1302 281.04 97.1953 280.428 97.1953C279.783 97.1953 279.207 97.0781 278.699 96.8438C278.191 96.6029 277.791 96.2383 277.498 95.75C277.205 95.2617 277.059 94.6432 277.059 93.8945C277.059 92.7812 277.472 91.9447 278.299 91.3848C279.132 90.8249 280.389 90.5156 282.068 90.457L283.943 90.3887V89.8223C283.943 89.0736 283.768 88.5397 283.416 88.2207C283.071 87.9017 282.583 87.7422 281.951 87.7422C281.411 87.7422 280.887 87.8203 280.379 87.9766C279.871 88.1328 279.376 88.3249 278.895 88.5527L278.152 86.9316C278.68 86.6517 279.279 86.4238 279.949 86.248C280.626 86.0723 281.329 85.9844 282.059 85.9844ZM283.934 91.834L282.537 91.8828C281.391 91.9219 280.587 92.1172 280.125 92.4688C279.663 92.8203 279.432 93.3021 279.432 93.9141C279.432 94.4479 279.591 94.8385 279.91 95.0859C280.229 95.3268 280.649 95.4473 281.17 95.4473C281.964 95.4473 282.622 95.2227 283.143 94.7734C283.67 94.3177 283.934 93.6504 283.934 92.7715V91.834ZM294.057 85.9844C295.274 85.9844 296.221 86.3001 296.898 86.9316C297.582 87.5566 297.924 88.5625 297.924 89.9492V97H295.629V90.3789C295.629 89.5391 295.456 88.9108 295.111 88.4941C294.766 88.071 294.232 87.8594 293.51 87.8594C292.462 87.8594 291.732 88.1816 291.322 88.8262C290.919 89.4707 290.717 90.4049 290.717 91.6289V97H288.422V86.1895H290.209L290.531 87.6543H290.658C290.893 87.2767 291.182 86.9674 291.527 86.7266C291.879 86.4792 292.27 86.2936 292.699 86.1699C293.135 86.0462 293.588 85.9844 294.057 85.9844ZM303.223 101.805C301.758 101.805 300.635 101.541 299.854 101.014C299.072 100.486 298.682 99.7474 298.682 98.7969C298.682 98.1328 298.89 97.5697 299.307 97.1074C299.723 96.6517 300.319 96.3359 301.094 96.1602C300.801 96.0299 300.547 95.8281 300.332 95.5547C300.124 95.2747 300.02 94.9655 300.02 94.627C300.02 94.2233 300.133 93.8783 300.361 93.5918C300.589 93.3053 300.931 93.0286 301.387 92.7617C300.82 92.5208 300.365 92.1302 300.02 91.5898C299.681 91.043 299.512 90.4017 299.512 89.666C299.512 88.8848 299.678 88.2207 300.01 87.6738C300.342 87.1204 300.827 86.7005 301.465 86.4141C302.103 86.1211 302.874 85.9746 303.779 85.9746C303.975 85.9746 304.186 85.9876 304.414 86.0137C304.648 86.0332 304.863 86.0592 305.059 86.0918C305.26 86.1178 305.413 86.1471 305.518 86.1797H309.258V87.459L307.422 87.8008C307.598 88.0482 307.738 88.3314 307.842 88.6504C307.946 88.9629 307.998 89.3047 307.998 89.6758C307.998 90.7956 307.611 91.6777 306.836 92.3223C306.068 92.9603 305.007 93.2793 303.652 93.2793C303.327 93.2663 303.011 93.2402 302.705 93.2012C302.471 93.3444 302.292 93.5039 302.168 93.6797C302.044 93.849 301.982 94.041 301.982 94.2559C301.982 94.4316 302.044 94.5749 302.168 94.6855C302.292 94.7897 302.474 94.8678 302.715 94.9199C302.962 94.972 303.262 94.998 303.613 94.998H305.479C306.663 94.998 307.568 95.2487 308.193 95.75C308.818 96.2513 309.131 96.987 309.131 97.957C309.131 99.1875 308.623 100.135 307.607 100.799C306.592 101.469 305.13 101.805 303.223 101.805ZM303.311 100.193C304.111 100.193 304.785 100.115 305.332 99.959C305.879 99.8027 306.292 99.5781 306.572 99.2852C306.852 98.9987 306.992 98.6569 306.992 98.2598C306.992 97.9082 306.904 97.638 306.729 97.4492C306.553 97.2604 306.289 97.1302 305.938 97.0586C305.586 96.987 305.15 96.9512 304.629 96.9512H302.93C302.507 96.9512 302.132 97.0163 301.807 97.1465C301.481 97.2832 301.227 97.4785 301.045 97.7324C300.869 97.9863 300.781 98.2923 300.781 98.6504C300.781 99.1452 300.999 99.526 301.436 99.793C301.878 100.06 302.503 100.193 303.311 100.193ZM303.76 91.7754C304.43 91.7754 304.928 91.5931 305.254 91.2285C305.579 90.8574 305.742 90.3366 305.742 89.666C305.742 88.9368 305.573 88.39 305.234 88.0254C304.902 87.6608 304.408 87.4785 303.75 87.4785C303.105 87.4785 302.614 87.6641 302.275 88.0352C301.943 88.4062 301.777 88.9564 301.777 89.6855C301.777 90.3431 301.943 90.8574 302.275 91.2285C302.614 91.5931 303.109 91.7754 303.76 91.7754ZM314.537 85.9844C315.501 85.9844 316.327 86.1829 317.018 86.5801C317.708 86.9772 318.238 87.5404 318.609 88.2695C318.98 88.9987 319.166 89.8711 319.166 90.8867V92.1172H311.949C311.975 93.1654 312.255 93.9727 312.789 94.5391C313.329 95.1055 314.085 95.3887 315.055 95.3887C315.745 95.3887 316.363 95.3236 316.91 95.1934C317.464 95.0566 318.033 94.8581 318.619 94.5977V96.4629C318.079 96.7168 317.529 96.9023 316.969 97.0195C316.409 97.1367 315.738 97.1953 314.957 97.1953C313.896 97.1953 312.962 96.9902 312.154 96.5801C311.354 96.1634 310.725 95.5449 310.27 94.7246C309.82 93.9043 309.596 92.8854 309.596 91.668C309.596 90.457 309.801 89.4284 310.211 88.582C310.621 87.7357 311.197 87.0911 311.939 86.6484C312.682 86.2057 313.548 85.9844 314.537 85.9844ZM314.537 87.7129C313.814 87.7129 313.229 87.9473 312.779 88.416C312.337 88.8848 312.076 89.5716 311.998 90.4766H316.92C316.913 89.9362 316.822 89.4577 316.646 89.041C316.477 88.6243 316.217 88.2988 315.865 88.0645C315.52 87.8301 315.077 87.7129 314.537 87.7129ZM327.99 97H319.777V95.584L325.236 87.957H320.109V86.1895H327.834V87.752L322.482 95.2324H327.99V97Z" fill="#0A6DC9"/>
<path d="M292.499 31.3499C293.244 31.3499 293.849 30.7453 293.849 29.9999C293.849 29.2544 293.244 28.6499 292.499 28.6499C291.753 28.6499 291.149 29.2544 291.149 29.9999C291.149 30.7453 291.753 31.3499 292.499 31.3499Z" fill="black" stroke="#0A6DC9" stroke-width="6" stroke-linecap="round" stroke-linejoin="round"/>
<path d="M278.999 31.3499C279.744 31.3499 280.349 30.7453 280.349 29.9999C280.349 29.2544 279.744 28.6499 278.999 28.6499C278.253 28.6499 277.649 29.2544 277.649 29.9999C277.649 30.7453 278.253 31.3499 278.999 31.3499Z" fill="black" stroke="#0A6DC9" stroke-width="6" stroke-linecap="round" stroke-linejoin="round"/>
<path d="M265.499 31.3499C266.244 31.3499 266.849 30.7453 266.849 29.9999C266.849 29.2544 266.244 28.6499 265.499 28.6499C264.753 28.6499 264.149 29.2544 264.149 29.9999C264.149 30.7453 264.753 31.3499 265.499 31.3499Z" fill="black" stroke="#0A6DC9" stroke-width="6" stroke-linecap="round" stroke-linejoin="round"/>
<path d="M279 57C293.912 57 306 44.9116 306 30C306 15.0883 293.912 3 279 3C264.088 3 252 15.0883 252 30C252 34.9178 253.315 39.5286 255.612 43.5L253.35 55.65L265.5 53.3879C269.471 55.6851 274.082 57 279 57Z" stroke="#0A6DC9" stroke-width="6" stroke-linecap="round" stroke-linejoin="round"/>
<path d="M377.198 49.9727H440M440 49.9727L427.526 38M440 49.9727L427.526 61.9454" stroke="#0A6DC9" stroke-width="6" stroke-linecap="round" stroke-linejoin="round"/>
<path d="M113 51.9727H175.801M175.801 51.9727L163.328 40M175.801 51.9727L163.328 63.9454" stroke="#0A6DC9" stroke-width="6" stroke-linecap="round" stroke-linejoin="round"/>
</svg>
