<svg width="1072" height="1589" viewBox="0 0 1072 1589" fill="none" xmlns="http://www.w3.org/2000/svg">
<g filter="url(#filter0_d_134_369)">
<path d="M72.6131 24.9179L3.99994 55.5746L36.579 132.326C37.5399 131.815 38.4803 131.277 39.4857 130.828C52.0145 125.241 66.3833 125.435 79.434 131.368C92.4846 137.3 103.149 148.486 109.083 162.465C115.017 176.444 115.734 192.074 111.078 205.918C106.422 219.761 96.7735 230.687 84.2528 236.293C83.2474 236.742 82.223 237.082 81.2028 237.453L113.378 313.252C114.337 312.739 115.278 312.201 116.283 311.752C128.812 306.165 143.181 306.359 156.232 312.292C169.282 318.224 179.947 329.41 185.88 343.389C191.814 357.368 192.532 372.997 187.876 386.841C183.22 400.685 173.571 411.611 161.05 417.216C160.045 417.666 159.021 418.006 158.001 418.379L190.175 494.176C191.136 493.665 192.076 493.127 193.082 492.678C205.611 487.091 219.979 487.285 233.03 493.218C246.081 499.15 256.745 510.335 262.679 524.315C268.613 538.294 269.331 553.923 264.675 567.767C260.018 581.611 250.37 592.537 237.849 598.142C236.843 598.591 235.819 598.932 234.8 599.305L266.974 675.102C267.935 674.591 268.875 674.053 269.88 673.604C282.409 668.017 296.778 668.211 309.829 674.144C322.879 680.076 333.544 691.261 339.478 705.241C345.411 719.22 346.129 734.849 341.473 748.693C336.817 762.537 327.168 773.463 314.647 779.068C313.642 779.518 312.618 779.858 311.598 780.231L343.771 856.026C344.732 855.515 345.673 854.977 346.678 854.528C359.207 848.941 373.576 849.135 386.627 855.068C399.678 861 410.343 872.186 416.277 886.165C422.211 900.145 422.928 915.774 418.272 929.619C413.616 943.463 403.967 954.389 391.446 959.994C390.441 960.443 389.416 960.784 388.396 961.155L420.57 1036.95C421.531 1036.44 422.471 1035.9 423.476 1035.45C436.005 1029.87 450.374 1030.06 463.425 1035.99C476.475 1041.93 487.14 1053.11 493.074 1067.09C499.008 1081.07 499.725 1096.7 495.069 1110.54C490.413 1124.39 480.764 1135.31 468.244 1140.92C467.238 1141.37 466.214 1141.71 465.195 1142.08L497.368 1217.88C498.329 1217.37 499.27 1216.83 500.275 1216.38C512.804 1210.79 527.173 1210.99 540.223 1216.92C553.274 1222.85 563.938 1234.04 569.872 1248.02C575.806 1262 576.524 1277.63 571.868 1291.47C567.212 1305.31 557.563 1316.24 545.042 1321.84C544.037 1322.29 543.012 1322.63 541.993 1323.01L574.167 1398.8C575.128 1398.29 576.068 1397.75 577.074 1397.31C589.602 1391.72 603.971 1391.91 617.022 1397.85C630.073 1403.78 640.737 1414.96 646.671 1428.94C652.605 1442.92 653.322 1458.55 648.666 1472.4C644.01 1486.24 634.361 1497.16 621.841 1502.77C620.835 1503.22 619.811 1503.56 618.791 1503.93L651.37 1580.68L719.983 1550.03C717.038 1543.1 715.345 1535.69 715 1528.23C714.655 1520.77 715.665 1513.4 717.972 1506.54C720.28 1499.68 723.839 1493.46 728.447 1488.25C733.056 1483.03 738.622 1478.92 744.829 1476.15C751.036 1473.38 757.762 1472 764.621 1472.09C771.481 1472.18 778.341 1473.74 784.808 1476.68C791.276 1479.62 797.225 1483.88 802.314 1489.22C807.404 1494.56 811.535 1500.88 814.472 1507.81L882.083 1477.6C876.147 1463.61 875.431 1447.98 880.094 1434.13C884.756 1420.28 894.415 1409.36 906.945 1403.76C919.475 1398.16 933.85 1398.35 946.908 1404.28C959.965 1410.21 970.636 1421.39 976.572 1435.38L1044.18 1405.17C1038.24 1391.19 1037.53 1375.55 1042.19 1361.7C1046.85 1347.85 1056.51 1336.93 1069.04 1331.33C1081.57 1325.73 1095.95 1325.92 1109.01 1331.85C1122.07 1337.78 1132.74 1348.97 1138.67 1362.95L1206.28 1332.74C1203.34 1325.82 1201.64 1318.41 1201.3 1310.95C1200.95 1303.49 1201.96 1296.12 1204.27 1289.26C1206.58 1282.39 1210.14 1276.18 1214.75 1270.97C1219.35 1265.75 1224.92 1261.64 1231.13 1258.87C1237.34 1256.09 1244.06 1254.71 1250.92 1254.8C1257.78 1254.89 1264.64 1256.45 1271.11 1259.39C1277.58 1262.33 1283.53 1266.59 1288.62 1271.94C1293.71 1277.28 1297.84 1283.59 1300.77 1290.52L1368.38 1260.32C1365.44 1253.39 1363.74 1245.99 1363.4 1238.52C1363.05 1231.06 1364.06 1223.69 1366.37 1216.83C1368.68 1209.97 1372.24 1203.75 1376.85 1198.54C1381.45 1193.32 1387.02 1189.21 1393.23 1186.44C1399.44 1183.67 1406.16 1182.28 1413.02 1182.37C1419.88 1182.46 1426.74 1184.02 1433.21 1186.96C1439.68 1189.9 1445.63 1194.17 1450.72 1199.51C1455.81 1204.85 1459.94 1211.17 1462.87 1218.1L1530.48 1187.89C1527.54 1180.96 1525.84 1173.56 1525.5 1166.1C1525.15 1158.63 1526.16 1151.26 1528.47 1144.4C1530.78 1137.54 1534.34 1131.32 1538.95 1126.11C1543.56 1120.9 1549.12 1116.78 1555.33 1114.01C1561.54 1111.24 1568.26 1109.86 1575.12 1109.95C1581.98 1110.04 1588.84 1111.6 1595.31 1114.54C1601.78 1117.48 1607.73 1121.74 1612.82 1127.08C1617.91 1132.42 1622.04 1138.74 1624.97 1145.67L1692.58 1115.46C1689.64 1108.54 1687.94 1101.13 1687.6 1093.67C1687.25 1086.21 1688.26 1078.84 1690.57 1071.98C1692.88 1065.11 1696.44 1058.9 1701.05 1053.69C1705.66 1048.47 1711.22 1044.36 1717.43 1041.59C1723.64 1038.81 1730.36 1037.43 1737.22 1037.52C1744.08 1037.61 1750.94 1039.17 1757.41 1042.11C1763.88 1045.05 1769.82 1049.32 1774.91 1054.66C1780 1060 1784.13 1066.31 1787.07 1073.24L1854.68 1043.04C1851.74 1036.11 1850.05 1028.7 1849.7 1021.24C1849.35 1013.78 1850.36 1006.41 1852.67 999.548C1854.98 992.687 1858.54 986.472 1863.15 981.258C1867.76 976.044 1873.32 971.933 1879.53 969.159C1885.74 966.386 1892.46 965.005 1899.32 965.095C1906.18 965.185 1913.04 966.745 1919.51 969.685C1925.98 972.625 1931.92 976.888 1937.01 982.229C1942.1 987.571 1946.24 993.887 1949.17 1000.82L2016.78 970.608C2010.85 956.623 2010.13 940.986 2014.79 927.138C2019.46 913.291 2029.11 902.366 2041.64 896.768C2054.17 891.169 2068.55 891.355 2081.61 897.286C2094.67 903.216 2105.34 914.404 2111.27 928.39L2178.88 898.182C2175.94 891.256 2174.24 883.85 2173.9 876.388C2173.55 868.926 2174.56 861.554 2176.87 854.693C2179.18 847.832 2182.74 841.617 2187.35 836.402C2191.95 831.188 2197.52 827.077 2203.73 824.303C2209.93 821.53 2216.66 820.149 2223.52 820.239C2230.38 820.329 2237.24 821.889 2243.71 824.829C2250.18 827.769 2256.13 832.032 2261.22 837.374C2266.31 842.716 2270.44 849.032 2273.37 855.962L2349.14 822.107L2316.64 745.526C2304.11 751.112 2289.74 750.918 2276.69 744.986C2263.64 739.053 2252.97 727.868 2247.04 713.889C2241.11 699.909 2240.39 684.28 2245.04 670.436C2249.7 656.592 2259.35 645.667 2271.87 640.061L2239.84 564.6C2227.31 570.187 2212.94 569.992 2199.89 564.06C2186.84 558.127 2176.18 546.942 2170.24 532.963C2164.31 518.984 2163.59 503.354 2168.25 489.51C2172.9 475.666 2182.55 464.741 2195.07 459.135L2163.04 383.674C2150.51 389.261 2136.14 389.066 2123.09 383.134C2110.04 377.201 2099.38 366.016 2093.44 352.037C2087.51 338.058 2086.79 322.428 2091.45 308.584C2096.1 294.74 2105.75 283.815 2118.27 278.209L2086.24 202.75C2073.71 208.337 2059.34 208.143 2046.29 202.21C2033.24 196.278 2022.58 185.092 2016.64 171.112C2010.71 157.133 2009.99 141.503 2014.65 127.659C2019.3 113.815 2028.95 102.889 2041.47 97.2834L2009.44 21.824C1996.92 27.4107 1982.55 27.2165 1969.5 21.2841C1956.44 15.3517 1945.78 4.16648 1939.85 -9.81284C1933.91 -23.7922 1933.19 -39.4216 1937.85 -53.2655C1942.51 -67.1095 1952.16 -78.0349 1964.68 -83.6405L1932.65 -159.102C1920.12 -153.515 1905.75 -153.709 1892.7 -159.642C1879.65 -165.574 1868.98 -176.76 1863.05 -190.739C1857.11 -204.718 1856.4 -220.347 1861.05 -234.191C1865.71 -248.035 1875.36 -258.961 1887.88 -264.566L1855.85 -340.028C1843.32 -334.441 1828.95 -334.635 1815.9 -340.568C1802.85 -346.5 1792.18 -357.686 1786.25 -371.665C1780.32 -385.644 1779.6 -401.274 1784.25 -415.117C1788.91 -428.961 1798.56 -439.887 1811.08 -445.492L1779.05 -520.952C1766.52 -515.365 1752.15 -515.559 1739.1 -521.492C1726.05 -527.424 1715.39 -538.609 1709.45 -552.589C1703.52 -566.568 1702.8 -582.197 1707.46 -596.041C1712.11 -609.885 1721.76 -620.811 1734.28 -626.416L1701.77 -703L1626 -669.145C1628.95 -662.219 1630.64 -654.813 1630.99 -647.351C1631.33 -639.889 1630.32 -632.517 1628.01 -625.656C1625.71 -618.795 1622.15 -612.58 1617.54 -607.365C1612.93 -602.151 1607.36 -598.04 1601.16 -595.266C1594.95 -592.493 1588.22 -591.112 1581.36 -591.202C1574.5 -591.292 1567.64 -592.852 1561.18 -595.792C1554.71 -598.732 1548.76 -602.995 1543.67 -608.337C1538.58 -613.679 1534.45 -619.995 1531.51 -626.925L1463.9 -596.718C1469.84 -582.733 1470.55 -567.096 1465.89 -553.248C1461.23 -539.401 1451.57 -528.476 1439.04 -522.877C1426.51 -517.279 1412.14 -517.465 1399.08 -523.396C1386.02 -529.326 1375.35 -540.514 1369.41 -554.5L1301.8 -524.29C1304.75 -517.365 1306.44 -509.959 1306.79 -502.497C1307.13 -495.036 1306.12 -487.664 1303.81 -480.803C1301.51 -473.943 1297.95 -467.727 1293.34 -462.513C1288.73 -457.299 1283.16 -453.188 1276.96 -450.414C1270.75 -447.641 1264.02 -446.26 1257.16 -446.35C1250.3 -446.441 1243.44 -448 1236.98 -450.94C1230.51 -453.88 1224.56 -458.143 1219.47 -463.485C1214.38 -468.826 1210.25 -475.143 1207.31 -482.072L1139.7 -451.863C1142.65 -444.937 1144.34 -437.532 1144.68 -430.07C1145.03 -422.608 1144.02 -415.236 1141.71 -408.376C1139.4 -401.515 1135.85 -395.3 1131.24 -390.086C1126.63 -384.872 1121.06 -380.76 1114.86 -377.987C1108.65 -375.214 1101.92 -373.833 1095.06 -373.923C1088.2 -374.013 1081.34 -375.573 1074.88 -378.513C1068.41 -381.453 1062.46 -385.715 1057.37 -391.057C1052.28 -396.399 1048.15 -402.715 1045.21 -409.645L977.605 -379.437C983.542 -365.452 984.257 -349.815 979.595 -335.966C974.932 -322.118 965.273 -311.193 952.743 -305.594C940.212 -299.995 925.837 -300.182 912.778 -306.112C899.72 -312.043 889.049 -323.232 883.112 -337.217L815.504 -307.01C821.441 -293.024 822.157 -277.387 817.494 -263.539C812.832 -249.69 803.173 -238.765 790.642 -233.167C778.111 -227.568 763.736 -227.754 750.678 -233.685C737.619 -239.615 726.948 -250.804 721.012 -264.79L653.404 -234.583C656.349 -227.656 658.042 -220.251 658.387 -212.789C658.732 -205.327 657.722 -197.954 655.415 -191.093C653.107 -184.233 649.548 -178.017 644.939 -172.803C640.331 -167.588 634.764 -163.477 628.557 -160.704C622.349 -157.93 615.624 -156.549 608.763 -156.639C601.903 -156.729 595.043 -158.289 588.576 -161.229C582.108 -164.17 576.159 -168.432 571.069 -173.774C565.979 -179.116 561.848 -185.433 558.911 -192.363L491.303 -162.155C494.248 -155.229 495.942 -147.823 496.287 -140.361C496.632 -132.899 495.622 -125.527 493.314 -118.666C491.006 -111.805 487.447 -105.59 482.838 -100.375C478.23 -95.1609 472.663 -91.0495 466.456 -88.2761C460.249 -85.5027 453.523 -84.1217 446.663 -84.2119C439.803 -84.3021 432.943 -85.8619 426.475 -88.802C420.007 -91.7421 414.058 -96.005 408.968 -101.347C403.878 -106.689 399.747 -113.005 396.81 -119.935L329.203 -89.7277C332.142 -82.8029 333.831 -75.3999 334.172 -67.9413C334.514 -60.4828 333.501 -53.115 331.192 -46.2583C328.884 -39.4015 325.324 -33.1904 320.717 -27.9793C316.11 -22.7682 310.546 -18.6593 304.341 -15.8872C298.137 -13.1152 291.415 -11.7341 284.558 -11.8231C277.701 -11.912 270.844 -13.4691 264.379 -16.4055C257.913 -19.3419 251.966 -23.6 246.876 -28.9368C241.786 -34.2737 237.653 -40.5847 234.714 -47.5095L167.102 -17.3003C170.047 -10.3744 171.74 -2.96881 172.085 4.49291C172.43 11.9546 171.42 19.3264 169.113 26.1871C166.805 33.0477 163.246 39.2628 158.638 44.477C154.029 49.6912 148.463 53.8024 142.256 56.5757C136.049 59.349 129.323 60.73 122.463 60.6398C115.604 60.5496 108.744 58.9899 102.276 56.0499C95.8088 53.11 89.8602 48.8473 84.7705 43.5056C79.6807 38.1639 75.5496 31.8475 72.6131 24.9179Z" fill="#F95A00"/>
</g>
<defs>
<filter id="filter0_d_134_369" x="0" y="-703" width="2353.14" height="2291.68" filterUnits="userSpaceOnUse" color-interpolation-filters="sRGB">
<feFlood flood-opacity="0" result="BackgroundImageFix"/>
<feColorMatrix in="SourceAlpha" type="matrix" values="0 0 0 0 0 0 0 0 0 0 0 0 0 0 0 0 0 0 127 0" result="hardAlpha"/>
<feOffset dy="4"/>
<feGaussianBlur stdDeviation="2"/>
<feComposite in2="hardAlpha" operator="out"/>
<feColorMatrix type="matrix" values="0 0 0 0 0.039375 0 0 0 0 0.4284 0 0 0 0 0.7875 0 0 0 1 0"/>
<feBlend mode="normal" in2="BackgroundImageFix" result="effect1_dropShadow_134_369"/>
<feBlend mode="normal" in="SourceGraphic" in2="effect1_dropShadow_134_369" result="shape"/>
</filter>
</defs>
</svg>
