<svg width="1250" height="1239" viewBox="0 0 1727 1339" fill="none" xmlns="http://www.w3.org/2000/svg">
<path d="M1726.45 86.752V0.0788574H1639.58C1639.66 1.32948 1639.77 2.57039 1639.77 3.8405C1639.77 19.6689 1633.49 34.8491 1622.29 46.0415C1611.1 57.2339 1595.92 63.5217 1580.09 63.5217C1564.26 63.5217 1549.08 57.2339 1537.89 46.0415C1526.7 34.8491 1520.41 19.6689 1520.41 3.8405C1520.41 2.57039 1520.52 1.32948 1520.6 0.0788574H1434.82C1434.89 1.32948 1435.01 2.57039 1435.01 3.8405C1435.01 19.6689 1428.72 34.8491 1417.53 46.0415C1406.33 57.2339 1391.15 63.5217 1375.32 63.5217C1359.5 63.5217 1344.32 57.2339 1333.12 46.0415C1321.93 34.8491 1315.64 19.6689 1315.64 3.8405C1315.64 2.57039 1315.76 1.32948 1315.84 0.0788574H1230.05C1230.13 1.32948 1230.24 2.57039 1230.24 3.8405C1230.24 19.6689 1223.95 34.8491 1212.76 46.0415C1201.57 57.2339 1186.39 63.5217 1170.56 63.5217C1154.73 63.5217 1139.55 57.2339 1128.36 46.0415C1117.17 34.8491 1110.88 19.6689 1110.88 3.8405C1110.88 2.57039 1110.99 1.32948 1111.07 0.0788574H1025.28C1025.36 1.32948 1025.47 2.57039 1025.47 3.8405C1025.47 19.6689 1019.18 34.8491 1007.99 46.0415C996.8 57.2339 981.62 63.5217 965.791 63.5217C949.963 63.5217 934.783 57.2339 923.59 46.0415C912.398 34.8491 906.11 19.6689 906.11 3.8405C906.11 2.57039 906.222 1.32948 906.3 0.0788574H820.515C820.593 1.32948 820.704 2.57039 820.704 3.8405C820.704 19.6689 814.417 34.8491 803.224 46.0415C792.032 57.2339 776.852 63.5217 761.023 63.5217C745.195 63.5217 730.015 57.2339 718.822 46.0415C707.63 34.8491 701.342 19.6689 701.342 3.8405C701.342 2.57039 701.454 1.32948 701.532 0.0788574H615.747C615.827 1.32948 615.939 2.57039 615.939 3.8405C615.929 19.663 609.637 34.8342 598.446 46.019C587.254 57.2038 572.079 63.4868 556.257 63.4868C540.434 63.4868 525.259 57.2038 514.067 46.019C502.876 34.8342 496.584 19.663 496.574 3.8405C496.574 2.57039 496.686 1.32948 496.764 0.0788574H410.981C411.059 1.32948 411.171 2.57039 411.171 3.8405C411.171 19.6689 404.883 34.8491 393.691 46.0415C382.498 57.2339 367.318 63.5217 351.49 63.5217C335.661 63.5217 320.481 57.2339 309.289 46.0415C298.097 34.8491 291.809 19.6689 291.809 3.8405C291.809 2.57039 291.921 1.32948 291.999 0.0788574H206.214C206.291 1.32948 206.403 2.57039 206.403 3.8405C206.403 19.6689 200.115 34.8491 188.923 46.0415C177.731 57.2339 162.551 63.5217 146.722 63.5217C130.894 63.5217 115.714 57.2339 104.521 46.0415C93.3288 34.8491 87.0409 19.6689 87.0409 3.8405C87.0409 2.57039 87.1528 1.32948 87.2307 0.0788574H0.365234V86.752C8.20252 86.752 15.9631 88.2957 23.2038 91.2949C30.4445 94.2941 37.0235 98.6901 42.5653 104.232C48.1071 109.774 52.5031 116.353 55.5023 123.593C58.5015 130.834 60.0452 138.595 60.0452 146.432C60.0452 154.269 58.5015 162.03 55.5023 169.271C52.5031 176.511 48.1071 183.09 42.5653 188.632C37.0235 194.174 30.4445 198.57 23.2038 201.569C15.9631 204.568 8.20252 206.112 0.365234 206.112V291.52C8.20555 291.515 15.97 293.055 23.2148 296.052C30.4597 299.049 37.043 303.445 42.5887 308.987C48.1343 314.529 52.5335 321.11 55.535 328.353C58.5364 335.596 60.0813 343.36 60.0813 351.2C60.0813 359.04 58.5364 366.804 55.535 374.047C52.5335 381.29 48.1343 387.87 42.5887 393.413C37.043 398.955 30.4597 403.35 23.2148 406.347C15.97 409.344 8.20555 410.885 0.365234 410.88V496.288C16.1933 496.288 31.3732 502.576 42.5653 513.768C53.7575 524.96 60.0452 540.14 60.0452 555.968C60.0452 571.796 53.7575 586.976 42.5653 598.168C31.3732 609.36 16.1933 615.648 0.365234 615.648V701.051C8.20587 701.046 15.9706 702.586 23.2158 705.584C30.4609 708.581 37.0445 712.976 42.5904 718.519C48.1362 724.061 52.5356 730.642 55.5372 737.885C58.5388 745.129 60.0837 752.893 60.0837 760.733C60.0837 768.574 58.5388 776.338 55.5372 783.581C52.5356 790.824 48.1362 797.405 42.5904 802.948C37.0445 808.49 30.4609 812.886 23.2158 815.883C15.9706 818.88 8.20587 820.42 0.365234 820.416V905.819C8.20587 905.814 15.9706 907.354 23.2158 910.351C30.4609 913.349 37.0445 917.744 42.5904 923.286C48.1362 928.829 52.5356 935.41 55.5372 942.653C58.5388 949.897 60.0837 957.66 60.0837 965.501C60.0837 973.342 58.5388 981.106 55.5372 988.349C52.5356 995.592 48.1362 1002.17 42.5904 1007.72C37.0445 1013.26 30.4609 1017.65 23.2158 1020.65C15.9706 1023.65 8.20587 1025.19 0.365234 1025.18V1110.59C8.20587 1110.58 15.9706 1112.12 23.2158 1115.12C30.4609 1118.12 37.0445 1122.51 42.5904 1128.05C48.1362 1133.6 52.5356 1140.18 55.5372 1147.42C58.5388 1154.66 60.0837 1162.43 60.0837 1170.27C60.0837 1178.11 58.5388 1185.87 55.5372 1193.12C52.5356 1200.36 48.1362 1206.94 42.5904 1212.48C37.0445 1218.03 30.4609 1222.42 23.2158 1225.42C15.9706 1228.42 8.20587 1229.96 0.365234 1229.95V1315.35C16.194 1315.35 31.3744 1321.64 42.5671 1332.84C53.7597 1344.03 60.0476 1359.21 60.0476 1375.04C60.0476 1390.87 53.7597 1406.05 42.5671 1417.24C31.3744 1428.43 16.194 1434.72 0.365234 1434.72V1520.12C8.20555 1520.12 15.97 1521.66 23.2148 1524.65C30.4597 1527.65 37.043 1532.05 42.5887 1537.59C48.1343 1543.13 52.5335 1549.71 55.535 1556.96C58.5364 1564.2 60.0813 1571.96 60.0813 1579.8C60.0813 1587.64 58.5364 1595.41 55.535 1602.65C52.5335 1609.89 48.1343 1616.47 42.5887 1622.02C37.043 1627.56 30.4597 1631.95 23.2148 1634.95C15.97 1637.95 8.20555 1639.49 0.365234 1639.48V1726.16H87.2306C88.1691 1711.02 94.8453 1696.81 105.899 1686.42C116.953 1676.03 131.552 1670.24 146.722 1670.24C161.892 1670.24 176.491 1676.03 187.545 1686.42C198.599 1696.81 205.275 1711.02 206.213 1726.16H291.999C292.937 1711.02 299.613 1696.81 310.667 1686.42C321.721 1676.03 336.32 1670.24 351.49 1670.24C366.66 1670.24 381.259 1676.03 392.313 1686.42C403.367 1696.81 410.043 1711.02 410.981 1726.16H496.764C497.702 1711.02 504.379 1696.81 515.432 1686.42C526.486 1676.03 541.085 1670.24 556.255 1670.24C571.426 1670.24 586.025 1676.03 597.078 1686.42C608.132 1696.81 614.808 1711.02 615.747 1726.16H701.532C702.47 1711.02 709.147 1696.81 720.2 1686.42C731.254 1676.03 745.853 1670.24 761.023 1670.24C776.193 1670.24 790.793 1676.03 801.846 1686.42C812.9 1696.81 819.576 1711.02 820.515 1726.16H906.3C907.238 1711.02 913.914 1696.81 924.968 1686.42C936.022 1676.03 950.621 1670.24 965.791 1670.24C980.961 1670.24 995.561 1676.03 1006.61 1686.42C1017.67 1696.81 1024.34 1711.02 1025.28 1726.16H1111.07C1112.01 1711.02 1118.68 1696.81 1129.74 1686.42C1140.79 1676.03 1155.39 1670.24 1170.56 1670.24C1185.73 1670.24 1200.33 1676.03 1211.38 1686.42C1222.43 1696.81 1229.11 1711.02 1230.05 1726.16H1315.84C1316.77 1711.02 1323.45 1696.81 1334.5 1686.42C1345.56 1676.03 1360.16 1670.24 1375.33 1670.24C1390.5 1670.24 1405.09 1676.03 1416.15 1686.42C1427.2 1696.81 1433.88 1711.02 1434.82 1726.16H1520.6C1521.54 1711.02 1528.22 1696.81 1539.27 1686.42C1550.32 1676.03 1564.92 1670.24 1580.09 1670.24C1595.26 1670.24 1609.86 1676.03 1620.92 1686.42C1631.97 1696.81 1638.65 1711.02 1639.58 1726.16H1726.45V1639.48C1710.62 1639.47 1695.45 1633.18 1684.27 1621.99C1673.09 1610.8 1666.8 1595.62 1666.8 1579.8C1666.8 1563.98 1673.09 1548.81 1684.27 1537.61C1695.45 1526.42 1710.62 1520.13 1726.45 1520.12V1434.72C1710.62 1434.72 1695.44 1428.43 1684.24 1417.24C1673.05 1406.05 1666.76 1390.87 1666.76 1375.04C1666.76 1359.21 1673.05 1344.03 1684.24 1332.84C1695.44 1321.64 1710.62 1315.35 1726.45 1315.35V1229.95C1710.62 1229.94 1695.45 1223.65 1684.27 1212.46C1673.08 1201.27 1666.8 1186.09 1666.8 1170.27C1666.8 1154.45 1673.08 1139.27 1684.27 1128.08C1695.45 1116.89 1710.62 1110.6 1726.45 1110.59V1025.18C1710.62 1025.17 1695.45 1018.88 1684.27 1007.69C1673.08 996.499 1666.8 981.324 1666.8 965.501C1666.8 949.679 1673.08 934.504 1684.27 923.312C1695.45 912.12 1710.62 905.828 1726.45 905.819V820.416C1710.62 820.406 1695.45 814.114 1684.27 802.922C1673.08 791.731 1666.8 776.556 1666.8 760.733C1666.8 744.911 1673.08 729.736 1684.27 718.544C1695.45 707.353 1710.62 701.06 1726.45 701.051V615.648C1710.62 615.648 1695.44 609.36 1684.25 598.168C1673.05 586.976 1666.77 571.796 1666.77 555.968C1666.77 540.14 1673.05 524.96 1684.25 513.768C1695.44 502.576 1710.62 496.288 1726.45 496.288V410.88C1710.62 410.88 1695.44 404.592 1684.25 393.4C1673.05 382.208 1666.77 367.028 1666.77 351.2C1666.77 335.372 1673.05 320.192 1684.25 309C1695.44 297.808 1710.62 291.52 1726.45 291.52V206.112C1710.62 206.112 1695.44 199.824 1684.25 188.632C1673.05 177.44 1666.77 162.26 1666.77 146.432C1666.77 130.604 1673.05 115.424 1684.25 104.232C1695.44 93.0397 1710.62 86.752 1726.45 86.752Z" fill="url(#paint0_linear_139_93)"/>
<defs>
<linearGradient id="paint0_linear_139_93" x1="863.406" y1="0.0788574" x2="863.406" y2="1726.16" gradientUnits="userSpaceOnUse">
<stop stop-color="#ECCD29"/>
<stop offset="0.484375" stop-color="white" stop-opacity="0"/>
</linearGradient>
</defs>
</svg>
