<svg width="100px" height="30px" viewBox="0 0 253 66" fill="none" xmlns="http://www.w3.org/2000/svg">
<path d="M62 31C62 13.875 48.125 0 31 0C13.875 0 0 13.875 0 31C0 46.4725 11.3363 59.2975 26.1562 61.625V39.9612H18.2812V31H26.1562V24.17C26.1562 16.4012 30.7813 12.11 37.865 12.11C41.2575 12.11 44.805 12.715 44.805 12.715V20.34H40.895C37.045 20.34 35.8438 22.73 35.8438 25.1812V31H44.4412L43.0662 39.9612H35.8438V61.625C50.6637 59.2975 62 46.4725 62 31Z" fill="#0A6DC9"/>
<path d="M152.702 18.3712C152.747 19.0019 152.747 19.6327 152.747 20.2634C152.747 39.5 138.106 61.6651 111.345 61.6651C103.101 61.6651 95.4423 59.2773 89 55.1328C90.1714 55.2679 91.2975 55.3129 92.514 55.3129C99.3165 55.3129 105.579 53.0154 110.579 49.096C104.182 48.9608 98.8211 44.7711 96.9739 39.0045C97.875 39.1396 98.776 39.2297 99.7222 39.2297C101.029 39.2297 102.335 39.0494 103.551 38.7342C96.8839 37.3826 91.8831 31.526 91.8831 24.4531V24.2729C93.8203 25.3542 96.073 26.0299 98.4605 26.1199C94.5411 23.5069 91.9733 19.0469 91.9733 14.0012C91.9733 11.2982 92.694 8.82039 93.9555 6.65793C101.119 15.4879 111.886 21.2543 123.959 21.8851C123.734 20.8039 123.599 19.6777 123.599 18.5514C123.599 10.5323 130.086 4 138.15 4C142.34 4 146.124 5.75698 148.782 8.59519C152.071 7.9645 155.225 6.74807 158.018 5.08123C156.936 8.46012 154.639 11.2983 151.621 13.1002C154.549 12.785 157.387 11.9739 160 10.8478C158.018 13.7309 155.54 16.2987 152.702 18.3712Z" fill="#0A6DC9"/>
<path d="M220.007 16.0749C210.643 16.0749 203.09 23.6282 203.09 32.9927C203.09 42.3571 210.643 49.9105 220.007 49.9105C229.372 49.9105 236.925 42.3571 236.925 32.9927C236.925 23.6282 229.372 16.0749 220.007 16.0749ZM220.007 43.9914C213.956 43.9914 209.009 39.0589 209.009 32.9927C209.009 26.9264 213.941 21.9939 220.007 21.9939C226.074 21.9939 231.006 26.9264 231.006 32.9927C231.006 39.0589 226.059 43.9914 220.007 43.9914ZM241.563 15.3828C241.563 17.5767 239.796 19.3288 237.617 19.3288C235.423 19.3288 233.671 17.562 233.671 15.3828C233.671 13.2037 235.438 11.4368 237.617 11.4368C239.796 11.4368 241.563 13.2037 241.563 15.3828ZM252.768 19.3877C252.518 14.1018 251.31 9.41964 247.438 5.56197C243.58 1.70429 238.898 0.496933 233.612 0.231902C228.164 -0.0773007 211.836 -0.0773007 206.388 0.231902C201.117 0.482209 196.434 1.68957 192.562 5.54724C188.69 9.40491 187.497 14.0871 187.232 19.373C186.923 24.8209 186.923 41.1497 187.232 46.5976C187.482 51.8835 188.69 56.5657 192.562 60.4233C196.434 64.281 201.102 65.4884 206.388 65.7534C211.836 66.0626 228.164 66.0626 233.612 65.7534C238.898 65.5031 243.58 64.2957 247.438 60.4233C251.296 56.5657 252.503 51.8835 252.768 46.5976C253.077 41.1497 253.077 24.8356 252.768 19.3877ZM245.73 52.443C244.582 55.3289 242.358 57.5522 239.458 58.7154C235.114 60.4381 224.807 60.0405 220.007 60.0405C215.207 60.0405 204.886 60.4233 200.557 58.7154C197.671 57.5669 195.448 55.3436 194.285 52.443C192.562 48.0994 192.96 37.7927 192.96 32.9927C192.96 28.1927 192.577 17.8712 194.285 13.5423C195.433 10.6564 197.656 8.43313 200.557 7.26994C204.901 5.54724 215.207 5.94479 220.007 5.94479C224.807 5.94479 235.129 5.56197 239.458 7.26994C242.344 8.41841 244.567 10.6417 245.73 13.5423C247.453 17.8859 247.055 28.1927 247.055 32.9927C247.055 37.7927 247.453 48.1141 245.73 52.443Z" fill="#0A6DC9"/>
</svg>
