<svg width="113" height="120" viewBox="0 0 113 120" fill="none" xmlns="http://www.w3.org/2000/svg">
<path d="M56.5 115.803C85.4947 115.803 109 90.7746 109 59.9014C109 29.0279 85.4947 4 56.5 4C27.505 4 4 29.0279 4 59.9014C4 90.7746 27.505 115.803 56.5 115.803Z" fill="#00A47C" stroke="white" stroke-width="7" stroke-linecap="round" stroke-linejoin="round"/>
<path d="M72.2494 40.3383C68.6532 36.5091 62.3201 33.8456 56.4994 33.6789L72.2494 40.3383ZM40.7494 76.6742C44.1329 81.4778 50.4241 84.2175 56.4994 84.4501L40.7494 76.6742ZM56.4994 33.6789C49.5741 33.4804 43.3744 36.8164 43.3744 45.9285C43.3744 62.6988 72.2494 54.3136 72.2494 71.084C72.2494 80.6488 64.5645 84.7586 56.4994 84.4501M56.4994 33.6789V23.5679V33.6789ZM56.4994 84.4501V96.2397V84.4501Z" fill="#00A410"/>
<path d="M72.2494 40.3383C68.6532 36.5091 62.3201 33.8456 56.4994 33.6789M56.4994 33.6789C49.5741 33.4804 43.3744 36.8164 43.3744 45.9285C43.3744 62.6988 72.2494 54.3136 72.2494 71.084C72.2494 80.6488 64.5645 84.7586 56.4994 84.4501M56.4994 33.6789V23.5679M40.7494 76.6742C44.1329 81.4778 50.4241 84.2175 56.4994 84.4501M56.4994 84.4501V96.2397" stroke="white" stroke-width="7" stroke-linecap="round" stroke-linejoin="round"/>
</svg>
