<svg width="35" height="32" viewBox="0 0 35 32" fill="none" xmlns="http://www.w3.org/2000/svg">
<path d="M29.1254 29.7448C30.4094 29.7448 31.4504 28.8131 31.4504 27.6639C31.4504 26.5147 30.4094 25.583 29.1254 25.583C27.8414 25.583 26.8004 26.5147 26.8004 27.6639C26.8004 28.8131 27.8414 29.7448 29.1254 29.7448Z" stroke="#014482" stroke-width="2" stroke-linecap="round" stroke-linejoin="round"/>
<path d="M13.6254 29.7448C14.9094 29.7448 15.9504 28.8131 15.9504 27.6639C15.9504 26.5147 14.9094 25.583 13.6254 25.583C12.3413 25.583 11.3004 26.5147 11.3004 27.6639C11.3004 28.8131 12.3413 29.7448 13.6254 29.7448Z" stroke="#014482" stroke-width="2" stroke-linecap="round" stroke-linejoin="round"/>
<path d="M6.65 4.77451H33L29.9 20.0343H9.75L6.65 4.77451ZM6.65 4.77451C6.39166 3.84967 5.1 2 2 2" stroke="#014482" stroke-width="2" stroke-linecap="round" stroke-linejoin="round"/>
<path d="M29.8996 20.0345H9.7496H7.00729C4.24161 20.0345 2.7746 21.1182 2.7746 22.809C2.7746 24.4998 4.24161 25.5835 7.00729 25.5835H29.1246" stroke="#014482" stroke-width="2" stroke-linecap="round" stroke-linejoin="round"/>
</svg>
