<svg width="27" height="27" viewBox="0 0 22 22" fill="none" xmlns="http://www.w3.org/2000/svg">
<path d="M11 21C16.5228 21 21 16.5228 21 11C21 5.47715 16.5228 1 11 1C5.47715 1 1 5.47715 1 11C1 16.5228 5.47715 21 11 21Z" stroke="#3695ED" stroke-width="2" stroke-linecap="round" stroke-linejoin="round"/>
<path d="M14.0001 7.5C13.3151 6.81501 12.1088 6.33855 11.0001 6.30872M11.0001 6.30872C9.68096 6.27322 8.50006 6.86998 8.50006 8.50001C8.50006 11.5 14.0001 10 14.0001 13C14.0001 14.711 12.5363 15.4462 11.0001 15.391M11.0001 6.30872V4.5M8.00006 14C8.64454 14.8593 9.84286 15.3494 11.0001 15.391M11.0001 15.391V17.5" stroke="#3695ED" stroke-width="2" stroke-linecap="round" stroke-linejoin="round"/>
</svg>
