<svg width="28" height="37" viewBox="0 0 28 37" fill="none" xmlns="http://www.w3.org/2000/svg">
<path d="M2.41365 1.90649H25.0322C25.8129 1.90649 26.4458 2.74629 26.4458 3.78229L26.4461 6.75736C26.4462 7.25504 26.2972 7.73232 26.032 8.08421L16.9642 20.1174C16.6991 20.4692 16.5501 20.9465 16.5501 21.444V33.2725C16.5501 34.493 15.6858 35.3886 14.7937 35.0926L11.9664 34.1546C11.337 33.9458 10.8955 33.1953 10.8955 32.3344V21.444C10.8955 20.9465 10.7466 20.4692 10.4815 20.1174L1.41404 8.0841C1.14893 7.73229 1 7.2551 1 6.75755V3.78254C1 2.74644 1.6329 1.90649 2.41365 1.90649Z" fill="#014482" stroke="#014482" stroke-width="2" stroke-linecap="round" stroke-linejoin="round"/>
</svg>
