<svg width="23" height="23" viewBox="0 0 23 29" fill="none" xmlns="http://www.w3.org/2000/svg">
<path d="M17.7266 13.278C18.3698 20.2362 20.8947 22.339 20.8947 22.339H1C1 22.339 4.31579 19.5776 4.31579 9.91245C4.31579 7.71528 5.01447 5.60812 6.25814 4.0545C7.5018 2.50086 9.18856 1.62805 10.9474 1.62805C11.3202 1.62805 11.6898 1.66727 12.0526 1.74389" stroke="#014482" stroke-width="2" stroke-linecap="round" stroke-linejoin="round"/>
<path d="M18.6843 9.39466C20.5156 9.39466 22.0001 7.65604 22.0001 5.51136C22.0001 3.36667 20.5156 1.62805 18.6843 1.62805C16.853 1.62805 15.3685 3.36667 15.3685 5.51136C15.3685 7.65604 16.853 9.39466 18.6843 9.39466Z" stroke="#014482" stroke-width="2" stroke-linecap="round" stroke-linejoin="round"/>
<path d="M12.8595 26.2223C12.6652 26.6147 12.3864 26.9403 12.0507 27.1666C11.7152 27.393 11.3347 27.5122 10.9474 27.5122C10.5602 27.5122 10.1797 27.393 9.84417 27.1666C9.50861 26.9403 9.22964 26.6147 9.03534 26.2223" stroke="#014482" stroke-width="2" stroke-linecap="round" stroke-linejoin="round"/>
</svg>
