<svg width="149" height="158" viewBox="0 0 149 158" fill="none" xmlns="http://www.w3.org/2000/svg">
<path d="M71.2665 6.59367C72.9138 4.46878 76.0863 4.46878 77.7335 6.59367L90.1328 22.594C91.1638 23.9238 92.8837 24.4908 94.4878 24.0296L113.789 18.4794C116.352 17.7424 118.92 19.6346 119.02 22.3357L119.782 42.6747C119.846 44.3651 120.908 45.8495 122.474 46.4331L141.304 53.4531C143.804 54.3854 144.785 57.4471 143.302 59.6927L132.135 76.6014C131.207 78.0069 131.207 79.8416 132.135 81.2472L143.302 98.1557C144.785 100.401 143.804 103.463 141.304 104.396L122.474 111.416C120.908 111.999 119.846 113.483 119.782 115.174L119.02 135.513C118.92 138.214 116.352 140.106 113.789 139.369L94.4878 133.819C92.8837 133.357 91.1638 133.925 90.1328 135.255L77.7335 151.255C76.0863 153.38 72.9138 153.38 71.2665 151.255L58.8672 135.255C57.8366 133.925 56.1166 133.357 54.5124 133.819L35.2112 139.369C32.6479 140.106 30.0808 138.214 29.9797 135.513L29.2179 115.174C29.1546 113.483 28.0916 111.999 26.5265 111.416L7.69607 104.396C5.19531 103.463 4.21477 100.401 5.69785 98.1557L16.8649 81.2472C17.793 79.8416 17.793 78.0069 16.8649 76.6014L5.69785 59.6927C4.21477 57.4471 5.19531 54.3854 7.69607 53.4531L26.5265 46.4331C28.0916 45.8495 29.1546 44.3651 29.2179 42.6747L29.9797 22.3357C30.0808 19.6346 32.6479 17.7424 35.2112 18.4794L54.5124 24.0296C56.1166 24.4908 57.8366 23.9238 58.8672 22.594L71.2665 6.59367Z" fill="#00A47C" stroke="#FBFBFB" stroke-width="9"/>
<path d="M53.9348 78.9225L67.6447 92.8321L95.0646 65.0129" fill="#0A6DC9"/>
<path d="M53.9348 78.9225L67.6447 92.8321L95.0646 65.0129" stroke="#FBFBFB" stroke-width="9" stroke-linecap="round" stroke-linejoin="round"/>
</svg>
