<svg width="29" height="26" viewBox="0 0 29 26" fill="none" xmlns="http://www.w3.org/2000/svg">
<path d="M1.03571 4.66071H27.9643C28.5363 4.66071 29 4.19704 29 3.625V1.03571C29 0.463676 28.5363 0 27.9643 0H1.03571C0.463676 0 0 0.463676 0 1.03571V3.625C0 4.19704 0.463676 4.66071 1.03571 4.66071ZM1.03571 15.0179H27.9643C28.5363 15.0179 29 14.5542 29 13.9821V11.3929C29 10.8208 28.5363 10.3571 27.9643 10.3571H1.03571C0.463676 10.3571 0 10.8208 0 11.3929V13.9821C0 14.5542 0.463676 15.0179 1.03571 15.0179ZM1.03571 25.375H27.9643C28.5363 25.375 29 24.9113 29 24.3393V21.75C29 21.178 28.5363 20.7143 27.9643 20.7143H1.03571C0.463676 20.7143 0 21.178 0 21.75V24.3393C0 24.9113 0.463676 25.375 1.03571 25.375Z" fill="#0A6DC9"/>
</svg>
