<svg width="166" height="87" viewBox="0 0 366 187" fill="none" xmlns="http://www.w3.org/2000/svg">
<mask id="path-1-outside-1_178_237" maskUnits="userSpaceOnUse" x="0.359375" y="92.1875" width="366" height="95" fill="black">
<rect fill="white" x="0.359375" y="92.1875" width="366" height="95"/>
<path d="M1.40625 144.562C1.40625 144.531 1.39062 144.5 1.35938 144.469C1.35938 144.438 1.35938 144.406 1.35938 144.375C1.35938 143.844 1.64062 143.578 2.20312 143.578C2.48438 143.578 2.79688 143.719 3.14062 144C4.82812 145.594 6.70312 146.859 8.76562 147.797C10.8281 148.734 13.0781 149.203 15.5156 149.203C16.1719 149.203 16.9219 149.141 17.7656 149.016C18.6094 148.859 19.4062 148.625 20.1562 148.312C20.9062 147.969 21.5312 147.531 22.0312 147C22.5625 146.469 22.8281 145.797 22.8281 144.984C22.8281 144.078 22.6094 143.266 22.1719 142.547C21.7344 141.828 21.1562 141.219 20.4375 140.719C20.1562 140.531 19.7344 140.219 19.1719 139.781C18.6094 139.344 17.9688 138.844 17.25 138.281C16.5312 137.719 15.7812 137.125 15 136.5C14.2188 135.844 13.4688 135.234 12.75 134.672C12.0625 134.078 11.4375 133.547 10.875 133.078C10.3125 132.609 9.89062 132.25 9.60938 132C7.76562 130.625 6.29688 129.234 5.20312 127.828C4.14062 126.422 3.32812 124.953 2.76562 123.422C2.20312 121.891 1.84375 120.312 1.6875 118.688C1.53125 117.031 1.45312 115.281 1.45312 113.438C1.45312 110.688 2.10938 108.078 3.42188 105.609C4.73438 103.141 6.57812 101 8.95312 99.1875C11.3594 97.3438 14.2344 95.8906 17.5781 94.8281C20.9219 93.7344 24.6406 93.1875 28.7344 93.1875C29.2344 93.1875 29.9844 93.25 30.9844 93.375C31.9844 93.4688 33.0781 93.6406 34.2656 93.8906C35.4844 94.1406 36.7188 94.4844 37.9688 94.9219C39.2188 95.3594 40.3594 95.9219 41.3906 96.6094C41.7344 96.8594 42 97.1094 42.1875 97.3594C42.4062 97.6094 42.5469 98 42.6094 98.5312C42.7656 101.062 42.8906 103.562 42.9844 106.031C43.0781 108.469 43.2031 111.062 43.3594 113.812C43.3594 114.344 43.25 114.703 43.0312 114.891C42.8125 115.047 42.5312 115.125 42.1875 115.125C41.8438 115.125 41.5781 115.031 41.3906 114.844C40.4844 113.938 39.5469 113.047 38.5781 112.172C37.6094 111.297 36.5938 110.531 35.5312 109.875C34.4688 109.188 33.3281 108.641 32.1094 108.234C30.9219 107.828 29.625 107.625 28.2188 107.625C27.375 107.625 26.5312 107.703 25.6875 107.859C24.8438 107.984 24.0781 108.234 23.3906 108.609C22.7031 108.984 22.1406 109.5 21.7031 110.156C21.2969 110.812 21.0938 111.641 21.0938 112.641C21.0938 113.703 21.2188 114.625 21.4688 115.406C21.75 116.188 22.4219 116.922 23.4844 117.609L34.7344 125.25C36.7969 126.719 38.4688 128.188 39.75 129.656C41.0312 131.094 42.0312 132.531 42.75 133.969C43.4688 135.406 43.9531 136.828 44.2031 138.234C44.4844 139.609 44.625 140.969 44.625 142.312C44.625 144.5 44.2656 146.562 43.5469 148.5C42.8281 150.438 41.8438 152.234 40.5938 153.891C39.3438 155.516 37.875 156.984 36.1875 158.297C34.5312 159.578 32.75 160.688 30.8438 161.625C28.9375 162.531 26.9531 163.219 24.8906 163.688C22.8594 164.188 20.8594 164.438 18.8906 164.438C17.3594 164.438 15.8438 164.406 14.3438 164.344C12.875 164.312 11.4375 164.188 10.0312 163.969C8.625 163.781 7.26562 163.469 5.95312 163.031C4.64062 162.625 3.39062 162.047 2.20312 161.297L1.40625 144.562Z"/>
<path d="M66.9206 125.859C66.4831 129.141 66.0612 132.422 65.655 135.703C65.28 138.953 65.0456 142 64.9519 144.844C64.9519 146.062 65.0456 147.078 65.2331 147.891C65.4206 148.703 65.6862 149.344 66.03 149.812C66.405 150.281 66.8425 150.625 67.3425 150.844C67.8425 151.031 68.405 151.125 69.03 151.125C70.03 151.125 71.1237 150.984 72.3112 150.703C73.4987 150.391 74.6862 150 75.8737 149.531C76.2487 149.375 76.5612 149.266 76.8112 149.203C77.0925 149.109 77.3269 149.062 77.5144 149.062C77.8269 149.062 78.03 149.203 78.1237 149.484C78.2487 149.766 78.3581 150.266 78.4519 150.984C78.5769 151.672 78.7487 152.609 78.9675 153.797C79.1862 154.984 79.5456 156.484 80.0456 158.297C80.0769 158.453 80.0925 158.594 80.0925 158.719C80.1237 158.812 80.1394 158.906 80.1394 159C80.1394 159.438 79.9675 159.75 79.6237 159.938C79.3112 160.125 78.78 160.344 78.03 160.594C76.7487 161.031 75.3894 161.484 73.9519 161.953C72.5456 162.391 71.1394 162.797 69.7331 163.172C68.3581 163.547 67.03 163.844 65.7487 164.062C64.4675 164.312 63.3425 164.438 62.3737 164.438C57.155 164.438 53.3425 163.141 50.9362 160.547C48.5612 157.953 47.3737 154 47.3737 148.688C47.3737 147.781 47.405 146.859 47.4675 145.922C47.53 144.953 47.6081 143.953 47.7019 142.922C48.0144 139.797 48.28 136.844 48.4987 134.062C48.7487 131.25 48.9987 128.562 49.2487 126H44.3269C42.6394 126 41.4206 125.938 40.6706 125.812C39.9206 125.656 39.5456 125.359 39.5456 124.922C39.5456 124.797 39.7019 124.469 40.0144 123.938C40.3269 123.375 40.7175 122.719 41.1862 121.969C41.6862 121.188 42.2175 120.359 42.78 119.484C43.3425 118.609 43.8737 117.797 44.3737 117.047C44.905 116.266 45.3581 115.594 45.7331 115.031C46.1081 114.469 46.3425 114.125 46.4362 114H49.7644C50.0456 111.625 50.2644 109.641 50.4206 108.047C50.6081 106.422 50.7487 105.078 50.8425 104.016C50.9675 102.953 51.0769 102.141 51.1706 101.578C51.2644 100.984 51.3581 100.547 51.4519 100.266C51.5769 99.9844 51.7175 99.8125 51.8737 99.75C52.0612 99.6562 52.2956 99.5781 52.5769 99.5156C53.9831 99.2344 55.3425 98.9844 56.655 98.7656C57.9675 98.5156 59.28 98.2656 60.5925 98.0156C61.905 97.7656 63.2331 97.4844 64.5769 97.1719C65.9519 96.8281 67.3737 96.4375 68.8425 96C68.9362 96 68.9987 96 69.03 96C69.0612 95.9688 69.1237 95.9531 69.2175 95.9531C69.5925 95.9531 69.78 96.0781 69.78 96.3281V96.4219C69.6237 98.1406 69.3737 100.531 69.03 103.594C68.7175 106.656 68.3581 110.125 67.9519 114H80.5144C80.7644 114 80.9987 114.094 81.2175 114.281C81.4675 114.438 81.5925 114.719 81.5925 115.125C81.5925 115.281 81.405 115.844 81.03 116.812C80.655 117.781 80.1237 119.047 79.4362 120.609L77.7487 124.406C77.53 124.875 77.2956 125.219 77.0456 125.438C76.8269 125.656 76.3581 125.797 75.6394 125.859H66.9206Z"/>
<path d="M126.107 152.578C126.076 152.703 126.06 152.828 126.06 152.953C126.06 153.047 126.06 153.141 126.06 153.234C126.06 154.016 126.185 154.672 126.435 155.203C126.685 155.703 126.951 156.125 127.232 156.469C127.544 156.781 127.826 157.047 128.076 157.266C128.326 157.453 128.451 157.625 128.451 157.781C128.451 158.219 127.982 158.625 127.044 159L114.435 164.391C114.404 164.422 114.294 164.438 114.107 164.438C113.857 164.438 113.607 164.219 113.357 163.781C113.107 163.344 112.857 162.781 112.607 162.094C112.388 161.438 112.169 160.734 111.951 159.984C111.763 159.203 111.591 158.484 111.435 157.828C109.466 160.109 107.341 161.781 105.06 162.844C102.779 163.906 100.513 164.438 98.2631 164.438C95.6381 164.438 93.0756 163.859 90.5756 162.703C88.0756 161.547 85.8569 159.906 83.9194 157.781C81.9819 155.625 80.4194 153.031 79.2319 150C78.0756 146.969 77.4975 143.562 77.4975 139.781C77.4975 135.312 78.1381 131.234 79.4194 127.547C80.7319 123.859 82.4975 120.688 84.7162 118.031C86.935 115.375 89.5131 113.328 92.4506 111.891C95.4194 110.422 98.56 109.688 101.872 109.688C104.216 109.688 106.435 110.172 108.529 111.141C110.622 112.078 112.607 113.297 114.482 114.797C114.669 113.859 114.779 113.109 114.81 112.547C114.841 111.984 114.904 111.547 114.997 111.234C115.122 110.922 115.341 110.719 115.654 110.625C115.966 110.5 116.482 110.406 117.201 110.344C119.451 110.031 121.685 109.75 123.904 109.5C126.154 109.219 128.497 109.016 130.935 108.891L126.107 152.578ZM112.091 134.906C112.404 133.125 112.607 131.453 112.701 129.891C112.826 128.297 112.919 126.844 112.982 125.531C112.482 125.156 111.935 124.766 111.341 124.359C110.779 123.953 110.154 123.578 109.466 123.234C108.81 122.859 108.107 122.562 107.357 122.344C106.638 122.125 105.872 122.016 105.06 122.016C103.372 122.016 101.951 122.562 100.794 123.656C99.6694 124.75 98.7475 126.094 98.0287 127.688C97.3412 129.281 96.8412 130.969 96.5287 132.75C96.2475 134.531 96.1069 136.109 96.1069 137.484C96.1069 142.422 96.7475 146.047 98.0287 148.359C99.3412 150.641 101.154 151.781 103.466 151.781C104.404 151.781 105.451 151.516 106.607 150.984C107.763 150.453 108.935 149.719 110.122 148.781L112.091 134.906Z"/>
<path d="M198.231 163.688C197.887 163.781 197.434 163.922 196.871 164.109C196.309 164.328 195.762 164.438 195.231 164.438C194.793 164.438 194.402 164.328 194.059 164.109C193.746 163.891 193.59 163.516 193.59 162.984V162.703C193.809 160.422 193.996 158.578 194.152 157.172C194.309 155.734 194.434 154.578 194.527 153.703C194.621 152.828 194.699 152.172 194.762 151.734C194.824 151.266 194.887 150.844 194.949 150.469C195.012 150.062 195.059 149.625 195.09 149.156C195.152 148.688 195.231 148.031 195.324 147.188C195.418 146.312 195.527 145.172 195.652 143.766C195.809 142.328 195.996 140.453 196.215 138.141C196.34 136.891 196.465 135.656 196.59 134.438C196.746 133.188 196.824 132.047 196.824 131.016C196.824 129.703 196.746 128.516 196.59 127.453C196.465 126.359 196.215 125.438 195.84 124.688C195.496 123.906 195.012 123.297 194.387 122.859C193.762 122.422 192.965 122.203 191.996 122.203C191.402 122.203 190.621 122.328 189.652 122.578C188.715 122.828 187.762 123.281 186.793 123.938C185.824 124.562 184.949 125.406 184.168 126.469C183.387 127.5 182.887 128.812 182.668 130.406V130.594C182.293 134.156 181.949 137.25 181.637 139.875C181.356 142.469 181.106 144.703 180.887 146.578C180.668 148.453 180.481 150.016 180.324 151.266C180.199 152.516 180.09 153.578 179.996 154.453C179.902 155.297 179.824 156 179.762 156.562C179.731 157.125 179.715 157.656 179.715 158.156C179.715 158.406 179.715 158.625 179.715 158.812C179.746 158.969 179.762 159.109 179.762 159.234C179.762 159.484 179.637 159.703 179.387 159.891C179.168 160.047 178.652 160.25 177.84 160.5L166.824 163.688C166.481 163.781 166.027 163.922 165.465 164.109C164.902 164.328 164.356 164.438 163.824 164.438C163.387 164.438 162.996 164.328 162.652 164.109C162.34 163.891 162.184 163.516 162.184 162.984V162.703C162.402 160.422 162.574 158.578 162.699 157.172C162.856 155.734 162.981 154.578 163.074 153.703C163.199 152.828 163.293 152.172 163.356 151.734C163.418 151.266 163.465 150.844 163.496 150.469C163.559 150.062 163.621 149.625 163.684 149.156C163.746 148.688 163.809 148.031 163.871 147.188C163.965 146.312 164.074 145.172 164.199 143.766C164.356 142.328 164.543 140.453 164.762 138.141C164.887 136.891 165.012 135.656 165.137 134.438C165.293 133.188 165.371 132.047 165.371 131.016C165.371 129.703 165.309 128.516 165.184 127.453C165.059 126.359 164.824 125.438 164.481 124.688C164.168 123.906 163.731 123.297 163.168 122.859C162.606 122.422 161.887 122.203 161.012 122.203C160.387 122.203 159.527 122.359 158.434 122.672C157.371 122.984 156.293 123.5 155.199 124.219C154.137 124.938 153.184 125.891 152.34 127.078C151.527 128.234 151.059 129.672 150.934 131.391C150.684 133.703 150.481 135.609 150.324 137.109C150.168 138.578 150.043 139.797 149.949 140.766C149.856 141.703 149.777 142.469 149.715 143.062C149.684 143.625 149.652 144.156 149.621 144.656C149.59 144.781 149.543 145.141 149.481 145.734C149.418 146.297 149.34 146.984 149.246 147.797C149.184 148.578 149.106 149.438 149.012 150.375C148.949 151.281 148.887 152.141 148.824 152.953C148.762 153.734 148.699 154.422 148.637 155.016C148.606 155.578 148.59 155.922 148.59 156.047V156.891C148.59 157.203 148.574 157.469 148.543 157.688C148.512 157.906 148.418 158.109 148.262 158.297C148.106 158.484 147.871 158.656 147.559 158.812C147.277 158.969 146.871 159.141 146.34 159.328L134.059 163.688C133.715 163.812 133.262 163.969 132.699 164.156C132.137 164.344 131.59 164.438 131.059 164.438C130.621 164.438 130.231 164.328 129.887 164.109C129.574 163.891 129.418 163.516 129.418 162.984L133.637 115.172C133.731 114.141 133.84 113.438 133.965 113.062C134.121 112.656 134.481 112.391 135.043 112.266C137.887 111.703 140.793 111.141 143.762 110.578C146.731 109.984 149.637 109.234 152.481 108.328C152.731 108.328 152.871 108.375 152.902 108.469C152.965 108.531 152.996 108.641 152.996 108.797L152.387 115.641C153.543 115.047 154.84 114.406 156.277 113.719C157.715 113 159.215 112.344 160.777 111.75C162.371 111.156 163.981 110.672 165.606 110.297C167.262 109.891 168.871 109.688 170.434 109.688C172.59 109.688 174.574 110.188 176.387 111.188C178.231 112.156 179.746 113.781 180.934 116.062C182.34 115.156 183.824 114.312 185.387 113.531C186.981 112.75 188.59 112.078 190.215 111.516C191.871 110.953 193.527 110.516 195.184 110.203C196.84 109.891 198.449 109.734 200.012 109.734C201.981 109.734 203.84 110.016 205.59 110.578C207.34 111.141 208.856 112.062 210.137 113.344C211.449 114.625 212.481 116.297 213.231 118.359C213.981 120.391 214.356 122.875 214.356 125.812C214.356 126.562 214.34 127.344 214.309 128.156C214.277 128.938 214.215 129.75 214.121 130.594L211.965 150.656C211.809 151.969 211.715 153.188 211.684 154.312C211.652 155.406 211.637 156.688 211.637 158.156C211.637 158.406 211.637 158.625 211.637 158.812C211.668 158.969 211.684 159.109 211.684 159.234C211.684 159.516 211.559 159.734 211.309 159.891C211.09 160.047 210.574 160.25 209.762 160.5L198.231 163.688Z"/>
<path d="M235.667 129.281C235.479 132.281 235.307 134.719 235.151 136.594C235.026 138.469 234.917 140 234.823 141.188C234.729 142.344 234.651 143.266 234.589 143.953C234.526 144.609 234.479 145.234 234.448 145.828C235.167 147.703 236.229 149.234 237.636 150.422C239.042 151.578 240.729 152.156 242.698 152.156C244.417 152.156 245.917 151.625 247.198 150.562C248.511 149.469 249.589 148.062 250.432 146.344C251.307 144.625 251.964 142.703 252.401 140.578C252.839 138.453 253.057 136.344 253.057 134.25C253.057 132.531 252.901 130.938 252.589 129.469C252.307 128 251.87 126.734 251.276 125.672C250.682 124.578 249.932 123.734 249.026 123.141C248.151 122.516 247.104 122.203 245.886 122.203C244.886 122.203 243.886 122.406 242.886 122.812C241.917 123.188 240.979 123.688 240.073 124.312C239.167 124.906 238.339 125.594 237.589 126.375C236.87 127.125 236.276 127.859 235.807 128.578L235.667 129.281ZM236.604 115.547C239.229 113.766 241.979 112.344 244.854 111.281C247.729 110.219 250.729 109.688 253.854 109.688C256.792 109.688 259.323 110.297 261.448 111.516C263.604 112.703 265.386 114.328 266.792 116.391C268.198 118.422 269.229 120.766 269.886 123.422C270.573 126.078 270.917 128.859 270.917 131.766C270.917 134.297 270.667 136.859 270.167 139.453C269.667 142.047 268.932 144.562 267.964 147C266.995 149.406 265.792 151.672 264.354 153.797C262.917 155.922 261.261 157.781 259.386 159.375C257.542 160.938 255.479 162.172 253.198 163.078C250.917 163.984 248.448 164.438 245.792 164.438C243.448 164.438 241.198 163.969 239.042 163.031C236.917 162.094 234.917 160.875 233.042 159.375C233.042 159.531 232.995 160.109 232.901 161.109C232.839 162.078 232.745 163.266 232.62 164.672C232.495 166.078 232.354 167.578 232.198 169.172C232.042 170.797 231.901 172.312 231.776 173.719C231.651 175.125 231.542 176.312 231.448 177.281C231.386 178.281 231.354 178.859 231.354 179.016C231.354 179.266 231.354 179.469 231.354 179.625C231.386 179.812 231.401 179.984 231.401 180.141C231.401 180.391 231.276 180.594 231.026 180.75C230.807 180.938 230.292 181.141 229.479 181.359L217.151 184.5C216.807 184.594 216.354 184.734 215.792 184.922C215.229 185.141 214.682 185.25 214.151 185.25C213.714 185.25 213.323 185.141 212.979 184.922C212.667 184.703 212.511 184.297 212.511 183.703L218.229 115.078C218.323 114.047 218.432 113.344 218.557 112.969C218.714 112.562 219.073 112.297 219.636 112.172C222.479 111.609 225.401 111.047 228.401 110.484C231.401 109.891 234.323 109.141 237.167 108.234C237.417 108.234 237.557 108.281 237.589 108.375C237.651 108.438 237.682 108.547 237.682 108.703C237.682 108.766 237.667 108.859 237.636 108.984C237.636 109.109 237.589 109.391 237.495 109.828C237.432 110.266 237.323 110.938 237.167 111.844C237.042 112.719 236.854 113.953 236.604 115.547Z"/>
<path d="M298.087 109.688C301.056 109.688 303.744 110.25 306.15 111.375C308.587 112.469 310.666 113.906 312.384 115.688C314.134 117.438 315.478 119.406 316.416 121.594C317.353 123.781 317.822 125.969 317.822 128.156C317.822 130.094 317.228 132.047 316.041 134.016C314.853 135.953 313.181 137.703 311.025 139.266C308.9 140.828 306.337 142.094 303.337 143.062C300.337 144.031 297.041 144.516 293.447 144.516C291.572 144.516 289.603 144.328 287.541 143.953C287.666 145.297 288.056 146.453 288.712 147.422C289.369 148.391 290.197 149.188 291.197 149.812C292.197 150.438 293.322 150.906 294.572 151.219C295.853 151.5 297.166 151.641 298.509 151.641C300.009 151.641 301.447 151.516 302.822 151.266C304.228 150.984 305.572 150.625 306.853 150.188C308.134 149.75 309.369 149.266 310.556 148.734C311.744 148.203 312.869 147.672 313.931 147.141C314.212 147.078 314.447 147.031 314.634 147C314.853 146.938 315.056 146.906 315.244 146.906C315.244 146.906 315.228 147.156 315.197 147.656C315.197 148.156 315.197 148.859 315.197 149.766C315.197 150.672 315.181 151.766 315.15 153.047C315.15 154.328 315.134 155.75 315.103 157.312C315.197 157.469 315.259 157.625 315.291 157.781C315.322 157.938 315.337 158.062 315.337 158.156C315.337 158.531 314.994 158.938 314.306 159.375C313.619 159.812 312.712 160.266 311.587 160.734C310.494 161.203 309.228 161.656 307.791 162.094C306.384 162.531 304.947 162.922 303.478 163.266C302.009 163.641 300.587 163.922 299.212 164.109C297.837 164.328 296.634 164.438 295.603 164.438C292.228 164.438 288.947 163.844 285.759 162.656C282.603 161.5 279.791 159.828 277.322 157.641C274.884 155.453 272.931 152.797 271.462 149.672C269.994 146.547 269.259 143.031 269.259 139.125C269.259 135.031 269.962 131.203 271.369 127.641C272.775 124.047 274.744 120.922 277.275 118.266C279.837 115.609 282.884 113.516 286.416 111.984C289.947 110.453 293.837 109.688 298.087 109.688ZM297.525 122.156C296.244 122.156 295.056 122.438 293.962 123C292.9 123.531 291.916 124.312 291.009 125.344C290.134 126.344 289.369 127.562 288.712 129C288.056 130.406 287.525 131.969 287.119 133.688C290.337 133.125 293.009 132.531 295.134 131.906C297.259 131.281 298.962 130.656 300.244 130.031C301.525 129.375 302.431 128.734 302.962 128.109C303.494 127.453 303.759 126.828 303.759 126.234C303.759 125.672 303.541 125.141 303.103 124.641C302.697 124.141 302.181 123.703 301.556 123.328C300.931 122.953 300.244 122.672 299.494 122.484C298.775 122.266 298.119 122.156 297.525 122.156Z"/>
<path d="M344.899 109.688C347.867 109.688 350.555 110.25 352.961 111.375C355.399 112.469 357.477 113.906 359.196 115.688C360.946 117.438 362.289 119.406 363.227 121.594C364.164 123.781 364.633 125.969 364.633 128.156C364.633 130.094 364.039 132.047 362.852 134.016C361.664 135.953 359.992 137.703 357.836 139.266C355.711 140.828 353.149 142.094 350.149 143.062C347.149 144.031 343.852 144.516 340.258 144.516C338.383 144.516 336.414 144.328 334.352 143.953C334.477 145.297 334.867 146.453 335.524 147.422C336.18 148.391 337.008 149.188 338.008 149.812C339.008 150.438 340.133 150.906 341.383 151.219C342.664 151.5 343.977 151.641 345.321 151.641C346.821 151.641 348.258 151.516 349.633 151.266C351.039 150.984 352.383 150.625 353.664 150.188C354.946 149.75 356.18 149.266 357.367 148.734C358.555 148.203 359.68 147.672 360.742 147.141C361.024 147.078 361.258 147.031 361.446 147C361.664 146.938 361.867 146.906 362.055 146.906C362.055 146.906 362.039 147.156 362.008 147.656C362.008 148.156 362.008 148.859 362.008 149.766C362.008 150.672 361.992 151.766 361.961 153.047C361.961 154.328 361.946 155.75 361.914 157.312C362.008 157.469 362.071 157.625 362.102 157.781C362.133 157.938 362.149 158.062 362.149 158.156C362.149 158.531 361.805 158.938 361.117 159.375C360.43 159.812 359.524 160.266 358.399 160.734C357.305 161.203 356.039 161.656 354.602 162.094C353.196 162.531 351.758 162.922 350.289 163.266C348.821 163.641 347.399 163.922 346.024 164.109C344.649 164.328 343.446 164.438 342.414 164.438C339.039 164.438 335.758 163.844 332.571 162.656C329.414 161.5 326.602 159.828 324.133 157.641C321.696 155.453 319.742 152.797 318.274 149.672C316.805 146.547 316.071 143.031 316.071 139.125C316.071 135.031 316.774 131.203 318.18 127.641C319.586 124.047 321.555 120.922 324.086 118.266C326.649 115.609 329.696 113.516 333.227 111.984C336.758 110.453 340.649 109.688 344.899 109.688ZM344.336 122.156C343.055 122.156 341.867 122.438 340.774 123C339.711 123.531 338.727 124.312 337.821 125.344C336.946 126.344 336.18 127.562 335.524 129C334.867 130.406 334.336 131.969 333.93 133.688C337.149 133.125 339.821 132.531 341.946 131.906C344.071 131.281 345.774 130.656 347.055 130.031C348.336 129.375 349.242 128.734 349.774 128.109C350.305 127.453 350.571 126.828 350.571 126.234C350.571 125.672 350.352 125.141 349.914 124.641C349.508 124.141 348.992 123.703 348.367 123.328C347.742 122.953 347.055 122.672 346.305 122.484C345.586 122.266 344.93 122.156 344.336 122.156Z"/>
</mask>
<path d="M1.40625 144.562C1.40625 144.531 1.39062 144.5 1.35938 144.469C1.35938 144.438 1.35938 144.406 1.35938 144.375C1.35938 143.844 1.64062 143.578 2.20312 143.578C2.48438 143.578 2.79688 143.719 3.14062 144C4.82812 145.594 6.70312 146.859 8.76562 147.797C10.8281 148.734 13.0781 149.203 15.5156 149.203C16.1719 149.203 16.9219 149.141 17.7656 149.016C18.6094 148.859 19.4062 148.625 20.1562 148.312C20.9062 147.969 21.5312 147.531 22.0312 147C22.5625 146.469 22.8281 145.797 22.8281 144.984C22.8281 144.078 22.6094 143.266 22.1719 142.547C21.7344 141.828 21.1562 141.219 20.4375 140.719C20.1562 140.531 19.7344 140.219 19.1719 139.781C18.6094 139.344 17.9688 138.844 17.25 138.281C16.5312 137.719 15.7812 137.125 15 136.5C14.2188 135.844 13.4688 135.234 12.75 134.672C12.0625 134.078 11.4375 133.547 10.875 133.078C10.3125 132.609 9.89062 132.25 9.60938 132C7.76562 130.625 6.29688 129.234 5.20312 127.828C4.14062 126.422 3.32812 124.953 2.76562 123.422C2.20312 121.891 1.84375 120.312 1.6875 118.688C1.53125 117.031 1.45312 115.281 1.45312 113.438C1.45312 110.688 2.10938 108.078 3.42188 105.609C4.73438 103.141 6.57812 101 8.95312 99.1875C11.3594 97.3438 14.2344 95.8906 17.5781 94.8281C20.9219 93.7344 24.6406 93.1875 28.7344 93.1875C29.2344 93.1875 29.9844 93.25 30.9844 93.375C31.9844 93.4688 33.0781 93.6406 34.2656 93.8906C35.4844 94.1406 36.7188 94.4844 37.9688 94.9219C39.2188 95.3594 40.3594 95.9219 41.3906 96.6094C41.7344 96.8594 42 97.1094 42.1875 97.3594C42.4062 97.6094 42.5469 98 42.6094 98.5312C42.7656 101.062 42.8906 103.562 42.9844 106.031C43.0781 108.469 43.2031 111.062 43.3594 113.812C43.3594 114.344 43.25 114.703 43.0312 114.891C42.8125 115.047 42.5312 115.125 42.1875 115.125C41.8438 115.125 41.5781 115.031 41.3906 114.844C40.4844 113.938 39.5469 113.047 38.5781 112.172C37.6094 111.297 36.5938 110.531 35.5312 109.875C34.4688 109.188 33.3281 108.641 32.1094 108.234C30.9219 107.828 29.625 107.625 28.2188 107.625C27.375 107.625 26.5312 107.703 25.6875 107.859C24.8438 107.984 24.0781 108.234 23.3906 108.609C22.7031 108.984 22.1406 109.5 21.7031 110.156C21.2969 110.812 21.0938 111.641 21.0938 112.641C21.0938 113.703 21.2188 114.625 21.4688 115.406C21.75 116.188 22.4219 116.922 23.4844 117.609L34.7344 125.25C36.7969 126.719 38.4688 128.188 39.75 129.656C41.0312 131.094 42.0312 132.531 42.75 133.969C43.4688 135.406 43.9531 136.828 44.2031 138.234C44.4844 139.609 44.625 140.969 44.625 142.312C44.625 144.5 44.2656 146.562 43.5469 148.5C42.8281 150.438 41.8438 152.234 40.5938 153.891C39.3438 155.516 37.875 156.984 36.1875 158.297C34.5312 159.578 32.75 160.688 30.8438 161.625C28.9375 162.531 26.9531 163.219 24.8906 163.688C22.8594 164.188 20.8594 164.438 18.8906 164.438C17.3594 164.438 15.8438 164.406 14.3438 164.344C12.875 164.312 11.4375 164.188 10.0312 163.969C8.625 163.781 7.26562 163.469 5.95312 163.031C4.64062 162.625 3.39062 162.047 2.20312 161.297L1.40625 144.562Z" fill="#F45B05"/>
<path d="M66.9206 125.859C66.4831 129.141 66.0612 132.422 65.655 135.703C65.28 138.953 65.0456 142 64.9519 144.844C64.9519 146.062 65.0456 147.078 65.2331 147.891C65.4206 148.703 65.6862 149.344 66.03 149.812C66.405 150.281 66.8425 150.625 67.3425 150.844C67.8425 151.031 68.405 151.125 69.03 151.125C70.03 151.125 71.1237 150.984 72.3112 150.703C73.4987 150.391 74.6862 150 75.8737 149.531C76.2487 149.375 76.5612 149.266 76.8112 149.203C77.0925 149.109 77.3269 149.062 77.5144 149.062C77.8269 149.062 78.03 149.203 78.1237 149.484C78.2487 149.766 78.3581 150.266 78.4519 150.984C78.5769 151.672 78.7487 152.609 78.9675 153.797C79.1862 154.984 79.5456 156.484 80.0456 158.297C80.0769 158.453 80.0925 158.594 80.0925 158.719C80.1237 158.812 80.1394 158.906 80.1394 159C80.1394 159.438 79.9675 159.75 79.6237 159.938C79.3112 160.125 78.78 160.344 78.03 160.594C76.7487 161.031 75.3894 161.484 73.9519 161.953C72.5456 162.391 71.1394 162.797 69.7331 163.172C68.3581 163.547 67.03 163.844 65.7487 164.062C64.4675 164.312 63.3425 164.438 62.3737 164.438C57.155 164.438 53.3425 163.141 50.9362 160.547C48.5612 157.953 47.3737 154 47.3737 148.688C47.3737 147.781 47.405 146.859 47.4675 145.922C47.53 144.953 47.6081 143.953 47.7019 142.922C48.0144 139.797 48.28 136.844 48.4987 134.062C48.7487 131.25 48.9987 128.562 49.2487 126H44.3269C42.6394 126 41.4206 125.938 40.6706 125.812C39.9206 125.656 39.5456 125.359 39.5456 124.922C39.5456 124.797 39.7019 124.469 40.0144 123.938C40.3269 123.375 40.7175 122.719 41.1862 121.969C41.6862 121.188 42.2175 120.359 42.78 119.484C43.3425 118.609 43.8737 117.797 44.3737 117.047C44.905 116.266 45.3581 115.594 45.7331 115.031C46.1081 114.469 46.3425 114.125 46.4362 114H49.7644C50.0456 111.625 50.2644 109.641 50.4206 108.047C50.6081 106.422 50.7487 105.078 50.8425 104.016C50.9675 102.953 51.0769 102.141 51.1706 101.578C51.2644 100.984 51.3581 100.547 51.4519 100.266C51.5769 99.9844 51.7175 99.8125 51.8737 99.75C52.0612 99.6562 52.2956 99.5781 52.5769 99.5156C53.9831 99.2344 55.3425 98.9844 56.655 98.7656C57.9675 98.5156 59.28 98.2656 60.5925 98.0156C61.905 97.7656 63.2331 97.4844 64.5769 97.1719C65.9519 96.8281 67.3737 96.4375 68.8425 96C68.9362 96 68.9987 96 69.03 96C69.0612 95.9688 69.1237 95.9531 69.2175 95.9531C69.5925 95.9531 69.78 96.0781 69.78 96.3281V96.4219C69.6237 98.1406 69.3737 100.531 69.03 103.594C68.7175 106.656 68.3581 110.125 67.9519 114H80.5144C80.7644 114 80.9987 114.094 81.2175 114.281C81.4675 114.438 81.5925 114.719 81.5925 115.125C81.5925 115.281 81.405 115.844 81.03 116.812C80.655 117.781 80.1237 119.047 79.4362 120.609L77.7487 124.406C77.53 124.875 77.2956 125.219 77.0456 125.438C76.8269 125.656 76.3581 125.797 75.6394 125.859H66.9206Z" fill="#F45B05"/>
<path d="M126.107 152.578C126.076 152.703 126.06 152.828 126.06 152.953C126.06 153.047 126.06 153.141 126.06 153.234C126.06 154.016 126.185 154.672 126.435 155.203C126.685 155.703 126.951 156.125 127.232 156.469C127.544 156.781 127.826 157.047 128.076 157.266C128.326 157.453 128.451 157.625 128.451 157.781C128.451 158.219 127.982 158.625 127.044 159L114.435 164.391C114.404 164.422 114.294 164.438 114.107 164.438C113.857 164.438 113.607 164.219 113.357 163.781C113.107 163.344 112.857 162.781 112.607 162.094C112.388 161.438 112.169 160.734 111.951 159.984C111.763 159.203 111.591 158.484 111.435 157.828C109.466 160.109 107.341 161.781 105.06 162.844C102.779 163.906 100.513 164.438 98.2631 164.438C95.6381 164.438 93.0756 163.859 90.5756 162.703C88.0756 161.547 85.8569 159.906 83.9194 157.781C81.9819 155.625 80.4194 153.031 79.2319 150C78.0756 146.969 77.4975 143.562 77.4975 139.781C77.4975 135.312 78.1381 131.234 79.4194 127.547C80.7319 123.859 82.4975 120.688 84.7162 118.031C86.935 115.375 89.5131 113.328 92.4506 111.891C95.4194 110.422 98.56 109.688 101.872 109.688C104.216 109.688 106.435 110.172 108.529 111.141C110.622 112.078 112.607 113.297 114.482 114.797C114.669 113.859 114.779 113.109 114.81 112.547C114.841 111.984 114.904 111.547 114.997 111.234C115.122 110.922 115.341 110.719 115.654 110.625C115.966 110.5 116.482 110.406 117.201 110.344C119.451 110.031 121.685 109.75 123.904 109.5C126.154 109.219 128.497 109.016 130.935 108.891L126.107 152.578ZM112.091 134.906C112.404 133.125 112.607 131.453 112.701 129.891C112.826 128.297 112.919 126.844 112.982 125.531C112.482 125.156 111.935 124.766 111.341 124.359C110.779 123.953 110.154 123.578 109.466 123.234C108.81 122.859 108.107 122.562 107.357 122.344C106.638 122.125 105.872 122.016 105.06 122.016C103.372 122.016 101.951 122.562 100.794 123.656C99.6694 124.75 98.7475 126.094 98.0287 127.688C97.3412 129.281 96.8412 130.969 96.5287 132.75C96.2475 134.531 96.1069 136.109 96.1069 137.484C96.1069 142.422 96.7475 146.047 98.0287 148.359C99.3412 150.641 101.154 151.781 103.466 151.781C104.404 151.781 105.451 151.516 106.607 150.984C107.763 150.453 108.935 149.719 110.122 148.781L112.091 134.906Z" fill="#F45B05"/>
<path d="M198.231 163.688C197.887 163.781 197.434 163.922 196.871 164.109C196.309 164.328 195.762 164.438 195.231 164.438C194.793 164.438 194.402 164.328 194.059 164.109C193.746 163.891 193.59 163.516 193.59 162.984V162.703C193.809 160.422 193.996 158.578 194.152 157.172C194.309 155.734 194.434 154.578 194.527 153.703C194.621 152.828 194.699 152.172 194.762 151.734C194.824 151.266 194.887 150.844 194.949 150.469C195.012 150.062 195.059 149.625 195.09 149.156C195.152 148.688 195.231 148.031 195.324 147.188C195.418 146.312 195.527 145.172 195.652 143.766C195.809 142.328 195.996 140.453 196.215 138.141C196.34 136.891 196.465 135.656 196.59 134.438C196.746 133.188 196.824 132.047 196.824 131.016C196.824 129.703 196.746 128.516 196.59 127.453C196.465 126.359 196.215 125.438 195.84 124.688C195.496 123.906 195.012 123.297 194.387 122.859C193.762 122.422 192.965 122.203 191.996 122.203C191.402 122.203 190.621 122.328 189.652 122.578C188.715 122.828 187.762 123.281 186.793 123.938C185.824 124.562 184.949 125.406 184.168 126.469C183.387 127.5 182.887 128.812 182.668 130.406V130.594C182.293 134.156 181.949 137.25 181.637 139.875C181.356 142.469 181.106 144.703 180.887 146.578C180.668 148.453 180.481 150.016 180.324 151.266C180.199 152.516 180.09 153.578 179.996 154.453C179.902 155.297 179.824 156 179.762 156.562C179.731 157.125 179.715 157.656 179.715 158.156C179.715 158.406 179.715 158.625 179.715 158.812C179.746 158.969 179.762 159.109 179.762 159.234C179.762 159.484 179.637 159.703 179.387 159.891C179.168 160.047 178.652 160.25 177.84 160.5L166.824 163.688C166.481 163.781 166.027 163.922 165.465 164.109C164.902 164.328 164.356 164.438 163.824 164.438C163.387 164.438 162.996 164.328 162.652 164.109C162.34 163.891 162.184 163.516 162.184 162.984V162.703C162.402 160.422 162.574 158.578 162.699 157.172C162.856 155.734 162.981 154.578 163.074 153.703C163.199 152.828 163.293 152.172 163.356 151.734C163.418 151.266 163.465 150.844 163.496 150.469C163.559 150.062 163.621 149.625 163.684 149.156C163.746 148.688 163.809 148.031 163.871 147.188C163.965 146.312 164.074 145.172 164.199 143.766C164.356 142.328 164.543 140.453 164.762 138.141C164.887 136.891 165.012 135.656 165.137 134.438C165.293 133.188 165.371 132.047 165.371 131.016C165.371 129.703 165.309 128.516 165.184 127.453C165.059 126.359 164.824 125.438 164.481 124.688C164.168 123.906 163.731 123.297 163.168 122.859C162.606 122.422 161.887 122.203 161.012 122.203C160.387 122.203 159.527 122.359 158.434 122.672C157.371 122.984 156.293 123.5 155.199 124.219C154.137 124.938 153.184 125.891 152.34 127.078C151.527 128.234 151.059 129.672 150.934 131.391C150.684 133.703 150.481 135.609 150.324 137.109C150.168 138.578 150.043 139.797 149.949 140.766C149.856 141.703 149.777 142.469 149.715 143.062C149.684 143.625 149.652 144.156 149.621 144.656C149.59 144.781 149.543 145.141 149.481 145.734C149.418 146.297 149.34 146.984 149.246 147.797C149.184 148.578 149.106 149.438 149.012 150.375C148.949 151.281 148.887 152.141 148.824 152.953C148.762 153.734 148.699 154.422 148.637 155.016C148.606 155.578 148.59 155.922 148.59 156.047V156.891C148.59 157.203 148.574 157.469 148.543 157.688C148.512 157.906 148.418 158.109 148.262 158.297C148.106 158.484 147.871 158.656 147.559 158.812C147.277 158.969 146.871 159.141 146.34 159.328L134.059 163.688C133.715 163.812 133.262 163.969 132.699 164.156C132.137 164.344 131.59 164.438 131.059 164.438C130.621 164.438 130.231 164.328 129.887 164.109C129.574 163.891 129.418 163.516 129.418 162.984L133.637 115.172C133.731 114.141 133.84 113.438 133.965 113.062C134.121 112.656 134.481 112.391 135.043 112.266C137.887 111.703 140.793 111.141 143.762 110.578C146.731 109.984 149.637 109.234 152.481 108.328C152.731 108.328 152.871 108.375 152.902 108.469C152.965 108.531 152.996 108.641 152.996 108.797L152.387 115.641C153.543 115.047 154.84 114.406 156.277 113.719C157.715 113 159.215 112.344 160.777 111.75C162.371 111.156 163.981 110.672 165.606 110.297C167.262 109.891 168.871 109.688 170.434 109.688C172.59 109.688 174.574 110.188 176.387 111.188C178.231 112.156 179.746 113.781 180.934 116.062C182.34 115.156 183.824 114.312 185.387 113.531C186.981 112.75 188.59 112.078 190.215 111.516C191.871 110.953 193.527 110.516 195.184 110.203C196.84 109.891 198.449 109.734 200.012 109.734C201.981 109.734 203.84 110.016 205.59 110.578C207.34 111.141 208.856 112.062 210.137 113.344C211.449 114.625 212.481 116.297 213.231 118.359C213.981 120.391 214.356 122.875 214.356 125.812C214.356 126.562 214.34 127.344 214.309 128.156C214.277 128.938 214.215 129.75 214.121 130.594L211.965 150.656C211.809 151.969 211.715 153.188 211.684 154.312C211.652 155.406 211.637 156.688 211.637 158.156C211.637 158.406 211.637 158.625 211.637 158.812C211.668 158.969 211.684 159.109 211.684 159.234C211.684 159.516 211.559 159.734 211.309 159.891C211.09 160.047 210.574 160.25 209.762 160.5L198.231 163.688Z" fill="#F45B05"/>
<path d="M235.667 129.281C235.479 132.281 235.307 134.719 235.151 136.594C235.026 138.469 234.917 140 234.823 141.188C234.729 142.344 234.651 143.266 234.589 143.953C234.526 144.609 234.479 145.234 234.448 145.828C235.167 147.703 236.229 149.234 237.636 150.422C239.042 151.578 240.729 152.156 242.698 152.156C244.417 152.156 245.917 151.625 247.198 150.562C248.511 149.469 249.589 148.062 250.432 146.344C251.307 144.625 251.964 142.703 252.401 140.578C252.839 138.453 253.057 136.344 253.057 134.25C253.057 132.531 252.901 130.938 252.589 129.469C252.307 128 251.87 126.734 251.276 125.672C250.682 124.578 249.932 123.734 249.026 123.141C248.151 122.516 247.104 122.203 245.886 122.203C244.886 122.203 243.886 122.406 242.886 122.812C241.917 123.188 240.979 123.688 240.073 124.312C239.167 124.906 238.339 125.594 237.589 126.375C236.87 127.125 236.276 127.859 235.807 128.578L235.667 129.281ZM236.604 115.547C239.229 113.766 241.979 112.344 244.854 111.281C247.729 110.219 250.729 109.688 253.854 109.688C256.792 109.688 259.323 110.297 261.448 111.516C263.604 112.703 265.386 114.328 266.792 116.391C268.198 118.422 269.229 120.766 269.886 123.422C270.573 126.078 270.917 128.859 270.917 131.766C270.917 134.297 270.667 136.859 270.167 139.453C269.667 142.047 268.932 144.562 267.964 147C266.995 149.406 265.792 151.672 264.354 153.797C262.917 155.922 261.261 157.781 259.386 159.375C257.542 160.938 255.479 162.172 253.198 163.078C250.917 163.984 248.448 164.438 245.792 164.438C243.448 164.438 241.198 163.969 239.042 163.031C236.917 162.094 234.917 160.875 233.042 159.375C233.042 159.531 232.995 160.109 232.901 161.109C232.839 162.078 232.745 163.266 232.62 164.672C232.495 166.078 232.354 167.578 232.198 169.172C232.042 170.797 231.901 172.312 231.776 173.719C231.651 175.125 231.542 176.312 231.448 177.281C231.386 178.281 231.354 178.859 231.354 179.016C231.354 179.266 231.354 179.469 231.354 179.625C231.386 179.812 231.401 179.984 231.401 180.141C231.401 180.391 231.276 180.594 231.026 180.75C230.807 180.938 230.292 181.141 229.479 181.359L217.151 184.5C216.807 184.594 216.354 184.734 215.792 184.922C215.229 185.141 214.682 185.25 214.151 185.25C213.714 185.25 213.323 185.141 212.979 184.922C212.667 184.703 212.511 184.297 212.511 183.703L218.229 115.078C218.323 114.047 218.432 113.344 218.557 112.969C218.714 112.562 219.073 112.297 219.636 112.172C222.479 111.609 225.401 111.047 228.401 110.484C231.401 109.891 234.323 109.141 237.167 108.234C237.417 108.234 237.557 108.281 237.589 108.375C237.651 108.438 237.682 108.547 237.682 108.703C237.682 108.766 237.667 108.859 237.636 108.984C237.636 109.109 237.589 109.391 237.495 109.828C237.432 110.266 237.323 110.938 237.167 111.844C237.042 112.719 236.854 113.953 236.604 115.547Z" fill="#F45B05"/>
<path d="M298.087 109.688C301.056 109.688 303.744 110.25 306.15 111.375C308.587 112.469 310.666 113.906 312.384 115.688C314.134 117.438 315.478 119.406 316.416 121.594C317.353 123.781 317.822 125.969 317.822 128.156C317.822 130.094 317.228 132.047 316.041 134.016C314.853 135.953 313.181 137.703 311.025 139.266C308.9 140.828 306.337 142.094 303.337 143.062C300.337 144.031 297.041 144.516 293.447 144.516C291.572 144.516 289.603 144.328 287.541 143.953C287.666 145.297 288.056 146.453 288.712 147.422C289.369 148.391 290.197 149.188 291.197 149.812C292.197 150.438 293.322 150.906 294.572 151.219C295.853 151.5 297.166 151.641 298.509 151.641C300.009 151.641 301.447 151.516 302.822 151.266C304.228 150.984 305.572 150.625 306.853 150.188C308.134 149.75 309.369 149.266 310.556 148.734C311.744 148.203 312.869 147.672 313.931 147.141C314.212 147.078 314.447 147.031 314.634 147C314.853 146.938 315.056 146.906 315.244 146.906C315.244 146.906 315.228 147.156 315.197 147.656C315.197 148.156 315.197 148.859 315.197 149.766C315.197 150.672 315.181 151.766 315.15 153.047C315.15 154.328 315.134 155.75 315.103 157.312C315.197 157.469 315.259 157.625 315.291 157.781C315.322 157.938 315.337 158.062 315.337 158.156C315.337 158.531 314.994 158.938 314.306 159.375C313.619 159.812 312.712 160.266 311.587 160.734C310.494 161.203 309.228 161.656 307.791 162.094C306.384 162.531 304.947 162.922 303.478 163.266C302.009 163.641 300.587 163.922 299.212 164.109C297.837 164.328 296.634 164.438 295.603 164.438C292.228 164.438 288.947 163.844 285.759 162.656C282.603 161.5 279.791 159.828 277.322 157.641C274.884 155.453 272.931 152.797 271.462 149.672C269.994 146.547 269.259 143.031 269.259 139.125C269.259 135.031 269.962 131.203 271.369 127.641C272.775 124.047 274.744 120.922 277.275 118.266C279.837 115.609 282.884 113.516 286.416 111.984C289.947 110.453 293.837 109.688 298.087 109.688ZM297.525 122.156C296.244 122.156 295.056 122.438 293.962 123C292.9 123.531 291.916 124.312 291.009 125.344C290.134 126.344 289.369 127.562 288.712 129C288.056 130.406 287.525 131.969 287.119 133.688C290.337 133.125 293.009 132.531 295.134 131.906C297.259 131.281 298.962 130.656 300.244 130.031C301.525 129.375 302.431 128.734 302.962 128.109C303.494 127.453 303.759 126.828 303.759 126.234C303.759 125.672 303.541 125.141 303.103 124.641C302.697 124.141 302.181 123.703 301.556 123.328C300.931 122.953 300.244 122.672 299.494 122.484C298.775 122.266 298.119 122.156 297.525 122.156Z" fill="#F45B05"/>
<path d="M344.899 109.688C347.867 109.688 350.555 110.25 352.961 111.375C355.399 112.469 357.477 113.906 359.196 115.688C360.946 117.438 362.289 119.406 363.227 121.594C364.164 123.781 364.633 125.969 364.633 128.156C364.633 130.094 364.039 132.047 362.852 134.016C361.664 135.953 359.992 137.703 357.836 139.266C355.711 140.828 353.149 142.094 350.149 143.062C347.149 144.031 343.852 144.516 340.258 144.516C338.383 144.516 336.414 144.328 334.352 143.953C334.477 145.297 334.867 146.453 335.524 147.422C336.18 148.391 337.008 149.188 338.008 149.812C339.008 150.438 340.133 150.906 341.383 151.219C342.664 151.5 343.977 151.641 345.321 151.641C346.821 151.641 348.258 151.516 349.633 151.266C351.039 150.984 352.383 150.625 353.664 150.188C354.946 149.75 356.18 149.266 357.367 148.734C358.555 148.203 359.68 147.672 360.742 147.141C361.024 147.078 361.258 147.031 361.446 147C361.664 146.938 361.867 146.906 362.055 146.906C362.055 146.906 362.039 147.156 362.008 147.656C362.008 148.156 362.008 148.859 362.008 149.766C362.008 150.672 361.992 151.766 361.961 153.047C361.961 154.328 361.946 155.75 361.914 157.312C362.008 157.469 362.071 157.625 362.102 157.781C362.133 157.938 362.149 158.062 362.149 158.156C362.149 158.531 361.805 158.938 361.117 159.375C360.43 159.812 359.524 160.266 358.399 160.734C357.305 161.203 356.039 161.656 354.602 162.094C353.196 162.531 351.758 162.922 350.289 163.266C348.821 163.641 347.399 163.922 346.024 164.109C344.649 164.328 343.446 164.438 342.414 164.438C339.039 164.438 335.758 163.844 332.571 162.656C329.414 161.5 326.602 159.828 324.133 157.641C321.696 155.453 319.742 152.797 318.274 149.672C316.805 146.547 316.071 143.031 316.071 139.125C316.071 135.031 316.774 131.203 318.18 127.641C319.586 124.047 321.555 120.922 324.086 118.266C326.649 115.609 329.696 113.516 333.227 111.984C336.758 110.453 340.649 109.688 344.899 109.688ZM344.336 122.156C343.055 122.156 341.867 122.438 340.774 123C339.711 123.531 338.727 124.312 337.821 125.344C336.946 126.344 336.18 127.562 335.524 129C334.867 130.406 334.336 131.969 333.93 133.688C337.149 133.125 339.821 132.531 341.946 131.906C344.071 131.281 345.774 130.656 347.055 130.031C348.336 129.375 349.242 128.734 349.774 128.109C350.305 127.453 350.571 126.828 350.571 126.234C350.571 125.672 350.352 125.141 349.914 124.641C349.508 124.141 348.992 123.703 348.367 123.328C347.742 122.953 347.055 122.672 346.305 122.484C345.586 122.266 344.93 122.156 344.336 122.156Z" fill="#F45B05"/>
<path d="M1.40625 144.562C1.40625 144.531 1.39062 144.5 1.35938 144.469C1.35938 144.438 1.35938 144.406 1.35938 144.375C1.35938 143.844 1.64062 143.578 2.20312 143.578C2.48438 143.578 2.79688 143.719 3.14062 144C4.82812 145.594 6.70312 146.859 8.76562 147.797C10.8281 148.734 13.0781 149.203 15.5156 149.203C16.1719 149.203 16.9219 149.141 17.7656 149.016C18.6094 148.859 19.4062 148.625 20.1562 148.312C20.9062 147.969 21.5312 147.531 22.0312 147C22.5625 146.469 22.8281 145.797 22.8281 144.984C22.8281 144.078 22.6094 143.266 22.1719 142.547C21.7344 141.828 21.1562 141.219 20.4375 140.719C20.1562 140.531 19.7344 140.219 19.1719 139.781C18.6094 139.344 17.9688 138.844 17.25 138.281C16.5312 137.719 15.7812 137.125 15 136.5C14.2188 135.844 13.4688 135.234 12.75 134.672C12.0625 134.078 11.4375 133.547 10.875 133.078C10.3125 132.609 9.89062 132.25 9.60938 132C7.76562 130.625 6.29688 129.234 5.20312 127.828C4.14062 126.422 3.32812 124.953 2.76562 123.422C2.20312 121.891 1.84375 120.312 1.6875 118.688C1.53125 117.031 1.45312 115.281 1.45312 113.438C1.45312 110.688 2.10938 108.078 3.42188 105.609C4.73438 103.141 6.57812 101 8.95312 99.1875C11.3594 97.3438 14.2344 95.8906 17.5781 94.8281C20.9219 93.7344 24.6406 93.1875 28.7344 93.1875C29.2344 93.1875 29.9844 93.25 30.9844 93.375C31.9844 93.4688 33.0781 93.6406 34.2656 93.8906C35.4844 94.1406 36.7188 94.4844 37.9688 94.9219C39.2188 95.3594 40.3594 95.9219 41.3906 96.6094C41.7344 96.8594 42 97.1094 42.1875 97.3594C42.4062 97.6094 42.5469 98 42.6094 98.5312C42.7656 101.062 42.8906 103.562 42.9844 106.031C43.0781 108.469 43.2031 111.062 43.3594 113.812C43.3594 114.344 43.25 114.703 43.0312 114.891C42.8125 115.047 42.5312 115.125 42.1875 115.125C41.8438 115.125 41.5781 115.031 41.3906 114.844C40.4844 113.938 39.5469 113.047 38.5781 112.172C37.6094 111.297 36.5938 110.531 35.5312 109.875C34.4688 109.188 33.3281 108.641 32.1094 108.234C30.9219 107.828 29.625 107.625 28.2188 107.625C27.375 107.625 26.5312 107.703 25.6875 107.859C24.8438 107.984 24.0781 108.234 23.3906 108.609C22.7031 108.984 22.1406 109.5 21.7031 110.156C21.2969 110.812 21.0938 111.641 21.0938 112.641C21.0938 113.703 21.2188 114.625 21.4688 115.406C21.75 116.188 22.4219 116.922 23.4844 117.609L34.7344 125.25C36.7969 126.719 38.4688 128.188 39.75 129.656C41.0312 131.094 42.0312 132.531 42.75 133.969C43.4688 135.406 43.9531 136.828 44.2031 138.234C44.4844 139.609 44.625 140.969 44.625 142.312C44.625 144.5 44.2656 146.562 43.5469 148.5C42.8281 150.438 41.8438 152.234 40.5938 153.891C39.3438 155.516 37.875 156.984 36.1875 158.297C34.5312 159.578 32.75 160.688 30.8438 161.625C28.9375 162.531 26.9531 163.219 24.8906 163.688C22.8594 164.188 20.8594 164.438 18.8906 164.438C17.3594 164.438 15.8438 164.406 14.3438 164.344C12.875 164.312 11.4375 164.188 10.0312 163.969C8.625 163.781 7.26562 163.469 5.95312 163.031C4.64062 162.625 3.39062 162.047 2.20312 161.297L1.40625 144.562Z" stroke="#D9D9D9" stroke-width="2" mask="url(#path-1-outside-1_178_237)"/>
<path d="M66.9206 125.859C66.4831 129.141 66.0612 132.422 65.655 135.703C65.28 138.953 65.0456 142 64.9519 144.844C64.9519 146.062 65.0456 147.078 65.2331 147.891C65.4206 148.703 65.6862 149.344 66.03 149.812C66.405 150.281 66.8425 150.625 67.3425 150.844C67.8425 151.031 68.405 151.125 69.03 151.125C70.03 151.125 71.1237 150.984 72.3112 150.703C73.4987 150.391 74.6862 150 75.8737 149.531C76.2487 149.375 76.5612 149.266 76.8112 149.203C77.0925 149.109 77.3269 149.062 77.5144 149.062C77.8269 149.062 78.03 149.203 78.1237 149.484C78.2487 149.766 78.3581 150.266 78.4519 150.984C78.5769 151.672 78.7487 152.609 78.9675 153.797C79.1862 154.984 79.5456 156.484 80.0456 158.297C80.0769 158.453 80.0925 158.594 80.0925 158.719C80.1237 158.812 80.1394 158.906 80.1394 159C80.1394 159.438 79.9675 159.75 79.6237 159.938C79.3112 160.125 78.78 160.344 78.03 160.594C76.7487 161.031 75.3894 161.484 73.9519 161.953C72.5456 162.391 71.1394 162.797 69.7331 163.172C68.3581 163.547 67.03 163.844 65.7487 164.062C64.4675 164.312 63.3425 164.438 62.3737 164.438C57.155 164.438 53.3425 163.141 50.9362 160.547C48.5612 157.953 47.3737 154 47.3737 148.688C47.3737 147.781 47.405 146.859 47.4675 145.922C47.53 144.953 47.6081 143.953 47.7019 142.922C48.0144 139.797 48.28 136.844 48.4987 134.062C48.7487 131.25 48.9987 128.562 49.2487 126H44.3269C42.6394 126 41.4206 125.938 40.6706 125.812C39.9206 125.656 39.5456 125.359 39.5456 124.922C39.5456 124.797 39.7019 124.469 40.0144 123.938C40.3269 123.375 40.7175 122.719 41.1862 121.969C41.6862 121.188 42.2175 120.359 42.78 119.484C43.3425 118.609 43.8737 117.797 44.3737 117.047C44.905 116.266 45.3581 115.594 45.7331 115.031C46.1081 114.469 46.3425 114.125 46.4362 114H49.7644C50.0456 111.625 50.2644 109.641 50.4206 108.047C50.6081 106.422 50.7487 105.078 50.8425 104.016C50.9675 102.953 51.0769 102.141 51.1706 101.578C51.2644 100.984 51.3581 100.547 51.4519 100.266C51.5769 99.9844 51.7175 99.8125 51.8737 99.75C52.0612 99.6562 52.2956 99.5781 52.5769 99.5156C53.9831 99.2344 55.3425 98.9844 56.655 98.7656C57.9675 98.5156 59.28 98.2656 60.5925 98.0156C61.905 97.7656 63.2331 97.4844 64.5769 97.1719C65.9519 96.8281 67.3737 96.4375 68.8425 96C68.9362 96 68.9987 96 69.03 96C69.0612 95.9688 69.1237 95.9531 69.2175 95.9531C69.5925 95.9531 69.78 96.0781 69.78 96.3281V96.4219C69.6237 98.1406 69.3737 100.531 69.03 103.594C68.7175 106.656 68.3581 110.125 67.9519 114H80.5144C80.7644 114 80.9987 114.094 81.2175 114.281C81.4675 114.438 81.5925 114.719 81.5925 115.125C81.5925 115.281 81.405 115.844 81.03 116.812C80.655 117.781 80.1237 119.047 79.4362 120.609L77.7487 124.406C77.53 124.875 77.2956 125.219 77.0456 125.438C76.8269 125.656 76.3581 125.797 75.6394 125.859H66.9206Z" stroke="#D9D9D9" stroke-width="2" mask="url(#path-1-outside-1_178_237)"/>
<path d="M126.107 152.578C126.076 152.703 126.06 152.828 126.06 152.953C126.06 153.047 126.06 153.141 126.06 153.234C126.06 154.016 126.185 154.672 126.435 155.203C126.685 155.703 126.951 156.125 127.232 156.469C127.544 156.781 127.826 157.047 128.076 157.266C128.326 157.453 128.451 157.625 128.451 157.781C128.451 158.219 127.982 158.625 127.044 159L114.435 164.391C114.404 164.422 114.294 164.438 114.107 164.438C113.857 164.438 113.607 164.219 113.357 163.781C113.107 163.344 112.857 162.781 112.607 162.094C112.388 161.438 112.169 160.734 111.951 159.984C111.763 159.203 111.591 158.484 111.435 157.828C109.466 160.109 107.341 161.781 105.06 162.844C102.779 163.906 100.513 164.438 98.2631 164.438C95.6381 164.438 93.0756 163.859 90.5756 162.703C88.0756 161.547 85.8569 159.906 83.9194 157.781C81.9819 155.625 80.4194 153.031 79.2319 150C78.0756 146.969 77.4975 143.562 77.4975 139.781C77.4975 135.312 78.1381 131.234 79.4194 127.547C80.7319 123.859 82.4975 120.688 84.7162 118.031C86.935 115.375 89.5131 113.328 92.4506 111.891C95.4194 110.422 98.56 109.688 101.872 109.688C104.216 109.688 106.435 110.172 108.529 111.141C110.622 112.078 112.607 113.297 114.482 114.797C114.669 113.859 114.779 113.109 114.81 112.547C114.841 111.984 114.904 111.547 114.997 111.234C115.122 110.922 115.341 110.719 115.654 110.625C115.966 110.5 116.482 110.406 117.201 110.344C119.451 110.031 121.685 109.75 123.904 109.5C126.154 109.219 128.497 109.016 130.935 108.891L126.107 152.578ZM112.091 134.906C112.404 133.125 112.607 131.453 112.701 129.891C112.826 128.297 112.919 126.844 112.982 125.531C112.482 125.156 111.935 124.766 111.341 124.359C110.779 123.953 110.154 123.578 109.466 123.234C108.81 122.859 108.107 122.562 107.357 122.344C106.638 122.125 105.872 122.016 105.06 122.016C103.372 122.016 101.951 122.562 100.794 123.656C99.6694 124.75 98.7475 126.094 98.0287 127.688C97.3412 129.281 96.8412 130.969 96.5287 132.75C96.2475 134.531 96.1069 136.109 96.1069 137.484C96.1069 142.422 96.7475 146.047 98.0287 148.359C99.3412 150.641 101.154 151.781 103.466 151.781C104.404 151.781 105.451 151.516 106.607 150.984C107.763 150.453 108.935 149.719 110.122 148.781L112.091 134.906Z" stroke="#D9D9D9" stroke-width="2" mask="url(#path-1-outside-1_178_237)"/>
<path d="M198.231 163.688C197.887 163.781 197.434 163.922 196.871 164.109C196.309 164.328 195.762 164.438 195.231 164.438C194.793 164.438 194.402 164.328 194.059 164.109C193.746 163.891 193.59 163.516 193.59 162.984V162.703C193.809 160.422 193.996 158.578 194.152 157.172C194.309 155.734 194.434 154.578 194.527 153.703C194.621 152.828 194.699 152.172 194.762 151.734C194.824 151.266 194.887 150.844 194.949 150.469C195.012 150.062 195.059 149.625 195.09 149.156C195.152 148.688 195.231 148.031 195.324 147.188C195.418 146.312 195.527 145.172 195.652 143.766C195.809 142.328 195.996 140.453 196.215 138.141C196.34 136.891 196.465 135.656 196.59 134.438C196.746 133.188 196.824 132.047 196.824 131.016C196.824 129.703 196.746 128.516 196.59 127.453C196.465 126.359 196.215 125.438 195.84 124.688C195.496 123.906 195.012 123.297 194.387 122.859C193.762 122.422 192.965 122.203 191.996 122.203C191.402 122.203 190.621 122.328 189.652 122.578C188.715 122.828 187.762 123.281 186.793 123.938C185.824 124.562 184.949 125.406 184.168 126.469C183.387 127.5 182.887 128.812 182.668 130.406V130.594C182.293 134.156 181.949 137.25 181.637 139.875C181.356 142.469 181.106 144.703 180.887 146.578C180.668 148.453 180.481 150.016 180.324 151.266C180.199 152.516 180.09 153.578 179.996 154.453C179.902 155.297 179.824 156 179.762 156.562C179.731 157.125 179.715 157.656 179.715 158.156C179.715 158.406 179.715 158.625 179.715 158.812C179.746 158.969 179.762 159.109 179.762 159.234C179.762 159.484 179.637 159.703 179.387 159.891C179.168 160.047 178.652 160.25 177.84 160.5L166.824 163.688C166.481 163.781 166.027 163.922 165.465 164.109C164.902 164.328 164.356 164.438 163.824 164.438C163.387 164.438 162.996 164.328 162.652 164.109C162.34 163.891 162.184 163.516 162.184 162.984V162.703C162.402 160.422 162.574 158.578 162.699 157.172C162.856 155.734 162.981 154.578 163.074 153.703C163.199 152.828 163.293 152.172 163.356 151.734C163.418 151.266 163.465 150.844 163.496 150.469C163.559 150.062 163.621 149.625 163.684 149.156C163.746 148.688 163.809 148.031 163.871 147.188C163.965 146.312 164.074 145.172 164.199 143.766C164.356 142.328 164.543 140.453 164.762 138.141C164.887 136.891 165.012 135.656 165.137 134.438C165.293 133.188 165.371 132.047 165.371 131.016C165.371 129.703 165.309 128.516 165.184 127.453C165.059 126.359 164.824 125.438 164.481 124.688C164.168 123.906 163.731 123.297 163.168 122.859C162.606 122.422 161.887 122.203 161.012 122.203C160.387 122.203 159.527 122.359 158.434 122.672C157.371 122.984 156.293 123.5 155.199 124.219C154.137 124.938 153.184 125.891 152.34 127.078C151.527 128.234 151.059 129.672 150.934 131.391C150.684 133.703 150.481 135.609 150.324 137.109C150.168 138.578 150.043 139.797 149.949 140.766C149.856 141.703 149.777 142.469 149.715 143.062C149.684 143.625 149.652 144.156 149.621 144.656C149.59 144.781 149.543 145.141 149.481 145.734C149.418 146.297 149.34 146.984 149.246 147.797C149.184 148.578 149.106 149.438 149.012 150.375C148.949 151.281 148.887 152.141 148.824 152.953C148.762 153.734 148.699 154.422 148.637 155.016C148.606 155.578 148.59 155.922 148.59 156.047V156.891C148.59 157.203 148.574 157.469 148.543 157.688C148.512 157.906 148.418 158.109 148.262 158.297C148.106 158.484 147.871 158.656 147.559 158.812C147.277 158.969 146.871 159.141 146.34 159.328L134.059 163.688C133.715 163.812 133.262 163.969 132.699 164.156C132.137 164.344 131.59 164.438 131.059 164.438C130.621 164.438 130.231 164.328 129.887 164.109C129.574 163.891 129.418 163.516 129.418 162.984L133.637 115.172C133.731 114.141 133.84 113.438 133.965 113.062C134.121 112.656 134.481 112.391 135.043 112.266C137.887 111.703 140.793 111.141 143.762 110.578C146.731 109.984 149.637 109.234 152.481 108.328C152.731 108.328 152.871 108.375 152.902 108.469C152.965 108.531 152.996 108.641 152.996 108.797L152.387 115.641C153.543 115.047 154.84 114.406 156.277 113.719C157.715 113 159.215 112.344 160.777 111.75C162.371 111.156 163.981 110.672 165.606 110.297C167.262 109.891 168.871 109.688 170.434 109.688C172.59 109.688 174.574 110.188 176.387 111.188C178.231 112.156 179.746 113.781 180.934 116.062C182.34 115.156 183.824 114.312 185.387 113.531C186.981 112.75 188.59 112.078 190.215 111.516C191.871 110.953 193.527 110.516 195.184 110.203C196.84 109.891 198.449 109.734 200.012 109.734C201.981 109.734 203.84 110.016 205.59 110.578C207.34 111.141 208.856 112.062 210.137 113.344C211.449 114.625 212.481 116.297 213.231 118.359C213.981 120.391 214.356 122.875 214.356 125.812C214.356 126.562 214.34 127.344 214.309 128.156C214.277 128.938 214.215 129.75 214.121 130.594L211.965 150.656C211.809 151.969 211.715 153.188 211.684 154.312C211.652 155.406 211.637 156.688 211.637 158.156C211.637 158.406 211.637 158.625 211.637 158.812C211.668 158.969 211.684 159.109 211.684 159.234C211.684 159.516 211.559 159.734 211.309 159.891C211.09 160.047 210.574 160.25 209.762 160.5L198.231 163.688Z" stroke="#D9D9D9" stroke-width="2" mask="url(#path-1-outside-1_178_237)"/>
<path d="M235.667 129.281C235.479 132.281 235.307 134.719 235.151 136.594C235.026 138.469 234.917 140 234.823 141.188C234.729 142.344 234.651 143.266 234.589 143.953C234.526 144.609 234.479 145.234 234.448 145.828C235.167 147.703 236.229 149.234 237.636 150.422C239.042 151.578 240.729 152.156 242.698 152.156C244.417 152.156 245.917 151.625 247.198 150.562C248.511 149.469 249.589 148.062 250.432 146.344C251.307 144.625 251.964 142.703 252.401 140.578C252.839 138.453 253.057 136.344 253.057 134.25C253.057 132.531 252.901 130.938 252.589 129.469C252.307 128 251.87 126.734 251.276 125.672C250.682 124.578 249.932 123.734 249.026 123.141C248.151 122.516 247.104 122.203 245.886 122.203C244.886 122.203 243.886 122.406 242.886 122.812C241.917 123.188 240.979 123.688 240.073 124.312C239.167 124.906 238.339 125.594 237.589 126.375C236.87 127.125 236.276 127.859 235.807 128.578L235.667 129.281ZM236.604 115.547C239.229 113.766 241.979 112.344 244.854 111.281C247.729 110.219 250.729 109.688 253.854 109.688C256.792 109.688 259.323 110.297 261.448 111.516C263.604 112.703 265.386 114.328 266.792 116.391C268.198 118.422 269.229 120.766 269.886 123.422C270.573 126.078 270.917 128.859 270.917 131.766C270.917 134.297 270.667 136.859 270.167 139.453C269.667 142.047 268.932 144.562 267.964 147C266.995 149.406 265.792 151.672 264.354 153.797C262.917 155.922 261.261 157.781 259.386 159.375C257.542 160.938 255.479 162.172 253.198 163.078C250.917 163.984 248.448 164.438 245.792 164.438C243.448 164.438 241.198 163.969 239.042 163.031C236.917 162.094 234.917 160.875 233.042 159.375C233.042 159.531 232.995 160.109 232.901 161.109C232.839 162.078 232.745 163.266 232.62 164.672C232.495 166.078 232.354 167.578 232.198 169.172C232.042 170.797 231.901 172.312 231.776 173.719C231.651 175.125 231.542 176.312 231.448 177.281C231.386 178.281 231.354 178.859 231.354 179.016C231.354 179.266 231.354 179.469 231.354 179.625C231.386 179.812 231.401 179.984 231.401 180.141C231.401 180.391 231.276 180.594 231.026 180.75C230.807 180.938 230.292 181.141 229.479 181.359L217.151 184.5C216.807 184.594 216.354 184.734 215.792 184.922C215.229 185.141 214.682 185.25 214.151 185.25C213.714 185.25 213.323 185.141 212.979 184.922C212.667 184.703 212.511 184.297 212.511 183.703L218.229 115.078C218.323 114.047 218.432 113.344 218.557 112.969C218.714 112.562 219.073 112.297 219.636 112.172C222.479 111.609 225.401 111.047 228.401 110.484C231.401 109.891 234.323 109.141 237.167 108.234C237.417 108.234 237.557 108.281 237.589 108.375C237.651 108.438 237.682 108.547 237.682 108.703C237.682 108.766 237.667 108.859 237.636 108.984C237.636 109.109 237.589 109.391 237.495 109.828C237.432 110.266 237.323 110.938 237.167 111.844C237.042 112.719 236.854 113.953 236.604 115.547Z" stroke="#D9D9D9" stroke-width="2" mask="url(#path-1-outside-1_178_237)"/>
<path d="M298.087 109.688C301.056 109.688 303.744 110.25 306.15 111.375C308.587 112.469 310.666 113.906 312.384 115.688C314.134 117.438 315.478 119.406 316.416 121.594C317.353 123.781 317.822 125.969 317.822 128.156C317.822 130.094 317.228 132.047 316.041 134.016C314.853 135.953 313.181 137.703 311.025 139.266C308.9 140.828 306.337 142.094 303.337 143.062C300.337 144.031 297.041 144.516 293.447 144.516C291.572 144.516 289.603 144.328 287.541 143.953C287.666 145.297 288.056 146.453 288.712 147.422C289.369 148.391 290.197 149.188 291.197 149.812C292.197 150.438 293.322 150.906 294.572 151.219C295.853 151.5 297.166 151.641 298.509 151.641C300.009 151.641 301.447 151.516 302.822 151.266C304.228 150.984 305.572 150.625 306.853 150.188C308.134 149.75 309.369 149.266 310.556 148.734C311.744 148.203 312.869 147.672 313.931 147.141C314.212 147.078 314.447 147.031 314.634 147C314.853 146.938 315.056 146.906 315.244 146.906C315.244 146.906 315.228 147.156 315.197 147.656C315.197 148.156 315.197 148.859 315.197 149.766C315.197 150.672 315.181 151.766 315.15 153.047C315.15 154.328 315.134 155.75 315.103 157.312C315.197 157.469 315.259 157.625 315.291 157.781C315.322 157.938 315.337 158.062 315.337 158.156C315.337 158.531 314.994 158.938 314.306 159.375C313.619 159.812 312.712 160.266 311.587 160.734C310.494 161.203 309.228 161.656 307.791 162.094C306.384 162.531 304.947 162.922 303.478 163.266C302.009 163.641 300.587 163.922 299.212 164.109C297.837 164.328 296.634 164.438 295.603 164.438C292.228 164.438 288.947 163.844 285.759 162.656C282.603 161.5 279.791 159.828 277.322 157.641C274.884 155.453 272.931 152.797 271.462 149.672C269.994 146.547 269.259 143.031 269.259 139.125C269.259 135.031 269.962 131.203 271.369 127.641C272.775 124.047 274.744 120.922 277.275 118.266C279.837 115.609 282.884 113.516 286.416 111.984C289.947 110.453 293.837 109.688 298.087 109.688ZM297.525 122.156C296.244 122.156 295.056 122.438 293.962 123C292.9 123.531 291.916 124.312 291.009 125.344C290.134 126.344 289.369 127.562 288.712 129C288.056 130.406 287.525 131.969 287.119 133.688C290.337 133.125 293.009 132.531 295.134 131.906C297.259 131.281 298.962 130.656 300.244 130.031C301.525 129.375 302.431 128.734 302.962 128.109C303.494 127.453 303.759 126.828 303.759 126.234C303.759 125.672 303.541 125.141 303.103 124.641C302.697 124.141 302.181 123.703 301.556 123.328C300.931 122.953 300.244 122.672 299.494 122.484C298.775 122.266 298.119 122.156 297.525 122.156Z" stroke="#D9D9D9" stroke-width="2" mask="url(#path-1-outside-1_178_237)"/>
<path d="M344.899 109.688C347.867 109.688 350.555 110.25 352.961 111.375C355.399 112.469 357.477 113.906 359.196 115.688C360.946 117.438 362.289 119.406 363.227 121.594C364.164 123.781 364.633 125.969 364.633 128.156C364.633 130.094 364.039 132.047 362.852 134.016C361.664 135.953 359.992 137.703 357.836 139.266C355.711 140.828 353.149 142.094 350.149 143.062C347.149 144.031 343.852 144.516 340.258 144.516C338.383 144.516 336.414 144.328 334.352 143.953C334.477 145.297 334.867 146.453 335.524 147.422C336.18 148.391 337.008 149.188 338.008 149.812C339.008 150.438 340.133 150.906 341.383 151.219C342.664 151.5 343.977 151.641 345.321 151.641C346.821 151.641 348.258 151.516 349.633 151.266C351.039 150.984 352.383 150.625 353.664 150.188C354.946 149.75 356.18 149.266 357.367 148.734C358.555 148.203 359.68 147.672 360.742 147.141C361.024 147.078 361.258 147.031 361.446 147C361.664 146.938 361.867 146.906 362.055 146.906C362.055 146.906 362.039 147.156 362.008 147.656C362.008 148.156 362.008 148.859 362.008 149.766C362.008 150.672 361.992 151.766 361.961 153.047C361.961 154.328 361.946 155.75 361.914 157.312C362.008 157.469 362.071 157.625 362.102 157.781C362.133 157.938 362.149 158.062 362.149 158.156C362.149 158.531 361.805 158.938 361.117 159.375C360.43 159.812 359.524 160.266 358.399 160.734C357.305 161.203 356.039 161.656 354.602 162.094C353.196 162.531 351.758 162.922 350.289 163.266C348.821 163.641 347.399 163.922 346.024 164.109C344.649 164.328 343.446 164.438 342.414 164.438C339.039 164.438 335.758 163.844 332.571 162.656C329.414 161.5 326.602 159.828 324.133 157.641C321.696 155.453 319.742 152.797 318.274 149.672C316.805 146.547 316.071 143.031 316.071 139.125C316.071 135.031 316.774 131.203 318.18 127.641C319.586 124.047 321.555 120.922 324.086 118.266C326.649 115.609 329.696 113.516 333.227 111.984C336.758 110.453 340.649 109.688 344.899 109.688ZM344.336 122.156C343.055 122.156 341.867 122.438 340.774 123C339.711 123.531 338.727 124.312 337.821 125.344C336.946 126.344 336.18 127.562 335.524 129C334.867 130.406 334.336 131.969 333.93 133.688C337.149 133.125 339.821 132.531 341.946 131.906C344.071 131.281 345.774 130.656 347.055 130.031C348.336 129.375 349.242 128.734 349.774 128.109C350.305 127.453 350.571 126.828 350.571 126.234C350.571 125.672 350.352 125.141 349.914 124.641C349.508 124.141 348.992 123.703 348.367 123.328C347.742 122.953 347.055 122.672 346.305 122.484C345.586 122.266 344.93 122.156 344.336 122.156Z" stroke="#D9D9D9" stroke-width="2" mask="url(#path-1-outside-1_178_237)"/>
<path d="M136.737 93.0616L217.061 110.758L219.589 99.2828L139.265 81.5868L136.737 93.0616ZM215.698 62.3303L203.765 59.7012C200.849 59.0589 199.007 56.1752 199.649 53.2599L200.023 51.5637C201.104 46.6565 203.724 42.3384 206.94 38.4767C209.269 35.6791 210.77 32.1031 210.949 28.0012C211.267 20.7807 206.845 13.8055 200.156 11.0631C189.703 6.77664 178.437 13.012 176.119 23.5312C175.56 26.07 175.591 28.5922 176.114 30.9709C177.364 36.6701 177.958 42.4915 176.702 48.1913L176.699 48.2039C176.057 51.1192 173.173 52.9617 170.258 52.3194L158.324 49.6903C148.818 47.596 139.414 53.6043 137.32 63.1105L136.056 68.8479C135.358 72.0161 137.361 75.1514 140.529 75.8493L220.853 93.5454C224.021 94.2433 227.157 92.2401 227.855 89.072L229.119 83.3345C231.213 73.8284 225.205 64.4246 215.698 62.3303Z" fill="#0A6DC9"/>
</svg>
