<svg width="262" height="86" viewBox="0 0 262 86" fill="none" xmlns="http://www.w3.org/2000/svg">
<g filter="url(#filter0_d_11_79)">
<path d="M12.7007 44.576C10.8233 43.936 9.11665 43.296 7.58065 42.656C6.04465 41.9733 4.72199 41.1627 3.61265 40.224C2.50332 39.2853 1.62865 38.176 0.988654 36.896C0.391321 35.5733 0.092654 33.9733 0.092654 32.096C0.092654 28.4693 1.47932 25.568 4.25265 23.392C7.06865 21.216 10.994 20.128 16.0287 20.128C17.8633 20.128 19.57 20.256 21.1487 20.512C22.7273 20.768 24.0713 21.1733 25.1807 21.728C26.3327 22.24 27.2287 22.9227 27.8687 23.776C28.5087 24.5867 28.8287 25.5467 28.8287 26.656C28.8287 27.7653 28.5727 28.7253 28.0607 29.536C27.5487 30.304 26.93 30.9653 26.2047 31.52C25.266 30.9227 24.0073 30.4107 22.4287 29.984C20.85 29.5147 19.122 29.28 17.2447 29.28C15.3247 29.28 13.9167 29.5573 13.0207 30.112C12.1247 30.624 11.6767 31.2853 11.6767 32.096C11.6767 32.736 11.954 33.2693 12.5087 33.696C13.0633 34.08 13.8953 34.4427 15.0047 34.784L18.3967 35.872C22.4073 37.152 25.4793 38.7947 27.6127 40.8C29.7887 42.7627 30.8767 45.4507 30.8767 48.864C30.8767 52.4907 29.4473 55.4347 26.5887 57.696C23.73 59.9147 19.5273 61.024 13.9807 61.024C12.018 61.024 10.1833 60.8533 8.47665 60.512C6.81265 60.2133 5.34065 59.7653 4.06065 59.168C2.82332 58.528 1.84199 57.76 1.11665 56.864C0.433987 55.9253 0.092654 54.8587 0.092654 53.664C0.092654 52.4267 0.455321 51.3813 1.18065 50.528C1.90599 49.632 2.69532 48.9493 3.54865 48.48C4.74332 49.4187 6.19399 50.2293 7.90065 50.912C9.64999 51.5947 11.5487 51.936 13.5967 51.936C15.6873 51.936 17.1593 51.616 18.0127 50.976C18.866 50.336 19.2927 49.5893 19.2927 48.736C19.2927 47.8827 18.9513 47.2427 18.2687 46.816C17.586 46.3467 16.626 45.8987 15.3887 45.472L12.7007 44.576ZM43.4707 49.312C43.4707 50.4213 43.812 51.2107 44.4947 51.68C45.22 52.1493 46.2227 52.384 47.5027 52.384C48.1427 52.384 48.804 52.3413 49.4867 52.256C50.1693 52.128 50.7667 51.9787 51.2787 51.808C51.6627 52.2773 51.9827 52.8107 52.2387 53.408C52.5373 53.9627 52.6867 54.6453 52.6867 55.456C52.6867 57.0773 52.068 58.4 50.8307 59.424C49.636 60.448 47.5027 60.96 44.4307 60.96C40.676 60.96 37.7747 60.1067 35.7267 58.4C33.7213 56.6933 32.7187 53.92 32.7187 50.08V22.688C33.188 22.56 33.8493 22.432 34.7027 22.304C35.5987 22.1333 36.5373 22.048 37.5187 22.048C39.396 22.048 40.8467 22.3893 41.8707 23.072C42.9373 23.712 43.4707 25.0987 43.4707 27.232V31.328H51.8547C52.1107 31.7973 52.3453 32.3947 52.5587 33.12C52.8147 33.8027 52.9427 34.5707 52.9427 35.424C52.9427 36.9173 52.6013 38.0053 51.9187 38.688C51.2787 39.328 50.404 39.648 49.2947 39.648H43.4707V49.312ZM68.0077 53.088C68.733 53.088 69.5223 53.024 70.3757 52.896C71.2717 52.7253 71.933 52.512 72.3597 52.256V47.136L67.7517 47.52C66.557 47.6053 65.5757 47.8613 64.8077 48.288C64.0397 48.7147 63.6557 49.3547 63.6557 50.208C63.6557 51.0613 63.9757 51.7653 64.6157 52.32C65.2983 52.832 66.429 53.088 68.0077 53.088ZM67.4957 27.936C69.7997 27.936 71.8903 28.1707 73.7677 28.64C75.6877 29.1093 77.309 29.8347 78.6317 30.816C79.997 31.7547 81.0423 32.9707 81.7677 34.464C82.493 35.9147 82.8557 37.6427 82.8557 39.648V53.984C82.8557 55.0933 82.5357 56.0107 81.8957 56.736C81.2983 57.4187 80.573 58.016 79.7197 58.528C76.9463 60.192 73.0423 61.024 68.0077 61.024C65.7463 61.024 63.6983 60.8107 61.8637 60.384C60.0717 59.9573 58.5143 59.3173 57.1917 58.464C55.9117 57.6107 54.909 56.5227 54.1837 55.2C53.501 53.8773 53.1597 52.3413 53.1597 50.592C53.1597 47.648 54.0343 45.3867 55.7837 43.808C57.533 42.2293 60.2423 41.248 63.9117 40.864L72.2957 39.968V39.52C72.2957 38.2827 71.741 37.408 70.6317 36.896C69.565 36.3413 68.0077 36.064 65.9597 36.064C64.3383 36.064 62.7597 36.2347 61.2237 36.576C59.6877 36.9173 58.301 37.344 57.0637 37.856C56.509 37.472 56.0397 36.896 55.6557 36.128C55.2717 35.3173 55.0797 34.4853 55.0797 33.632C55.0797 32.5227 55.3357 31.648 55.8477 31.008C56.4023 30.3253 57.2343 29.7493 58.3437 29.28C59.581 28.8107 61.0317 28.4693 62.6957 28.256C64.4023 28.0427 66.0023 27.936 67.4957 27.936ZM100.9 27.936C102.649 27.936 104.356 28.192 106.02 28.704C107.727 29.1733 109.199 29.8987 110.436 30.88C111.716 30.0267 113.145 29.3227 114.724 28.768C116.345 28.2133 118.287 27.936 120.548 27.936C122.169 27.936 123.748 28.1493 125.284 28.576C126.863 29.0027 128.249 29.6853 129.444 30.624C130.681 31.52 131.663 32.736 132.388 34.272C133.113 35.7653 133.476 37.6 133.476 39.776V59.936C133.049 60.064 132.367 60.192 131.428 60.32C130.532 60.448 129.593 60.512 128.612 60.512C127.673 60.512 126.82 60.448 126.052 60.32C125.327 60.192 124.708 59.936 124.196 59.552C123.684 59.168 123.279 58.656 122.98 58.016C122.724 57.3333 122.596 56.4587 122.596 55.392V40.096C122.596 38.816 122.233 37.8987 121.508 37.344C120.783 36.7467 119.801 36.448 118.564 36.448C117.967 36.448 117.327 36.5973 116.644 36.896C115.961 37.152 115.449 37.4293 115.108 37.728C115.151 37.8987 115.172 38.0693 115.172 38.24C115.172 38.368 115.172 38.496 115.172 38.624V59.936C114.703 60.064 113.999 60.192 113.06 60.32C112.164 60.448 111.247 60.512 110.308 60.512C109.369 60.512 108.516 60.448 107.748 60.32C107.023 60.192 106.404 59.936 105.892 59.552C105.38 59.168 104.975 58.656 104.676 58.016C104.42 57.3333 104.292 56.4587 104.292 55.392V40.096C104.292 38.816 103.887 37.8987 103.076 37.344C102.308 36.7467 101.369 36.448 100.26 36.448C99.4922 36.448 98.8308 36.576 98.2762 36.832C97.7215 37.0453 97.2522 37.2587 96.8682 37.472V59.936C96.4415 60.064 95.7588 60.192 94.8202 60.32C93.9242 60.448 92.9855 60.512 92.0042 60.512C91.0655 60.512 90.2122 60.448 89.4442 60.32C88.7188 60.192 88.1002 59.936 87.5882 59.552C87.0762 59.168 86.6708 58.656 86.3722 58.016C86.1162 57.3333 85.9882 56.4587 85.9882 55.392V36.064C85.9882 34.912 86.2228 33.9947 86.6922 33.312C87.2042 32.6293 87.8868 31.9893 88.7402 31.392C90.1908 30.368 91.9828 29.536 94.1162 28.896C96.2922 28.256 98.5535 27.936 100.9 27.936ZM150.865 27.936C153.425 27.936 155.793 28.2773 157.969 28.96C160.188 29.6 162.086 30.6027 163.665 31.968C165.244 33.3333 166.481 35.0613 167.377 37.152C168.273 39.2 168.721 41.6533 168.721 44.512C168.721 47.2427 168.337 49.632 167.569 51.68C166.801 53.728 165.713 55.456 164.305 56.864C162.897 58.2293 161.19 59.2533 159.185 59.936C157.222 60.6187 155.025 60.96 152.593 60.96C150.758 60.96 149.052 60.6827 147.473 60.128V70.752C147.046 70.88 146.364 71.008 145.425 71.136C144.486 71.3067 143.526 71.392 142.545 71.392C141.606 71.392 140.753 71.328 139.985 71.2C139.26 71.072 138.641 70.816 138.129 70.432C137.617 70.048 137.233 69.5147 136.977 68.832C136.721 68.192 136.593 67.3387 136.593 66.272V35.552C136.593 34.4 136.828 33.4613 137.297 32.736C137.809 32.0107 138.492 31.3493 139.345 30.752C140.668 29.8987 142.31 29.216 144.273 28.704C146.236 28.192 148.433 27.936 150.865 27.936ZM150.993 52.384C155.388 52.384 157.585 49.76 157.585 44.512C157.585 41.7813 157.03 39.7547 155.921 38.432C154.854 37.1093 153.297 36.448 151.249 36.448C150.438 36.448 149.713 36.5547 149.073 36.768C148.433 36.9387 147.878 37.152 147.409 37.408V51.488C147.921 51.744 148.476 51.9573 149.073 52.128C149.67 52.2987 150.31 52.384 150.993 52.384ZM186.959 61.024C184.441 61.024 182.095 60.6827 179.919 60C177.785 59.2747 175.908 58.208 174.287 56.8C172.708 55.392 171.449 53.6213 170.511 51.488C169.615 49.3547 169.167 46.8587 169.167 44C169.167 41.184 169.615 38.7733 170.511 36.768C171.449 34.72 172.665 33.056 174.159 31.776C175.652 30.4533 177.359 29.4933 179.279 28.896C181.199 28.256 183.161 27.936 185.167 27.936C187.428 27.936 189.476 28.2773 191.311 28.96C193.188 29.6427 194.788 30.5813 196.111 31.776C197.476 32.9707 198.521 34.4 199.247 36.064C200.015 37.728 200.399 39.5413 200.399 41.504C200.399 42.9547 199.993 44.064 199.183 44.832C198.372 45.6 197.241 46.0907 195.791 46.304L179.983 48.672C180.452 50.08 181.412 51.1467 182.863 51.872C184.313 52.5547 185.977 52.896 187.855 52.896C189.604 52.896 191.247 52.6827 192.783 52.256C194.361 51.7867 195.641 51.2533 196.623 50.656C197.305 51.0827 197.881 51.68 198.351 52.448C198.82 53.216 199.055 54.0267 199.055 54.88C199.055 56.8 198.159 58.2293 196.367 59.168C195.001 59.8933 193.465 60.384 191.759 60.64C190.052 60.896 188.452 61.024 186.959 61.024ZM185.167 35.872C184.143 35.872 183.247 36.0427 182.479 36.384C181.753 36.7253 181.156 37.1733 180.687 37.728C180.217 38.24 179.855 38.8373 179.599 39.52C179.385 40.16 179.257 40.8213 179.215 41.504L190.159 39.712C190.031 38.8587 189.561 38.0053 188.751 37.152C187.94 36.2987 186.745 35.872 185.167 35.872ZM218.564 61.024C216.046 61.024 213.7 60.6827 211.524 60C209.39 59.2747 207.513 58.208 205.892 56.8C204.313 55.392 203.054 53.6213 202.116 51.488C201.22 49.3547 200.772 46.8587 200.772 44C200.772 41.184 201.22 38.7733 202.116 36.768C203.054 34.72 204.27 33.056 205.764 31.776C207.257 30.4533 208.964 29.4933 210.884 28.896C212.804 28.256 214.766 27.936 216.772 27.936C219.033 27.936 221.081 28.2773 222.916 28.96C224.793 29.6427 226.393 30.5813 227.716 31.776C229.081 32.9707 230.126 34.4 230.852 36.064C231.62 37.728 232.004 39.5413 232.004 41.504C232.004 42.9547 231.598 44.064 230.788 44.832C229.977 45.6 228.846 46.0907 227.396 46.304L211.588 48.672C212.057 50.08 213.017 51.1467 214.468 51.872C215.918 52.5547 217.582 52.896 219.46 52.896C221.209 52.896 222.852 52.6827 224.388 52.256C225.966 51.7867 227.246 51.2533 228.228 50.656C228.91 51.0827 229.486 51.68 229.956 52.448C230.425 53.216 230.66 54.0267 230.66 54.88C230.66 56.8 229.764 58.2293 227.972 59.168C226.606 59.8933 225.07 60.384 223.364 60.64C221.657 60.896 220.057 61.024 218.564 61.024ZM216.772 35.872C215.748 35.872 214.852 36.0427 214.084 36.384C213.358 36.7253 212.761 37.1733 212.292 37.728C211.822 38.24 211.46 38.8373 211.204 39.52C210.99 40.16 210.862 40.8213 210.82 41.504L221.764 39.712C221.636 38.8587 221.166 38.0053 220.356 37.152C219.545 36.2987 218.35 35.872 216.772 35.872Z" fill="#F05321" shape-rendering="crispEdges"/>
<path d="M12.7007 44.576L12.378 45.5225L12.3844 45.5247L12.7007 44.576ZM7.58065 42.656L7.17452 43.5698L7.18522 43.5746L7.19604 43.5791L7.58065 42.656ZM0.988654 36.896L0.0772833 37.3076L0.0854036 37.3256L0.0942268 37.3432L0.988654 36.896ZM4.25265 23.392L3.64119 22.6007L3.63537 22.6053L4.25265 23.392ZM21.1487 20.512L21.3087 19.5249L21.3087 19.5249L21.1487 20.512ZM25.1807 21.728L24.7334 22.6224L24.7538 22.6326L24.7745 22.6418L25.1807 21.728ZM27.8687 23.776L27.0687 24.376L27.0761 24.3859L27.0838 24.3956L27.8687 23.776ZM28.0607 29.536L28.8927 30.0907L28.8996 30.0804L28.9061 30.07L28.0607 29.536ZM26.2047 31.52L25.6678 32.3637L26.2572 32.7387L26.8121 32.3144L26.2047 31.52ZM22.4287 29.984L22.1437 30.9425L22.1557 30.9461L22.1677 30.9494L22.4287 29.984ZM13.0207 30.112L13.5168 30.9802L13.5321 30.9715L13.547 30.9623L13.0207 30.112ZM12.5087 33.696L11.8989 34.4886L11.9188 34.5039L11.9394 34.5182L12.5087 33.696ZM15.0047 34.784L15.3101 33.8317L15.2987 33.8282L15.0047 34.784ZM18.3967 35.872L18.0912 36.8242L18.0926 36.8247L18.3967 35.872ZM27.6127 40.8L26.9277 41.5286L26.9352 41.5357L26.9429 41.5426L27.6127 40.8ZM26.5887 57.696L27.2018 58.486L27.2091 58.4803L26.5887 57.696ZM8.47665 60.512L8.67277 59.5314L8.66306 59.5295L8.65332 59.5277L8.47665 60.512ZM4.06065 59.168L3.60123 60.0562L3.61932 60.0656L3.63777 60.0742L4.06065 59.168ZM1.11665 56.864L0.307918 57.4522L0.323133 57.4731L0.339409 57.4932L1.11665 56.864ZM1.18065 50.528L1.94259 51.1756L1.95036 51.1665L1.9579 51.1572L1.18065 50.528ZM3.54865 48.48L4.16648 47.6937L3.64634 47.285L3.06674 47.6038L3.54865 48.48ZM7.90065 50.912L7.52925 51.8405L7.53711 51.8436L7.90065 50.912ZM18.0127 50.976L18.6127 51.776L18.6127 51.776L18.0127 50.976ZM18.2687 46.816L17.7021 47.64L17.7201 47.6524L17.7387 47.664L18.2687 46.816ZM15.3887 45.472L15.7147 44.5266L15.7049 44.5233L15.3887 45.472ZM13.0233 43.6295C11.1631 42.9953 9.47747 42.363 7.96527 41.7329L7.19604 43.5791C8.75584 44.229 10.4836 44.8767 12.378 45.5225L13.0233 43.6295ZM7.98679 41.7422C6.52421 41.0921 5.28524 40.3293 4.2586 39.4606L2.96671 40.9874C4.15873 41.996 5.5651 42.8545 7.17452 43.5698L7.98679 41.7422ZM4.2586 39.4606C3.25101 38.608 2.46156 37.6057 1.88308 36.4488L0.0942268 37.3432C0.795745 38.7462 1.75564 39.9626 2.96671 40.9874L4.2586 39.4606ZM1.90002 36.4844C1.37558 35.3232 1.09265 33.8714 1.09265 32.096H-0.907346C-0.907346 34.0753 -0.592943 35.8235 0.0772833 37.3076L1.90002 36.4844ZM1.09265 32.096C1.09265 28.7661 2.34622 26.1589 4.86994 24.1787L3.63537 22.6053C0.612426 24.9771 -0.907346 28.1725 -0.907346 32.096H1.09265ZM4.8641 24.1833C7.44535 22.1887 11.1258 21.128 16.0287 21.128V19.128C10.8622 19.128 6.69196 20.2433 3.64121 22.6007L4.8641 24.1833ZM16.0287 21.128C17.8173 21.128 19.4699 21.2528 20.9886 21.4991L21.3087 19.5249C19.6701 19.2592 17.9093 19.128 16.0287 19.128V21.128ZM20.9886 21.4991C22.4947 21.7433 23.7364 22.1239 24.7334 22.6224L25.6279 20.8336C24.4063 20.2228 22.9599 19.7927 21.3087 19.5249L20.9886 21.4991ZM24.7745 22.6418C25.799 23.0972 26.5482 23.6821 27.0687 24.376L28.6687 23.176C27.9091 22.1633 26.8663 21.3828 25.5868 20.8142L24.7745 22.6418ZM27.0838 24.3956C27.5738 25.0163 27.8287 25.7537 27.8287 26.656H29.8287C29.8287 25.3396 29.4435 24.157 28.6535 23.1564L27.0838 24.3956ZM27.8287 26.656C27.8287 27.6066 27.6112 28.375 27.2152 29.002L28.9061 30.07C29.5341 29.0757 29.8287 27.9241 29.8287 26.656H27.8287ZM27.2286 28.9813C26.7771 29.6586 26.234 30.2387 25.5972 30.7256L26.8121 32.3144C27.626 31.692 28.3202 30.9494 28.8927 30.0907L27.2286 28.9813ZM26.7415 30.6763C25.6877 30.0057 24.3245 29.4605 22.6896 29.0186L22.1677 30.9494C23.6902 31.3608 24.8443 31.8396 25.6678 32.3637L26.7415 30.6763ZM22.7136 29.0255C21.0306 28.5251 19.2052 28.28 17.2447 28.28V30.28C19.0387 30.28 20.6694 30.5042 22.1437 30.9425L22.7136 29.0255ZM17.2447 28.28C15.2698 28.28 13.6316 28.5577 12.4943 29.2617L13.547 30.9623C14.2017 30.557 15.3795 30.28 17.2447 30.28V28.28ZM12.5245 29.2438C11.4156 29.8774 10.6767 30.8257 10.6767 32.096H12.6767C12.6767 31.7449 12.8337 31.3706 13.5168 30.9802L12.5245 29.2438ZM10.6767 32.096C10.6767 33.0784 11.1246 33.893 11.8989 34.4886L13.1184 32.9034C12.7833 32.6457 12.6767 32.3936 12.6767 32.096H10.6767ZM11.9394 34.5182C12.6178 34.9878 13.563 35.3867 14.7106 35.7398L15.2987 33.8282C14.2276 33.4986 13.5088 33.1722 13.0779 32.8738L11.9394 34.5182ZM14.6992 35.7362L18.0912 36.8242L18.7021 34.9198L15.3101 33.8318L14.6992 35.7362ZM18.0926 36.8247C22.0189 38.0777 24.9399 39.6601 26.9277 41.5286L28.2976 40.0714C26.0187 37.9292 22.7957 36.2263 18.7007 34.9193L18.0926 36.8247ZM26.9429 41.5426C28.8734 43.2838 29.8767 45.6825 29.8767 48.864H31.8767C31.8767 45.2188 30.7039 42.2415 28.2824 40.0574L26.9429 41.5426ZM29.8767 48.864C29.8767 52.1832 28.5886 54.8389 25.9683 56.9117L27.2091 58.4803C30.3061 56.0304 31.8767 52.7982 31.8767 48.864H29.8767ZM25.9755 56.906C23.3639 58.933 19.4172 60.024 13.9807 60.024V62.024C19.6374 62.024 24.0961 60.8964 27.2018 58.486L25.9755 56.906ZM13.9807 60.024C12.0756 60.024 10.3073 59.8583 8.67277 59.5314L8.28054 61.4926C10.0593 61.8483 11.9603 62.024 13.9807 62.024V60.024ZM8.65332 59.5277C7.05829 59.2414 5.6716 58.8162 4.48354 58.2618L3.63777 60.0742C5.0097 60.7144 6.56702 61.1852 8.29999 61.4963L8.65332 59.5277ZM4.52008 58.2798C3.3804 57.6903 2.51618 57.0035 1.8939 56.2348L0.339409 57.4932C1.1678 58.5165 2.26625 59.3657 3.60123 60.0562L4.52008 58.2798ZM1.92539 56.2758C1.37087 55.5134 1.09265 54.654 1.09265 53.664H-0.907346C-0.907346 55.0634 -0.502898 56.3373 0.307918 57.4522L1.92539 56.2758ZM1.09265 53.664C1.09265 52.6373 1.38736 51.8289 1.94259 51.1756L0.418715 49.8804C-0.476717 50.9338 -0.907346 52.216 -0.907346 53.664H1.09265ZM1.9579 51.1572C2.61642 50.3437 3.30957 49.7528 4.03057 49.3562L3.06674 47.6038C2.08107 48.1459 1.19555 48.9203 0.403409 49.8988L1.9579 51.1572ZM2.93083 49.2663C4.21421 50.2747 5.75197 51.1296 7.52926 51.8405L8.27204 49.9835C6.636 49.3291 5.27243 48.5626 4.16648 47.6937L2.93083 49.2663ZM7.53711 51.8436C9.4124 52.5754 11.4356 52.936 13.5967 52.936V50.936C11.6617 50.936 9.88757 50.6139 8.2642 49.9804L7.53711 51.8436ZM13.5967 52.936C15.7282 52.936 17.4849 52.6218 18.6127 51.776L17.4127 50.176C16.8337 50.6102 15.6464 50.936 13.5967 50.936V52.936ZM18.6127 51.776C19.648 50.9995 20.2927 49.9822 20.2927 48.736H18.2927C18.2927 49.1965 18.084 49.6725 17.4127 50.176L18.6127 51.776ZM20.2927 48.736C20.2927 47.5628 19.7943 46.5903 18.7987 45.968L17.7387 47.664C18.1084 47.8951 18.2927 48.2025 18.2927 48.736H20.2927ZM18.8352 45.992C18.0481 45.4508 16.994 44.9678 15.7146 44.5266L15.0627 46.4174C16.2579 46.8295 17.1239 47.2425 17.7021 47.64L18.8352 45.992ZM15.7049 44.5233L13.0169 43.6273L12.3844 45.5247L15.0724 46.4207L15.7049 44.5233ZM44.4947 51.68L43.9281 52.504L43.9397 52.512L43.9514 52.5196L44.4947 51.68ZM49.4867 52.256L49.6107 53.2483L49.641 53.2445L49.6709 53.2389L49.4867 52.256ZM51.2787 51.808L52.0526 51.1748L51.6162 50.6414L50.9624 50.8593L51.2787 51.808ZM52.2387 53.408L51.3195 53.8019L51.3371 53.8429L51.3582 53.8821L52.2387 53.408ZM50.8307 59.424L50.1931 58.6536L50.1864 58.6591L50.1799 58.6647L50.8307 59.424ZM35.7267 58.4L35.0785 59.1616L35.0865 59.1682L35.7267 58.4ZM32.7187 22.688L32.4555 21.7232L31.7187 21.9242V22.688H32.7187ZM34.7027 22.304L34.851 23.2929L34.8704 23.29L34.8898 23.2863L34.7027 22.304ZM41.8707 23.072L41.316 23.904L41.3358 23.9172L41.3562 23.9295L41.8707 23.072ZM43.4707 31.328H42.4707V32.328H43.4707V31.328ZM51.8547 31.328L52.7325 30.8491L52.4483 30.328H51.8547V31.328ZM52.5587 33.12L51.5993 33.4022L51.6096 33.4371L51.6223 33.4711L52.5587 33.12ZM43.4707 39.648V38.648H42.4707V39.648H43.4707ZM42.4707 49.312C42.4707 50.6278 42.8865 51.788 43.9281 52.504L45.0612 50.856C44.7374 50.6334 44.4707 50.2149 44.4707 49.312H42.4707ZM43.9514 52.5196C44.8989 53.1326 46.1172 53.384 47.5027 53.384V51.384C46.3282 51.384 45.5411 51.166 45.0379 50.8404L43.9514 52.5196ZM47.5027 53.384C48.1871 53.384 48.8899 53.3384 49.6107 53.2483L49.3626 51.2637C48.7181 51.3443 48.0982 51.384 47.5027 51.384V53.384ZM49.6709 53.2389C50.3864 53.1047 51.0295 52.9451 51.5949 52.7567L50.9624 50.8593C50.5038 51.0122 49.9523 51.1513 49.3024 51.2731L49.6709 53.2389ZM50.5047 52.4412C50.8252 52.833 51.0978 53.2846 51.3195 53.8019L53.1578 53.0141C52.8675 52.3367 52.5001 51.7217 52.0526 51.1748L50.5047 52.4412ZM51.3582 53.8821C51.5591 54.2552 51.6867 54.7646 51.6867 55.456H53.6867C53.6867 54.526 53.5156 53.6701 53.1191 52.9339L51.3582 53.8821ZM51.6867 55.456C51.6867 56.7826 51.1984 57.8217 50.1931 58.6536L51.4682 60.1944C52.9376 58.9783 53.6867 57.372 53.6867 55.456H51.6867ZM50.1799 58.6647C49.2738 59.4414 47.4595 59.96 44.4307 59.96V61.96C47.5458 61.96 49.9982 61.4546 51.4814 60.1833L50.1799 58.6647ZM44.4307 59.96C40.8157 59.96 38.174 59.1378 36.3668 57.6318L35.0865 59.1682C37.3753 61.0756 40.5363 61.96 44.4307 61.96V59.96ZM36.3748 57.6385C34.6797 56.1959 33.7187 53.7646 33.7187 50.08H31.7187C31.7187 54.0754 32.7629 57.1908 35.0785 59.1615L36.3748 57.6385ZM33.7187 50.08V22.688H31.7187V50.08H33.7187ZM32.9818 23.6528C33.3952 23.54 34.0117 23.4188 34.851 23.2929L34.5543 21.3151C33.6869 21.4452 32.9808 21.58 32.4555 21.7232L32.9818 23.6528ZM34.8898 23.2863C35.7196 23.1283 36.5954 23.048 37.5187 23.048V21.048C36.4792 21.048 35.4777 21.1384 34.5155 21.3217L34.8898 23.2863ZM37.5187 23.048C39.2952 23.048 40.5215 23.3744 41.316 23.904L42.4254 22.2399C41.1718 21.4042 39.4967 21.048 37.5187 21.048V23.048ZM41.3562 23.9295C41.9532 24.2877 42.4707 25.1944 42.4707 27.232H44.4707C44.4707 25.003 43.9214 23.1363 42.3851 22.2145L41.3562 23.9295ZM42.4707 27.232V31.328H44.4707V27.232H42.4707ZM43.4707 32.328H51.8547V30.328H43.4707V32.328ZM50.9768 31.8069C51.1879 32.1939 51.3985 32.7195 51.5993 33.4022L53.518 32.8378C53.2922 32.0699 53.0334 31.4007 52.7325 30.8491L50.9768 31.8069ZM51.6223 33.4711C51.8297 34.0242 51.9427 34.6705 51.9427 35.424H53.9427C53.9427 34.4708 53.7996 33.5812 53.495 32.7689L51.6223 33.4711ZM51.9427 35.424C51.9427 36.7937 51.626 37.5665 51.2115 37.9809L52.6258 39.3951C53.5767 38.4442 53.9427 37.041 53.9427 35.424H51.9427ZM51.2115 37.9809C50.7997 38.3927 50.2024 38.648 49.2947 38.648V40.648C50.6056 40.648 51.7576 40.2633 52.6258 39.3951L51.2115 37.9809ZM49.2947 38.648H43.4707V40.648H49.2947V38.648ZM42.4707 39.648V49.312H44.4707V39.648H42.4707ZM70.3757 52.896L70.524 53.8849L70.5434 53.882L70.5628 53.8783L70.3757 52.896ZM72.3597 52.256L72.8741 53.1135L73.3597 52.8222V52.256H72.3597ZM72.3597 47.136H73.3597V46.0492L72.2766 46.1395L72.3597 47.136ZM67.7517 47.52L67.8229 48.5175L67.8347 48.5165L67.7517 47.52ZM64.8077 48.288L64.322 47.4138L64.322 47.4138L64.8077 48.288ZM64.6157 52.32L63.9607 53.0757L63.9874 53.0988L64.0157 53.12L64.6157 52.32ZM73.7677 28.64L73.5251 29.6102L73.5302 29.6114L73.7677 28.64ZM78.6317 30.816L78.0358 31.6191L78.0503 31.6298L78.0651 31.64L78.6317 30.816ZM81.7677 34.464L80.8681 34.9009L80.8732 34.9112L81.7677 34.464ZM81.8957 56.736L81.1458 56.0744L81.1431 56.0775L81.8957 56.736ZM79.7197 58.528L79.2052 57.6705L79.2052 57.6705L79.7197 58.528ZM61.8637 60.384L61.632 61.3568L61.6371 61.358L61.8637 60.384ZM57.1917 58.464L56.637 59.2961L56.6432 59.3002L56.6495 59.3043L57.1917 58.464ZM54.1837 55.2L53.295 55.6586L53.3008 55.6698L53.3068 55.6808L54.1837 55.2ZM55.7837 43.808L55.1137 43.0656L55.1137 43.0656L55.7837 43.808ZM63.9117 40.864L64.0157 41.8586L64.0179 41.8583L63.9117 40.864ZM72.2957 39.968L72.4019 40.9623L73.2957 40.8668V39.968H72.2957ZM70.6317 36.896L70.1703 37.7832L70.1912 37.7941L70.2126 37.804L70.6317 36.896ZM61.2237 36.576L61.0067 35.5998L61.0067 35.5998L61.2237 36.576ZM57.0637 37.856L56.4944 38.6782L56.9425 38.9884L57.446 38.78L57.0637 37.856ZM55.6557 36.128L54.7519 36.5561L54.7565 36.5657L54.7612 36.5752L55.6557 36.128ZM55.8477 31.008L55.0715 30.3774L55.0668 30.3833L55.8477 31.008ZM58.3437 29.28L57.989 28.345L57.9714 28.3517L57.954 28.359L58.3437 29.28ZM62.6957 28.256L62.5716 27.2637L62.5685 27.2641L62.6957 28.256ZM68.0077 54.088C68.7909 54.088 69.6305 54.019 70.524 53.8849L70.2273 51.9071C69.4142 52.029 68.6751 52.088 68.0077 52.088V54.088ZM70.5628 53.8783C71.4947 53.7008 72.2948 53.4611 72.8741 53.1135L71.8452 51.3985C71.5712 51.5629 71.0486 51.7498 70.1885 51.9137L70.5628 53.8783ZM73.3597 52.256V47.136H71.3597V52.256H73.3597ZM72.2766 46.1395L67.6686 46.5235L67.8347 48.5165L72.4427 48.1325L72.2766 46.1395ZM67.6804 46.5225C66.3902 46.6147 65.255 46.8955 64.322 47.4138L65.2933 49.1622C65.8963 48.8271 66.7238 48.596 67.8229 48.5175L67.6804 46.5225ZM64.322 47.4138C63.812 47.6972 63.3833 48.0783 63.0862 48.5735C62.7882 49.0702 62.6557 49.6266 62.6557 50.208H64.6557C64.6557 49.9361 64.7151 49.7458 64.8011 49.6025C64.8881 49.4577 65.0353 49.3055 65.2933 49.1622L64.322 47.4138ZM62.6557 50.208C62.6557 51.3488 63.0997 52.3294 63.9607 53.0757L65.2706 51.5643C64.8517 51.2012 64.6557 50.7738 64.6557 50.208H62.6557ZM64.0157 53.12C64.9661 53.8328 66.3723 54.088 68.0077 54.088V52.088C66.4856 52.088 65.6305 51.8312 65.2157 51.52L64.0157 53.12ZM67.4957 28.936C69.7329 28.936 71.7405 29.164 73.5251 29.6101L74.0102 27.6699C72.0402 27.1774 69.8664 26.936 67.4957 26.936V28.936ZM73.5302 29.6114C75.3461 30.0553 76.8393 30.7314 78.0358 31.6191L79.2275 30.0129C77.7786 28.9379 76.0292 28.1634 74.0051 27.6686L73.5302 29.6114ZM78.0651 31.64C79.2875 32.4804 80.2183 33.5629 80.8681 34.9009L82.6672 34.0271C81.8664 32.3784 80.7064 31.0289 79.1982 29.992L78.0651 31.64ZM80.8732 34.9112C81.5147 36.1941 81.8557 37.7619 81.8557 39.648H83.8557C83.8557 37.5234 83.4713 35.6353 82.6621 34.0168L80.8732 34.9112ZM81.8557 39.648V53.984H83.8557V39.648H81.8557ZM81.8557 53.984C81.8557 54.8878 81.6011 55.5584 81.1458 56.0744L82.6455 57.3976C83.4702 56.4629 83.8557 55.2989 83.8557 53.984H81.8557ZM81.1431 56.0775C80.6206 56.6746 79.9779 57.2069 79.2052 57.6705L80.2341 59.3855C81.1681 58.8251 81.9761 58.1627 82.6482 57.3945L81.1431 56.0775ZM79.2052 57.6705C76.6509 59.2031 72.9534 60.024 68.0077 60.024V62.024C73.1312 62.024 77.2418 61.1809 80.2341 59.3855L79.2052 57.6705ZM68.0077 60.024C65.8079 60.024 63.8375 59.8164 62.0902 59.41L61.6371 61.358C63.5591 61.805 65.6847 62.024 68.0077 62.024V60.024ZM62.0953 59.4112C60.3952 59.0064 58.9465 58.4061 57.7338 57.6237L56.6495 59.3043C58.0821 60.2285 59.7481 60.9083 61.632 61.3568L62.0953 59.4112ZM57.7464 57.6319C56.5977 56.8662 55.7067 55.8976 55.0605 54.7192L53.3068 55.6808C54.1113 57.1477 55.2256 58.3552 56.637 59.2961L57.7464 57.6319ZM55.0723 54.7414C54.4746 53.5834 54.1597 52.2097 54.1597 50.592H52.1597C52.1597 52.473 52.5274 54.1713 53.295 55.6586L55.0723 54.7414ZM54.1597 50.592C54.1597 47.8552 54.9648 45.894 56.4536 44.5504L55.1137 43.0656C53.1039 44.8793 52.1597 47.4408 52.1597 50.592H54.1597ZM56.4536 44.5504C57.9794 43.1735 60.446 42.2321 64.0157 41.8586L63.8076 39.8694C60.0386 40.2639 57.0866 41.2852 55.1137 43.0656L56.4536 44.5504ZM64.0179 41.8583L72.4019 40.9623L72.1894 38.9737L63.8054 39.8697L64.0179 41.8583ZM73.2957 39.968V39.52H71.2957V39.968H73.2957ZM73.2957 39.52C73.2957 38.749 73.1214 38.0268 72.7242 37.4005C72.3265 36.7733 71.7482 36.3099 71.0507 35.988L70.2126 37.804C70.6245 37.9941 70.8782 38.224 71.0351 38.4715C71.1926 38.7199 71.2957 39.0536 71.2957 39.52H73.2957ZM71.093 36.0088C69.8166 35.345 68.0698 35.064 65.9597 35.064V37.064C67.9455 37.064 69.3134 37.3376 70.1703 37.7832L71.093 36.0088ZM65.9597 35.064C64.2676 35.064 62.6161 35.2422 61.0067 35.5998L61.4406 37.5522C62.9032 37.2272 64.4091 37.064 65.9597 37.064V35.064ZM61.0067 35.5998C59.4237 35.9516 57.9805 36.3944 56.6813 36.932L57.446 38.78C58.6215 38.2936 59.9516 37.8831 61.4406 37.5522L61.0067 35.5998ZM57.6329 37.0338C57.2491 36.7681 56.879 36.3386 56.5501 35.6808L54.7612 36.5752C55.2003 37.4534 55.7689 38.1759 56.4944 38.6782L57.6329 37.0338ZM56.5594 35.6999C56.2355 35.016 56.0797 34.3297 56.0797 33.632H54.0797C54.0797 34.641 54.3079 35.6186 54.7519 36.5561L56.5594 35.6999ZM56.0797 33.632C56.0797 32.6698 56.3013 32.0417 56.6285 31.6327L55.0668 30.3833C54.37 31.2543 54.0797 32.3755 54.0797 33.632H56.0797ZM56.6238 31.6386C57.0443 31.121 57.7217 30.629 58.7333 30.201L57.954 28.359C56.747 28.8697 55.7603 29.5296 55.0715 30.3774L56.6238 31.6386ZM58.6983 30.215C59.8458 29.7797 61.217 29.4538 62.8228 29.2479L62.5685 27.2641C60.8463 27.4849 59.3161 27.8416 57.989 28.345L58.6983 30.215ZM62.8197 29.2483C64.4912 29.0393 66.0494 28.936 67.4957 28.936V26.936C65.9552 26.936 64.3134 27.046 62.5716 27.2637L62.8197 29.2483ZM106.02 28.704L105.726 29.6598L105.74 29.6642L105.755 29.6682L106.02 28.704ZM110.436 30.88L109.815 31.6635L110.385 32.1159L110.991 31.712L110.436 30.88ZM114.724 28.768L114.4 27.8218L114.393 27.8245L114.724 28.768ZM125.284 28.576L125.017 29.5395L125.023 29.5414L125.284 28.576ZM129.444 30.624L128.826 31.4103L128.842 31.4224L128.858 31.4339L129.444 30.624ZM132.388 34.272L131.484 34.699L131.489 34.7089L132.388 34.272ZM133.476 59.936L133.764 60.8938L134.476 60.68V59.936H133.476ZM131.428 60.32L131.293 59.3291L131.287 59.3301L131.428 60.32ZM126.052 60.32L125.878 61.3048L125.888 61.3064L126.052 60.32ZM124.196 59.552L124.796 58.752L124.796 58.752L124.196 59.552ZM122.98 58.016L122.044 58.3671L122.058 58.4036L122.074 58.4389L122.98 58.016ZM121.508 37.344L120.872 38.1159L120.886 38.1274L120.901 38.1384L121.508 37.344ZM116.644 36.896L116.995 37.8323L117.02 37.8229L117.045 37.8122L116.644 36.896ZM115.108 37.728L114.45 36.9754L113.99 37.3778L114.138 37.9705L115.108 37.728ZM115.172 59.936L115.435 60.9008L116.172 60.6998V59.936H115.172ZM113.06 60.32L112.925 59.3291L112.919 59.3301L113.06 60.32ZM107.748 60.32L107.574 61.3048L107.584 61.3064L107.748 60.32ZM105.892 59.552L105.292 60.352L105.292 60.352L105.892 59.552ZM104.676 58.016L103.74 58.3671L103.754 58.4036L103.77 58.4389L104.676 58.016ZM103.076 37.344L102.462 38.1334L102.486 38.1521L102.511 38.1693L103.076 37.344ZM98.2762 36.832L98.6351 37.7653L98.6656 37.7536L98.6952 37.74L98.2762 36.832ZM96.8682 37.472L96.3825 36.5978L95.8682 36.8836V37.472H96.8682ZM96.8682 59.936L97.1555 60.8938L97.8682 60.68V59.936H96.8682ZM94.8202 60.32L94.685 59.3291L94.6787 59.3301L94.8202 60.32ZM89.4442 60.32L89.2704 61.3048L89.2798 61.3064L89.4442 60.32ZM87.5882 59.552L88.1882 58.752L88.1882 58.752L87.5882 59.552ZM86.3722 58.016L85.4358 58.3671L85.4495 58.4036L85.466 58.4389L86.3722 58.016ZM86.6922 33.312L85.8922 32.712L85.8798 32.7285L85.8681 32.7455L86.6922 33.312ZM88.7402 31.392L89.3136 32.2112L89.3168 32.209L88.7402 31.392ZM94.1162 28.896L93.834 27.9366L93.8288 27.9382L94.1162 28.896ZM100.9 28.936C102.55 28.936 104.158 29.1772 105.726 29.6598L106.314 27.7482C104.555 27.2068 102.749 26.936 100.9 26.936V28.936ZM105.755 29.6682C107.348 30.1062 108.695 30.7753 109.815 31.6635L111.058 30.0965C109.703 29.022 108.106 28.2405 106.285 27.7398L105.755 29.6682ZM110.991 31.712C112.196 30.9089 113.549 30.2409 115.056 29.7115L114.393 27.8245C112.742 28.4045 111.237 29.1445 109.881 30.0479L110.991 31.712ZM115.048 29.7142C116.538 29.2045 118.364 28.936 120.548 28.936V26.936C118.21 26.936 116.153 27.2222 114.4 27.8218L115.048 29.7142ZM120.548 28.936C122.081 28.936 123.569 29.1375 125.017 29.5395L125.552 27.6125C123.927 27.1612 122.258 26.936 120.548 26.936V28.936ZM125.023 29.5414C126.482 29.9357 127.745 30.5609 128.826 31.4103L130.062 29.8377C128.754 28.8098 127.244 28.0697 125.545 27.6106L125.023 29.5414ZM128.858 31.4339C129.944 32.2204 130.822 33.298 131.484 34.699L133.292 33.845C132.503 32.174 131.419 30.8196 130.031 29.8141L128.858 31.4339ZM131.489 34.7089C132.131 36.0306 132.476 37.7062 132.476 39.776H134.476C134.476 37.4938 134.096 35.5001 133.288 33.8351L131.489 34.7089ZM132.476 39.776V59.936H134.476V39.776H132.476ZM133.189 58.9782C132.842 59.0824 132.224 59.2022 131.293 59.3292L131.563 61.3108C132.509 61.1818 133.257 61.0456 133.764 60.8938L133.189 58.9782ZM131.287 59.3301C130.441 59.4508 129.55 59.512 128.612 59.512V61.512C129.637 61.512 130.623 61.4452 131.57 61.3099L131.287 59.3301ZM128.612 59.512C127.718 59.512 126.921 59.4509 126.217 59.3336L125.888 61.3064C126.72 61.4451 127.629 61.512 128.612 61.512V59.512ZM126.226 59.3352C125.632 59.2304 125.165 59.0285 124.796 58.752L123.596 60.352C124.251 60.8435 125.022 61.1536 125.878 61.3048L126.226 59.3352ZM124.796 58.752C124.429 58.4765 124.123 58.0999 123.886 57.5931L122.074 58.4389C122.435 59.2121 122.939 59.8595 123.596 60.352L124.796 58.752ZM123.916 57.6649C123.717 57.1337 123.596 56.3893 123.596 55.392H121.596C121.596 56.5281 121.731 57.533 122.044 58.3671L123.916 57.6649ZM123.596 55.392V40.096H121.596V55.392H123.596ZM123.596 40.096C123.596 38.6373 123.178 37.3617 122.116 36.5496L120.901 38.1384C121.289 38.4356 121.596 38.9947 121.596 40.096H123.596ZM122.144 36.5721C121.19 35.7862 119.959 35.448 118.564 35.448V37.448C119.644 37.448 120.376 37.7072 120.872 38.1159L122.144 36.5721ZM118.564 35.448C117.799 35.448 117.022 35.6391 116.243 35.9798L117.045 37.8122C117.632 37.5555 118.134 37.448 118.564 37.448V35.448ZM116.293 35.9597C115.558 36.2354 114.92 36.5641 114.45 36.9754L115.767 38.4806C115.979 38.2946 116.365 38.0686 116.995 37.8323L116.293 35.9597ZM114.138 37.9705C114.161 38.0643 114.172 38.1536 114.172 38.24H116.172C116.172 37.9851 116.14 37.733 116.078 37.4855L114.138 37.9705ZM114.172 38.24C114.172 38.2402 114.172 38.2405 114.172 38.2407C114.172 38.241 114.172 38.2412 114.172 38.2415C114.172 38.2417 114.172 38.242 114.172 38.2422C114.172 38.2425 114.172 38.2427 114.172 38.243C114.172 38.2432 114.172 38.2435 114.172 38.2437C114.172 38.244 114.172 38.2442 114.172 38.2445C114.172 38.2447 114.172 38.245 114.172 38.2452C114.172 38.2455 114.172 38.2457 114.172 38.246C114.172 38.2462 114.172 38.2465 114.172 38.2467C114.172 38.247 114.172 38.2472 114.172 38.2475C114.172 38.2477 114.172 38.248 114.172 38.2482C114.172 38.2485 114.172 38.2487 114.172 38.249C114.172 38.2492 114.172 38.2495 114.172 38.2497C114.172 38.25 114.172 38.2502 114.172 38.2505C114.172 38.2507 114.172 38.251 114.172 38.2512C114.172 38.2515 114.172 38.2517 114.172 38.252C114.172 38.2522 114.172 38.2525 114.172 38.2527C114.172 38.253 114.172 38.2532 114.172 38.2535C114.172 38.2537 114.172 38.254 114.172 38.2542C114.172 38.2545 114.172 38.2547 114.172 38.255C114.172 38.2552 114.172 38.2555 114.172 38.2557C114.172 38.256 114.172 38.2562 114.172 38.2565C114.172 38.2567 114.172 38.257 114.172 38.2572C114.172 38.2575 114.172 38.2577 114.172 38.258C114.172 38.2582 114.172 38.2585 114.172 38.2587C114.172 38.259 114.172 38.2592 114.172 38.2595C114.172 38.2597 114.172 38.26 114.172 38.2602C114.172 38.2605 114.172 38.2607 114.172 38.261C114.172 38.2612 114.172 38.2615 114.172 38.2617C114.172 38.262 114.172 38.2622 114.172 38.2625C114.172 38.2627 114.172 38.263 114.172 38.2632C114.172 38.2635 114.172 38.2637 114.172 38.264C114.172 38.2642 114.172 38.2645 114.172 38.2647C114.172 38.265 114.172 38.2652 114.172 38.2655C114.172 38.2657 114.172 38.266 114.172 38.2662C114.172 38.2665 114.172 38.2667 114.172 38.267C114.172 38.2672 114.172 38.2675 114.172 38.2677C114.172 38.268 114.172 38.2682 114.172 38.2685C114.172 38.2687 114.172 38.269 114.172 38.2692C114.172 38.2695 114.172 38.2697 114.172 38.27C114.172 38.2702 114.172 38.2705 114.172 38.2707C114.172 38.271 114.172 38.2712 114.172 38.2715C114.172 38.2717 114.172 38.272 114.172 38.2722C114.172 38.2725 114.172 38.2727 114.172 38.273C114.172 38.2732 114.172 38.2735 114.172 38.2737C114.172 38.274 114.172 38.2742 114.172 38.2745C114.172 38.2747 114.172 38.275 114.172 38.2752C114.172 38.2755 114.172 38.2757 114.172 38.276C114.172 38.2762 114.172 38.2765 114.172 38.2767C114.172 38.277 114.172 38.2772 114.172 38.2775C114.172 38.2777 114.172 38.278 114.172 38.2782C114.172 38.2785 114.172 38.2787 114.172 38.279C114.172 38.2792 114.172 38.2795 114.172 38.2797C114.172 38.28 114.172 38.2802 114.172 38.2805C114.172 38.2807 114.172 38.281 114.172 38.2812C114.172 38.2815 114.172 38.2817 114.172 38.282C114.172 38.2822 114.172 38.2825 114.172 38.2827C114.172 38.283 114.172 38.2832 114.172 38.2835C114.172 38.2837 114.172 38.284 114.172 38.2842C114.172 38.2845 114.172 38.2847 114.172 38.285C114.172 38.2852 114.172 38.2855 114.172 38.2857C114.172 38.286 114.172 38.2862 114.172 38.2865C114.172 38.2867 114.172 38.287 114.172 38.2872C114.172 38.2875 114.172 38.2877 114.172 38.288C114.172 38.2882 114.172 38.2885 114.172 38.2887C114.172 38.289 114.172 38.2892 114.172 38.2895C114.172 38.2897 114.172 38.29 114.172 38.2902C114.172 38.2905 114.172 38.2907 114.172 38.291C114.172 38.2912 114.172 38.2915 114.172 38.2917C114.172 38.292 114.172 38.2922 114.172 38.2925C114.172 38.2927 114.172 38.293 114.172 38.2932C114.172 38.2935 114.172 38.2937 114.172 38.294C114.172 38.2942 114.172 38.2945 114.172 38.2947C114.172 38.295 114.172 38.2952 114.172 38.2955C114.172 38.2957 114.172 38.296 114.172 38.2962C114.172 38.2965 114.172 38.2967 114.172 38.297C114.172 38.2972 114.172 38.2975 114.172 38.2977C114.172 38.298 114.172 38.2982 114.172 38.2985C114.172 38.2987 114.172 38.299 114.172 38.2992C114.172 38.2995 114.172 38.2997 114.172 38.3C114.172 38.3002 114.172 38.3005 114.172 38.3007C114.172 38.301 114.172 38.3012 114.172 38.3015C114.172 38.3017 114.172 38.302 114.172 38.3022C114.172 38.3025 114.172 38.3027 114.172 38.303C114.172 38.3032 114.172 38.3035 114.172 38.3037C114.172 38.304 114.172 38.3042 114.172 38.3045C114.172 38.3047 114.172 38.305 114.172 38.3052C114.172 38.3055 114.172 38.3057 114.172 38.306C114.172 38.3062 114.172 38.3065 114.172 38.3067C114.172 38.307 114.172 38.3072 114.172 38.3075C114.172 38.3077 114.172 38.308 114.172 38.3082C114.172 38.3085 114.172 38.3087 114.172 38.309C114.172 38.3092 114.172 38.3095 114.172 38.3097C114.172 38.31 114.172 38.3102 114.172 38.3105C114.172 38.3107 114.172 38.311 114.172 38.3112C114.172 38.3115 114.172 38.3117 114.172 38.312C114.172 38.3122 114.172 38.3125 114.172 38.3127C114.172 38.313 114.172 38.3132 114.172 38.3135C114.172 38.3137 114.172 38.314 114.172 38.3142C114.172 38.3145 114.172 38.3147 114.172 38.315C114.172 38.3152 114.172 38.3155 114.172 38.3157C114.172 38.316 114.172 38.3162 114.172 38.3165C114.172 38.3167 114.172 38.317 114.172 38.3172C114.172 38.3175 114.172 38.3177 114.172 38.318C114.172 38.3182 114.172 38.3185 114.172 38.3187C114.172 38.319 114.172 38.3192 114.172 38.3195C114.172 38.3197 114.172 38.32 114.172 38.3202C114.172 38.3205 114.172 38.3207 114.172 38.321C114.172 38.3212 114.172 38.3215 114.172 38.3217C114.172 38.322 114.172 38.3222 114.172 38.3225C114.172 38.3227 114.172 38.323 114.172 38.3232C114.172 38.3235 114.172 38.3237 114.172 38.324C114.172 38.3242 114.172 38.3245 114.172 38.3247C114.172 38.325 114.172 38.3252 114.172 38.3255C114.172 38.3257 114.172 38.326 114.172 38.3262C114.172 38.3265 114.172 38.3267 114.172 38.327C114.172 38.3272 114.172 38.3275 114.172 38.3277C114.172 38.328 114.172 38.3282 114.172 38.3285C114.172 38.3287 114.172 38.329 114.172 38.3292C114.172 38.3295 114.172 38.3297 114.172 38.33C114.172 38.3302 114.172 38.3305 114.172 38.3307C114.172 38.331 114.172 38.3312 114.172 38.3315C114.172 38.3317 114.172 38.332 114.172 38.3322C114.172 38.3325 114.172 38.3327 114.172 38.333C114.172 38.3332 114.172 38.3335 114.172 38.3337C114.172 38.334 114.172 38.3342 114.172 38.3345C114.172 38.3347 114.172 38.335 114.172 38.3352C114.172 38.3355 114.172 38.3357 114.172 38.336C114.172 38.3362 114.172 38.3365 114.172 38.3367C114.172 38.337 114.172 38.3372 114.172 38.3375C114.172 38.3377 114.172 38.338 114.172 38.3382C114.172 38.3385 114.172 38.3387 114.172 38.339C114.172 38.3392 114.172 38.3395 114.172 38.3397C114.172 38.34 114.172 38.3402 114.172 38.3405C114.172 38.3407 114.172 38.341 114.172 38.3412C114.172 38.3415 114.172 38.3417 114.172 38.342C114.172 38.3422 114.172 38.3425 114.172 38.3427C114.172 38.343 114.172 38.3432 114.172 38.3435C114.172 38.3437 114.172 38.344 114.172 38.3442C114.172 38.3445 114.172 38.3447 114.172 38.345C114.172 38.3452 114.172 38.3455 114.172 38.3457C114.172 38.346 114.172 38.3462 114.172 38.3465C114.172 38.3467 114.172 38.347 114.172 38.3472C114.172 38.3475 114.172 38.3477 114.172 38.348C114.172 38.3482 114.172 38.3485 114.172 38.3487C114.172 38.349 114.172 38.3492 114.172 38.3495C114.172 38.3497 114.172 38.35 114.172 38.3502C114.172 38.3505 114.172 38.3507 114.172 38.351C114.172 38.3512 114.172 38.3515 114.172 38.3517C114.172 38.352 114.172 38.3522 114.172 38.3525C114.172 38.3527 114.172 38.353 114.172 38.3532C114.172 38.3535 114.172 38.3537 114.172 38.354C114.172 38.3542 114.172 38.3545 114.172 38.3547C114.172 38.355 114.172 38.3552 114.172 38.3555C114.172 38.3557 114.172 38.356 114.172 38.3562C114.172 38.3565 114.172 38.3567 114.172 38.357C114.172 38.3572 114.172 38.3575 114.172 38.3577C114.172 38.358 114.172 38.3582 114.172 38.3585C114.172 38.3587 114.172 38.359 114.172 38.3592C114.172 38.3595 114.172 38.3597 114.172 38.36C114.172 38.3602 114.172 38.3605 114.172 38.3607C114.172 38.361 114.172 38.3612 114.172 38.3615C114.172 38.3617 114.172 38.362 114.172 38.3622C114.172 38.3625 114.172 38.3627 114.172 38.363C114.172 38.3632 114.172 38.3635 114.172 38.3637C114.172 38.364 114.172 38.3642 114.172 38.3645C114.172 38.3647 114.172 38.365 114.172 38.3652C114.172 38.3655 114.172 38.3657 114.172 38.366C114.172 38.3662 114.172 38.3665 114.172 38.3667C114.172 38.367 114.172 38.3672 114.172 38.3675C114.172 38.3677 114.172 38.368 114.172 38.3682C114.172 38.3685 114.172 38.3687 114.172 38.369C114.172 38.3692 114.172 38.3695 114.172 38.3697C114.172 38.37 114.172 38.3702 114.172 38.3705C114.172 38.3707 114.172 38.371 114.172 38.3712C114.172 38.3715 114.172 38.3717 114.172 38.372C114.172 38.3722 114.172 38.3725 114.172 38.3727C114.172 38.373 114.172 38.3732 114.172 38.3735C114.172 38.3737 114.172 38.374 114.172 38.3742C114.172 38.3745 114.172 38.3747 114.172 38.375C114.172 38.3752 114.172 38.3755 114.172 38.3757C114.172 38.376 114.172 38.3762 114.172 38.3765C114.172 38.3767 114.172 38.377 114.172 38.3772C114.172 38.3775 114.172 38.3777 114.172 38.378C114.172 38.3782 114.172 38.3785 114.172 38.3787C114.172 38.379 114.172 38.3792 114.172 38.3795C114.172 38.3797 114.172 38.38 114.172 38.3802C114.172 38.3805 114.172 38.3807 114.172 38.381C114.172 38.3812 114.172 38.3815 114.172 38.3817C114.172 38.382 114.172 38.3822 114.172 38.3825C114.172 38.3827 114.172 38.383 114.172 38.3832C114.172 38.3835 114.172 38.3837 114.172 38.384C114.172 38.3842 114.172 38.3845 114.172 38.3847C114.172 38.385 114.172 38.3852 114.172 38.3855C114.172 38.3857 114.172 38.386 114.172 38.3862C114.172 38.3865 114.172 38.3867 114.172 38.387C114.172 38.3872 114.172 38.3875 114.172 38.3877C114.172 38.388 114.172 38.3882 114.172 38.3885C114.172 38.3887 114.172 38.389 114.172 38.3892C114.172 38.3895 114.172 38.3897 114.172 38.39C114.172 38.3902 114.172 38.3905 114.172 38.3907C114.172 38.391 114.172 38.3912 114.172 38.3915C114.172 38.3917 114.172 38.392 114.172 38.3922C114.172 38.3925 114.172 38.3927 114.172 38.393C114.172 38.3932 114.172 38.3935 114.172 38.3937C114.172 38.394 114.172 38.3942 114.172 38.3945C114.172 38.3947 114.172 38.395 114.172 38.3952C114.172 38.3955 114.172 38.3957 114.172 38.396C114.172 38.3962 114.172 38.3965 114.172 38.3967C114.172 38.397 114.172 38.3972 114.172 38.3975C114.172 38.3977 114.172 38.398 114.172 38.3982C114.172 38.3985 114.172 38.3987 114.172 38.399C114.172 38.3992 114.172 38.3995 114.172 38.3997C114.172 38.4 114.172 38.4002 114.172 38.4005C114.172 38.4007 114.172 38.401 114.172 38.4012C114.172 38.4015 114.172 38.4017 114.172 38.402C114.172 38.4022 114.172 38.4025 114.172 38.4027C114.172 38.403 114.172 38.4032 114.172 38.4035C114.172 38.4037 114.172 38.404 114.172 38.4042C114.172 38.4045 114.172 38.4047 114.172 38.405C114.172 38.4052 114.172 38.4055 114.172 38.4057C114.172 38.406 114.172 38.4062 114.172 38.4065C114.172 38.4067 114.172 38.407 114.172 38.4072C114.172 38.4075 114.172 38.4077 114.172 38.408C114.172 38.4082 114.172 38.4085 114.172 38.4087C114.172 38.409 114.172 38.4092 114.172 38.4095C114.172 38.4097 114.172 38.41 114.172 38.4102C114.172 38.4105 114.172 38.4107 114.172 38.411C114.172 38.4112 114.172 38.4115 114.172 38.4117C114.172 38.412 114.172 38.4122 114.172 38.4125C114.172 38.4127 114.172 38.413 114.172 38.4132C114.172 38.4135 114.172 38.4137 114.172 38.414C114.172 38.4142 114.172 38.4145 114.172 38.4147C114.172 38.415 114.172 38.4152 114.172 38.4155C114.172 38.4157 114.172 38.416 114.172 38.4162C114.172 38.4165 114.172 38.4167 114.172 38.417C114.172 38.4172 114.172 38.4175 114.172 38.4177C114.172 38.418 114.172 38.4182 114.172 38.4185C114.172 38.4187 114.172 38.419 114.172 38.4192C114.172 38.4195 114.172 38.4197 114.172 38.42C114.172 38.4202 114.172 38.4205 114.172 38.4207C114.172 38.421 114.172 38.4212 114.172 38.4215C114.172 38.4217 114.172 38.422 114.172 38.4222C114.172 38.4225 114.172 38.4227 114.172 38.423C114.172 38.4232 114.172 38.4235 114.172 38.4237C114.172 38.424 114.172 38.4242 114.172 38.4245C114.172 38.4247 114.172 38.425 114.172 38.4252C114.172 38.4255 114.172 38.4257 114.172 38.426C114.172 38.4262 114.172 38.4265 114.172 38.4267C114.172 38.427 114.172 38.4272 114.172 38.4275C114.172 38.4277 114.172 38.428 114.172 38.4282C114.172 38.4285 114.172 38.4287 114.172 38.429C114.172 38.4292 114.172 38.4295 114.172 38.4297C114.172 38.43 114.172 38.4302 114.172 38.4305C114.172 38.4307 114.172 38.431 114.172 38.4312C114.172 38.4315 114.172 38.4317 114.172 38.432C114.172 38.4322 114.172 38.4325 114.172 38.4327C114.172 38.433 114.172 38.4332 114.172 38.4335C114.172 38.4337 114.172 38.434 114.172 38.4342C114.172 38.4345 114.172 38.4347 114.172 38.435C114.172 38.4352 114.172 38.4355 114.172 38.4357C114.172 38.436 114.172 38.4362 114.172 38.4365C114.172 38.4367 114.172 38.437 114.172 38.4372C114.172 38.4375 114.172 38.4377 114.172 38.438C114.172 38.4382 114.172 38.4385 114.172 38.4387C114.172 38.439 114.172 38.4392 114.172 38.4395C114.172 38.4397 114.172 38.44 114.172 38.4402C114.172 38.4405 114.172 38.4407 114.172 38.441C114.172 38.4412 114.172 38.4415 114.172 38.4417C114.172 38.442 114.172 38.4422 114.172 38.4425C114.172 38.4427 114.172 38.443 114.172 38.4432C114.172 38.4435 114.172 38.4437 114.172 38.444C114.172 38.4442 114.172 38.4445 114.172 38.4447C114.172 38.445 114.172 38.4452 114.172 38.4455C114.172 38.4457 114.172 38.446 114.172 38.4462C114.172 38.4465 114.172 38.4467 114.172 38.447C114.172 38.4472 114.172 38.4475 114.172 38.4477C114.172 38.448 114.172 38.4482 114.172 38.4485C114.172 38.4487 114.172 38.449 114.172 38.4492C114.172 38.4495 114.172 38.4497 114.172 38.45C114.172 38.4502 114.172 38.4505 114.172 38.4507C114.172 38.451 114.172 38.4512 114.172 38.4515C114.172 38.4517 114.172 38.452 114.172 38.4522C114.172 38.4525 114.172 38.4527 114.172 38.453C114.172 38.4532 114.172 38.4535 114.172 38.4537C114.172 38.454 114.172 38.4542 114.172 38.4545C114.172 38.4547 114.172 38.455 114.172 38.4552C114.172 38.4555 114.172 38.4557 114.172 38.456C114.172 38.4562 114.172 38.4565 114.172 38.4567C114.172 38.457 114.172 38.4572 114.172 38.4575C114.172 38.4577 114.172 38.458 114.172 38.4582C114.172 38.4585 114.172 38.4587 114.172 38.459C114.172 38.4592 114.172 38.4595 114.172 38.4597C114.172 38.46 114.172 38.4602 114.172 38.4605C114.172 38.4607 114.172 38.461 114.172 38.4612C114.172 38.4615 114.172 38.4617 114.172 38.462C114.172 38.4622 114.172 38.4625 114.172 38.4627C114.172 38.463 114.172 38.4632 114.172 38.4635C114.172 38.4637 114.172 38.464 114.172 38.4642C114.172 38.4645 114.172 38.4647 114.172 38.465C114.172 38.4652 114.172 38.4655 114.172 38.4657C114.172 38.466 114.172 38.4662 114.172 38.4665C114.172 38.4667 114.172 38.467 114.172 38.4672C114.172 38.4675 114.172 38.4677 114.172 38.468C114.172 38.4682 114.172 38.4685 114.172 38.4687C114.172 38.469 114.172 38.4692 114.172 38.4695C114.172 38.4697 114.172 38.47 114.172 38.4702C114.172 38.4705 114.172 38.4707 114.172 38.471C114.172 38.4712 114.172 38.4715 114.172 38.4717C114.172 38.472 114.172 38.4722 114.172 38.4725C114.172 38.4727 114.172 38.473 114.172 38.4732C114.172 38.4735 114.172 38.4737 114.172 38.474C114.172 38.4742 114.172 38.4745 114.172 38.4747C114.172 38.475 114.172 38.4752 114.172 38.4755C114.172 38.4757 114.172 38.476 114.172 38.4762C114.172 38.4765 114.172 38.4767 114.172 38.477C114.172 38.4772 114.172 38.4775 114.172 38.4777C114.172 38.478 114.172 38.4782 114.172 38.4785C114.172 38.4787 114.172 38.479 114.172 38.4792C114.172 38.4795 114.172 38.4797 114.172 38.48C114.172 38.4802 114.172 38.4805 114.172 38.4807C114.172 38.481 114.172 38.4812 114.172 38.4815C114.172 38.4817 114.172 38.482 114.172 38.4822C114.172 38.4825 114.172 38.4827 114.172 38.483C114.172 38.4832 114.172 38.4835 114.172 38.4837C114.172 38.484 114.172 38.4842 114.172 38.4845C114.172 38.4847 114.172 38.485 114.172 38.4852C114.172 38.4855 114.172 38.4857 114.172 38.486C114.172 38.4862 114.172 38.4865 114.172 38.4867C114.172 38.487 114.172 38.4872 114.172 38.4875C114.172 38.4877 114.172 38.488 114.172 38.4882C114.172 38.4885 114.172 38.4887 114.172 38.489C114.172 38.4892 114.172 38.4895 114.172 38.4897C114.172 38.49 114.172 38.4902 114.172 38.4905C114.172 38.4907 114.172 38.491 114.172 38.4912C114.172 38.4915 114.172 38.4917 114.172 38.492C114.172 38.4922 114.172 38.4925 114.172 38.4927C114.172 38.493 114.172 38.4932 114.172 38.4935C114.172 38.4937 114.172 38.494 114.172 38.4942C114.172 38.4945 114.172 38.4947 114.172 38.495C114.172 38.4952 114.172 38.4955 114.172 38.4957C114.172 38.496 114.172 38.4962 114.172 38.4965C114.172 38.4967 114.172 38.497 114.172 38.4972C114.172 38.4975 114.172 38.4977 114.172 38.498C114.172 38.4982 114.172 38.4985 114.172 38.4987C114.172 38.499 114.172 38.4992 114.172 38.4995C114.172 38.4997 114.172 38.5 114.172 38.5002C114.172 38.5005 114.172 38.5007 114.172 38.501C114.172 38.5012 114.172 38.5015 114.172 38.5017C114.172 38.502 114.172 38.5022 114.172 38.5025C114.172 38.5027 114.172 38.503 114.172 38.5032C114.172 38.5035 114.172 38.5037 114.172 38.504C114.172 38.5042 114.172 38.5045 114.172 38.5047C114.172 38.505 114.172 38.5052 114.172 38.5055C114.172 38.5057 114.172 38.506 114.172 38.5062C114.172 38.5065 114.172 38.5067 114.172 38.507C114.172 38.5072 114.172 38.5075 114.172 38.5077C114.172 38.508 114.172 38.5082 114.172 38.5085C114.172 38.5087 114.172 38.509 114.172 38.5092C114.172 38.5095 114.172 38.5097 114.172 38.51C114.172 38.5102 114.172 38.5105 114.172 38.5107C114.172 38.511 114.172 38.5112 114.172 38.5115C114.172 38.5117 114.172 38.512 114.172 38.5122C114.172 38.5125 114.172 38.5127 114.172 38.513C114.172 38.5132 114.172 38.5135 114.172 38.5137C114.172 38.514 114.172 38.5142 114.172 38.5145C114.172 38.5147 114.172 38.515 114.172 38.5152C114.172 38.5155 114.172 38.5157 114.172 38.516C114.172 38.5162 114.172 38.5165 114.172 38.5167C114.172 38.517 114.172 38.5172 114.172 38.5175C114.172 38.5177 114.172 38.518 114.172 38.5182C114.172 38.5185 114.172 38.5187 114.172 38.519C114.172 38.5192 114.172 38.5195 114.172 38.5197C114.172 38.52 114.172 38.5202 114.172 38.5205C114.172 38.5207 114.172 38.521 114.172 38.5212C114.172 38.5215 114.172 38.5217 114.172 38.522C114.172 38.5222 114.172 38.5225 114.172 38.5227C114.172 38.523 114.172 38.5232 114.172 38.5235C114.172 38.5237 114.172 38.524 114.172 38.5242C114.172 38.5245 114.172 38.5247 114.172 38.525C114.172 38.5252 114.172 38.5255 114.172 38.5257C114.172 38.526 114.172 38.5262 114.172 38.5265C114.172 38.5267 114.172 38.527 114.172 38.5272C114.172 38.5275 114.172 38.5277 114.172 38.528C114.172 38.5282 114.172 38.5285 114.172 38.5287C114.172 38.529 114.172 38.5292 114.172 38.5295C114.172 38.5297 114.172 38.53 114.172 38.5302C114.172 38.5305 114.172 38.5307 114.172 38.531C114.172 38.5312 114.172 38.5315 114.172 38.5317C114.172 38.532 114.172 38.5322 114.172 38.5325C114.172 38.5327 114.172 38.533 114.172 38.5332C114.172 38.5335 114.172 38.5337 114.172 38.534C114.172 38.5342 114.172 38.5345 114.172 38.5347C114.172 38.535 114.172 38.5352 114.172 38.5355C114.172 38.5357 114.172 38.536 114.172 38.5362C114.172 38.5365 114.172 38.5367 114.172 38.537C114.172 38.5372 114.172 38.5375 114.172 38.5377C114.172 38.538 114.172 38.5382 114.172 38.5385C114.172 38.5387 114.172 38.539 114.172 38.5392C114.172 38.5395 114.172 38.5397 114.172 38.54C114.172 38.5402 114.172 38.5405 114.172 38.5407C114.172 38.541 114.172 38.5412 114.172 38.5415C114.172 38.5417 114.172 38.542 114.172 38.5422C114.172 38.5425 114.172 38.5427 114.172 38.543C114.172 38.5432 114.172 38.5435 114.172 38.5437C114.172 38.544 114.172 38.5442 114.172 38.5445C114.172 38.5447 114.172 38.545 114.172 38.5452C114.172 38.5455 114.172 38.5457 114.172 38.546C114.172 38.5462 114.172 38.5465 114.172 38.5467C114.172 38.547 114.172 38.5472 114.172 38.5475C114.172 38.5477 114.172 38.548 114.172 38.5482C114.172 38.5485 114.172 38.5487 114.172 38.549C114.172 38.5492 114.172 38.5495 114.172 38.5497C114.172 38.55 114.172 38.5502 114.172 38.5505C114.172 38.5507 114.172 38.551 114.172 38.5512C114.172 38.5515 114.172 38.5517 114.172 38.552C114.172 38.5522 114.172 38.5525 114.172 38.5527C114.172 38.553 114.172 38.5532 114.172 38.5535C114.172 38.5537 114.172 38.554 114.172 38.5542C114.172 38.5545 114.172 38.5547 114.172 38.555C114.172 38.5552 114.172 38.5555 114.172 38.5557C114.172 38.556 114.172 38.5562 114.172 38.5565C114.172 38.5567 114.172 38.557 114.172 38.5572C114.172 38.5575 114.172 38.5577 114.172 38.558C114.172 38.5582 114.172 38.5585 114.172 38.5587C114.172 38.559 114.172 38.5592 114.172 38.5595C114.172 38.5597 114.172 38.56 114.172 38.5602C114.172 38.5605 114.172 38.5607 114.172 38.561C114.172 38.5612 114.172 38.5615 114.172 38.5617C114.172 38.562 114.172 38.5622 114.172 38.5625C114.172 38.5627 114.172 38.563 114.172 38.5632C114.172 38.5635 114.172 38.5637 114.172 38.564C114.172 38.5642 114.172 38.5645 114.172 38.5647C114.172 38.565 114.172 38.5652 114.172 38.5655C114.172 38.5657 114.172 38.566 114.172 38.5662C114.172 38.5665 114.172 38.5667 114.172 38.567C114.172 38.5672 114.172 38.5675 114.172 38.5677C114.172 38.568 114.172 38.5682 114.172 38.5685C114.172 38.5687 114.172 38.569 114.172 38.5692C114.172 38.5695 114.172 38.5697 114.172 38.57C114.172 38.5702 114.172 38.5705 114.172 38.5707C114.172 38.571 114.172 38.5712 114.172 38.5715C114.172 38.5717 114.172 38.572 114.172 38.5722C114.172 38.5725 114.172 38.5727 114.172 38.573C114.172 38.5732 114.172 38.5735 114.172 38.5737C114.172 38.574 114.172 38.5742 114.172 38.5745C114.172 38.5747 114.172 38.575 114.172 38.5752C114.172 38.5755 114.172 38.5757 114.172 38.576C114.172 38.5762 114.172 38.5765 114.172 38.5767C114.172 38.577 114.172 38.5772 114.172 38.5775C114.172 38.5777 114.172 38.578 114.172 38.5782C114.172 38.5785 114.172 38.5787 114.172 38.579C114.172 38.5792 114.172 38.5795 114.172 38.5797C114.172 38.58 114.172 38.5802 114.172 38.5805C114.172 38.5807 114.172 38.581 114.172 38.5812C114.172 38.5815 114.172 38.5817 114.172 38.582C114.172 38.5822 114.172 38.5825 114.172 38.5827C114.172 38.583 114.172 38.5832 114.172 38.5835C114.172 38.5837 114.172 38.584 114.172 38.5842C114.172 38.5845 114.172 38.5847 114.172 38.585C114.172 38.5852 114.172 38.5855 114.172 38.5857C114.172 38.586 114.172 38.5862 114.172 38.5865C114.172 38.5867 114.172 38.587 114.172 38.5872C114.172 38.5875 114.172 38.5877 114.172 38.588C114.172 38.5882 114.172 38.5885 114.172 38.5887C114.172 38.589 114.172 38.5892 114.172 38.5895C114.172 38.5897 114.172 38.59 114.172 38.5902C114.172 38.5905 114.172 38.5907 114.172 38.591C114.172 38.5912 114.172 38.5915 114.172 38.5917C114.172 38.592 114.172 38.5922 114.172 38.5925C114.172 38.5927 114.172 38.593 114.172 38.5932C114.172 38.5935 114.172 38.5937 114.172 38.594C114.172 38.5942 114.172 38.5945 114.172 38.5947C114.172 38.595 114.172 38.5952 114.172 38.5955C114.172 38.5957 114.172 38.596 114.172 38.5962C114.172 38.5965 114.172 38.5967 114.172 38.597C114.172 38.5972 114.172 38.5975 114.172 38.5977C114.172 38.598 114.172 38.5982 114.172 38.5985C114.172 38.5987 114.172 38.599 114.172 38.5992C114.172 38.5995 114.172 38.5997 114.172 38.6C114.172 38.6002 114.172 38.6005 114.172 38.6007C114.172 38.601 114.172 38.6012 114.172 38.6015C114.172 38.6017 114.172 38.602 114.172 38.6022C114.172 38.6025 114.172 38.6027 114.172 38.603C114.172 38.6032 114.172 38.6035 114.172 38.6037C114.172 38.604 114.172 38.6042 114.172 38.6045C114.172 38.6047 114.172 38.605 114.172 38.6052C114.172 38.6055 114.172 38.6057 114.172 38.606C114.172 38.6062 114.172 38.6065 114.172 38.6067C114.172 38.607 114.172 38.6072 114.172 38.6075C114.172 38.6077 114.172 38.608 114.172 38.6082C114.172 38.6085 114.172 38.6087 114.172 38.609C114.172 38.6092 114.172 38.6095 114.172 38.6097C114.172 38.61 114.172 38.6102 114.172 38.6105C114.172 38.6107 114.172 38.611 114.172 38.6112C114.172 38.6115 114.172 38.6117 114.172 38.612C114.172 38.6122 114.172 38.6125 114.172 38.6127C114.172 38.613 114.172 38.6132 114.172 38.6135C114.172 38.6137 114.172 38.614 114.172 38.6142C114.172 38.6145 114.172 38.6147 114.172 38.615C114.172 38.6152 114.172 38.6155 114.172 38.6157C114.172 38.616 114.172 38.6162 114.172 38.6165C114.172 38.6167 114.172 38.617 114.172 38.6172C114.172 38.6175 114.172 38.6177 114.172 38.618C114.172 38.6182 114.172 38.6185 114.172 38.6187C114.172 38.619 114.172 38.6192 114.172 38.6195C114.172 38.6197 114.172 38.62 114.172 38.6202C114.172 38.6205 114.172 38.6207 114.172 38.621C114.172 38.6212 114.172 38.6215 114.172 38.6217C114.172 38.622 114.172 38.6222 114.172 38.6225C114.172 38.6227 114.172 38.623 114.172 38.6232C114.172 38.6235 114.172 38.6237 114.172 38.624H116.172C116.172 38.6237 116.172 38.6235 116.172 38.6232C116.172 38.623 116.172 38.6227 116.172 38.6225C116.172 38.6222 116.172 38.622 116.172 38.6217C116.172 38.6215 116.172 38.6212 116.172 38.621C116.172 38.6207 116.172 38.6205 116.172 38.6202C116.172 38.62 116.172 38.6197 116.172 38.6195C116.172 38.6192 116.172 38.619 116.172 38.6187C116.172 38.6185 116.172 38.6182 116.172 38.618C116.172 38.6177 116.172 38.6175 116.172 38.6172C116.172 38.617 116.172 38.6167 116.172 38.6165C116.172 38.6162 116.172 38.616 116.172 38.6157C116.172 38.6155 116.172 38.6152 116.172 38.615C116.172 38.6147 116.172 38.6145 116.172 38.6142C116.172 38.614 116.172 38.6137 116.172 38.6135C116.172 38.6132 116.172 38.613 116.172 38.6127C116.172 38.6125 116.172 38.6122 116.172 38.612C116.172 38.6117 116.172 38.6115 116.172 38.6112C116.172 38.611 116.172 38.6107 116.172 38.6105C116.172 38.6102 116.172 38.61 116.172 38.6097C116.172 38.6095 116.172 38.6092 116.172 38.609C116.172 38.6087 116.172 38.6085 116.172 38.6082C116.172 38.608 116.172 38.6077 116.172 38.6075C116.172 38.6072 116.172 38.607 116.172 38.6067C116.172 38.6065 116.172 38.6062 116.172 38.606C116.172 38.6057 116.172 38.6055 116.172 38.6052C116.172 38.605 116.172 38.6047 116.172 38.6045C116.172 38.6042 116.172 38.604 116.172 38.6037C116.172 38.6035 116.172 38.6032 116.172 38.603C116.172 38.6027 116.172 38.6025 116.172 38.6022C116.172 38.602 116.172 38.6017 116.172 38.6015C116.172 38.6012 116.172 38.601 116.172 38.6007C116.172 38.6005 116.172 38.6002 116.172 38.6C116.172 38.5997 116.172 38.5995 116.172 38.5992C116.172 38.599 116.172 38.5987 116.172 38.5985C116.172 38.5982 116.172 38.598 116.172 38.5977C116.172 38.5975 116.172 38.5972 116.172 38.597C116.172 38.5967 116.172 38.5965 116.172 38.5962C116.172 38.596 116.172 38.5957 116.172 38.5955C116.172 38.5952 116.172 38.595 116.172 38.5947C116.172 38.5945 116.172 38.5942 116.172 38.594C116.172 38.5937 116.172 38.5935 116.172 38.5932C116.172 38.593 116.172 38.5927 116.172 38.5925C116.172 38.5922 116.172 38.592 116.172 38.5917C116.172 38.5915 116.172 38.5912 116.172 38.591C116.172 38.5907 116.172 38.5905 116.172 38.5902C116.172 38.59 116.172 38.5897 116.172 38.5895C116.172 38.5892 116.172 38.589 116.172 38.5887C116.172 38.5885 116.172 38.5882 116.172 38.588C116.172 38.5877 116.172 38.5875 116.172 38.5872C116.172 38.587 116.172 38.5867 116.172 38.5865C116.172 38.5862 116.172 38.586 116.172 38.5857C116.172 38.5855 116.172 38.5852 116.172 38.585C116.172 38.5847 116.172 38.5845 116.172 38.5842C116.172 38.584 116.172 38.5837 116.172 38.5835C116.172 38.5832 116.172 38.583 116.172 38.5827C116.172 38.5825 116.172 38.5822 116.172 38.582C116.172 38.5817 116.172 38.5815 116.172 38.5812C116.172 38.581 116.172 38.5807 116.172 38.5805C116.172 38.5802 116.172 38.58 116.172 38.5797C116.172 38.5795 116.172 38.5792 116.172 38.579C116.172 38.5787 116.172 38.5785 116.172 38.5782C116.172 38.578 116.172 38.5777 116.172 38.5775C116.172 38.5772 116.172 38.577 116.172 38.5767C116.172 38.5765 116.172 38.5762 116.172 38.576C116.172 38.5757 116.172 38.5755 116.172 38.5752C116.172 38.575 116.172 38.5747 116.172 38.5745C116.172 38.5742 116.172 38.574 116.172 38.5737C116.172 38.5735 116.172 38.5732 116.172 38.573C116.172 38.5727 116.172 38.5725 116.172 38.5722C116.172 38.572 116.172 38.5717 116.172 38.5715C116.172 38.5712 116.172 38.571 116.172 38.5707C116.172 38.5705 116.172 38.5702 116.172 38.57C116.172 38.5697 116.172 38.5695 116.172 38.5692C116.172 38.569 116.172 38.5687 116.172 38.5685C116.172 38.5682 116.172 38.568 116.172 38.5677C116.172 38.5675 116.172 38.5672 116.172 38.567C116.172 38.5667 116.172 38.5665 116.172 38.5662C116.172 38.566 116.172 38.5657 116.172 38.5655C116.172 38.5652 116.172 38.565 116.172 38.5647C116.172 38.5645 116.172 38.5642 116.172 38.564C116.172 38.5637 116.172 38.5635 116.172 38.5632C116.172 38.563 116.172 38.5627 116.172 38.5625C116.172 38.5622 116.172 38.562 116.172 38.5617C116.172 38.5615 116.172 38.5612 116.172 38.561C116.172 38.5607 116.172 38.5605 116.172 38.5602C116.172 38.56 116.172 38.5597 116.172 38.5595C116.172 38.5592 116.172 38.559 116.172 38.5587C116.172 38.5585 116.172 38.5582 116.172 38.558C116.172 38.5577 116.172 38.5575 116.172 38.5572C116.172 38.557 116.172 38.5567 116.172 38.5565C116.172 38.5562 116.172 38.556 116.172 38.5557C116.172 38.5555 116.172 38.5552 116.172 38.555C116.172 38.5547 116.172 38.5545 116.172 38.5542C116.172 38.554 116.172 38.5537 116.172 38.5535C116.172 38.5532 116.172 38.553 116.172 38.5527C116.172 38.5525 116.172 38.5522 116.172 38.552C116.172 38.5517 116.172 38.5515 116.172 38.5512C116.172 38.551 116.172 38.5507 116.172 38.5505C116.172 38.5502 116.172 38.55 116.172 38.5497C116.172 38.5495 116.172 38.5492 116.172 38.549C116.172 38.5487 116.172 38.5485 116.172 38.5482C116.172 38.548 116.172 38.5477 116.172 38.5475C116.172 38.5472 116.172 38.547 116.172 38.5467C116.172 38.5465 116.172 38.5462 116.172 38.546C116.172 38.5457 116.172 38.5455 116.172 38.5452C116.172 38.545 116.172 38.5447 116.172 38.5445C116.172 38.5442 116.172 38.544 116.172 38.5437C116.172 38.5435 116.172 38.5432 116.172 38.543C116.172 38.5427 116.172 38.5425 116.172 38.5422C116.172 38.542 116.172 38.5417 116.172 38.5415C116.172 38.5412 116.172 38.541 116.172 38.5407C116.172 38.5405 116.172 38.5402 116.172 38.54C116.172 38.5397 116.172 38.5395 116.172 38.5392C116.172 38.539 116.172 38.5387 116.172 38.5385C116.172 38.5382 116.172 38.538 116.172 38.5377C116.172 38.5375 116.172 38.5372 116.172 38.537C116.172 38.5367 116.172 38.5365 116.172 38.5362C116.172 38.536 116.172 38.5357 116.172 38.5355C116.172 38.5352 116.172 38.535 116.172 38.5347C116.172 38.5345 116.172 38.5342 116.172 38.534C116.172 38.5337 116.172 38.5335 116.172 38.5332C116.172 38.533 116.172 38.5327 116.172 38.5325C116.172 38.5322 116.172 38.532 116.172 38.5317C116.172 38.5315 116.172 38.5312 116.172 38.531C116.172 38.5307 116.172 38.5305 116.172 38.5302C116.172 38.53 116.172 38.5297 116.172 38.5295C116.172 38.5292 116.172 38.529 116.172 38.5287C116.172 38.5285 116.172 38.5282 116.172 38.528C116.172 38.5277 116.172 38.5275 116.172 38.5272C116.172 38.527 116.172 38.5267 116.172 38.5265C116.172 38.5262 116.172 38.526 116.172 38.5257C116.172 38.5255 116.172 38.5252 116.172 38.525C116.172 38.5247 116.172 38.5245 116.172 38.5242C116.172 38.524 116.172 38.5237 116.172 38.5235C116.172 38.5232 116.172 38.523 116.172 38.5227C116.172 38.5225 116.172 38.5222 116.172 38.522C116.172 38.5217 116.172 38.5215 116.172 38.5212C116.172 38.521 116.172 38.5207 116.172 38.5205C116.172 38.5202 116.172 38.52 116.172 38.5197C116.172 38.5195 116.172 38.5192 116.172 38.519C116.172 38.5187 116.172 38.5185 116.172 38.5182C116.172 38.518 116.172 38.5177 116.172 38.5175C116.172 38.5172 116.172 38.517 116.172 38.5167C116.172 38.5165 116.172 38.5162 116.172 38.516C116.172 38.5157 116.172 38.5155 116.172 38.5152C116.172 38.515 116.172 38.5147 116.172 38.5145C116.172 38.5142 116.172 38.514 116.172 38.5137C116.172 38.5135 116.172 38.5132 116.172 38.513C116.172 38.5127 116.172 38.5125 116.172 38.5122C116.172 38.512 116.172 38.5117 116.172 38.5115C116.172 38.5112 116.172 38.511 116.172 38.5107C116.172 38.5105 116.172 38.5102 116.172 38.51C116.172 38.5097 116.172 38.5095 116.172 38.5092C116.172 38.509 116.172 38.5087 116.172 38.5085C116.172 38.5082 116.172 38.508 116.172 38.5077C116.172 38.5075 116.172 38.5072 116.172 38.507C116.172 38.5067 116.172 38.5065 116.172 38.5062C116.172 38.506 116.172 38.5057 116.172 38.5055C116.172 38.5052 116.172 38.505 116.172 38.5047C116.172 38.5045 116.172 38.5042 116.172 38.504C116.172 38.5037 116.172 38.5035 116.172 38.5032C116.172 38.503 116.172 38.5027 116.172 38.5025C116.172 38.5022 116.172 38.502 116.172 38.5017C116.172 38.5015 116.172 38.5012 116.172 38.501C116.172 38.5007 116.172 38.5005 116.172 38.5002C116.172 38.5 116.172 38.4997 116.172 38.4995C116.172 38.4992 116.172 38.499 116.172 38.4987C116.172 38.4985 116.172 38.4982 116.172 38.498C116.172 38.4977 116.172 38.4975 116.172 38.4972C116.172 38.497 116.172 38.4967 116.172 38.4965C116.172 38.4962 116.172 38.496 116.172 38.4957C116.172 38.4955 116.172 38.4952 116.172 38.495C116.172 38.4947 116.172 38.4945 116.172 38.4942C116.172 38.494 116.172 38.4937 116.172 38.4935C116.172 38.4932 116.172 38.493 116.172 38.4927C116.172 38.4925 116.172 38.4922 116.172 38.492C116.172 38.4917 116.172 38.4915 116.172 38.4912C116.172 38.491 116.172 38.4907 116.172 38.4905C116.172 38.4902 116.172 38.49 116.172 38.4897C116.172 38.4895 116.172 38.4892 116.172 38.489C116.172 38.4887 116.172 38.4885 116.172 38.4882C116.172 38.488 116.172 38.4877 116.172 38.4875C116.172 38.4872 116.172 38.487 116.172 38.4867C116.172 38.4865 116.172 38.4862 116.172 38.486C116.172 38.4857 116.172 38.4855 116.172 38.4852C116.172 38.485 116.172 38.4847 116.172 38.4845C116.172 38.4842 116.172 38.484 116.172 38.4837C116.172 38.4835 116.172 38.4832 116.172 38.483C116.172 38.4827 116.172 38.4825 116.172 38.4822C116.172 38.482 116.172 38.4817 116.172 38.4815C116.172 38.4812 116.172 38.481 116.172 38.4807C116.172 38.4805 116.172 38.4802 116.172 38.48C116.172 38.4797 116.172 38.4795 116.172 38.4792C116.172 38.479 116.172 38.4787 116.172 38.4785C116.172 38.4782 116.172 38.478 116.172 38.4777C116.172 38.4775 116.172 38.4772 116.172 38.477C116.172 38.4767 116.172 38.4765 116.172 38.4762C116.172 38.476 116.172 38.4757 116.172 38.4755C116.172 38.4752 116.172 38.475 116.172 38.4747C116.172 38.4745 116.172 38.4742 116.172 38.474C116.172 38.4737 116.172 38.4735 116.172 38.4732C116.172 38.473 116.172 38.4727 116.172 38.4725C116.172 38.4722 116.172 38.472 116.172 38.4717C116.172 38.4715 116.172 38.4712 116.172 38.471C116.172 38.4707 116.172 38.4705 116.172 38.4702C116.172 38.47 116.172 38.4697 116.172 38.4695C116.172 38.4692 116.172 38.469 116.172 38.4687C116.172 38.4685 116.172 38.4682 116.172 38.468C116.172 38.4677 116.172 38.4675 116.172 38.4672C116.172 38.467 116.172 38.4667 116.172 38.4665C116.172 38.4662 116.172 38.466 116.172 38.4657C116.172 38.4655 116.172 38.4652 116.172 38.465C116.172 38.4647 116.172 38.4645 116.172 38.4642C116.172 38.464 116.172 38.4637 116.172 38.4635C116.172 38.4632 116.172 38.463 116.172 38.4627C116.172 38.4625 116.172 38.4622 116.172 38.462C116.172 38.4617 116.172 38.4615 116.172 38.4612C116.172 38.461 116.172 38.4607 116.172 38.4605C116.172 38.4602 116.172 38.46 116.172 38.4597C116.172 38.4595 116.172 38.4592 116.172 38.459C116.172 38.4587 116.172 38.4585 116.172 38.4582C116.172 38.458 116.172 38.4577 116.172 38.4575C116.172 38.4572 116.172 38.457 116.172 38.4567C116.172 38.4565 116.172 38.4562 116.172 38.456C116.172 38.4557 116.172 38.4555 116.172 38.4552C116.172 38.455 116.172 38.4547 116.172 38.4545C116.172 38.4542 116.172 38.454 116.172 38.4537C116.172 38.4535 116.172 38.4532 116.172 38.453C116.172 38.4527 116.172 38.4525 116.172 38.4522C116.172 38.452 116.172 38.4517 116.172 38.4515C116.172 38.4512 116.172 38.451 116.172 38.4507C116.172 38.4505 116.172 38.4502 116.172 38.45C116.172 38.4497 116.172 38.4495 116.172 38.4492C116.172 38.449 116.172 38.4487 116.172 38.4485C116.172 38.4482 116.172 38.448 116.172 38.4477C116.172 38.4475 116.172 38.4472 116.172 38.447C116.172 38.4467 116.172 38.4465 116.172 38.4462C116.172 38.446 116.172 38.4457 116.172 38.4455C116.172 38.4452 116.172 38.445 116.172 38.4447C116.172 38.4445 116.172 38.4442 116.172 38.444C116.172 38.4437 116.172 38.4435 116.172 38.4432C116.172 38.443 116.172 38.4427 116.172 38.4425C116.172 38.4422 116.172 38.442 116.172 38.4417C116.172 38.4415 116.172 38.4412 116.172 38.441C116.172 38.4407 116.172 38.4405 116.172 38.4402C116.172 38.44 116.172 38.4397 116.172 38.4395C116.172 38.4392 116.172 38.439 116.172 38.4387C116.172 38.4385 116.172 38.4382 116.172 38.438C116.172 38.4377 116.172 38.4375 116.172 38.4372C116.172 38.437 116.172 38.4367 116.172 38.4365C116.172 38.4362 116.172 38.436 116.172 38.4357C116.172 38.4355 116.172 38.4352 116.172 38.435C116.172 38.4347 116.172 38.4345 116.172 38.4342C116.172 38.434 116.172 38.4337 116.172 38.4335C116.172 38.4332 116.172 38.433 116.172 38.4327C116.172 38.4325 116.172 38.4322 116.172 38.432C116.172 38.4317 116.172 38.4315 116.172 38.4312C116.172 38.431 116.172 38.4307 116.172 38.4305C116.172 38.4302 116.172 38.43 116.172 38.4297C116.172 38.4295 116.172 38.4292 116.172 38.429C116.172 38.4287 116.172 38.4285 116.172 38.4282C116.172 38.428 116.172 38.4277 116.172 38.4275C116.172 38.4272 116.172 38.427 116.172 38.4267C116.172 38.4265 116.172 38.4262 116.172 38.426C116.172 38.4257 116.172 38.4255 116.172 38.4252C116.172 38.425 116.172 38.4247 116.172 38.4245C116.172 38.4242 116.172 38.424 116.172 38.4237C116.172 38.4235 116.172 38.4232 116.172 38.423C116.172 38.4227 116.172 38.4225 116.172 38.4222C116.172 38.422 116.172 38.4217 116.172 38.4215C116.172 38.4212 116.172 38.421 116.172 38.4207C116.172 38.4205 116.172 38.4202 116.172 38.42C116.172 38.4197 116.172 38.4195 116.172 38.4192C116.172 38.419 116.172 38.4187 116.172 38.4185C116.172 38.4182 116.172 38.418 116.172 38.4177C116.172 38.4175 116.172 38.4172 116.172 38.417C116.172 38.4167 116.172 38.4165 116.172 38.4162C116.172 38.416 116.172 38.4157 116.172 38.4155C116.172 38.4152 116.172 38.415 116.172 38.4147C116.172 38.4145 116.172 38.4142 116.172 38.414C116.172 38.4137 116.172 38.4135 116.172 38.4132C116.172 38.413 116.172 38.4127 116.172 38.4125C116.172 38.4122 116.172 38.412 116.172 38.4117C116.172 38.4115 116.172 38.4112 116.172 38.411C116.172 38.4107 116.172 38.4105 116.172 38.4102C116.172 38.41 116.172 38.4097 116.172 38.4095C116.172 38.4092 116.172 38.409 116.172 38.4087C116.172 38.4085 116.172 38.4082 116.172 38.408C116.172 38.4077 116.172 38.4075 116.172 38.4072C116.172 38.407 116.172 38.4067 116.172 38.4065C116.172 38.4062 116.172 38.406 116.172 38.4057C116.172 38.4055 116.172 38.4052 116.172 38.405C116.172 38.4047 116.172 38.4045 116.172 38.4042C116.172 38.404 116.172 38.4037 116.172 38.4035C116.172 38.4032 116.172 38.403 116.172 38.4027C116.172 38.4025 116.172 38.4022 116.172 38.402C116.172 38.4017 116.172 38.4015 116.172 38.4012C116.172 38.401 116.172 38.4007 116.172 38.4005C116.172 38.4002 116.172 38.4 116.172 38.3997C116.172 38.3995 116.172 38.3992 116.172 38.399C116.172 38.3987 116.172 38.3985 116.172 38.3982C116.172 38.398 116.172 38.3977 116.172 38.3975C116.172 38.3972 116.172 38.397 116.172 38.3967C116.172 38.3965 116.172 38.3962 116.172 38.396C116.172 38.3957 116.172 38.3955 116.172 38.3952C116.172 38.395 116.172 38.3947 116.172 38.3945C116.172 38.3942 116.172 38.394 116.172 38.3937C116.172 38.3935 116.172 38.3932 116.172 38.393C116.172 38.3927 116.172 38.3925 116.172 38.3922C116.172 38.392 116.172 38.3917 116.172 38.3915C116.172 38.3912 116.172 38.391 116.172 38.3907C116.172 38.3905 116.172 38.3902 116.172 38.39C116.172 38.3897 116.172 38.3895 116.172 38.3892C116.172 38.389 116.172 38.3887 116.172 38.3885C116.172 38.3882 116.172 38.388 116.172 38.3877C116.172 38.3875 116.172 38.3872 116.172 38.387C116.172 38.3867 116.172 38.3865 116.172 38.3862C116.172 38.386 116.172 38.3857 116.172 38.3855C116.172 38.3852 116.172 38.385 116.172 38.3847C116.172 38.3845 116.172 38.3842 116.172 38.384C116.172 38.3837 116.172 38.3835 116.172 38.3832C116.172 38.383 116.172 38.3827 116.172 38.3825C116.172 38.3822 116.172 38.382 116.172 38.3817C116.172 38.3815 116.172 38.3812 116.172 38.381C116.172 38.3807 116.172 38.3805 116.172 38.3802C116.172 38.38 116.172 38.3797 116.172 38.3795C116.172 38.3792 116.172 38.379 116.172 38.3787C116.172 38.3785 116.172 38.3782 116.172 38.378C116.172 38.3777 116.172 38.3775 116.172 38.3772C116.172 38.377 116.172 38.3767 116.172 38.3765C116.172 38.3762 116.172 38.376 116.172 38.3757C116.172 38.3755 116.172 38.3752 116.172 38.375C116.172 38.3747 116.172 38.3745 116.172 38.3742C116.172 38.374 116.172 38.3737 116.172 38.3735C116.172 38.3732 116.172 38.373 116.172 38.3727C116.172 38.3725 116.172 38.3722 116.172 38.372C116.172 38.3717 116.172 38.3715 116.172 38.3712C116.172 38.371 116.172 38.3707 116.172 38.3705C116.172 38.3702 116.172 38.37 116.172 38.3697C116.172 38.3695 116.172 38.3692 116.172 38.369C116.172 38.3687 116.172 38.3685 116.172 38.3682C116.172 38.368 116.172 38.3677 116.172 38.3675C116.172 38.3672 116.172 38.367 116.172 38.3667C116.172 38.3665 116.172 38.3662 116.172 38.366C116.172 38.3657 116.172 38.3655 116.172 38.3652C116.172 38.365 116.172 38.3647 116.172 38.3645C116.172 38.3642 116.172 38.364 116.172 38.3637C116.172 38.3635 116.172 38.3632 116.172 38.363C116.172 38.3627 116.172 38.3625 116.172 38.3622C116.172 38.362 116.172 38.3617 116.172 38.3615C116.172 38.3612 116.172 38.361 116.172 38.3607C116.172 38.3605 116.172 38.3602 116.172 38.36C116.172 38.3597 116.172 38.3595 116.172 38.3592C116.172 38.359 116.172 38.3587 116.172 38.3585C116.172 38.3582 116.172 38.358 116.172 38.3577C116.172 38.3575 116.172 38.3572 116.172 38.357C116.172 38.3567 116.172 38.3565 116.172 38.3562C116.172 38.356 116.172 38.3557 116.172 38.3555C116.172 38.3552 116.172 38.355 116.172 38.3547C116.172 38.3545 116.172 38.3542 116.172 38.354C116.172 38.3537 116.172 38.3535 116.172 38.3532C116.172 38.353 116.172 38.3527 116.172 38.3525C116.172 38.3522 116.172 38.352 116.172 38.3517C116.172 38.3515 116.172 38.3512 116.172 38.351C116.172 38.3507 116.172 38.3505 116.172 38.3502C116.172 38.35 116.172 38.3497 116.172 38.3495C116.172 38.3492 116.172 38.349 116.172 38.3487C116.172 38.3485 116.172 38.3482 116.172 38.348C116.172 38.3477 116.172 38.3475 116.172 38.3472C116.172 38.347 116.172 38.3467 116.172 38.3465C116.172 38.3462 116.172 38.346 116.172 38.3457C116.172 38.3455 116.172 38.3452 116.172 38.345C116.172 38.3447 116.172 38.3445 116.172 38.3442C116.172 38.344 116.172 38.3437 116.172 38.3435C116.172 38.3432 116.172 38.343 116.172 38.3427C116.172 38.3425 116.172 38.3422 116.172 38.342C116.172 38.3417 116.172 38.3415 116.172 38.3412C116.172 38.341 116.172 38.3407 116.172 38.3405C116.172 38.3402 116.172 38.34 116.172 38.3397C116.172 38.3395 116.172 38.3392 116.172 38.339C116.172 38.3387 116.172 38.3385 116.172 38.3382C116.172 38.338 116.172 38.3377 116.172 38.3375C116.172 38.3372 116.172 38.337 116.172 38.3367C116.172 38.3365 116.172 38.3362 116.172 38.336C116.172 38.3357 116.172 38.3355 116.172 38.3352C116.172 38.335 116.172 38.3347 116.172 38.3345C116.172 38.3342 116.172 38.334 116.172 38.3337C116.172 38.3335 116.172 38.3332 116.172 38.333C116.172 38.3327 116.172 38.3325 116.172 38.3322C116.172 38.332 116.172 38.3317 116.172 38.3315C116.172 38.3312 116.172 38.331 116.172 38.3307C116.172 38.3305 116.172 38.3302 116.172 38.33C116.172 38.3297 116.172 38.3295 116.172 38.3292C116.172 38.329 116.172 38.3287 116.172 38.3285C116.172 38.3282 116.172 38.328 116.172 38.3277C116.172 38.3275 116.172 38.3272 116.172 38.327C116.172 38.3267 116.172 38.3265 116.172 38.3262C116.172 38.326 116.172 38.3257 116.172 38.3255C116.172 38.3252 116.172 38.325 116.172 38.3247C116.172 38.3245 116.172 38.3242 116.172 38.324C116.172 38.3237 116.172 38.3235 116.172 38.3232C116.172 38.323 116.172 38.3227 116.172 38.3225C116.172 38.3222 116.172 38.322 116.172 38.3217C116.172 38.3215 116.172 38.3212 116.172 38.321C116.172 38.3207 116.172 38.3205 116.172 38.3202C116.172 38.32 116.172 38.3197 116.172 38.3195C116.172 38.3192 116.172 38.319 116.172 38.3187C116.172 38.3185 116.172 38.3182 116.172 38.318C116.172 38.3177 116.172 38.3175 116.172 38.3172C116.172 38.317 116.172 38.3167 116.172 38.3165C116.172 38.3162 116.172 38.316 116.172 38.3157C116.172 38.3155 116.172 38.3152 116.172 38.315C116.172 38.3147 116.172 38.3145 116.172 38.3142C116.172 38.314 116.172 38.3137 116.172 38.3135C116.172 38.3132 116.172 38.313 116.172 38.3127C116.172 38.3125 116.172 38.3122 116.172 38.312C116.172 38.3117 116.172 38.3115 116.172 38.3112C116.172 38.311 116.172 38.3107 116.172 38.3105C116.172 38.3102 116.172 38.31 116.172 38.3097C116.172 38.3095 116.172 38.3092 116.172 38.309C116.172 38.3087 116.172 38.3085 116.172 38.3082C116.172 38.308 116.172 38.3077 116.172 38.3075C116.172 38.3072 116.172 38.307 116.172 38.3067C116.172 38.3065 116.172 38.3062 116.172 38.306C116.172 38.3057 116.172 38.3055 116.172 38.3052C116.172 38.305 116.172 38.3047 116.172 38.3045C116.172 38.3042 116.172 38.304 116.172 38.3037C116.172 38.3035 116.172 38.3032 116.172 38.303C116.172 38.3027 116.172 38.3025 116.172 38.3022C116.172 38.302 116.172 38.3017 116.172 38.3015C116.172 38.3012 116.172 38.301 116.172 38.3007C116.172 38.3005 116.172 38.3002 116.172 38.3C116.172 38.2997 116.172 38.2995 116.172 38.2992C116.172 38.299 116.172 38.2987 116.172 38.2985C116.172 38.2982 116.172 38.298 116.172 38.2977C116.172 38.2975 116.172 38.2972 116.172 38.297C116.172 38.2967 116.172 38.2965 116.172 38.2962C116.172 38.296 116.172 38.2957 116.172 38.2955C116.172 38.2952 116.172 38.295 116.172 38.2947C116.172 38.2945 116.172 38.2942 116.172 38.294C116.172 38.2937 116.172 38.2935 116.172 38.2932C116.172 38.293 116.172 38.2927 116.172 38.2925C116.172 38.2922 116.172 38.292 116.172 38.2917C116.172 38.2915 116.172 38.2912 116.172 38.291C116.172 38.2907 116.172 38.2905 116.172 38.2902C116.172 38.29 116.172 38.2897 116.172 38.2895C116.172 38.2892 116.172 38.289 116.172 38.2887C116.172 38.2885 116.172 38.2882 116.172 38.288C116.172 38.2877 116.172 38.2875 116.172 38.2872C116.172 38.287 116.172 38.2867 116.172 38.2865C116.172 38.2862 116.172 38.286 116.172 38.2857C116.172 38.2855 116.172 38.2852 116.172 38.285C116.172 38.2847 116.172 38.2845 116.172 38.2842C116.172 38.284 116.172 38.2837 116.172 38.2835C116.172 38.2832 116.172 38.283 116.172 38.2827C116.172 38.2825 116.172 38.2822 116.172 38.282C116.172 38.2817 116.172 38.2815 116.172 38.2812C116.172 38.281 116.172 38.2807 116.172 38.2805C116.172 38.2802 116.172 38.28 116.172 38.2797C116.172 38.2795 116.172 38.2792 116.172 38.279C116.172 38.2787 116.172 38.2785 116.172 38.2782C116.172 38.278 116.172 38.2777 116.172 38.2775C116.172 38.2772 116.172 38.277 116.172 38.2767C116.172 38.2765 116.172 38.2762 116.172 38.276C116.172 38.2757 116.172 38.2755 116.172 38.2752C116.172 38.275 116.172 38.2747 116.172 38.2745C116.172 38.2742 116.172 38.274 116.172 38.2737C116.172 38.2735 116.172 38.2732 116.172 38.273C116.172 38.2727 116.172 38.2725 116.172 38.2722C116.172 38.272 116.172 38.2717 116.172 38.2715C116.172 38.2712 116.172 38.271 116.172 38.2707C116.172 38.2705 116.172 38.2702 116.172 38.27C116.172 38.2697 116.172 38.2695 116.172 38.2692C116.172 38.269 116.172 38.2687 116.172 38.2685C116.172 38.2682 116.172 38.268 116.172 38.2677C116.172 38.2675 116.172 38.2672 116.172 38.267C116.172 38.2667 116.172 38.2665 116.172 38.2662C116.172 38.266 116.172 38.2657 116.172 38.2655C116.172 38.2652 116.172 38.265 116.172 38.2647C116.172 38.2645 116.172 38.2642 116.172 38.264C116.172 38.2637 116.172 38.2635 116.172 38.2632C116.172 38.263 116.172 38.2627 116.172 38.2625C116.172 38.2622 116.172 38.262 116.172 38.2617C116.172 38.2615 116.172 38.2612 116.172 38.261C116.172 38.2607 116.172 38.2605 116.172 38.2602C116.172 38.26 116.172 38.2597 116.172 38.2595C116.172 38.2592 116.172 38.259 116.172 38.2587C116.172 38.2585 116.172 38.2582 116.172 38.258C116.172 38.2577 116.172 38.2575 116.172 38.2572C116.172 38.257 116.172 38.2567 116.172 38.2565C116.172 38.2562 116.172 38.256 116.172 38.2557C116.172 38.2555 116.172 38.2552 116.172 38.255C116.172 38.2547 116.172 38.2545 116.172 38.2542C116.172 38.254 116.172 38.2537 116.172 38.2535C116.172 38.2532 116.172 38.253 116.172 38.2527C116.172 38.2525 116.172 38.2522 116.172 38.252C116.172 38.2517 116.172 38.2515 116.172 38.2512C116.172 38.251 116.172 38.2507 116.172 38.2505C116.172 38.2502 116.172 38.25 116.172 38.2497C116.172 38.2495 116.172 38.2492 116.172 38.249C116.172 38.2487 116.172 38.2485 116.172 38.2482C116.172 38.248 116.172 38.2477 116.172 38.2475C116.172 38.2472 116.172 38.247 116.172 38.2467C116.172 38.2465 116.172 38.2462 116.172 38.246C116.172 38.2457 116.172 38.2455 116.172 38.2452C116.172 38.245 116.172 38.2447 116.172 38.2445C116.172 38.2442 116.172 38.244 116.172 38.2437C116.172 38.2435 116.172 38.2432 116.172 38.243C116.172 38.2427 116.172 38.2425 116.172 38.2422C116.172 38.242 116.172 38.2417 116.172 38.2415C116.172 38.2412 116.172 38.241 116.172 38.2407C116.172 38.2405 116.172 38.2402 116.172 38.24H114.172ZM114.172 38.624V59.936H116.172V38.624H114.172ZM114.909 58.9712C114.505 59.0816 113.853 59.2027 112.925 59.3292L113.195 61.3108C114.145 61.1813 114.901 61.0464 115.435 60.9008L114.909 58.9712ZM112.919 59.3301C112.071 59.4511 111.201 59.512 110.308 59.512V61.512C111.292 61.512 112.257 61.4449 113.202 61.3099L112.919 59.3301ZM110.308 59.512C109.414 59.512 108.617 59.4509 107.913 59.3336L107.584 61.3064C108.416 61.4451 109.325 61.512 110.308 61.512V59.512ZM107.922 59.3352C107.328 59.2304 106.861 59.0285 106.492 58.752L105.292 60.352C105.947 60.8435 106.718 61.1536 107.574 61.3048L107.922 59.3352ZM106.492 58.752C106.125 58.4765 105.819 58.0999 105.582 57.5931L103.77 58.4389C104.131 59.2121 104.635 59.8595 105.292 60.352L106.492 58.752ZM105.612 57.6649C105.413 57.1337 105.292 56.3893 105.292 55.392H103.292C103.292 56.5281 103.427 57.533 103.74 58.3671L105.612 57.6649ZM105.292 55.392V40.096H103.292V55.392H105.292ZM105.292 40.096C105.292 38.5972 104.804 37.3148 103.641 36.5187L102.511 38.1693C102.969 38.4825 103.292 39.0348 103.292 40.096H105.292ZM103.69 36.5546C102.722 35.802 101.559 35.448 100.26 35.448V37.448C101.18 37.448 101.894 37.6913 102.462 38.1334L103.69 36.5546ZM100.26 35.448C99.3836 35.448 98.5724 35.5939 97.8571 35.924L98.6952 37.74C99.0893 37.5581 99.6008 37.448 100.26 37.448V35.448ZM97.9172 35.8987C97.3331 36.1233 96.8187 36.3555 96.3825 36.5978L97.3538 38.3462C97.6857 38.1618 98.1099 37.9673 98.6351 37.7653L97.9172 35.8987ZM95.8682 37.472V59.936H97.8682V37.472H95.8682ZM96.5808 58.9782C96.2335 59.0824 95.6162 59.2022 94.685 59.3292L94.9553 61.3108C95.9015 61.1818 96.6495 61.0456 97.1555 60.8938L96.5808 58.9782ZM94.6787 59.3301C93.8333 59.4508 92.9421 59.512 92.0042 59.512V61.512C93.0289 61.512 94.015 61.4452 94.9616 61.3099L94.6787 59.3301ZM92.0042 59.512C91.1098 59.512 90.3125 59.4509 89.6086 59.3336L89.2798 61.3064C90.1118 61.4451 91.0212 61.512 92.0042 61.512V59.512ZM89.6179 59.3352C89.0238 59.2304 88.5568 59.0285 88.1882 58.752L86.9882 60.352C87.6435 60.8435 88.4138 61.1536 89.2704 61.3048L89.6179 59.3352ZM88.1882 58.752C87.8209 58.4765 87.5148 58.0999 87.2783 57.5931L85.466 58.4389C85.8268 59.2121 86.3314 59.8595 86.9882 60.352L88.1882 58.752ZM87.3085 57.6649C87.1093 57.1337 86.9882 56.3893 86.9882 55.392H84.9882C84.9882 56.5281 85.123 57.533 85.4358 58.3671L87.3085 57.6649ZM86.9882 55.392V36.064H84.9882V55.392H86.9882ZM86.9882 36.064C86.9882 35.0378 87.1983 34.3409 87.5162 33.8785L85.8681 32.7455C85.2474 33.6484 84.9882 34.7862 84.9882 36.064H86.9882ZM87.4922 33.912C87.9285 33.3302 88.5285 32.7608 89.3136 32.2112L88.1667 30.5728C87.2451 31.2179 86.4798 31.9285 85.8922 32.712L87.4922 33.912ZM89.3168 32.209C90.6601 31.2607 92.3485 30.4703 94.4035 29.8538L93.8288 27.9382C91.6172 28.6017 89.7215 29.4752 88.1635 30.575L89.3168 32.209ZM94.3983 29.8554C96.4796 29.2432 98.6457 28.936 100.9 28.936V26.936C98.4613 26.936 96.1048 27.2688 93.834 27.9366L94.3983 29.8554ZM157.969 28.96L157.67 29.9141L157.681 29.9176L157.692 29.9208L157.969 28.96ZM167.377 37.152L166.458 37.5459L166.461 37.5528L167.377 37.152ZM167.569 51.68L166.633 51.3289L166.633 51.3289L167.569 51.68ZM164.305 56.864L165.001 57.5819L165.007 57.5765L165.012 57.5711L164.305 56.864ZM159.185 59.936L158.863 58.9893L158.857 58.9915L159.185 59.936ZM147.473 60.128L147.805 59.1845L146.473 58.7167V60.128H147.473ZM147.473 70.752L147.761 71.7098L148.473 71.496V70.752H147.473ZM145.425 71.136L145.29 70.1452L145.268 70.1482L145.246 70.1521L145.425 71.136ZM139.985 71.2L139.811 72.1848L139.821 72.1864L139.985 71.2ZM138.129 70.432L138.729 69.632L138.729 69.632L138.129 70.432ZM136.977 68.832L137.913 68.4809L137.91 68.4707L137.906 68.4606L136.977 68.832ZM137.297 32.736L136.48 32.1593L136.469 32.1758L136.458 32.1927L137.297 32.736ZM139.345 30.752L138.803 29.9117L138.787 29.9219L138.772 29.9328L139.345 30.752ZM144.273 28.704L144.526 29.6716L144.526 29.6716L144.273 28.704ZM155.921 38.432L155.143 39.0598L155.149 39.0672L155.155 39.0746L155.921 38.432ZM149.073 36.768L149.331 37.7342L149.36 37.7264L149.389 37.7167L149.073 36.768ZM147.409 37.408L146.93 36.5301L146.409 36.8144V37.408H147.409ZM147.409 51.488H146.409V52.106L146.962 52.3824L147.409 51.488ZM150.865 28.936C153.336 28.936 155.602 29.2653 157.67 29.9141L158.268 28.0059C155.985 27.2893 153.514 26.936 150.865 26.936V28.936ZM157.692 29.9208C159.787 30.525 161.553 31.4633 163.011 32.7244L164.319 31.2116C162.62 29.742 160.589 28.675 158.246 27.9992L157.692 29.9208ZM163.011 32.7244C164.465 33.9819 165.616 35.5819 166.458 37.5459L168.296 36.7581C167.346 34.5408 166.023 32.6848 164.319 31.2116L163.011 32.7244ZM166.461 37.5528C167.289 39.4444 167.721 41.7543 167.721 44.512H169.721C169.721 41.5524 169.258 38.9555 168.293 36.7512L166.461 37.5528ZM167.721 44.512C167.721 47.1514 167.35 49.4172 166.633 51.3289L168.505 52.0311C169.325 49.8468 169.721 47.3339 169.721 44.512H167.721ZM166.633 51.3289C165.91 53.2565 164.896 54.8594 163.598 56.1569L165.012 57.5711C166.531 56.0526 167.692 54.1995 168.505 52.0311L166.633 51.3289ZM163.609 56.1461C162.316 57.4004 160.74 58.3505 158.863 58.9894L159.507 60.8826C161.641 60.1562 163.479 59.0583 165.001 57.5819L163.609 56.1461ZM158.857 58.9915C157.016 59.6318 154.932 59.96 152.593 59.96V61.96C155.118 61.96 157.429 61.6056 159.514 60.8805L158.857 58.9915ZM152.593 59.96C150.861 59.96 149.267 59.6983 147.805 59.1845L147.142 61.0715C148.837 61.667 150.656 61.96 152.593 61.96V59.96ZM146.473 60.128V70.752H148.473V60.128H146.473ZM147.186 69.7942C146.839 69.8984 146.221 70.0182 145.29 70.1452L145.56 72.1268C146.506 71.9978 147.254 71.8616 147.761 71.7098L147.186 69.7942ZM145.246 70.1521C144.368 70.3118 143.468 70.392 142.545 70.392V72.392C143.585 72.392 144.605 72.3016 145.604 72.1199L145.246 70.1521ZM142.545 70.392C141.651 70.392 140.854 70.3309 140.15 70.2136L139.821 72.1864C140.653 72.3251 141.562 72.392 142.545 72.392V70.392ZM140.159 70.2152C139.565 70.1104 139.098 69.9085 138.729 69.632L137.529 71.232C138.184 71.7235 138.955 72.0336 139.811 72.1848L140.159 70.2152ZM138.729 69.632C138.39 69.3778 138.112 69.0104 137.913 68.4809L136.041 69.1831C136.354 70.0189 136.844 70.7182 137.529 71.232L138.729 69.632ZM137.906 68.4606C137.715 67.9853 137.593 67.2736 137.593 66.272H135.593C135.593 67.4037 135.727 68.3987 136.049 69.2034L137.906 68.4606ZM137.593 66.272V35.552H135.593V66.272H137.593ZM137.593 35.552C137.593 34.53 137.802 33.797 138.137 33.2792L136.458 32.1927C135.854 33.1256 135.593 34.27 135.593 35.552H137.593ZM138.114 33.3127C138.549 32.6964 139.144 32.1136 139.919 31.5712L138.772 29.9328C137.84 30.5851 137.069 31.3249 136.48 32.1593L138.114 33.3127ZM139.887 31.5923C141.099 30.8104 142.638 30.1641 144.526 29.6716L144.021 27.7364C141.983 28.2679 140.236 28.987 138.803 29.9117L139.887 31.5923ZM144.526 29.6716C146.391 29.1849 148.502 28.936 150.865 28.936V26.936C148.364 26.936 146.08 27.1991 144.021 27.7364L144.526 29.6716ZM150.993 53.384C153.396 53.384 155.364 52.6583 156.704 51.058C158.015 49.4918 158.585 47.2512 158.585 44.512H156.585C156.585 47.0208 156.056 48.7162 155.17 49.774C154.313 50.7977 152.985 51.384 150.993 51.384V53.384ZM158.585 44.512C158.585 41.6753 158.014 39.371 156.687 37.7894L155.155 39.0746C156.047 40.1384 156.585 41.8874 156.585 44.512H158.585ZM156.7 37.8042C155.404 36.1974 153.531 35.448 151.249 35.448V37.448C153.064 37.448 154.305 38.0213 155.143 39.0598L156.7 37.8042ZM151.249 35.448C150.352 35.448 149.517 35.5659 148.757 35.8193L149.389 37.7167C149.909 37.5434 150.525 37.448 151.249 37.448V35.448ZM148.815 35.8018C148.116 35.9883 147.484 36.2282 146.93 36.5301L147.888 38.2859C148.273 38.0758 148.75 37.889 149.331 37.7342L148.815 35.8018ZM146.409 37.408V51.488H148.409V37.408H146.409ZM146.962 52.3824C147.534 52.6683 148.147 52.9033 148.798 53.0895L149.348 51.1665C148.805 51.0114 148.309 50.8197 147.856 50.5936L146.962 52.3824ZM148.798 53.0895C149.493 53.2881 150.227 53.384 150.993 53.384V51.384C150.394 51.384 149.848 51.3092 149.348 51.1665L148.798 53.0895ZM179.919 60L179.597 60.9468L179.608 60.9506L179.619 60.9541L179.919 60ZM174.287 56.8L173.621 57.5464L173.631 57.555L174.287 56.8ZM170.511 51.488L169.589 51.8752L169.592 51.883L169.595 51.8907L170.511 51.488ZM170.511 36.768L169.602 36.3513L169.598 36.3601L170.511 36.768ZM174.159 31.776L174.809 32.5353L174.816 32.53L174.822 32.5246L174.159 31.776ZM179.279 28.896L179.576 29.8509L179.585 29.8479L179.595 29.8447L179.279 28.896ZM191.311 28.96L190.962 29.8972L190.969 29.8998L191.311 28.96ZM196.111 31.776L195.44 32.5181L195.446 32.5234L195.452 32.5286L196.111 31.776ZM199.247 36.064L198.33 36.4636L198.334 36.4734L198.339 36.4831L199.247 36.064ZM199.183 44.832L198.495 44.106L198.495 44.106L199.183 44.832ZM195.791 46.304L195.645 45.3146L195.643 45.315L195.791 46.304ZM179.983 48.672L179.835 47.683L178.658 47.8593L179.034 48.9882L179.983 48.672ZM182.863 51.872L182.415 52.7664L182.426 52.7718L182.437 52.7768L182.863 51.872ZM192.783 52.256L193.05 53.2195L193.059 53.2171L193.068 53.2145L192.783 52.256ZM196.623 50.656L197.153 49.808L196.63 49.4811L196.103 49.8018L196.623 50.656ZM198.351 52.448L199.204 51.9265L199.204 51.9265L198.351 52.448ZM196.367 59.168L195.903 58.2822L195.897 58.2849L196.367 59.168ZM191.759 60.64L191.61 59.6511L191.61 59.6511L191.759 60.64ZM182.479 36.384L182.073 35.4702L182.063 35.4746L182.053 35.4792L182.479 36.384ZM180.687 37.728L181.424 38.4037L181.437 38.3891L181.45 38.3739L180.687 37.728ZM179.599 39.52L178.662 39.1689L178.656 39.1862L178.65 39.2038L179.599 39.52ZM179.215 41.504L178.217 41.4416L178.138 42.6936L179.376 42.4909L179.215 41.504ZM190.159 39.712L190.32 40.6989L191.294 40.5394L191.148 39.5637L190.159 39.712ZM188.751 37.152L189.476 36.4632L189.476 36.4632L188.751 37.152ZM186.959 60.024C184.532 60.024 182.288 59.6952 180.218 59.0459L179.619 60.9541C181.902 61.6702 184.35 62.024 186.959 62.024V60.024ZM180.241 59.0532C178.224 58.3675 176.461 57.3639 174.942 56.045L173.631 57.555C175.355 59.0521 177.347 60.1818 179.597 60.9468L180.241 59.0532ZM174.952 56.0537C173.491 54.7504 172.313 53.101 171.426 51.0853L169.595 51.8907C170.586 54.1417 171.925 56.0336 173.621 57.5463L174.952 56.0537ZM171.433 51.1008C170.599 49.1152 170.167 46.7561 170.167 44H168.167C168.167 46.9613 168.631 49.5941 169.589 51.8752L171.433 51.1008ZM170.167 44C170.167 41.2864 170.599 39.0221 171.424 37.1759L169.598 36.3601C168.631 38.5245 168.167 41.0816 168.167 44H170.167ZM171.42 37.1847C172.307 35.2491 173.441 33.7083 174.809 32.5353L173.508 31.0167C171.89 32.4037 170.592 34.1909 169.602 36.3513L171.42 37.1847ZM174.822 32.5246C176.208 31.2966 177.79 30.4065 179.576 29.8509L178.982 27.9411C176.927 28.5802 175.096 29.6101 173.496 31.0274L174.822 32.5246ZM179.595 29.8447C181.414 29.2384 183.27 28.936 185.167 28.936V26.936C183.053 26.936 180.983 27.2736 178.962 27.9473L179.595 29.8447ZM185.167 28.936C187.327 28.936 189.255 29.262 190.962 29.8972L191.659 28.0228C189.697 27.2927 187.529 26.936 185.167 26.936V28.936ZM190.969 29.8998C192.74 30.5437 194.224 31.4197 195.44 32.5181L196.781 31.0339C195.352 29.7429 193.636 28.7416 191.652 28.0202L190.969 29.8998ZM195.452 32.5286C196.706 33.626 197.664 34.9348 198.33 36.4636L200.163 35.6644C199.379 33.8652 198.246 32.3153 196.769 31.0234L195.452 32.5286ZM198.339 36.4831C199.042 38.0065 199.399 39.6756 199.399 41.504H201.399C201.399 39.4071 200.987 37.4495 200.155 35.6449L198.339 36.4831ZM199.399 41.504C199.399 42.7664 199.051 43.579 198.495 44.106L199.87 45.558C200.935 44.549 201.399 43.1429 201.399 41.504H199.399ZM198.495 44.106C197.874 44.6942 196.955 45.122 195.645 45.3146L195.936 47.2934C197.527 47.0594 198.87 46.5058 199.87 45.558L198.495 44.106ZM195.643 45.315L179.835 47.683L180.131 49.661L195.939 47.293L195.643 45.315ZM179.034 48.9882C179.595 50.6724 180.752 51.9346 182.415 52.7664L183.31 50.9776C182.072 50.3587 181.309 49.4876 180.931 48.3558L179.034 48.9882ZM182.437 52.7768C184.042 53.532 185.855 53.896 187.855 53.896V51.896C186.1 51.896 184.585 51.5773 183.288 50.9672L182.437 52.7768ZM187.855 53.896C189.686 53.896 191.419 53.6726 193.05 53.2195L192.515 51.2925C191.074 51.6927 189.522 51.896 187.855 51.896V53.896ZM193.068 53.2145C194.696 52.7303 196.064 52.167 197.143 51.5102L196.103 49.8018C195.219 50.3397 194.026 50.843 192.498 51.2975L193.068 53.2145ZM196.093 51.504C196.629 51.8391 197.099 52.3181 197.497 52.9694L199.204 51.9265C198.663 51.0419 197.982 50.3262 197.153 49.808L196.093 51.504ZM197.497 52.9694C197.876 53.5894 198.055 54.2209 198.055 54.88H200.055C200.055 53.8324 199.764 52.8426 199.204 51.9265L197.497 52.9694ZM198.055 54.88C198.055 55.6787 197.87 56.3265 197.535 56.8609C197.199 57.3981 196.673 57.8786 195.903 58.2822L196.831 60.0538C197.852 59.5187 198.671 58.8153 199.23 57.9231C199.791 57.0282 200.055 56.0013 200.055 54.88H198.055ZM195.897 58.2849C194.643 58.9512 193.218 59.4099 191.61 59.6511L191.907 61.6289C193.713 61.3581 195.359 60.8355 196.836 60.0511L195.897 58.2849ZM191.61 59.6511C189.945 59.9008 188.395 60.024 186.959 60.024V62.024C188.509 62.024 190.159 61.8912 191.907 61.6289L191.61 59.6511ZM185.167 34.872C184.033 34.872 182.993 35.061 182.073 35.4702L182.885 37.2978C183.5 37.0243 184.253 36.872 185.167 36.872V34.872ZM182.053 35.4792C181.211 35.8752 180.494 36.407 179.923 37.0821L181.45 38.3739C181.818 37.9396 182.295 37.5754 182.904 37.2888L182.053 35.4792ZM179.949 37.0523C179.389 37.6634 178.961 38.3723 178.662 39.1689L180.535 39.8711C180.748 39.3024 181.045 38.8166 181.424 38.4037L179.949 37.0523ZM178.65 39.2038C178.409 39.927 178.265 40.6738 178.217 41.4416L180.213 41.5664C180.25 40.9689 180.362 40.393 180.547 39.8362L178.65 39.2038ZM179.376 42.4909L190.32 40.6989L189.997 38.7251L179.053 40.5171L179.376 42.4909ZM191.148 39.5637C190.98 38.4455 190.377 37.4124 189.476 36.4632L188.026 37.8407C188.745 38.5982 189.081 39.2719 189.17 39.8603L191.148 39.5637ZM189.476 36.4632C188.418 35.3503 186.922 34.872 185.167 34.872V36.872C186.568 36.872 187.462 37.2471 188.026 37.8407L189.476 36.4632ZM211.524 60L211.202 60.9468L211.213 60.9506L211.224 60.9541L211.524 60ZM205.892 56.8L205.226 57.5464L205.236 57.555L205.892 56.8ZM202.116 51.488L201.194 51.8752L201.197 51.883L201.2 51.8907L202.116 51.488ZM202.116 36.768L201.207 36.3513L201.203 36.3601L202.116 36.768ZM205.764 31.776L206.414 32.5353L206.421 32.53L206.427 32.5246L205.764 31.776ZM210.884 28.896L211.181 29.8509L211.19 29.8479L211.2 29.8447L210.884 28.896ZM222.916 28.96L222.567 29.8972L222.574 29.8998L222.916 28.96ZM227.716 31.776L227.045 32.5181L227.051 32.5234L227.057 32.5286L227.716 31.776ZM230.852 36.064L229.935 36.4636L229.939 36.4734L229.944 36.4831L230.852 36.064ZM230.788 44.832L230.1 44.106L230.1 44.106L230.788 44.832ZM227.396 46.304L227.25 45.3146L227.248 45.315L227.396 46.304ZM211.588 48.672L211.44 47.683L210.263 47.8593L210.639 48.9882L211.588 48.672ZM214.468 51.872L214.02 52.7664L214.031 52.7718L214.042 52.7768L214.468 51.872ZM224.388 52.256L224.655 53.2195L224.664 53.2171L224.673 53.2145L224.388 52.256ZM228.228 50.656L228.758 49.808L228.235 49.4811L227.708 49.8018L228.228 50.656ZM229.956 52.448L230.809 51.9265L230.809 51.9265L229.956 52.448ZM227.972 59.168L227.508 58.2822L227.503 58.2849L227.972 59.168ZM223.364 60.64L223.215 59.6511L223.215 59.6511L223.364 60.64ZM214.084 36.384L213.678 35.4702L213.668 35.4746L213.658 35.4792L214.084 36.384ZM212.292 37.728L213.029 38.4037L213.042 38.3891L213.055 38.3739L212.292 37.728ZM211.204 39.52L210.267 39.1689L210.261 39.1862L210.255 39.2038L211.204 39.52ZM210.82 41.504L209.822 41.4416L209.743 42.6936L210.981 42.4909L210.82 41.504ZM221.764 39.712L221.925 40.6989L222.899 40.5394L222.753 39.5637L221.764 39.712ZM220.356 37.152L221.081 36.4632L221.081 36.4632L220.356 37.152ZM218.564 60.024C216.137 60.024 213.893 59.6952 211.823 59.0459L211.224 60.9541C213.507 61.6702 215.955 62.024 218.564 62.024V60.024ZM211.846 59.0532C209.829 58.3675 208.066 57.3639 206.547 56.045L205.236 57.555C206.96 59.0521 208.952 60.1818 211.202 60.9468L211.846 59.0532ZM206.557 56.0537C205.096 54.7504 203.918 53.101 203.031 51.0853L201.2 51.8907C202.191 54.1417 203.53 56.0336 205.226 57.5463L206.557 56.0537ZM203.038 51.1008C202.204 49.1152 201.772 46.7561 201.772 44H199.772C199.772 46.9613 200.236 49.5941 201.194 51.8752L203.038 51.1008ZM201.772 44C201.772 41.2864 202.204 39.0221 203.029 37.1759L201.203 36.3601C200.236 38.5245 199.772 41.0816 199.772 44H201.772ZM203.025 37.1847C203.912 35.2491 205.046 33.7083 206.414 32.5353L205.113 31.0167C203.495 32.4037 202.197 34.1909 201.207 36.3513L203.025 37.1847ZM206.427 32.5246C207.813 31.2966 209.395 30.4065 211.181 29.8509L210.587 27.9411C208.532 28.5802 206.701 29.6101 205.101 31.0274L206.427 32.5246ZM211.2 29.8447C213.019 29.2384 214.875 28.936 216.772 28.936V26.936C214.658 26.936 212.588 27.2736 210.567 27.9473L211.2 29.8447ZM216.772 28.936C218.932 28.936 220.86 29.262 222.567 29.8972L223.264 28.0228C221.302 27.2927 219.134 26.936 216.772 26.936V28.936ZM222.574 29.8998C224.345 30.5437 225.829 31.4197 227.045 32.5181L228.386 31.0339C226.957 29.7429 225.241 28.7416 223.257 28.0202L222.574 29.8998ZM227.057 32.5286C228.311 33.626 229.269 34.9348 229.935 36.4636L231.768 35.6644C230.984 33.8652 229.851 32.3153 228.374 31.0234L227.057 32.5286ZM229.944 36.4831C230.647 38.0065 231.004 39.6756 231.004 41.504H233.004C233.004 39.4071 232.592 37.4495 231.76 35.6449L229.944 36.4831ZM231.004 41.504C231.004 42.7664 230.656 43.579 230.1 44.106L231.475 45.558C232.54 44.549 233.004 43.1429 233.004 41.504H231.004ZM230.1 44.106C229.479 44.6942 228.56 45.122 227.25 45.3146L227.541 47.2934C229.132 47.0594 230.475 46.5058 231.475 45.558L230.1 44.106ZM227.248 45.315L211.44 47.683L211.736 49.661L227.544 47.293L227.248 45.315ZM210.639 48.9882C211.2 50.6724 212.357 51.9346 214.02 52.7664L214.915 50.9776C213.677 50.3587 212.914 49.4876 212.536 48.3558L210.639 48.9882ZM214.042 52.7768C215.647 53.532 217.46 53.896 219.46 53.896V51.896C217.705 51.896 216.19 51.5773 214.893 50.9672L214.042 52.7768ZM219.46 53.896C221.291 53.896 223.024 53.6726 224.655 53.2195L224.12 51.2925C222.679 51.6927 221.127 51.896 219.46 51.896V53.896ZM224.673 53.2145C226.301 52.7303 227.669 52.167 228.748 51.5102L227.708 49.8018C226.824 50.3397 225.631 50.843 224.103 51.2975L224.673 53.2145ZM227.698 51.504C228.234 51.8391 228.704 52.3181 229.102 52.9694L230.809 51.9265C230.268 51.0419 229.587 50.3262 228.758 49.808L227.698 51.504ZM229.102 52.9694C229.481 53.5894 229.66 54.2209 229.66 54.88H231.66C231.66 53.8324 231.369 52.8426 230.809 51.9265L229.102 52.9694ZM229.66 54.88C229.66 55.6787 229.475 56.3265 229.14 56.8609C228.804 57.3981 228.278 57.8786 227.508 58.2822L228.436 60.0538C229.457 59.5187 230.276 58.8153 230.835 57.9231C231.396 57.0282 231.66 56.0013 231.66 54.88H229.66ZM227.503 58.2849C226.248 58.9512 224.823 59.4099 223.215 59.6511L223.512 61.6289C225.318 61.3581 226.964 60.8355 228.441 60.0511L227.503 58.2849ZM223.215 59.6511C221.55 59.9008 220 60.024 218.564 60.024V62.024C220.114 62.024 221.764 61.8912 223.512 61.6289L223.215 59.6511ZM216.772 34.872C215.638 34.872 214.598 35.061 213.678 35.4702L214.49 37.2978C215.105 37.0243 215.858 36.872 216.772 36.872V34.872ZM213.658 35.4792C212.816 35.8752 212.099 36.407 211.528 37.0821L213.055 38.3739C213.423 37.9396 213.9 37.5754 214.509 37.2888L213.658 35.4792ZM211.555 37.0523C210.994 37.6634 210.566 38.3723 210.267 39.1689L212.14 39.8711C212.353 39.3024 212.65 38.8166 213.029 38.4037L211.555 37.0523ZM210.255 39.2038C210.014 39.927 209.87 40.6738 209.822 41.4416L211.818 41.5664C211.855 40.9689 211.967 40.393 212.152 39.8362L210.255 39.2038ZM210.981 42.4909L221.925 40.6989L221.602 38.7251L210.658 40.5171L210.981 42.4909ZM222.753 39.5637C222.585 38.4455 221.982 37.4124 221.081 36.4632L219.631 37.8407C220.35 38.5982 220.686 39.2719 220.775 39.8603L222.753 39.5637ZM221.081 36.4632C220.023 35.3503 218.527 34.872 216.772 34.872V36.872C218.173 36.872 219.067 37.2471 219.631 37.8407L221.081 36.4632Z" fill="#FBFBFB" fill-opacity="0.6"/>
</g>
<defs>
<filter id="filter0_d_11_79" x="0.0926514" y="20.128" width="233.911" height="53.264" filterUnits="userSpaceOnUse" color-interpolation-filters="sRGB">
<feFlood flood-opacity="0" result="BackgroundImageFix"/>
<feColorMatrix in="SourceAlpha" type="matrix" values="0 0 0 0 0 0 0 0 0 0 0 0 0 0 0 0 0 0 127 0" result="hardAlpha"/>
<feOffset dx="1" dy="1"/>
<feGaussianBlur stdDeviation="0.5"/>
<feComposite in2="hardAlpha" operator="out"/>
<feColorMatrix type="matrix" values="0 0 0 0 0.039375 0 0 0 0 0.4284 0 0 0 0 0.7875 0 0 0 1 0"/>
<feBlend mode="normal" in2="BackgroundImageFix" result="effect1_dropShadow_11_79"/>
<feBlend mode="normal" in="SourceGraphic" in2="effect1_dropShadow_11_79" result="shape"/>
</filter>
</defs>
</svg>
