<svg xmlns="http://www.w3.org/2000/svg" width="192" height="239" viewBox="0 0 192 239" fill="none">
  <g style="mix-blend-mode:exclusion">
    <path d="M191.818 9.63191V0H182.165C182.173 0.138983 182.186 0.276882 182.186 0.418025C182.184 2.17625 181.485 3.86206 180.241 5.10489C178.998 6.34773 177.312 7.04587 175.553 7.04587C173.795 7.04587 172.109 6.34773 170.865 5.10489C169.621 3.86206 168.922 2.17625 168.921 0.418025C168.921 0.276891 168.933 0.138983 168.942 0H159.409C159.418 0.138983 159.43 0.276882 159.43 0.418025C159.429 2.17625 158.73 3.86206 157.486 5.10489C156.242 6.34773 154.556 7.04587 152.798 7.04587C151.04 7.04587 149.353 6.34773 148.11 5.10489C146.866 3.86206 146.167 2.17625 146.166 0.418025C146.166 0.276891 146.178 0.138983 146.187 0H136.653C136.662 0.138983 136.675 0.276882 136.675 0.418025C136.673 2.17625 135.974 3.86206 134.73 5.10489C133.487 6.34773 131.8 7.04587 130.042 7.04587C128.284 7.04587 126.598 6.34773 125.354 5.10489C124.11 3.86206 123.411 2.17625 123.41 0.418025C123.41 0.276891 123.422 0.138983 123.431 0H113.898C113.906 0.138983 113.919 0.276882 113.919 0.418025C113.918 2.17625 113.218 3.86206 111.975 5.10489C110.731 6.34773 109.045 7.04587 107.287 7.04587C105.528 7.04587 103.842 6.34773 102.598 5.10489C101.355 3.86206 100.655 2.17625 100.654 0.418025C100.654 0.276891 100.667 0.138983 100.675 0H91.1424C91.1511 0.138983 91.1635 0.276882 91.1635 0.418025C91.1623 2.17629 90.463 3.86213 89.2193 5.10499C87.9756 6.34785 86.2893 7.04601 84.531 7.04601C82.7728 7.04601 81.0865 6.34785 79.8428 5.10499C78.5991 3.86213 77.8998 2.17629 77.8986 0.418025C77.8986 0.276891 77.911 0.138983 77.92 0H68.3867C68.3954 0.138983 68.4078 0.276882 68.4078 0.418025C68.4067 2.17625 67.7074 3.86206 66.4637 5.10489C65.22 6.34773 63.5337 7.04587 61.7755 7.04587C60.0173 7.04587 58.331 6.34773 57.0874 5.10489C55.8437 3.86206 55.1444 2.17625 55.1432 0.418025C55.1432 0.276891 55.1557 0.138983 55.1643 0H45.6311C45.6397 0.138983 45.6522 0.276882 45.6522 0.418025C45.651 2.17625 44.9517 3.86206 43.708 5.10489C42.4644 6.34773 40.7781 7.04587 39.0199 7.04587C37.2616 7.04587 35.5754 6.34773 34.3317 5.10489C33.088 3.86206 32.3887 2.17625 32.3875 0.418025C32.3875 0.276891 32.4 0.138983 32.4086 0H22.8754C22.8841 0.138983 22.8965 0.276882 22.8965 0.418025C22.8953 2.17625 22.1961 3.86206 20.9524 5.10489C19.7087 6.34773 18.0224 7.04587 16.2642 7.04587C14.506 7.04587 12.8197 6.34773 11.576 5.10489C10.3324 3.86206 9.63308 2.17625 9.63189 0.418025C9.63189 0.276891 9.64433 0.138983 9.65326 0H0V9.63191C0.871326 9.63132 1.73423 9.80244 2.5394 10.1355C3.34457 10.4685 4.07622 10.9569 4.69255 11.5728C5.30887 12.1888 5.7978 12.9201 6.13138 13.725C6.46495 14.53 6.63664 15.3928 6.63664 16.2641C6.63664 17.1354 6.46495 17.9982 6.13138 18.8031C5.7978 19.6081 5.30887 20.3394 4.69255 20.9553C4.07622 21.5712 3.34457 22.0597 2.5394 22.3927C1.73423 22.7257 0.871326 22.8969 0 22.8963V32.3876C1.75896 32.3876 3.44588 33.0863 4.68966 34.3301C5.93343 35.5739 6.63218 37.2608 6.63218 39.0197C6.63218 40.7787 5.93343 42.4656 4.68966 43.7094C3.44588 44.9532 1.75896 45.6519 0 45.6519V55.1427C1.75903 55.1427 3.44603 55.8415 4.68985 57.0853C5.93368 58.3291 6.63245 60.0161 6.63245 61.7751C6.63245 63.5342 5.93368 65.2212 4.68985 66.465C3.44603 67.7088 1.75903 68.4076 0 68.4076V77.8984C0.871361 77.8978 1.7343 78.0689 2.5395 78.4019C3.3447 78.735 4.07639 79.2234 4.69274 79.8394C5.30909 80.4553 5.79803 81.1867 6.13162 81.9916C6.46522 82.7966 6.63692 83.6594 6.63692 84.5308C6.63692 85.4022 6.46522 86.265 6.13162 87.07C5.79803 87.8749 5.30909 88.6063 4.69274 89.2222C4.07639 89.8382 3.3447 90.3266 2.5395 90.6597C1.7343 90.9927 0.871361 91.1638 0 91.1632V100.654C0.871361 100.653 1.7343 100.825 2.5395 101.158C3.3447 101.491 4.07639 101.979 4.69274 102.595C5.30909 103.211 5.79803 103.942 6.13162 104.747C6.46522 105.552 6.63692 106.415 6.63692 107.286C6.63692 108.158 6.46522 109.021 6.13162 109.826C5.79803 110.631 5.30909 111.362 4.69274 111.978C4.07639 112.594 3.3447 113.082 2.5395 113.415C1.7343 113.748 0.871361 113.92 0 113.919V123.41C0.871361 123.409 1.7343 123.58 2.5395 123.913C3.3447 124.246 4.07639 124.735 4.69274 125.351C5.30909 125.967 5.79803 126.698 6.13162 127.503C6.46522 128.308 6.63692 129.171 6.63692 130.042C6.63692 130.913 6.46522 131.776 6.13162 132.581C5.79803 133.386 5.30909 134.118 4.69274 134.734C4.07639 135.349 3.3447 135.838 2.5395 136.171C1.7343 136.504 0.871361 136.675 0 136.675V146.165C0.871326 146.165 1.73423 146.336 2.5394 146.669C3.34457 147.002 4.07622 147.49 4.69255 148.106C5.30887 148.722 5.7978 149.454 6.13138 150.258C6.46495 151.063 6.63664 151.926 6.63664 152.798C6.63664 153.669 6.46495 154.532 6.13138 155.337C5.7978 156.142 5.30887 156.873 4.69255 157.489C4.07622 158.105 3.34457 158.593 2.5394 158.926C1.73423 159.259 0.871326 159.43 0 159.43V168.921C0.871326 168.92 1.73423 169.092 2.5394 169.425C3.34457 169.758 4.07622 170.246 4.69255 170.862C5.30887 171.478 5.7978 172.209 6.13138 173.014C6.46495 173.819 6.63664 174.682 6.63664 175.553C6.63664 176.425 6.46495 177.287 6.13138 178.092C5.7978 178.897 5.30887 179.629 4.69255 180.244C4.07622 180.86 3.34457 181.349 2.5394 181.682C1.73423 182.015 0.871326 182.186 0 182.185V191.677C1.75896 191.677 3.44588 192.375 4.68966 193.619C5.93343 194.863 6.63218 196.55 6.63218 198.309C6.63218 200.068 5.93343 201.755 4.68966 202.998C3.44588 204.242 1.75896 204.941 0 204.941V214.432C0.871361 214.431 1.7343 214.602 2.5395 214.935C3.3447 215.268 4.07639 215.757 4.69274 216.373C5.30909 216.989 5.79803 217.72 6.13162 218.525C6.46522 219.33 6.63692 220.193 6.63692 221.064C6.63692 221.936 6.46522 222.798 6.13162 223.603C5.79803 224.408 5.30909 225.14 4.69274 225.756C4.07639 226.372 3.3447 226.86 2.5395 227.193C1.7343 227.526 0.871361 227.697 0 227.697V238.333H9.63192C9.63311 236.575 10.3324 234.889 11.5761 233.646C12.8197 232.404 14.506 231.706 16.2642 231.706C18.0225 231.706 19.7087 232.404 20.9524 233.646C22.1961 234.889 22.8954 236.575 22.8965 238.333H32.3876C32.3888 236.575 33.088 234.889 34.3317 233.646C35.5754 232.404 37.2617 231.706 39.0199 231.706C40.7781 231.706 42.4644 232.404 43.7081 233.646C44.9517 234.889 45.651 236.575 45.6522 238.333H55.1432C55.1444 236.575 55.8437 234.889 57.0874 233.646C58.331 232.404 60.0173 231.706 61.7755 231.706C63.5338 231.706 65.22 232.404 66.4637 233.646C67.7074 234.889 68.4067 236.575 68.4079 238.333H77.8986C77.8998 236.575 78.5991 234.889 79.8428 233.646C81.0865 232.404 82.7728 231.705 84.5311 231.705C86.2893 231.705 87.9756 232.404 89.2193 233.646C90.463 234.889 91.1623 236.575 91.1635 238.333H100.654C100.655 236.575 101.355 234.889 102.598 233.646C103.842 232.404 105.528 231.706 107.287 231.706C109.045 231.706 110.731 232.404 111.975 233.646C113.218 234.889 113.918 236.575 113.919 238.333H123.41C123.411 236.575 124.11 234.889 125.354 233.646C126.598 232.404 128.284 231.706 130.042 231.706C131.8 231.706 133.487 232.404 134.73 233.646C135.974 234.889 136.673 236.575 136.675 238.333H146.166C146.167 236.575 146.866 234.889 148.11 233.646C149.353 232.404 151.04 231.706 152.798 231.706C154.556 231.706 156.242 232.404 157.486 233.646C158.73 234.889 159.429 236.575 159.43 238.333H168.921C168.922 236.575 169.621 234.889 170.865 233.646C172.109 232.404 173.795 231.706 175.553 231.706C177.312 231.706 178.998 232.404 180.241 233.646C181.485 234.889 182.184 236.575 182.186 238.333H191.818V227.697C190.946 227.697 190.083 227.526 189.278 227.193C188.473 226.86 187.741 226.372 187.125 225.756C186.509 225.14 186.02 224.408 185.686 223.603C185.353 222.798 185.181 221.936 185.181 221.064C185.181 220.193 185.353 219.33 185.686 218.525C186.02 217.72 186.509 216.989 187.125 216.373C187.741 215.757 188.473 215.268 189.278 214.935C190.083 214.602 190.946 214.431 191.818 214.432V204.941C190.059 204.941 188.372 204.242 187.128 202.998C185.884 201.755 185.186 200.068 185.186 198.309C185.186 196.55 185.884 194.863 187.128 193.619C188.372 192.375 190.059 191.677 191.818 191.677V182.185C190.946 182.186 190.084 182.015 189.278 181.682C188.473 181.349 187.742 180.86 187.125 180.244C186.509 179.629 186.02 178.897 185.686 178.092C185.353 177.287 185.181 176.425 185.181 175.553C185.181 174.682 185.353 173.819 185.686 173.014C186.02 172.209 186.509 171.478 187.125 170.862C187.742 170.246 188.473 169.758 189.278 169.425C190.084 169.092 190.946 168.92 191.818 168.921V159.43C190.946 159.43 190.084 159.259 189.278 158.926C188.473 158.593 187.742 158.105 187.125 157.489C186.509 156.873 186.02 156.142 185.686 155.337C185.353 154.532 185.181 153.669 185.181 152.798C185.181 151.926 185.353 151.063 185.686 150.258C186.02 149.454 186.509 148.722 187.125 148.106C187.742 147.49 188.473 147.002 189.278 146.669C190.084 146.336 190.946 146.165 191.818 146.165V136.675C190.059 136.675 188.372 135.976 187.128 134.732C185.884 133.488 185.185 131.801 185.185 130.042C185.185 128.283 185.884 126.596 187.128 125.352C188.372 124.108 190.059 123.41 191.818 123.41V113.919C190.059 113.919 188.372 113.22 187.128 111.976C185.884 110.732 185.185 109.045 185.185 107.286C185.185 105.527 185.884 103.84 187.128 102.597C188.372 101.353 190.059 100.654 191.818 100.654V91.1632C190.946 91.1638 190.083 90.9927 189.278 90.6597C188.473 90.3266 187.741 89.8382 187.125 89.2222C186.509 88.6063 186.02 87.8749 185.686 87.07C185.353 86.265 185.181 85.4022 185.181 84.5308C185.181 83.6594 185.353 82.7966 185.686 81.9916C186.02 81.1867 186.509 80.4553 187.125 79.8394C187.741 79.2234 188.473 78.735 189.278 78.4019C190.083 78.0689 190.946 77.8978 191.818 77.8984V68.4076C190.946 68.4082 190.083 68.2371 189.278 67.904C188.473 67.571 187.741 67.0825 187.125 66.4666C186.509 65.8506 186.02 65.1193 185.686 64.3143C185.353 63.5093 185.181 62.6465 185.181 61.7751C185.181 60.9038 185.353 60.041 185.686 59.236C186.02 58.431 186.509 57.6996 187.125 57.0837C187.741 56.4678 188.473 55.9793 189.278 55.6463C190.083 55.3132 190.946 55.1421 191.818 55.1427V45.6519C190.947 45.6519 190.084 45.4804 189.28 45.1471C188.475 44.8138 187.744 44.3253 187.128 43.7094C186.512 43.0936 186.024 42.3624 185.69 41.5578C185.357 40.7531 185.186 39.8907 185.186 39.0197C185.186 38.1488 185.357 37.2864 185.69 36.4817C186.024 35.6771 186.512 34.9459 187.128 34.3301C187.744 33.7142 188.475 33.2257 189.28 32.8924C190.084 32.5591 190.947 32.3876 191.818 32.3876V22.8963C190.946 22.8968 190.084 22.7257 189.278 22.3927C188.473 22.0597 187.742 21.5712 187.125 20.9553C186.509 20.3394 186.02 19.6081 185.686 18.8031C185.353 17.9982 185.181 17.1354 185.181 16.2641C185.181 15.3927 185.353 14.53 185.686 13.725C186.02 12.9201 186.509 12.1887 187.125 11.5728C187.742 10.9569 188.473 10.4685 189.278 10.1355C190.084 9.80242 190.946 9.63132 191.818 9.63191Z" fill="#ECCD29"/>
  </g>
</svg>